<?xml version="1.0" encoding="iso-8859-1"?>
<!-- Generator: Adobe Illustrator 18.1.1, SVG Export Plug-In . SVG Version: 6.00 Build 0)  -->
<svg version="1.1" id="Capa_1" xmlns="http://www.w3.org/2000/svg" xmlns:xlink="http://www.w3.org/1999/xlink" x="0px" y="0px"
	 viewBox="0 0 197.579 197.579" style="enable-background:new 0 0 197.579 197.579;" xml:space="preserve">
<g>
	<g>
		<path style="fill:#010002;" d="M193.676,158.873l-31.172-31.197c-2.434-2.419-5.812-3.754-9.523-3.754
			c-3.908,0-7.677,1.525-10.346,4.191l-16.856,16.856l-4.556-2.53c-10.01-5.558-23.728-13.17-38.226-27.675
			c-14.544-14.534-22.171-28.287-27.736-38.34l-2.491-4.427l16.874-16.878c5.59-5.601,5.783-14.516,0.429-19.881L38.88,4.059
			c-2.423-2.423-5.805-3.761-9.516-3.761c-3.901,0-7.677,1.528-10.35,4.202l-7.655,7.698l-0.709,1.177
			c-2.856,3.654-5.182,7.766-6.929,12.243c-1.625,4.266-2.638,8.321-3.106,12.39C-3.4,71.42,12.01,102.098,53.811,143.896
			c49.549,49.535,90.953,53.386,102.459,53.386c1.976,0,3.174-0.104,3.5-0.136c4.262-0.519,8.321-1.542,12.429-3.132
			c4.427-1.729,8.532-4.044,12.172-6.896l1.743-1.371l7.168-7.032C198.851,173.131,199.034,164.231,193.676,158.873z
			 M189.403,174.864l-5.519,5.451c-2.605,2.502-7.09,6.041-13.657,8.607c-3.711,1.424-7.333,2.337-11.084,2.781
			c-0.204,0.025-1.052,0.082-2.416,0.082c-11.094,0-51.017-3.733-99.041-51.754C10.392,92.747,2.845,65.308,6.051,38.653
			c0.415-3.64,1.324-7.261,2.756-11.062c2.609-6.635,6.134-11.116,8.632-13.703l5.44-5.511c1.675-1.678,4.051-2.645,6.503-2.645
			c2.226,0,4.23,0.784,5.644,2.205l31.183,31.172c3.221,3.228,3.031,8.682-0.422,12.154L46.313,70.719l-0.394,0.397l1.088,1.829
			c1.084,1.836,2.233,3.897,3.475,6.148c5.73,10.332,13.582,24.479,28.645,39.546c15.106,15.092,29.2,22.897,39.496,28.606
			c2.337,1.296,4.377,2.43,6.188,3.507l1.829,1.088l19.855-19.859c1.682-1.664,4.041-2.62,6.488-2.62c2.23,0,4.248,0.78,5.662,2.201
			l31.172,31.157C193.028,165.963,192.842,171.41,189.403,174.864z"/>
		<polygon style="fill:#010002;" points="89.439,68.003 128.015,68.003 128.015,106.586 131.569,106.586 131.569,68.003 
			170.156,68.003 170.156,64.449 131.569,64.449 131.569,25.865 128.015,25.865 128.022,64.449 89.439,64.449 		"/>
	</g>
</g>
<g>
</g>
<g>
</g>
<g>
</g>
<g>
</g>
<g>
</g>
<g>
</g>
<g>
</g>
<g>
</g>
<g>
</g>
<g>
</g>
<g>
</g>
<g>
</g>
<g>
</g>
<g>
</g>
<g>
</g>
</svg>
