<?xml version="1.0" encoding="iso-8859-1"?>
<!-- Generator: Adobe Illustrator 18.1.1, SVG Export Plug-In . SVG Version: 6.00 Build 0)  -->
<svg version="1.1" id="Capa_1" xmlns="http://www.w3.org/2000/svg" xmlns:xlink="http://www.w3.org/1999/xlink" x="0px" y="0px"
	 viewBox="0 0 196.531 196.531" style="enable-background:new 0 0 196.531 196.531;" xml:space="preserve">
<g>
	<g>
		<g>
			<path style="fill:#010002;" d="M26.736,148.665h141.923V47.802H26.736V148.665z M29.534,50.604h136.318v95.255H29.534
				C29.534,145.859,29.534,50.604,29.534,50.604z"/>
		</g>
		<g>
			<path style="fill:#010002;" d="M192.773,124.583V71.949c1.313-3.536,8.063-23.316-0.551-36.021
				c-7.977-11.764-26.097-13.503-53.855-4.914c-4.062-2.398-18.163-9.548-42.445-9.548c-23.313,0-34.378,6.667-37.997,9.473
				C30.293,22.435,12.259,24.2,4.303,35.931c-8.611,12.705-1.861,32.482-0.544,36.018v52.631
				c-1.317,3.536-8.063,23.316,0.551,36.025c7.952,11.724,25.986,13.489,53.611,4.992c3.618,2.806,14.684,9.47,37.997,9.47
				c24.283,0,38.387-7.143,42.445-9.548c11.592,3.593,21.598,5.408,29.751,5.408c11.359,0,19.465-3.468,24.111-10.318
				C200.84,147.895,194.09,128.119,192.773,124.583z M187.584,157.472c-6.51,9.573-23.373,10.368-48.769,2.319l-1.317-0.419
				l-1.134,0.787c-0.129,0.097-13.618,9.309-40.441,9.309c-26.169,0-35.255-8.872-35.327-8.94l-1.206-1.263l-1.671,0.526
				c-25.385,8.049-42.255,7.261-48.762-2.319c-7.627-11.23,0.125-31.129,0.208-31.336l0.197-0.494V70.893l-0.197-0.501
				C9.085,70.195,1.308,50.34,8.945,39.077c6.496-9.588,23.37-10.386,48.773-2.33l1.653,0.497l1.206-1.213
				c0.089-0.089,9.176-8.954,35.345-8.954c26.655,0,40.312,9.216,40.441,9.301l1.134,0.795l1.317-0.422
				c25.392-8.049,42.259-7.261,48.762,2.319c7.627,11.23-0.125,31.132-0.208,31.333l-0.197,0.497v54.749l0.197,0.505
				C187.451,126.344,195.203,146.242,187.584,157.472z"/>
		</g>
		<g>
			<path style="fill:#010002;" d="M125.505,94.499h-24.039V70.46c0-2.083-1.689-3.765-3.769-3.765c-2.09,0-3.772,1.686-3.772,3.765
				v24.039H69.893c-2.09,0-3.772,1.689-3.772,3.765c0,2.086,1.682,3.772,3.772,3.772h24.032v24.036c0,2.09,1.682,3.772,3.772,3.772
				c2.083,0,3.769-1.682,3.769-3.772v-24.036h24.039c2.079,0,3.769-1.689,3.769-3.772C129.273,96.188,127.584,94.499,125.505,94.499
				z"/>
		</g>
	</g>
</g>
<g>
</g>
<g>
</g>
<g>
</g>
<g>
</g>
<g>
</g>
<g>
</g>
<g>
</g>
<g>
</g>
<g>
</g>
<g>
</g>
<g>
</g>
<g>
</g>
<g>
</g>
<g>
</g>
<g>
</g>
</svg>
