<?xml version="1.0" encoding="iso-8859-1"?>
<!-- Generator: Adobe Illustrator 18.1.1, SVG Export Plug-In . SVG Version: 6.00 Build 0)  -->
<svg version="1.1" id="Capa_1" xmlns="http://www.w3.org/2000/svg" xmlns:xlink="http://www.w3.org/1999/xlink" x="0px" y="0px"
	 viewBox="0 0 196.207 196.207" style="enable-background:new 0 0 196.207 196.207;" xml:space="preserve">
<g>
	<path style="fill:#010002;" d="M184.497,86.395h-74.676V11.708c0-6.474-5.232-11.706-11.717-11.706
		c-6.481,0-11.717,5.236-11.717,11.706v74.687H11.717C5.229,86.395,0,91.635,0,98.105c0,6.467,5.232,11.703,11.717,11.703h74.666
		v74.687c0,6.474,5.239,11.71,11.717,11.71c6.488,0,11.717-5.239,11.717-11.71v-74.683h74.68c6.481,0,11.71-5.236,11.71-11.703
		C196.207,91.635,190.975,86.395,184.497,86.395z"/>
</g>
<g>
</g>
<g>
</g>
<g>
</g>
<g>
</g>
<g>
</g>
<g>
</g>
<g>
</g>
<g>
</g>
<g>
</g>
<g>
</g>
<g>
</g>
<g>
</g>
<g>
</g>
<g>
</g>
<g>
</g>
</svg>
