<?xml version="1.0" encoding="iso-8859-1"?>
<!-- Generator: Adobe Illustrator 18.1.1, SVG Export Plug-In . SVG Version: 6.00 Build 0)  -->
<svg version="1.1" id="Capa_1" xmlns="http://www.w3.org/2000/svg" xmlns:xlink="http://www.w3.org/1999/xlink" x="0px" y="0px"
	 viewBox="0 0 199.448 199.448" style="enable-background:new 0 0 199.448 199.448;" xml:space="preserve">
<g>
	<g>
		<g>
			<path style="fill:#010002;" d="M189.781,101.431c0-49.331-40.126-89.461-89.461-89.461c-49.331,0-89.468,40.126-89.468,89.461
				c0,28.663,13.56,54.202,34.59,70.589l-21.831,21.835c-1.26,1.249-1.26,3.285,0,4.545c0.63,0.63,1.449,0.938,2.265,0.938
				c0.83,0,1.65-0.308,2.28-0.938l22.547-22.554c14.208,9.498,31.272,15.056,49.617,15.056c19.487,0,37.517-6.281,52.23-16.899
				l24.383,24.393c0.63,0.63,1.446,0.938,2.276,0.938c0.82,0,1.639-0.308,2.269-0.938c1.26-1.26,1.26-3.296,0-4.545l-23.81-23.821
				C177.28,153.614,189.781,128.959,189.781,101.431z M100.321,184.478c-45.795,0-83.047-37.249-83.047-83.047
				c0-45.788,37.249-83.036,83.047-83.036c45.788,0,83.036,37.249,83.036,83.036C183.357,147.226,146.112,184.478,100.321,184.478z"
				/>
		</g>
		<g>
			<path style="fill:#010002;" d="M13.218,65.02c0.247,0,0.487-0.029,0.727-0.075c1.077-0.247,1.954-1.038,2.316-2.086
				c0.068-0.172,6.277-17.905,18.134-29.751c11.778-11.789,28.026-16.62,28.187-16.667c1.088-0.311,1.936-1.192,2.212-2.287
				c0.286-1.095-0.029-2.269-0.837-3.067C56.877,4.004,47.472,0.11,37.454,0.11c-10.014,0-19.419,3.897-26.498,10.976
				c-14.609,14.609-14.609,38.383,0,52.999C11.561,64.687,12.381,65.02,13.218,65.02z M15.495,15.632
				C21.353,9.762,29.159,6.53,37.447,6.53c6.51,0,12.712,1.993,17.916,5.68c-6.277,2.527-16.849,7.68-25.517,16.341
				c-8.94,8.94-14.788,20.553-17.64,27.121C3.509,43.55,4.604,26.511,15.495,15.632z"/>
		</g>
		<g>
			<path style="fill:#010002;" d="M136.846,16.44c0.165,0.05,16.37,4.842,28.187,16.667c11.857,11.846,18.08,29.579,18.134,29.751
				c0.365,1.049,1.238,1.84,2.312,2.086c0.24,0.05,0.48,0.075,0.727,0.075c0.837,0,1.657-0.333,2.269-0.934
				c7.079-7.079,10.973-16.495,10.973-26.509c0-10.003-3.897-19.412-10.973-26.491C181.392,4.004,171.991,0.11,161.973,0.11
				c-10.014,0-19.419,3.897-26.498,10.976c-0.802,0.802-1.124,1.972-0.837,3.067C134.914,15.259,135.762,16.129,136.846,16.44z
				 M161.977,6.53c8.289,0,16.094,3.232,21.956,9.101c5.873,5.862,9.101,13.653,9.101,21.946c0,6.596-2.04,12.866-5.812,18.095
				c-2.852-6.556-8.704-18.17-17.64-27.121c-8.661-8.661-19.229-13.818-25.521-16.341C149.265,8.524,155.467,6.53,161.977,6.53z"/>
		</g>
		<g>
			<path style="fill:#010002;" d="M101.172,36.128c-1.782,0-3.221,1.439-3.221,3.21v58.879h-52.58c-1.772,0-3.21,1.439-3.21,3.221
				c0,1.772,1.439,3.21,3.21,3.21h55.801c1.772,0,3.21-1.439,3.21-3.21v-62.1C104.383,37.566,102.94,36.128,101.172,36.128z"/>
		</g>
	</g>
</g>
<g>
</g>
<g>
</g>
<g>
</g>
<g>
</g>
<g>
</g>
<g>
</g>
<g>
</g>
<g>
</g>
<g>
</g>
<g>
</g>
<g>
</g>
<g>
</g>
<g>
</g>
<g>
</g>
<g>
</g>
</svg>
