<?xml version="1.0" encoding="iso-8859-1"?>
<!-- Generator: Adobe Illustrator 18.1.1, SVG Export Plug-In . SVG Version: 6.00 Build 0)  -->
<svg version="1.1" id="Capa_1" xmlns="http://www.w3.org/2000/svg" xmlns:xlink="http://www.w3.org/1999/xlink" x="0px" y="0px"
	 viewBox="0 0 201.611 201.611" style="enable-background:new 0 0 201.611 201.611;" xml:space="preserve">
<g>
	<g>
		<g>
			<g>
				<path style="fill:#010002;" d="M0,39.092v123.427h201.611V39.092H0z M195.244,156.152H6.367V45.459h188.874v110.694H195.244z"/>
			</g>
		</g>
	</g>
	<g>
		<g>
			<path style="fill:#010002;" d="M39.779,106.435l-4.538,9.538h-5.837l14.859-30.338h6.807l14.927,30.338H59.96l-4.67-9.538H39.779
				z M54.123,103.372l-4.284-8.732c-0.97-1.983-1.621-3.779-2.269-5.529h-0.132c-0.651,1.797-1.356,3.647-2.205,5.486l-4.287,8.779
				h13.177V103.372z"/>
			<path style="fill:#010002;" d="M104.18,102.659c-0.329-4.245-0.727-9.319-0.662-13.102h-0.19
				c-1.496,3.547-3.303,7.337-5.519,11.524l-7.723,14.716h-4.284l-7.072-14.455c-2.072-4.273-3.822-8.196-5.057-11.789h-0.132
				c-0.132,3.779-0.451,8.858-0.848,13.41l-1.156,13.009h-5.397l3.053-30.338h7.204l7.458,14.673
				c1.829,3.736,3.318,7.075,4.416,10.214h0.2c1.102-3.053,2.656-6.388,4.606-10.214l7.788-14.673h7.204l2.72,30.338h-5.508
				L104.18,102.659z"/>
			<path style="fill:#010002;" d="M137.285,101.754h-17v10.941h18.95v3.282h-24.587V85.638h23.62v3.282h-17.98v9.595h17v3.239
				H137.285z"/>
			<path style="fill:#010002;" d="M165.665,115.973l-5.587-6.707c-2.273-2.57-3.701-4.234-5.068-5.984h-0.122
				c-1.235,1.75-2.466,3.371-4.735,6.027l-5.268,6.664h-6.488l13.374-15.346l-12.844-14.992h6.553l5.773,7.118
				c1.618,1.972,2.852,3.504,4.019,5.132h0.2c1.224-1.804,2.333-3.207,3.955-5.132l5.97-7.118h6.488l-13.299,14.763l13.618,15.575
				H165.665z"/>
		</g>
	</g>
</g>
<g>
</g>
<g>
</g>
<g>
</g>
<g>
</g>
<g>
</g>
<g>
</g>
<g>
</g>
<g>
</g>
<g>
</g>
<g>
</g>
<g>
</g>
<g>
</g>
<g>
</g>
<g>
</g>
<g>
</g>
</svg>
