<?xml version="1.0" encoding="iso-8859-1"?>
<!-- Generator: Adobe Illustrator 18.1.1, SVG Export Plug-In . SVG Version: 6.00 Build 0)  -->
<svg version="1.1" id="Capa_1" xmlns="http://www.w3.org/2000/svg" xmlns:xlink="http://www.w3.org/1999/xlink" x="0px" y="0px"
	 viewBox="0 0 204.728 204.728" style="enable-background:new 0 0 204.728 204.728;" xml:space="preserve">
<g>
	<path style="fill:#010002;" d="M178.769,143.927c-0.515-0.644-1.249-1.052-2.061-1.145l-16.237-1.961
		c-0.175-0.021-0.322-0.036-0.465-0.036c-1.142,0-2.172,0.673-2.698,1.754c-0.576,1.188-0.34,2.609,0.594,3.539
		c5.848,5.855,7.956,11.352,6.442,16.788c-5.146,18.517-48.848,31.863-57.555,34.357l-1.317,0.372V92.402h20.686v-6.199H105.47
		v-37.51l0.863-0.143c11.882-1.95,20.503-12.075,20.503-24.079C126.836,10.976,115.863,0,102.364,0
		C88.868,0,77.888,10.98,77.888,24.472c0,12,8.621,22.124,20.503,24.079l0.873,0.143v37.51H78.575v6.199h20.689v105.204
		l-1.324-0.376c-8.711-2.491-52.409-15.844-57.555-34.35c-1.507-5.451,0.598-10.944,6.438-16.785
		c0.941-0.934,1.181-2.362,0.601-3.55c-0.558-1.163-1.782-1.872-3.131-1.721l-16.259,1.965c-0.823,0.093-1.557,0.505-2.072,1.152
		c-0.512,0.651-0.741,1.464-0.644,2.29c0.186,1.539,1.496,2.741,2.981,2.741c0.147,0,0.29-0.007,0.412-0.032l8.561-1.031
		l-0.948,1.764c-2.648,4.907-3.289,9.917-1.911,14.884c6.785,24.383,61.044,38.559,67.225,40.094
		c0.225,0.05,0.465,0.075,0.701,0.075c0.251,0,0.512-0.029,0.795-0.089c6.163-1.532,60.4-15.69,67.182-40.09
		c1.381-4.96,0.734-9.967-1.911-14.874l-0.952-1.764l8.489,1.027c0.193,0.029,0.333,0.036,0.472,0.036
		c1.492,0,2.806-1.202,2.992-2.752C179.513,145.398,179.284,144.593,178.769,143.927z M102.364,21.376
		c-1.711,0-3.103,1.392-3.103,3.099v18.009l-1.288-0.322c-8.178-2.026-13.882-9.298-13.882-17.687
		c0-10.074,8.199-18.274,18.274-18.274c10.078,0,18.277,8.199,18.277,18.274c0,8.389-5.715,15.661-13.897,17.687l-1.278,0.322
		V24.476C105.467,22.769,104.074,21.376,102.364,21.376z"/>
</g>
<g>
</g>
<g>
</g>
<g>
</g>
<g>
</g>
<g>
</g>
<g>
</g>
<g>
</g>
<g>
</g>
<g>
</g>
<g>
</g>
<g>
</g>
<g>
</g>
<g>
</g>
<g>
</g>
<g>
</g>
</svg>
