<?xml version="1.0" encoding="iso-8859-1"?>
<!-- Generator: Adobe Illustrator 18.1.1, SVG Export Plug-In . SVG Version: 6.00 Build 0)  -->
<svg version="1.1" id="Capa_1" xmlns="http://www.w3.org/2000/svg" xmlns:xlink="http://www.w3.org/1999/xlink" x="0px" y="0px"
	 viewBox="0 0 200.133 200.133" style="enable-background:new 0 0 200.133 200.133;" xml:space="preserve">
<g>
	<path style="fill:#010002;" d="M176.643,171.388l-67.719-67.719V91.207H96.463L28.751,23.495V0H0.005v28.745h23.499L67.349,72.59
		c-13.632-7.451-28.348-12.411-43.834-14.763l-0.795-0.118l-1.12,7.337l0.798,0.122c26.398,4.012,50.183,15.901,68.811,34.389v9.362
		h8.5c0.251,0.293,0.515,0.583,0.766,0.873c0.429,0.483,0.863,0.97,1.26,1.482c19.215,24.834,27.26,55.197,22.661,85.499
		l-0.125,0.802l7.344,1.113l0.118-0.791c3.879-25.574-0.605-50.995-12.984-73.896l52.638,52.634v23.499h28.742v-28.742h-23.484
		V171.388z M178.815,192.7v-8.654l4.896,4.907l5.247-5.257l-4.892-4.892h8.65V192.7C192.716,192.7,178.815,192.7,178.815,192.7z
		 M21.325,7.426v8.643l-4.892-4.889l-5.247,5.239l4.896,4.899h-8.65V7.426H21.325z"/>
</g>
<g>
</g>
<g>
</g>
<g>
</g>
<g>
</g>
<g>
</g>
<g>
</g>
<g>
</g>
<g>
</g>
<g>
</g>
<g>
</g>
<g>
</g>
<g>
</g>
<g>
</g>
<g>
</g>
<g>
</g>
</svg>
