<?xml version="1.0" encoding="iso-8859-1"?>
<!-- Generator: Adobe Illustrator 18.1.1, SVG Export Plug-In . SVG Version: 6.00 Build 0)  -->
<svg version="1.1" id="Capa_1" xmlns="http://www.w3.org/2000/svg" xmlns:xlink="http://www.w3.org/1999/xlink" x="0px" y="0px"
	 viewBox="0 0 197.438 197.438" style="enable-background:new 0 0 197.438 197.438;" xml:space="preserve">
<g>
	<g>
		<polygon style="fill:#010002;" points="126.53,51.124 122.755,54.896 163.901,96.042 28.566,96.042 28.566,101.389 
			163.901,101.389 122.755,142.535 126.53,146.314 174.136,98.719 		"/>
		<path style="fill:#010002;" d="M98.719,0.004C44.285,0.004,0,44.285,0,98.719c0,54.438,44.285,98.715,98.719,98.715
			c54.431,0,98.719-44.278,98.719-98.715C197.438,44.285,153.15,0.004,98.719,0.004z M98.719,192.771
			c-51.861,0-94.056-42.195-94.056-94.052S46.858,4.667,98.719,4.667s94.056,42.191,94.056,94.052
			C192.775,150.577,150.58,192.771,98.719,192.771z"/>
	</g>
</g>
<g>
</g>
<g>
</g>
<g>
</g>
<g>
</g>
<g>
</g>
<g>
</g>
<g>
</g>
<g>
</g>
<g>
</g>
<g>
</g>
<g>
</g>
<g>
</g>
<g>
</g>
<g>
</g>
<g>
</g>
</svg>
