<?xml version="1.0" encoding="iso-8859-1"?>
<!-- Generator: Adobe Illustrator 18.1.1, SVG Export Plug-In . SVG Version: 6.00 Build 0)  -->
<svg version="1.1" id="Capa_1" xmlns="http://www.w3.org/2000/svg" xmlns:xlink="http://www.w3.org/1999/xlink" x="0px" y="0px"
	 viewBox="0 0 205.949 205.949" style="enable-background:new 0 0 205.949 205.949;" xml:space="preserve">
<g>
	<g>
		<g>
			<path style="fill:#010002;" d="M175.51,86.676c0,1.639-0.748,5.461-7.68,5.461h-31.823v105.318
				c0.047,0.286,0.089,0.676,0.089,1.145c0,1.868-0.712,3.597-2.015,4.864c-1.686,1.65-4.252,2.484-7.652,2.484H77.525
				c-6.768,0-8.553-4.799-8.553-7.333V94.353H39.804c-8.149,0-9.366-3.883-9.366-6.195c0-3.704,3.529-7.405,4.237-8.11
				c1.868-2.534,52.43-69.601,59.792-76.974c2.677-2.67,5.372-3.142,7.161-3.067c4.287,0.175,7.222,3.482,7.537,3.865l61.735,74.587
				C171.792,79.272,175.51,83.069,175.51,86.676z M130.102,198.226l0.004-0.497V86.236h37.725c0.744,0,1.256-0.057,1.593-0.122
				c-0.447-0.956-1.646-2.516-2.824-3.633l-61.95-74.823c-0.387-0.44-1.818-1.718-3.285-1.761c-0.895-0.032-1.786,0.408-2.724,1.346
				c-7.072,7.083-59.005,75.975-59.527,76.67c-1.507,1.546-2.695,3.389-2.77,4.169c0.136-0.036,1.013,0.372,3.461,0.372H74.87
				v110.132c0.039,0.97,0.931,1.464,2.656,1.464h48.912c2.509,0,3.335-0.612,3.522-0.802c0.075-0.072,0.24-0.236,0.24-0.655
				L130.102,198.226z"/>
		</g>
	</g>
</g>
<g>
</g>
<g>
</g>
<g>
</g>
<g>
</g>
<g>
</g>
<g>
</g>
<g>
</g>
<g>
</g>
<g>
</g>
<g>
</g>
<g>
</g>
<g>
</g>
<g>
</g>
<g>
</g>
<g>
</g>
</svg>
