<?xml version="1.0" encoding="iso-8859-1"?>
<!-- Generator: Adobe Illustrator 18.1.1, SVG Export Plug-In . SVG Version: 6.00 Build 0)  -->
<svg version="1.1" id="Capa_1" xmlns="http://www.w3.org/2000/svg" xmlns:xlink="http://www.w3.org/1999/xlink" x="0px" y="0px"
	 viewBox="0 0 204.045 204.045" style="enable-background:new 0 0 204.045 204.045;" xml:space="preserve">
<g>
	<g>
		<path style="fill:#010002;" d="M5.239,97.656c0-23.577,19.186-42.764,42.771-42.764h146.661l-38.931,38.931l3.461,3.461
			l44.843-44.843L159.202,7.601l-3.461,3.464l38.931,38.924H48.01c-26.287,0-47.663,21.387-47.663,47.663v0.494h4.896v-0.49H5.239z"
			/>
		<path style="fill:#010002;" d="M198.805,106.388c0,23.577-19.19,42.764-42.767,42.764H9.377l38.931-38.931l-3.461-3.461L0,151.604
			l44.843,44.839l3.461-3.468L9.377,154.052h146.661c26.283,0,47.663-21.387,47.663-47.663v-0.494h-4.896V106.388z"/>
	</g>
</g>
<g>
</g>
<g>
</g>
<g>
</g>
<g>
</g>
<g>
</g>
<g>
</g>
<g>
</g>
<g>
</g>
<g>
</g>
<g>
</g>
<g>
</g>
<g>
</g>
<g>
</g>
<g>
</g>
<g>
</g>
</svg>
