<?xml version="1.0" encoding="iso-8859-1"?>
<!-- Generator: Adobe Illustrator 18.1.1, SVG Export Plug-In . SVG Version: 6.00 Build 0)  -->
<svg version="1.1" id="Capa_1" xmlns="http://www.w3.org/2000/svg" xmlns:xlink="http://www.w3.org/1999/xlink" x="0px" y="0px"
	 viewBox="0 0 195.527 195.527" style="enable-background:new 0 0 195.527 195.527;" xml:space="preserve">
<g>
	<g>
		<path style="fill:#010002;" d="M195.527,75.891h-16.982V53.774H0v87.979h178.545v-29.024h16.982
			C195.527,112.728,195.527,75.891,195.527,75.891z M174.53,137.737H4.015V57.786H174.53v18.105v36.834V137.737z M191.511,108.713
			h-12.966v-28.81h12.966V108.713z"/>
		<path style="fill:#010002;" d="M12.311,129.71h29.772V63.806H12.311V129.71z M16.323,67.817h21.745v57.874H16.323V67.817z"/>
		<path style="fill:#010002;" d="M50.712,129.71h29.769V63.806H50.712V129.71z M54.728,67.817h21.742v57.874H54.728
			C54.728,125.691,54.728,67.817,54.728,67.817z"/>
	</g>
</g>
<g>
</g>
<g>
</g>
<g>
</g>
<g>
</g>
<g>
</g>
<g>
</g>
<g>
</g>
<g>
</g>
<g>
</g>
<g>
</g>
<g>
</g>
<g>
</g>
<g>
</g>
<g>
</g>
<g>
</g>
</svg>
