<?xml version="1.0" encoding="iso-8859-1"?>
<!-- Generator: Adobe Illustrator 18.1.1, SVG Export Plug-In . SVG Version: 6.00 Build 0)  -->
<svg version="1.1" id="Capa_1" xmlns="http://www.w3.org/2000/svg" xmlns:xlink="http://www.w3.org/1999/xlink" x="0px" y="0px"
	 viewBox="0 0 198.175 198.175" style="enable-background:new 0 0 198.175 198.175;" xml:space="preserve">
<g>
	<g>
		<path style="fill:#010002;" d="M198.175,76.92h-17.214V54.502H0v89.171h180.957v-29.422h17.214V76.92H198.175z M176.892,139.604
			H4.069V58.571h172.823V76.92v37.331V139.604z M194.106,110.186h-13.145V80.989h13.145V110.186z"/>
		<path style="fill:#010002;" d="M12.476,131.466h30.177V64.67H12.476V131.466z M16.549,68.739h22.039v58.657H16.549V68.739z"/>
		<path style="fill:#010002;" d="M51.399,131.466h30.173V64.67H51.399V131.466z M55.469,68.739h22.035v58.657H55.469V68.739z"/>
		<path style="fill:#010002;" d="M92.42,131.466h30.177V64.67H92.42C92.42,64.67,92.42,131.466,92.42,131.466z M96.489,68.739
			h22.042v58.657H96.489C96.489,127.396,96.489,68.739,96.489,68.739z"/>
		<path style="fill:#010002;" d="M133.616,131.466h30.18V64.67h-30.18V131.466z M137.689,68.739h22.039v58.657h-22.039V68.739z"/>
	</g>
</g>
<g>
</g>
<g>
</g>
<g>
</g>
<g>
</g>
<g>
</g>
<g>
</g>
<g>
</g>
<g>
</g>
<g>
</g>
<g>
</g>
<g>
</g>
<g>
</g>
<g>
</g>
<g>
</g>
<g>
</g>
</svg>
