<?xml version="1.0" encoding="iso-8859-1"?>
<!-- Generator: Adobe Illustrator 18.1.1, SVG Export Plug-In . SVG Version: 6.00 Build 0)  -->
<svg version="1.1" id="Capa_1" xmlns="http://www.w3.org/2000/svg" xmlns:xlink="http://www.w3.org/1999/xlink" x="0px" y="0px"
	 viewBox="0 0 205.329 205.329" style="enable-background:new 0 0 205.329 205.329;" xml:space="preserve">
<g>
	<g>
		<path style="fill:#010002;" d="M187.5,68.522V45.296h-36.615l-3.736,4.216h36.139v19.011v38.684v26.269H92.506l-3.93,4.216H187.5
			v-30.485h17.83V68.522H187.5z M201.117,102.99H187.5V72.742h13.618V102.99z"/>
		<polygon style="fill:#010002;" points="53.382,133.471 4.216,133.471 4.216,49.512 79.712,49.512 83.244,45.299 0,45.299 
			0,137.687 50.458,137.687 		"/>
		<path style="fill:#010002;" d="M138.437,70.294c-0.268-0.608-0.863-0.988-1.521-0.988h-18.589L150.24,33.26
			c0.433-0.49,0.537-1.192,0.272-1.779c-0.268-0.598-0.866-0.977-1.517-0.977H110.35c-0.497,0-0.959,0.222-1.274,0.601
			L61.875,87.483c-0.412,0.49-0.508,1.181-0.233,1.757c0.272,0.594,0.855,0.97,1.503,0.97h34.081l-56.986,82.002
			c-0.494,0.716-0.354,1.696,0.326,2.24c0.308,0.243,0.673,0.372,1.041,0.372c0.44,0,0.888-0.183,1.21-0.526l95.305-102.205
			C138.577,71.611,138.695,70.895,138.437,70.294z M56.159,155.113l45.602-65.615c0.351-0.515,0.394-1.17,0.107-1.725
			c-0.29-0.548-0.848-0.88-1.467-0.88H66.695l44.435-53.074h34.189l-31.916,36.043c-0.437,0.49-0.537,1.181-0.268,1.782
			c0.268,0.591,0.855,0.97,1.507,0.97h18.46L56.159,155.113z"/>
	</g>
</g>
<g>
</g>
<g>
</g>
<g>
</g>
<g>
</g>
<g>
</g>
<g>
</g>
<g>
</g>
<g>
</g>
<g>
</g>
<g>
</g>
<g>
</g>
<g>
</g>
<g>
</g>
<g>
</g>
<g>
</g>
</svg>
