<?xml version="1.0" encoding="iso-8859-1"?>
<!-- Generator: Adobe Illustrator 18.1.1, SVG Export Plug-In . SVG Version: 6.00 Build 0)  -->
<svg version="1.1" id="Capa_1" xmlns="http://www.w3.org/2000/svg" xmlns:xlink="http://www.w3.org/1999/xlink" x="0px" y="0px"
	 viewBox="0 0 202.949 202.949" style="enable-background:new 0 0 202.949 202.949;" xml:space="preserve">
<g>
	<g>
		<path style="fill:#010002;" d="M202.949,78.774H185.32V55.816H0v91.318h185.316v-30.127h17.629V78.774H202.949z M181.154,142.968
			H4.169V59.982h176.985v18.789v38.236V142.968z M198.78,112.841h-13.464V82.943h13.464V112.841z"/>
		<path style="fill:#010002;" d="M12.776,134.633H43.68V66.23H12.776V134.633z M16.946,70.396h22.572v60.071H16.946V70.396z"/>
		<path style="fill:#010002;" d="M52.638,134.633h30.9V66.23h-30.9V134.633z M56.807,70.396h22.568v60.071H56.807V70.396z"/>
		<path style="fill:#010002;" d="M94.231,134.633h30.903V66.23H94.231V134.633z M98.401,70.396h22.572v60.071H98.401
			C98.401,130.467,98.401,70.396,98.401,70.396z"/>
	</g>
</g>
<g>
</g>
<g>
</g>
<g>
</g>
<g>
</g>
<g>
</g>
<g>
</g>
<g>
</g>
<g>
</g>
<g>
</g>
<g>
</g>
<g>
</g>
<g>
</g>
<g>
</g>
<g>
</g>
<g>
</g>
</svg>
