<?xml version="1.0" encoding="iso-8859-1"?>
<!-- Generator: Adobe Illustrator 18.1.1, SVG Export Plug-In . SVG Version: 6.00 Build 0)  -->
<svg version="1.1" id="Capa_1" xmlns="http://www.w3.org/2000/svg" xmlns:xlink="http://www.w3.org/1999/xlink" x="0px" y="0px"
	 viewBox="0 0 205.362 205.362" style="enable-background:new 0 0 205.362 205.362;" xml:space="preserve">
<g>
	<g>
		<path style="fill:#010002;" d="M74.159,56.431c1.421,11.116-13.915,24.293-19.949,28.427l3.429,5.01
			c1.013-0.691,24.737-17.139,22.536-34.214L74.159,56.431z"/>
		<path style="fill:#010002;" d="M189.642,118.081c8.085-26.72-17.264-66.062-18.345-67.73l-0.605-0.92l-1.056-0.322
			c-13.106-4.026-18.277-6.646-20.281-7.984c1.324-0.376,3.264-0.705,5.043-0.82l2.53-0.157l0.304-2.516
			c1.367-11.574-0.83-20.7-6.542-27.124C144.494,3.536,134.52,0,121.064,0c-8.353,0-15.568,1.392-18.385,2.015
			C99.866,1.392,92.644,0,84.302,0C70.838,0,60.871,3.536,54.672,10.508c-5.712,6.424-7.909,15.547-6.542,27.124l0.301,2.516
			l2.523,0.157c1.779,0.115,3.729,0.444,5.057,0.82c-2.004,1.342-7.179,3.958-20.296,7.984l-1.045,0.322l-0.605,0.92
			c-1.088,1.664-26.437,41.01-18.342,67.73c2.144,7.072,6.403,12.612,12.698,16.556c-4.699,3.264-11.037,9.241-11.481,17.923
			c-0.601,11.953,10.314,24.508,32.453,37.324c2.219,1.84,19.172,15.479,34.747,15.479c5.787,0,13.181-1.943,18.538-10.15
			c5.365,8.206,12.759,10.15,18.546,10.15c15.575,0,32.528-13.643,34.736-15.479c22.139-12.816,33.054-25.37,32.449-37.324
			c-0.429-8.682-6.778-14.659-11.477-17.923C183.228,130.692,187.494,125.149,189.642,118.081z M84.137,199.288
			c-9.87-0.004-21.019-6.886-26.891-11.073c7.598-3.93,23.012-13.027,23.86-22.611l-6.045-0.533
			c-0.548,6.224-14.237,14.809-23.356,19.122c-19.218-11.255-29.153-22.064-28.702-31.304c0.476-9.878,12.794-15.589,12.923-15.643
			l6.295-2.834l-0.419-0.186c7.995-3.74,20.281-8.11,27.321-5.204c2.588,1.074,4.266,3.114,5.107,6.249l5.862-1.582
			c-1.346-5.003-4.266-8.46-8.654-10.275c-11.9-4.917-31.419,4.735-36.862,7.659c-6.725-3.232-11.016-8.052-13.052-14.745
			c-6.65-21.931,13.353-55.773,17.053-61.746c21.069-6.553,25.048-10.386,24.572-14.408c-0.433-3.611-4.817-5.103-9.226-5.687
			c-0.612-8.6,1.152-15.3,5.282-19.938c6.216-7.007,17.082-8.471,25.091-8.471c6.038,0,11.51,0.805,14.841,1.424v180.431
			l0.183,0.515c0.021,0.043,0.032,0.079,0.054,0.118C96.08,195.745,91.102,199.288,84.137,199.288z M170.778,131.061
			c-5.443-2.913-24.952-12.562-36.862-7.652c-4.398,1.814-7.304,5.272-8.654,10.275l5.855,1.582c0.848-3.135,2.52-5.171,5.107-6.249
			c7.029-2.906,19.326,1.464,27.335,5.204l-0.387,0.175l6.263,2.845c0.118,0.054,12.447,5.766,12.92,15.643
			c0.444,9.173-9.355,19.902-28.302,31.064c-9.108-4.384-22.296-12.773-22.84-18.878l-6.045,0.533
			c0.83,9.369,15.564,18.27,23.327,22.336c-5.755,4.148-17.182,11.349-27.267,11.349c-6.961,0-11.953-3.55-15.242-10.733
			c0.011-0.039,0.032-0.075,0.047-0.118l0.193-0.515V7.494c3.321-0.619,8.808-1.424,14.841-1.424c8.006,0,18.868,1.467,25.091,8.471
			c4.126,4.638,5.891,11.338,5.282,19.938c-4.409,0.583-8.797,2.076-9.226,5.687c-0.476,4.026,3.504,7.856,24.572,14.408
			c3.686,5.97,23.688,39.815,17.042,61.746C181.793,123.016,177.491,127.833,170.778,131.061z"/>
		<path style="fill:#010002;" d="M131.203,56.431l-6.023-0.777c-2.187,17.075,21.534,33.523,22.547,34.214l3.429-5.01
			C145.117,80.725,129.767,67.547,131.203,56.431z"/>
	</g>
</g>
<g>
</g>
<g>
</g>
<g>
</g>
<g>
</g>
<g>
</g>
<g>
</g>
<g>
</g>
<g>
</g>
<g>
</g>
<g>
</g>
<g>
</g>
<g>
</g>
<g>
</g>
<g>
</g>
<g>
</g>
</svg>
