<?xml version="1.0" encoding="iso-8859-1"?>
<!-- Generator: Adobe Illustrator 18.1.1, SVG Export Plug-In . SVG Version: 6.00 Build 0)  -->
<svg version="1.1" id="Capa_1" xmlns="http://www.w3.org/2000/svg" xmlns:xlink="http://www.w3.org/1999/xlink" x="0px" y="0px"
	 viewBox="0 0 202.108 202.108" style="enable-background:new 0 0 202.108 202.108;" xml:space="preserve">
<g>
	<g>
		<g>
			<path style="fill:#010002;" d="M179.531,16.187V0h-7.333v16.184h-26.394V0h-7.329v16.184h-29.45V0h-7.329v16.184H71.128V0h-7.329
				v16.184H34.477V0h-7.329v16.184H1.029v185.925H201.08V16.187H179.531z M194.43,195.459H7.689V64.19H194.43V195.459z
				 M194.43,57.548H7.689V22.837h19.455V39.7h7.329V22.837h29.322V39.7h7.329V22.837h30.567V39.7h7.329V22.837h29.45V39.7h7.329
				V22.837h26.394V39.7h7.333V22.837h14.899v34.711H194.43z"/>
		</g>
		<g>
			<polygon style="fill:#010002;" points="152.833,103.117 147.941,97.667 93.796,146.225 61.919,113.883 56.705,119.036 
				93.474,156.346 			"/>
		</g>
	</g>
</g>
<g>
</g>
<g>
</g>
<g>
</g>
<g>
</g>
<g>
</g>
<g>
</g>
<g>
</g>
<g>
</g>
<g>
</g>
<g>
</g>
<g>
</g>
<g>
</g>
<g>
</g>
<g>
</g>
<g>
</g>
</svg>
