<?xml version="1.0" encoding="iso-8859-1"?>
<!-- Generator: Adobe Illustrator 18.1.1, SVG Export Plug-In . SVG Version: 6.00 Build 0)  -->
<svg version="1.1" id="Capa_1" xmlns="http://www.w3.org/2000/svg" xmlns:xlink="http://www.w3.org/1999/xlink" x="0px" y="0px"
	 viewBox="0 0 202.899 202.899" style="enable-background:new 0 0 202.899 202.899;" xml:space="preserve">
<g>
	<g>
		<g>
			<path style="fill:#010002;" d="M172.901,186.447H5.944V69.09h166.953v12.916l5.952,5.941V26.169h-22.271V10.511h-6.553v15.657
				h-23.592V10.511h-6.553v15.657h-26.33V10.511h-6.553v15.657H59.663V10.511H53.11v15.657H26.899V10.511h-6.546v15.657H0v166.22
				h178.853v-30.9l-5.952,5.944V186.447z M5.944,32.109h14.408v13.9h6.553v-13.9h26.212v13.9h6.553v-13.9h27.335v13.9h6.553v-13.9
				h26.33v13.9h6.553v-13.9h23.592v13.9h6.553v-13.9h16.32v31.036H5.944V32.109z"/>
		</g>
		<g>
			<polygon style="fill:#010002;" points="165.962,160.662 202.899,123.721 165.962,86.776 161.828,90.917 191.708,120.793 
				106.403,120.793 106.403,126.645 191.708,126.645 161.828,156.514 			"/>
		</g>
	</g>
</g>
<g>
</g>
<g>
</g>
<g>
</g>
<g>
</g>
<g>
</g>
<g>
</g>
<g>
</g>
<g>
</g>
<g>
</g>
<g>
</g>
<g>
</g>
<g>
</g>
<g>
</g>
<g>
</g>
<g>
</g>
</svg>
