<?xml version="1.0" encoding="iso-8859-1"?>
<!-- Generator: Adobe Illustrator 18.1.1, SVG Export Plug-In . SVG Version: 6.00 Build 0)  -->
<svg version="1.1" id="Capa_1" xmlns="http://www.w3.org/2000/svg" xmlns:xlink="http://www.w3.org/1999/xlink" x="0px" y="0px"
	 viewBox="0 0 202.219 202.219" style="enable-background:new 0 0 202.219 202.219;" xml:space="preserve">
<g>
	<g>
		<g>
			<path style="fill:#010002;" d="M179.859,22.053V5.712h-6.871v16.341h-24.762V5.712h-6.879v16.341h-27.636V5.712h-6.875v16.341
				H78.141V5.712h-6.871v16.341H43.759V5.712H36.88v16.341H14.519v92.184h6.242V67.096h175.224v123.177H20.761v-55.64h-6.242v61.875
				h187.7V22.053H179.859z M195.985,60.858H20.761V28.284H36.88v14.688h6.879V28.284h27.511v14.688h6.871V28.284h28.695v14.688
				h6.879V28.284h27.636v14.688h6.879V28.284h24.762v14.688h6.871V28.284h16.126v32.575H195.985z"/>
		</g>
		<g>
			<polygon style="fill:#010002;" points="58.163,158.854 62.501,163.21 101.274,124.437 62.501,85.663 58.163,90.005 
				89.518,121.366 0,121.366 0,127.507 89.518,127.507 			"/>
		</g>
	</g>
</g>
<g>
</g>
<g>
</g>
<g>
</g>
<g>
</g>
<g>
</g>
<g>
</g>
<g>
</g>
<g>
</g>
<g>
</g>
<g>
</g>
<g>
</g>
<g>
</g>
<g>
</g>
<g>
</g>
<g>
</g>
</svg>
