<?xml version="1.0" encoding="iso-8859-1"?>
<!-- Generator: Adobe Illustrator 18.1.1, SVG Export Plug-In . SVG Version: 6.00 Build 0)  -->
<svg version="1.1" id="Capa_1" xmlns="http://www.w3.org/2000/svg" xmlns:xlink="http://www.w3.org/1999/xlink" x="0px" y="0px"
	 viewBox="0 0 205.233 205.233" style="enable-background:new 0 0 205.233 205.233;" xml:space="preserve">
<g>
	<g>
		<g>
			<path style="fill:#010002;" d="M70.854,21.885c-18.023,0-32.682,14.666-32.682,32.682v128.781h65.375V54.567
				C103.547,36.551,88.884,21.885,70.854,21.885z M98.39,178.198H43.326V54.567c0-15.178,12.351-27.532,27.525-27.532
				c15.189,0,27.536,12.354,27.536,27.532v123.631H98.39z"/>
		</g>
		<g>
			<path style="fill:#010002;" d="M70.854,34.407c-12.998,0-23.581,10.579-23.581,23.588c0,13.002,10.586,23.588,23.581,23.588
				c13.009,0,23.585-10.586,23.585-23.588C94.435,44.986,83.86,34.407,70.854,34.407z M70.854,76.426
				c-10.15,0-18.424-8.271-18.424-18.431c0-10.168,8.274-18.431,18.424-18.431c10.171,0,18.438,8.267,18.438,18.431
				C89.289,68.159,81.025,76.426,70.854,76.426z"/>
		</g>
		<g>
			<path style="fill:#010002;" d="M108.189,68.821v66.993h97.044V68.821H108.189z M200.083,130.66h-86.751V73.975h86.751V130.66z"/>
		</g>
		<g>
			<rect x="49.853" y="93.727" style="fill:#010002;" width="8.883" height="8.89"/>
		</g>
		<g>
			<rect x="49.853" y="166.731" style="fill:#010002;" width="42.009" height="7.734"/>
		</g>
		<g>
			<path style="fill:#010002;" d="M21.312,83.656h-3.636c-6.725,0-12.19,5.465-12.19,12.19v1.507C2.441,97.441,0,99.922,0,102.985
				v21.512c0,3.067,2.441,5.544,5.486,5.63v0.025c0,6.714,5.465,12.179,12.19,12.179h3.636c6.725,0,12.19-5.465,12.19-12.179V95.845
				C33.502,89.121,28.037,83.656,21.312,83.656z M29.69,130.152c0,4.617-3.747,8.375-8.378,8.375h-3.636
				c-4.62,0-8.389-3.758-8.389-8.375v-1.356c1.22-1.038,2.018-2.566,2.018-4.298v-21.512c0-1.732-0.798-3.26-2.018-4.298v-2.845
				c0-4.624,3.769-8.385,8.389-8.385h3.636c4.627,0,8.378,3.761,8.378,8.385C29.69,95.842,29.69,130.152,29.69,130.152z"/>
		</g>
	</g>
</g>
<g>
</g>
<g>
</g>
<g>
</g>
<g>
</g>
<g>
</g>
<g>
</g>
<g>
</g>
<g>
</g>
<g>
</g>
<g>
</g>
<g>
</g>
<g>
</g>
<g>
</g>
<g>
</g>
<g>
</g>
</svg>
