<?xml version="1.0" encoding="iso-8859-1"?>
<!-- Generator: Adobe Illustrator 18.1.1, SVG Export Plug-In . SVG Version: 6.00 Build 0)  -->
<svg version="1.1" id="Capa_1" xmlns="http://www.w3.org/2000/svg" xmlns:xlink="http://www.w3.org/1999/xlink" x="0px" y="0px"
	 viewBox="0 0 193.408 193.408" style="enable-background:new 0 0 193.408 193.408;" xml:space="preserve">
<g>
	<g>
		<g>
			<path style="fill:#010002;" d="M192.438,74.768c-0.608-0.458-1.403-0.605-2.147-0.397l-29.175,8.36
				c-1.049,0.301-1.779,1.263-1.779,2.348v0.898h-17.046v-19.92v-0.719v-7.183h15.339v4.728h18.374
				c8.052,0,14.591-5.472,14.591-12.197c0-6.725-6.539-12.197-14.591-12.197H157.63v4.728h-16.57
				c-2.82-7.709-10.2-13.242-18.868-13.242H60.307c-10.737,0-22.74,8.6-22.74,20.106v5.433H9.838C4.413,55.513,0,59.919,0,65.344
				v77.89c0,5.426,4.413,9.835,9.838,9.835h5.597v10.364h37.503v-10.364h44.743v10.364h27.307v-10.364h7.476
				c5.418,0,9.828-4.409,9.828-9.835v-13.771h17.046v0.895c0,1.056,0.673,1.986,1.675,2.323l29.182,9.767
				c0.251,0.086,0.512,0.122,0.773,0.122c0.505,0,1.006-0.157,1.424-0.458c0.651-0.458,1.016-1.199,1.016-1.986V76.722
				C193.408,75.956,193.05,75.233,192.438,74.768z M185.71,50.685c0,4.03-4.352,7.308-9.706,7.308h-13.485V43.377h13.489
				C181.358,43.377,185.71,46.656,185.71,50.685z M143.007,48.102h14.627v5.161h-14.627
				C143.007,53.262,143.007,48.102,143.007,48.102z M42.452,50.081c0-8.568,9.598-15.21,17.855-15.21h61.885
				c8.385,0,15.214,6.825,15.214,15.21v6.811c-1.457-0.852-3.135-1.378-4.942-1.378H58.833v-0.268c0-4.749,6.091-8.571,11.141-8.571
				h41.422c5.175,0,9.373,3.844,9.373,8.571h4.896c0-7.426-6.399-13.464-14.269-13.464H69.974c-7.566,0-16.037,5.758-16.037,13.464
				v0.268H42.452V50.081z M48.042,158.538H20.321v-5.472h27.722V158.538z M120.099,158.538h-17.522v-5.472h17.522V158.538z
				 M137.406,143.231c0,2.727-2.219,4.942-4.942,4.942h-7.476H97.681H52.938H15.436H9.838c-2.731,0-4.942-2.215-4.942-4.942v-77.89
				c0-2.724,2.212-4.942,4.942-4.942h122.629c2.724,0,4.942,2.219,4.942,4.942v0.719v19.92v43.483v13.768H137.406z M142.292,124.574
				V90.872h17.046v33.702H142.292z M188.52,136.728l-23.746-7.949V86.771l23.746-6.8V136.728z"/>
		</g>
		<g>
			<path style="fill:#010002;" d="M15.436,141.477h49.138v-28.91H15.436V141.477z M20.321,117.453h39.364v19.136H20.321V117.453z"/>
		</g>
	</g>
</g>
<g>
</g>
<g>
</g>
<g>
</g>
<g>
</g>
<g>
</g>
<g>
</g>
<g>
</g>
<g>
</g>
<g>
</g>
<g>
</g>
<g>
</g>
<g>
</g>
<g>
</g>
<g>
</g>
<g>
</g>
</svg>
