<?xml version="1.0" encoding="iso-8859-1"?>
<!-- Generator: Adobe Illustrator 18.1.1, SVG Export Plug-In . SVG Version: 6.00 Build 0)  -->
<svg version="1.1" id="Capa_1" xmlns="http://www.w3.org/2000/svg" xmlns:xlink="http://www.w3.org/1999/xlink" x="0px" y="0px"
	 viewBox="0 0 199.754 199.754" style="enable-background:new 0 0 199.754 199.754;" xml:space="preserve">
<g>
	<g>
		<g>
			<g>
				<path style="fill:#010002;" d="M199.754,173.204H0V43.063h67.254L81.562,26.55h36.998l16.513,16.513h64.681
					C199.754,43.063,199.754,173.204,199.754,173.204z M6.607,166.604h186.548V49.662h-60.819l-16.513-16.513h-31.24L70.278,49.662
					H6.607V166.604z"/>
			</g>
		</g>
		<g>
			<g>
				<path style="fill:#010002;" d="M99.879,154.236c-24.279,0-44.031-19.759-44.031-44.034s19.755-44.027,44.031-44.027
					c24.272,0,44.027,19.755,44.027,44.027C143.909,134.481,124.15,154.236,99.879,154.236z M99.879,72.785
					c-20.636,0-37.428,16.785-37.428,37.42c0,20.639,16.792,37.428,37.428,37.428s37.424-16.788,37.424-37.428
					C137.303,89.57,120.518,72.785,99.879,72.785z"/>
			</g>
		</g>
		<g>
			<g>
				<rect x="19.784" y="61.769" style="fill:#010002;" width="18.71" height="7.709"/>
			</g>
		</g>
	</g>
</g>
<g>
</g>
<g>
</g>
<g>
</g>
<g>
</g>
<g>
</g>
<g>
</g>
<g>
</g>
<g>
</g>
<g>
</g>
<g>
</g>
<g>
</g>
<g>
</g>
<g>
</g>
<g>
</g>
<g>
</g>
</svg>
