<?xml version="1.0" encoding="iso-8859-1"?>
<!-- Generator: Adobe Illustrator 18.1.1, SVG Export Plug-In . SVG Version: 6.00 Build 0)  -->
<svg version="1.1" id="Capa_1" xmlns="http://www.w3.org/2000/svg" xmlns:xlink="http://www.w3.org/1999/xlink" x="0px" y="0px"
	 viewBox="0 0 183.012 183.012" style="enable-background:new 0 0 183.012 183.012;" xml:space="preserve">
<g>
	<g>
		<path style="fill:#010002;" d="M140.148,0h-97.28C36.4,0,31.147,5.261,31.147,11.728v128.545c0,6.46,5.257,11.714,11.721,11.714
			h33.827l2.044-6.514H42.867c-2.874,0-5.207-2.333-5.207-5.2V11.728c0-2.877,2.333-5.214,5.207-5.214h97.28
			c2.867,0,5.2,2.337,5.2,5.214v128.545c0,2.867-2.333,5.2-5.2,5.2H137.9l2.459,6.514c6.363-0.111,11.506-5.325,11.506-11.714
			V11.728C151.861,5.257,146.608,0,140.148,0z M150.297,140.273c0,5.132-3.897,9.445-8.883,10.071l-1.249-3.3
			c3.726-0.014,6.75-3.049,6.75-6.775V11.728c0-3.74-3.035-6.786-6.768-6.786h-97.28c-3.733,0-6.775,3.046-6.775,6.786v128.545
			c0,3.733,3.042,6.775,6.775,6.775h33.738l-1.059,3.375H42.867c-5.597,0-10.157-4.549-10.157-10.15V11.728
			c0-5.604,4.556-10.164,10.157-10.164h97.28c5.594,0,10.15,4.556,10.15,10.164C150.297,11.728,150.297,140.273,150.297,140.273z"/>
		<path style="fill:#010002;" d="M106.961,94.965c-12.258,0-22.225,9.974-22.225,22.235c0,12.254,9.967,22.228,22.225,22.228
			s22.232-9.974,22.232-22.228C129.193,104.939,119.219,94.965,106.961,94.965z M106.961,137.861
			c-11.391,0-20.657-9.269-20.657-20.661s9.269-20.668,20.657-20.668s20.657,9.276,20.657,20.668S118.353,137.861,106.961,137.861z"
			/>
		<path style="fill:#010002;" d="M129.082,140.649l0.655-0.601c2.763-2.766,4.008-6.607,3.414-10.515l-0.032-0.225l0.086-0.204
			c0.598-1.399,1.099-2.956,1.485-4.649l0.047-0.225l0.168-0.154c2.319-2.312,3.607-5.404,3.607-8.697
			c0-4.423-2.319-8.396-6.22-10.618l-0.186-0.111l-0.107-0.197c-0.179-0.322-0.376-0.63-0.58-0.938l-0.183-0.279l-0.079-0.351
			c0.014-3.271-1.26-6.352-3.586-8.682c-2.144-2.151-5.032-3.411-8.128-3.543l-0.422-0.021l-0.218-0.361
			c-2.255-3.758-6.181-6.002-10.497-6.002c-4.359,0-8.296,2.258-10.529,6.045l-0.326,0.551l-0.605-0.211
			c-4.32-1.478-9.448-0.293-12.648,2.902c-3.131,3.131-4.298,7.766-3.042,12.086l0.082,0.286l-0.544,1.167l-0.193,0.14
			c-3.221,2.348-5.071,5.955-5.071,9.899c0,3.514,1.482,6.768,4.173,9.144l0.168,0.147l0.064,0.218
			c0.243,0.812,0.537,1.621,0.891,2.466l0.079,0.197l-0.032,0.218c-0.58,3.93,0.662,7.759,3.421,10.518
			c0.741,0.741,1.571,1.371,2.548,1.929l0.54,0.315l-7.73,24.726c-0.1,0.322,0.014,0.673,0.283,0.866
			c0.268,0.193,0.626,0.211,0.909,0.021l9.853-6.682l4.234,12.379c0.107,0.322,0.408,0.53,0.744,0.53h0.007
			c0.34,0,0.641-0.225,0.741-0.544l7.773-24.766l0.709,0.175c2.401,0.58,4.871,0.412,7.172-0.49l0.737-0.293l13.048,34.285
			c0.115,0.308,0.404,0.512,0.73,0.512c0.011,0,0.018,0,0.025,0c0.336-0.014,0.63-0.236,0.727-0.558l3.93-12.93l9.326,5.411
			c0.286,0.161,0.648,0.132,0.895-0.082c0.254-0.211,0.347-0.558,0.229-0.873L129.082,140.649z M131.097,167.658
			c-0.208-0.118-0.465-0.14-0.676-0.05c-0.225,0.089-0.394,0.272-0.465,0.505l-3.543,11.689l-12.515-32.886
			c-0.075-0.197-0.225-0.351-0.415-0.433c-0.097-0.05-0.211-0.072-0.315-0.072c-0.097,0-0.197,0.021-0.286,0.057l-1.478,0.58
			c-1.997,0.784-4.13,0.93-6.227,0.426l-1.421-0.344c-0.401-0.089-0.812,0.125-0.934,0.523l-7.276,23.18l-3.79-11.094
			c-0.079-0.229-0.261-0.412-0.494-0.49s-0.494-0.043-0.691,0.097l-8.843,5.998l7.247-23.187c0.111-0.351-0.036-0.734-0.358-0.916
			l-1.092-0.63c-0.852-0.49-1.575-1.034-2.215-1.671c-2.405-2.412-3.497-5.751-2.981-9.176l0.068-0.433
			c0.021-0.147,0.007-0.293-0.05-0.426l-0.172-0.397c-0.315-0.755-0.598-1.517-0.834-2.312l-0.125-0.426
			c-0.047-0.14-0.122-0.265-0.229-0.358l-0.34-0.301c-2.348-2.076-3.647-4.907-3.647-7.97c0-3.432,1.614-6.585,4.431-8.625
			l0.354-0.258c0.107-0.082,0.193-0.183,0.247-0.308l0.755-1.621c0.079-0.168,0.097-0.365,0.043-0.544l-0.161-0.565
			c-1.102-3.776-0.082-7.816,2.641-10.547c2.781-2.777,7.269-3.804,11.03-2.52l1.21,0.412c0.344,0.118,0.737-0.025,0.93-0.347
			l0.648-1.099c1.954-3.303,5.386-5.279,9.18-5.279c3.758,0,7.179,1.961,9.158,5.243l0.433,0.727
			c0.132,0.225,0.372,0.365,0.637,0.376l0.837,0.036c2.709,0.118,5.222,1.217,7.09,3.089c2.029,2.026,3.142,4.71,3.139,7.716
			l0.132,0.676c0.018,0.104,0.061,0.197,0.115,0.279l0.251,0.39c0.183,0.279,0.365,0.551,0.519,0.837l0.215,0.383
			c0.072,0.132,0.179,0.236,0.304,0.315l0.379,0.218c3.393,1.943,5.429,5.404,5.429,9.255c0,2.874-1.12,5.565-3.153,7.584
			l-0.326,0.315c-0.1,0.104-0.172,0.236-0.208,0.383l-0.104,0.44c-0.361,1.593-0.83,3.067-1.399,4.384l-0.168,0.415
			c-0.061,0.132-0.075,0.279-0.054,0.426l0.072,0.44c0.515,3.418-0.569,6.76-2.956,9.151l-1.016,0.938
			c-0.236,0.218-0.315,0.558-0.208,0.852l11.961,31.762L131.097,167.658z"/>
		<rect x="59.778" y="26.659" style="fill:#010002;" width="63.525" height="3.135"/>
		<rect x="59.778" y="43.125" style="fill:#010002;" width="63.525" height="3.139"/>
	</g>
</g>
<g>
</g>
<g>
</g>
<g>
</g>
<g>
</g>
<g>
</g>
<g>
</g>
<g>
</g>
<g>
</g>
<g>
</g>
<g>
</g>
<g>
</g>
<g>
</g>
<g>
</g>
<g>
</g>
<g>
</g>
</svg>
