<?xml version="1.0" encoding="iso-8859-1"?>
<!-- Generator: Adobe Illustrator 18.1.1, SVG Export Plug-In . SVG Version: 6.00 Build 0)  -->
<svg version="1.1" id="Capa_1" xmlns="http://www.w3.org/2000/svg" xmlns:xlink="http://www.w3.org/1999/xlink" x="0px" y="0px"
	 viewBox="0 0 204.692 204.692" style="enable-background:new 0 0 204.692 204.692;" xml:space="preserve">
<g>
	<g>
		<g>
			<path style="fill:#010002;" d="M167.998,49.589l8.274-8.274l3.661,3.661l4.649-4.645l-12.376-12.376l-4.649,4.649l4.066,4.062
				l-8.36,8.36c-16.194-14.48-37.535-23.309-60.912-23.309c-50.455,0-91.49,41.042-91.49,91.486c0,50.447,41.035,91.49,91.49,91.49
				c50.433,0,91.479-41.046,91.479-91.49C193.831,88.505,183.967,66.066,167.998,49.589z M106.102,198.029v-16.201h-7.516v16.201
				c-43.995-1.918-79.393-37.471-81.082-81.526h13.303v-6.578H17.504c1.696-44.213,37.342-79.855,81.562-81.551v14.14h6.567v-14.14
				c44.21,1.696,79.855,37.338,81.548,81.551h-12.354v6.578h12.354C185.485,160.558,150.097,196.11,106.102,198.029z"/>
		</g>
		<g>
			<path style="fill:#010002;" d="M106.102,102.538V52.695c0-2.133-1.374-3.851-3.071-3.851c-1.707,0-3.078,1.714-3.078,3.851
				v49.413c-5.125,1.102-8.976,5.655-8.976,11.098c0,5.458,3.851,10.01,8.976,11.109v4.95c0,2.137,1.374,3.858,3.078,3.858
				c1.696,0,3.071-1.721,3.071-3.858v-5.379c4.413-1.56,7.598-5.73,7.598-10.679C113.7,108.257,110.515,104.087,106.102,102.538z"/>
		</g>
		<g>
			<rect x="99.066" y="0" style="fill:#010002;" width="6.567" height="17.501"/>
		</g>
	</g>
</g>
<g>
</g>
<g>
</g>
<g>
</g>
<g>
</g>
<g>
</g>
<g>
</g>
<g>
</g>
<g>
</g>
<g>
</g>
<g>
</g>
<g>
</g>
<g>
</g>
<g>
</g>
<g>
</g>
<g>
</g>
</svg>
