<?xml version="1.0" encoding="iso-8859-1"?>
<!-- Generator: Adobe Illustrator 18.1.1, SVG Export Plug-In . SVG Version: 6.00 Build 0)  -->
<svg version="1.1" id="Capa_1" xmlns="http://www.w3.org/2000/svg" xmlns:xlink="http://www.w3.org/1999/xlink" x="0px" y="0px"
	 viewBox="0 0 203.193 203.193" style="enable-background:new 0 0 203.193 203.193;" xml:space="preserve">
<g>
	<g>
		<path style="fill:#010002;" d="M0,168.51h173.435v-34.514H0V168.51z M7.118,141.118h159.209v20.278H7.118V141.118z"/>
		<path style="fill:#010002;" d="M177.701,168.51h21.348v-34.514h-21.348V168.51z M184.819,141.118h7.111v20.278h-7.111V141.118z"/>
		<path style="fill:#010002;" d="M180.109,90.33c5.64,4.753,8.367,9.57,8.099,14.323c-0.404,7.351-7.856,12.411-7.931,12.462
			l1.965,2.963c0.372-0.243,8.994-6.063,9.52-15.199c0.344-5.944-2.806-11.753-9.352-17.268c-5.64-4.753-8.367-9.57-8.099-14.315
			c0.415-7.326,7.856-12.361,7.931-12.408l-1.965-2.97c-0.361,0.243-8.987,6.034-9.513,15.146
			C170.414,79.003,173.564,84.812,180.109,90.33z"/>
		<path style="fill:#010002;" d="M187.607,72.082c1.31,7.662,8.625,11.706,8.929,11.875l1.7-3.128
			c-0.057-0.032-6.095-3.368-7.118-9.344c-0.691-4.101,1.135-8.596,5.447-13.349c5.472-6.03,7.569-11.341,6.242-15.801
			c-1.725-5.766-8.478-7.576-8.761-7.652l-0.898,3.443c0.057,0.014,5.118,1.421,6.252,5.222c0.934,3.135-0.963,7.423-5.465,12.394
			C188.845,61.349,186.723,66.846,187.607,72.082z"/>
	</g>
</g>
<g>
</g>
<g>
</g>
<g>
</g>
<g>
</g>
<g>
</g>
<g>
</g>
<g>
</g>
<g>
</g>
<g>
</g>
<g>
</g>
<g>
</g>
<g>
</g>
<g>
</g>
<g>
</g>
<g>
</g>
</svg>
