<?xml version="1.0" encoding="iso-8859-1"?>
<!-- Generator: Adobe Illustrator 18.1.1, SVG Export Plug-In . SVG Version: 6.00 Build 0)  -->
<svg version="1.1" id="Capa_1" xmlns="http://www.w3.org/2000/svg" xmlns:xlink="http://www.w3.org/1999/xlink" x="0px" y="0px"
	 viewBox="0 0 199.898 199.898" style="enable-background:new 0 0 199.898 199.898;" xml:space="preserve">
<g>
	<g>
		<path style="fill:#010002;" d="M186.656,106.782c-0.329,22.683-9.344,44.006-25.396,60.053
			c-33.817,33.817-88.841,33.817-122.658,0c-33.817-33.82-33.817-88.852,0-122.669C70.68,12.1,121.811,10.44,155.853,39.196
			l-30.689,7.895l1.564,7.548l44.274-10.497l-0.222-0.215l0.179-0.05L162.338,0l-7.455,1.954l6.284,31.676
			C124.108,2.004,68.192,3.686,33.152,38.712c-36.819,36.826-36.819,96.743,0,133.566c36.83,36.826,96.736,36.826,133.566,0
			c17.468-17.468,27.282-40.692,27.643-65.389L186.656,106.782z"/>
	</g>
</g>
<g>
</g>
<g>
</g>
<g>
</g>
<g>
</g>
<g>
</g>
<g>
</g>
<g>
</g>
<g>
</g>
<g>
</g>
<g>
</g>
<g>
</g>
<g>
</g>
<g>
</g>
<g>
</g>
<g>
</g>
</svg>
