<?xml version="1.0" encoding="iso-8859-1"?>
<!-- Generator: Adobe Illustrator 18.1.1, SVG Export Plug-In . SVG Version: 6.00 Build 0)  -->
<svg version="1.1" id="Capa_1" xmlns="http://www.w3.org/2000/svg" xmlns:xlink="http://www.w3.org/1999/xlink" x="0px" y="0px"
	 viewBox="0 0 207.097 207.097" style="enable-background:new 0 0 207.097 207.097;" xml:space="preserve">
<g>
	<g>
		<path style="fill:#010002;" d="M28.572,72.722l164.08-46.393L185.207,0L8.67,49.918l6.449,22.804h-0.15v22.532v4.828v107.015
			h183.459V100.083v-4.828V72.722H28.572z M186.685,23.001l-16.459,4.656l11.803-21.13L186.685,23.001z M179.166,6.735
			l-12.229,21.852l-25.793,7.29l12.218-21.849L179.166,6.735z M150.081,14.96l-12.222,21.849l-22.518,6.367l12.207-21.852
			L150.081,14.96z M124.267,22.253l-12.222,21.856l-25.793,7.29l12.222-21.852L124.267,22.253z M95.192,30.474L82.97,52.33
			l-25.052,7.083L70.14,37.556L95.192,30.474z M66.855,38.487L54.633,60.336L28.84,67.633l12.222-21.856L66.855,38.487z
			 M37.769,46.704L25.548,68.56l-6.106,1.729l-4.806-17.032L37.769,46.704z M190.873,77.55l-17.705,17.705h-26.809l17.712-17.705
			H190.873z M160.66,77.55l-17.701,17.705h-23.424l17.712-17.705H160.66z M133.837,77.55l-17.701,17.705H89.323l17.705-17.705
			H133.837z M103.613,77.55L85.898,95.255H59.88L77.584,77.55H103.613z M74.173,77.55L56.462,95.255H29.66L47.361,77.55H74.173z
			 M26.245,95.255h-6.449V77.55H43.95L26.245,95.255z M193.596,202.269h-173.8V100.083h173.8V202.269z M193.596,95.255h-17.014
			l17.014-17.007V95.255z"/>
	</g>
</g>
<g>
</g>
<g>
</g>
<g>
</g>
<g>
</g>
<g>
</g>
<g>
</g>
<g>
</g>
<g>
</g>
<g>
</g>
<g>
</g>
<g>
</g>
<g>
</g>
<g>
</g>
<g>
</g>
<g>
</g>
</svg>
