<?xml version="1.0" encoding="iso-8859-1"?>
<!-- Generator: Adobe Illustrator 18.1.1, SVG Export Plug-In . SVG Version: 6.00 Build 0)  -->
<svg version="1.1" id="Capa_1" xmlns="http://www.w3.org/2000/svg" xmlns:xlink="http://www.w3.org/1999/xlink" x="0px" y="0px"
	 viewBox="0 0 195.459 195.459" style="enable-background:new 0 0 195.459 195.459;" xml:space="preserve">
<g>
	<g>
		<path style="fill:#010002;" d="M156.285,76.904c-2.319,0-4.674,0.211-7.004,0.626c-7.111-11.621-19.927-18.828-33.552-18.828
			c-3.046,0-6.109,0.369-9.13,1.092c-6.982-12.279-20.038-19.891-34.16-19.891c-21.047,0-38.215,16.434-39.264,37.488
			C13.932,80.39,0,96.656,0,116.232c0,21.684,17.644,39.324,39.324,39.324h116.81c21.688,0,39.324-17.644,39.324-39.324
			C195.463,94.544,177.883,76.904,156.285,76.904z M156.135,150.926H39.328c-19.133,0-34.69-15.568-34.69-34.693
			c0-17.826,13.346-32.657,31.107-34.511l2.008-0.469v-2.029c0-19.129,15.561-34.69,34.69-34.69
			c13.109,0,24.959,7.287,30.921,19.014l0.87,1.714l1.84-0.537c3.192-0.923,6.438-1.392,9.659-1.392
			c12.601,0,24.232,6.861,30.359,17.909l0.837,1.51l1.686-0.369c2.541-0.562,5.114-0.848,7.666-0.848
			c19.05,0,34.554,15.572,34.554,34.697S175.263,150.926,156.135,150.926z"/>
		<polygon style="fill:#010002;" points="92.95,76.94 88.634,76.94 88.634,104.311 61.266,104.311 61.266,108.631 88.634,108.631 
			88.634,135.991 92.95,135.991 92.95,108.631 120.317,108.631 120.317,104.311 92.95,104.311 		"/>
	</g>
</g>
<g>
</g>
<g>
</g>
<g>
</g>
<g>
</g>
<g>
</g>
<g>
</g>
<g>
</g>
<g>
</g>
<g>
</g>
<g>
</g>
<g>
</g>
<g>
</g>
<g>
</g>
<g>
</g>
<g>
</g>
</svg>
