<?xml version="1.0" encoding="iso-8859-1"?>
<!-- Generator: Adobe Illustrator 18.1.1, SVG Export Plug-In . SVG Version: 6.00 Build 0)  -->
<svg version="1.1" id="Capa_1" xmlns="http://www.w3.org/2000/svg" xmlns:xlink="http://www.w3.org/1999/xlink" x="0px" y="0px"
	 viewBox="0 0 196.482 196.482" style="enable-background:new 0 0 196.482 196.482;" xml:space="preserve">
<g>
	<g>
		<g>
			<path style="fill:#010002;" d="M151.235,165.754H45.255C20.299,165.754,0,145.452,0,120.5c0-21.115,14.899-39.45,35.205-44.081
				c-0.086-1.038-0.125-2.036-0.125-3.006c0-23.538,19.147-42.685,42.678-42.685c16.62,0,31.397,9.423,38.469,24.25
				c18.002-2.87,34.794,5.859,43.318,21.079c21.187,3.951,36.937,22.719,36.937,44.439
				C196.486,145.452,176.187,165.754,151.235,165.754z M77.758,38.204c-19.412,0-35.212,15.793-35.212,35.212
				c0,1.646,0.154,3.436,0.476,5.458c0.154,0.991-0.089,2.001-0.684,2.802c-0.598,0.805-1.489,1.338-2.477,1.474
				c-18.467,2.648-32.385,18.707-32.385,37.352c0,20.832,16.942,37.778,37.778,37.778h105.981c20.829,0,37.786-16.942,37.786-37.778
				c0-18.667-13.943-34.722-32.424-37.356c-1.213-0.168-2.265-0.927-2.817-2.022c-7.104-14.129-22.525-22.056-38.934-18.259
				c-1.814,0.419-3.65-0.551-4.316-2.28C105.19,46.99,92.331,38.204,77.758,38.204z"/>
		</g>
	</g>
</g>
<g>
</g>
<g>
</g>
<g>
</g>
<g>
</g>
<g>
</g>
<g>
</g>
<g>
</g>
<g>
</g>
<g>
</g>
<g>
</g>
<g>
</g>
<g>
</g>
<g>
</g>
<g>
</g>
<g>
</g>
</svg>
