<?xml version="1.0" encoding="iso-8859-1"?>
<!-- Generator: Adobe Illustrator 18.1.1, SVG Export Plug-In . SVG Version: 6.00 Build 0)  -->
<svg version="1.1" id="Capa_1" xmlns="http://www.w3.org/2000/svg" xmlns:xlink="http://www.w3.org/1999/xlink" x="0px" y="0px"
	 viewBox="0 0 194.675 194.675" style="enable-background:new 0 0 194.675 194.675;" xml:space="preserve">
<g>
	<g>
		<path style="fill:#010002;" d="M179.898,0H14.774C6.628,0,0.004,6.628,0.004,14.777v165.121c0,8.145,6.624,14.777,14.77,14.777
			h165.125c8.149,0,14.773-6.632,14.773-14.777V14.777C194.672,6.628,188.051,0,179.898,0z M14.774,9.316h165.125
			c3.013,0,5.451,2.452,5.451,5.461v17.476H9.312V14.777C9.312,11.767,11.764,9.316,14.774,9.316z M179.898,185.359H14.774
			c-3.01,0-5.461-2.455-5.461-5.461V41.565h176.04v138.33C185.352,182.908,182.911,185.359,179.898,185.359z"/>
		<rect x="136.34" y="13.911" style="fill:#010002;" width="11.062" height="11.062"/>
		<rect x="161.961" y="13.911" style="fill:#010002;" width="11.062" height="11.062"/>
		<polygon style="fill:#010002;" points="25.088,114.742 69.766,137.764 69.766,131.118 32.109,112.236 32.109,112.04 
			69.766,93.165 69.766,86.519 25.088,109.538 		"/>
		<polygon style="fill:#010002;" points="75.134,155.587 81.591,155.587 115.55,71.781 108.997,71.781 		"/>
		<polygon style="fill:#010002;" points="122.561,93.165 160.508,112.04 160.508,112.236 122.561,131.118 122.561,137.764 
			167.268,114.831 167.268,109.441 122.561,86.519 		"/>
	</g>
</g>
<g>
</g>
<g>
</g>
<g>
</g>
<g>
</g>
<g>
</g>
<g>
</g>
<g>
</g>
<g>
</g>
<g>
</g>
<g>
</g>
<g>
</g>
<g>
</g>
<g>
</g>
<g>
</g>
<g>
</g>
</svg>
