<?xml version="1.0" encoding="iso-8859-1"?>
<!-- Generator: Adobe Illustrator 18.1.1, SVG Export Plug-In . SVG Version: 6.00 Build 0)  -->
<svg version="1.1" id="Capa_1" xmlns="http://www.w3.org/2000/svg" xmlns:xlink="http://www.w3.org/1999/xlink" x="0px" y="0px"
	 viewBox="0 0 206.457 206.457" style="enable-background:new 0 0 206.457 206.457;" xml:space="preserve">
<g>
	<g>
		<path style="fill:#010002;" d="M0,10.967v184.522h206.457V10.967H0z M200.072,189.115H6.385V32.906h193.687
			C200.072,32.906,200.072,189.115,200.072,189.115z M200.072,26.521H6.385v-9.169h193.687
			C200.072,17.352,200.072,26.521,200.072,26.521z"/>
		<polygon style="fill:#010002;" points="71.777,124.46 32.077,104.558 71.394,84.86 71.777,84.667 71.777,75.977 22.89,101.169 
			22.515,101.362 22.515,107.768 71.777,133.139 		"/>
		<rect x="77.239" y="139.054" style="fill:#010002;" width="52.981" height="6.542"/>
		<polygon style="fill:#010002;" points="184.937,107.879 184.937,101.244 135.671,75.984 135.671,84.667 175.675,104.558 
			136.057,124.27 135.671,124.46 135.671,133.139 184.558,108.076 		"/>
	</g>
</g>
<g>
</g>
<g>
</g>
<g>
</g>
<g>
</g>
<g>
</g>
<g>
</g>
<g>
</g>
<g>
</g>
<g>
</g>
<g>
</g>
<g>
</g>
<g>
</g>
<g>
</g>
<g>
</g>
<g>
</g>
</svg>
