<?xml version="1.0" encoding="iso-8859-1"?>
<!-- Generator: Adobe Illustrator 18.1.1, SVG Export Plug-In . SVG Version: 6.00 Build 0)  -->
<svg version="1.1" id="Capa_1" xmlns="http://www.w3.org/2000/svg" xmlns:xlink="http://www.w3.org/1999/xlink" x="0px" y="0px"
	 viewBox="0 0 195.802 195.802" style="enable-background:new 0 0 195.802 195.802;" xml:space="preserve">
<g>
	<g>
		<g>
			<path style="fill:#010002;" d="M127.046,29.15c-4.574,0-9.112,0.515-13.51,1.389c-4.456-0.905-9.072-1.389-13.786-1.389
				c-5.064,0-10.082,0.551-14.917,1.628l0.079,0.379c-5.189-1.26-10.586-2.008-16.155-2.008C30.843,29.15,0,59.996,0,97.907
				c0,37.9,30.846,68.746,68.757,68.746c5.304,0,10.45-0.666,15.411-1.8c5.075,1.181,10.311,1.8,15.582,1.8
				c4.756,0,9.409-0.494,13.9-1.41c4.398,0.87,8.89,1.41,13.396,1.41c37.914,0,68.757-30.846,68.757-68.746
				C195.799,59.996,164.956,29.15,127.046,29.15z M6.621,97.907c0-34.257,27.865-62.136,62.136-62.136
				c34.26,0,62.125,27.879,62.125,62.136c0,34.26-27.865,62.125-62.125,62.125C34.486,160.032,6.621,132.167,6.621,97.907z
				 M98.193,159.942c23.202-11.059,39.314-34.661,39.314-62.032c0-27.382-16.123-50.999-39.335-62.043
				c0.526-0.011,1.052-0.093,1.578-0.093c34.26,0,62.125,27.879,62.125,62.136c0,29.561-20.775,54.334-48.49,60.565
				c-0.301-0.057-0.598-0.079-0.895-0.15l-0.089,0.412c-4.094,0.848-8.317,1.296-12.651,1.296
				C99.224,160.032,98.708,159.964,98.193,159.942z M129.218,159.917c23.184-11.055,39.281-34.661,39.281-62.011
				c0-27.36-16.098-50.963-39.281-62.021c33.251,1.156,59.96,28.495,59.96,62.021S162.469,158.772,129.218,159.917z"/>
		</g>
		<g>
			<path style="fill:#010002;" d="M68.424,93.086c-9.119-3.872-12.318-6.589-12.318-11.928c0-4.284,2.362-9.108,10.429-9.108
				c6.703,0,10.987,2.416,13.199,3.665l2.613-6.911c-3.139-1.775-7.437-3.461-13.61-3.654V54.975h-6.599v10.472
				c-9.534,1.582-15.697,8.171-15.697,16.853c0,9.108,6.599,14.022,17.268,18.216c7.748,3.139,11.162,6.703,11.162,12.454
				c0.011,5.98-4.355,10.264-11.782,10.264c-5.866,0-11.32-2.086-14.974-4.491l-2.509,7c3.654,2.613,9.842,4.502,15.904,4.617
				v10.461h6.599v-10.883c10.794-1.675,16.545-9.43,16.545-17.794C84.647,102.835,79.207,97.495,68.424,93.086z"/>
		</g>
	</g>
</g>
<g>
</g>
<g>
</g>
<g>
</g>
<g>
</g>
<g>
</g>
<g>
</g>
<g>
</g>
<g>
</g>
<g>
</g>
<g>
</g>
<g>
</g>
<g>
</g>
<g>
</g>
<g>
</g>
<g>
</g>
</svg>
