<?xml version="1.0" encoding="iso-8859-1"?>
<!-- Generator: Adobe Illustrator 18.1.1, SVG Export Plug-In . SVG Version: 6.00 Build 0)  -->
<svg version="1.1" id="Capa_1" xmlns="http://www.w3.org/2000/svg" xmlns:xlink="http://www.w3.org/1999/xlink" x="0px" y="0px"
	 viewBox="0 0 203.003 203.003" style="enable-background:new 0 0 203.003 203.003;" xml:space="preserve">
<g>
	<g>
		<g>
			<path style="fill:#010002;" d="M120.174,18.671c-6.102,0-12.15,0.662-17.973,1.961l0.097,0.44
				c-6.252-1.503-12.755-2.401-19.462-2.401C37.159,18.671,0,55.83,0,101.507c0,45.666,37.159,82.825,82.836,82.825
				c6.392,0,12.59-0.802,18.567-2.165c6.113,1.421,12.422,2.165,18.775,2.165c45.663,0,82.825-37.159,82.825-82.825
				C202.996,55.834,165.837,18.671,120.174,18.671z M7.974,101.511c0-41.275,33.584-74.859,74.859-74.859
				s74.844,33.584,74.844,74.859s-33.57,74.845-74.845,74.845S7.974,142.785,7.974,101.511z M120.174,176.355
				c-0.637,0-1.26-0.082-1.875-0.107c27.954-13.324,47.359-41.758,47.359-74.737c0-32.993-19.422-61.442-47.373-74.748
				c0.633-0.014,1.256-0.111,1.89-0.111c41.271,0,74.845,33.584,74.845,74.859C195.019,142.785,161.446,176.355,120.174,176.355z"/>
		</g>
		<g>
			<path style="fill:#010002;" d="M86.794,95.698c-10.973-4.667-14.827-7.938-14.827-14.369c0-5.161,2.845-10.973,12.547-10.973
				c8.074,0,13.252,2.913,15.901,4.416l3.146-8.324c-3.783-2.14-8.944-4.169-16.398-4.402l0.018-12.261h-7.952v12.615
				c-11.485,1.904-18.911,9.842-18.911,20.306c-0.014,10.973,7.952,16.896,20.804,21.949c9.33,3.783,13.446,8.074,13.446,15.003
				c0,7.208-5.247,12.369-14.204,12.369c-7.054,0-13.639-2.512-18.041-5.415l-3.024,8.435c4.416,3.146,11.857,5.426,19.172,5.562
				v12.601h7.938l0.014-13.113c12.988-2.015,19.916-11.359,19.916-21.437C106.342,107.444,99.782,101.013,86.794,95.698z"/>
		</g>
	</g>
</g>
<g>
</g>
<g>
</g>
<g>
</g>
<g>
</g>
<g>
</g>
<g>
</g>
<g>
</g>
<g>
</g>
<g>
</g>
<g>
</g>
<g>
</g>
<g>
</g>
<g>
</g>
<g>
</g>
<g>
</g>
</svg>
