<?xml version="1.0" encoding="iso-8859-1"?>
<!-- Generator: Adobe Illustrator 18.1.1, SVG Export Plug-In . SVG Version: 6.00 Build 0)  -->
<svg version="1.1" id="Capa_1" xmlns="http://www.w3.org/2000/svg" xmlns:xlink="http://www.w3.org/1999/xlink" x="0px" y="0px"
	 viewBox="0 0 192.066 192.066" style="enable-background:new 0 0 192.066 192.066;" xml:space="preserve">
<g>
	<g>
		<path style="fill:#010002;" d="M0,0v192.066h192.066V0H0z M185.517,36.83h-29.626V6.549h29.626V36.83z M74.071,36.83h-29.16V6.549
			h29.16C74.071,6.549,74.071,36.83,74.071,36.83z M80.617,6.549h31.551V36.83H80.617C80.617,36.83,80.617,6.549,80.617,6.549z
			 M74.071,43.379v142.138h-29.16V43.379H74.071z M80.617,43.379h31.551v142.138H80.617C80.617,185.517,80.617,43.379,80.617,43.379
			z M118.721,43.379h30.624v142.138h-30.624V43.379z M118.721,36.83V6.549h30.624V36.83H118.721z M38.358,6.549V36.83H6.549V6.549
			H38.358z M6.549,43.379h31.812v142.138H6.549V43.379z M155.891,185.517V43.379h29.626v142.138
			C185.517,185.517,155.891,185.517,155.891,185.517z"/>
	</g>
</g>
<g>
</g>
<g>
</g>
<g>
</g>
<g>
</g>
<g>
</g>
<g>
</g>
<g>
</g>
<g>
</g>
<g>
</g>
<g>
</g>
<g>
</g>
<g>
</g>
<g>
</g>
<g>
</g>
<g>
</g>
</svg>
