<?xml version="1.0" encoding="iso-8859-1"?>
<!-- Generator: Adobe Illustrator 18.1.1, SVG Export Plug-In . SVG Version: 6.00 Build 0)  -->
<svg version="1.1" id="Capa_1" xmlns="http://www.w3.org/2000/svg" xmlns:xlink="http://www.w3.org/1999/xlink" x="0px" y="0px"
	 viewBox="0 0 206.843 206.843" style="enable-background:new 0 0 206.843 206.843;" xml:space="preserve">
<g>
	<g>
		<g>
			<path style="fill:#010002;" d="M99.71,58.639c-0.047-4.767,2.165-8.493,4.305-12.104c2.845-4.778,5.769-9.727,3.729-16.531
				c-2.072-6.238-6.012-9.301-9.495-12.007c-4.685-3.643-8.067-6.274-6.302-16.252l0.15-0.855L87.041,0l-0.15,0.852
				c-2.301,13.031,3.285,17.368,8.206,21.194c3.189,2.473,6.195,4.81,7.763,9.505c1.367,4.574-0.673,8.013-3.26,12.369
				c-2.398,4.044-5.111,8.604-5.05,14.716h-1.235c-24.039,0.068-51.296,0.143-51.296,91.987c0,40.953,32.915,56.22,53.668,56.22
				c20.739,0,53.665-15.267,53.665-56.22C149.353,60.776,123.313,58.758,99.71,58.639z M100.093,132.017v-8.392
				c2.917-0.591,5.103-3.174,5.103-6.199V83.158c0-3.031-2.183-5.619-5.103-6.202V66.631c19.397,0.047,37.539,0.87,41.436,55.64
				C137.467,124.308,121.677,131.494,100.093,132.017z M98.651,117.121c0,0.93-0.752,1.693-1.693,1.693h-2.552
				c-0.931,0-1.693-0.762-1.693-1.693V83.623c0-0.931,0.759-1.693,1.693-1.693h2.552c0.941,0,1.693,0.759,1.693,1.693V117.121z
				 M93.122,76.952c-3.16,0.608-5.533,3.396-5.533,6.675v33.498c0,3.271,2.373,6.063,5.533,6.675v11.087
				c-15.507-0.354-30.681-3.951-45.119-10.694c4.252-59.541,24.007-60.379,45.119-60.422V76.952z M95.688,201.708
				c-18.767,0-48.54-13.872-48.54-51.085c0-7.48,0.168-14.523,0.512-20.94c15.368,6.879,31.49,10.364,47.932,10.364
				c23.076,0,40.631-6.771,48.125-10.246c0.34,6.395,0.501,13.392,0.501,20.818C144.213,187.836,114.452,201.708,95.688,201.708z"/>
		</g>
		<g>
			<path style="fill:#010002;" d="M122.003,50.39l-0.837-0.193l-1.12,5.007l0.841,0.19c26.981,6.055,29.218,30.513,29.3,31.551
				l0.075,0.859l5.111-0.394l-0.061-0.863C155.279,86.261,152.717,57.28,122.003,50.39z"/>
		</g>
		<g>
			<path style="fill:#010002;" d="M164.76,77.092c-0.018-0.293-2.588-29.268-33.29-36.161l-0.841-0.19l-1.127,5.007l0.841,0.19
				c26.988,6.055,29.228,30.51,29.307,31.551l0.064,0.859l5.111-0.401L164.76,77.092z"/>
		</g>
	</g>
</g>
<g>
</g>
<g>
</g>
<g>
</g>
<g>
</g>
<g>
</g>
<g>
</g>
<g>
</g>
<g>
</g>
<g>
</g>
<g>
</g>
<g>
</g>
<g>
</g>
<g>
</g>
<g>
</g>
<g>
</g>
</svg>
