<?xml version="1.0" encoding="iso-8859-1"?>
<!-- Generator: Adobe Illustrator 18.1.1, SVG Export Plug-In . SVG Version: 6.00 Build 0)  -->
<svg version="1.1" id="Capa_1" xmlns="http://www.w3.org/2000/svg" xmlns:xlink="http://www.w3.org/1999/xlink" x="0px" y="0px"
	 viewBox="0 0 195.441 195.441" style="enable-background:new 0 0 195.441 195.441;" xml:space="preserve">
<g>
	<g>
		<g>
			<path style="fill:#010002;" d="M97.721,0C43.841,0,0,43.83,0,97.721c0,53.88,43.841,97.721,97.721,97.721
				s97.721-43.841,97.721-97.721C195.441,43.83,151.6,0,97.721,0z M97.721,188.373c-49.989,0-90.652-40.67-90.652-90.652
				c0-49.989,40.663-90.652,90.652-90.652c49.982,0,90.642,40.663,90.642,90.652C188.362,147.703,147.703,188.373,97.721,188.373z"
				/>
		</g>
		<g>
			<path style="fill:#010002;" d="M97.721,62.737c-19.297,0-34.994,15.686-34.994,34.983c0,19.286,15.697,34.983,34.994,34.983
				c19.286,0,34.983-15.7,34.983-34.983C132.704,78.423,117.007,62.737,97.721,62.737z M97.721,125.639
				c-15.4,0-27.915-12.53-27.915-27.919c0-15.4,12.519-27.915,27.915-27.915c15.389,0,27.919,12.519,27.919,27.915
				C125.639,113.11,113.11,125.639,97.721,125.639z"/>
		</g>
		<g>
			<path style="fill:#010002;" d="M80.821,174.394L80.47,137.89l-27.733,24.143C52.738,162.032,64.044,174.394,80.821,174.394z"/>
		</g>
	</g>
</g>
<g>
</g>
<g>
</g>
<g>
</g>
<g>
</g>
<g>
</g>
<g>
</g>
<g>
</g>
<g>
</g>
<g>
</g>
<g>
</g>
<g>
</g>
<g>
</g>
<g>
</g>
<g>
</g>
<g>
</g>
</svg>
