<?xml version="1.0" encoding="iso-8859-1"?>
<!-- Generator: Adobe Illustrator 18.1.1, SVG Export Plug-In . SVG Version: 6.00 Build 0)  -->
<svg version="1.1" id="Capa_1" xmlns="http://www.w3.org/2000/svg" xmlns:xlink="http://www.w3.org/1999/xlink" x="0px" y="0px"
	 viewBox="0 0 194.883 194.883" style="enable-background:new 0 0 194.883 194.883;" xml:space="preserve">
<g>
	<g>
		<path style="fill:#010002;" d="M0,159.687h30.732V98.746H0V159.687z M6.127,104.869h18.478v48.687H6.127V104.869z"/>
		<path style="fill:#010002;" d="M194.042,136.399c-1.106-2.355-11.832-23.91-24.422-21.677c-3.489,0.648-6.51,3.822-10.694,8.224
			c-7.147,7.508-16.939,17.801-32.56,17.801c-9.513,0-20.281-3.865-32.059-11.513l24.444-0.011c0,0,0.243,0.021,0.655,0.021
			c6.399,0,10.54-3.489,10.54-8.879v-10.142l-0.061-0.605c-0.719-3.59-3.93-10.375-10.933-10.375H36.218v58.654l2.144,0.676
			c2.215,0.694,54.488,17.021,73.599,17.021l0,0c0,0,0.555,0.021,1.578,0.021c8.235,0,50.759-1.721,80.052-35.921l1.292-1.507
			L194.042,136.399z M113.539,169.489c-0.82,0-1.27-0.021-1.435-0.021c-16.201,0-59.602-12.97-69.766-16.087v-48.01h76.616
			c3.271,0,4.595,4.155,4.871,5.211v9.781c0,2.276-2.412,2.759-4.42,2.759l-43.841-0.011l7.24,5.508
			c15.965,12.111,30.617,18.252,43.565,18.252c18.245,0,29.522-11.857,36.987-19.709c2.741-2.874,5.837-6.131,7.365-6.41
			c5.934-0.97,13.063,9.076,16.899,16.47C160.114,167.907,121.169,169.489,113.539,169.489z"/>
		<path style="fill:#010002;" d="M79.898,87.766h85.198c2.87,0,5.196-2.337,5.196-5.211V24.478c0-2.87-2.326-5.211-5.196-5.211
			H79.898c-2.87,0-5.211,2.337-5.211,5.211v58.081C74.691,85.429,77.028,87.766,79.898,87.766z M77.532,24.478
			c0-1.303,1.066-2.358,2.369-2.358H165.1c1.303,0,2.358,1.056,2.358,2.358v10.89H77.532V24.478z M77.532,43.889h89.926v38.669
			c0,1.303-1.056,2.358-2.358,2.358H79.898c-1.303,0-2.369-1.056-2.369-2.358V43.889H77.532z"/>
		<rect x="129.318" y="64.242" style="fill:#010002;" width="28.405" height="7.576"/>
	</g>
</g>
<g>
</g>
<g>
</g>
<g>
</g>
<g>
</g>
<g>
</g>
<g>
</g>
<g>
</g>
<g>
</g>
<g>
</g>
<g>
</g>
<g>
</g>
<g>
</g>
<g>
</g>
<g>
</g>
<g>
</g>
</svg>
