<?xml version="1.0" encoding="iso-8859-1"?>
<!-- Generator: Adobe Illustrator 18.1.1, SVG Export Plug-In . SVG Version: 6.00 Build 0)  -->
<svg version="1.1" id="Capa_1" xmlns="http://www.w3.org/2000/svg" xmlns:xlink="http://www.w3.org/1999/xlink" x="0px" y="0px"
	 viewBox="0 0 197.324 197.324" style="enable-background:new 0 0 197.324 197.324;" xml:space="preserve">
<g>
	<g>
		<g>
			<path style="fill:#010002;" d="M186.58,27.987H10.751C4.817,27.987,0,32.807,0,38.741v119.852
				c0,5.923,4.817,10.744,10.751,10.744H186.58c5.923,0,10.744-4.821,10.744-10.744V38.741
				C197.324,32.807,192.506,27.987,186.58,27.987z M10.751,33.849H186.58c2.688,0,4.878,2.19,4.878,4.892v22.468H5.862V38.741
				C5.862,36.039,8.052,33.849,10.751,33.849z M186.58,163.471H10.751c-2.698,0-4.889-2.18-4.889-4.878V78.799h185.599v79.794
				C191.461,161.292,189.268,163.471,186.58,163.471z"/>
		</g>
		<g>
			<rect x="112.755" y="120.808" style="fill:#010002;" width="58.632" height="15.632"/>
		</g>
	</g>
</g>
<g>
</g>
<g>
</g>
<g>
</g>
<g>
</g>
<g>
</g>
<g>
</g>
<g>
</g>
<g>
</g>
<g>
</g>
<g>
</g>
<g>
</g>
<g>
</g>
<g>
</g>
<g>
</g>
<g>
</g>
</svg>
