<?xml version="1.0" encoding="iso-8859-1"?>
<!-- Generator: Adobe Illustrator 18.1.1, SVG Export Plug-In . SVG Version: 6.00 Build 0)  -->
<svg version="1.1" id="Capa_1" xmlns="http://www.w3.org/2000/svg" xmlns:xlink="http://www.w3.org/1999/xlink" x="0px" y="0px"
	 viewBox="0 0 201.607 201.607" style="enable-background:new 0 0 201.607 201.607;" xml:space="preserve">
<g>
	<g>
		<g>
			<polygon style="fill:#010002;" points="33.928,163.555 48.182,163.555 61.12,121.683 46.869,121.683 			"/>
		</g>
		<g>
			<path style="fill:#010002;" d="M0,19.524v48.093h33.598L0.601,174.41c-1.313,4.223,2.015,7.673,7.419,7.673h109.234
				c5.4,0,10.858-3.45,12.168-7.673l33.541-108.557v1.764h38.644V19.524H0z M9.316,177.896c-2.455,0-3.969-1.564-3.375-3.486
				L44.736,48.839c0.601-1.922,3.078-3.486,5.533-3.486h72.726L82.042,177.896H9.316z M162.884,48.839L124.082,174.41
				c-0.594,1.922-3.078,3.486-5.529,3.486H98.075l40.956-132.539h20.478C161.964,45.357,163.475,46.917,162.884,48.839z
				 M196.268,62.274h-32.192l4.151-13.431c1.303-4.234-2.022-7.673-7.423-7.673H51.564c-5.404,0-10.858,3.439-12.165,7.673
				l-4.151,13.431H5.343V24.868h190.925V62.274z"/>
		</g>
	</g>
</g>
<g>
</g>
<g>
</g>
<g>
</g>
<g>
</g>
<g>
</g>
<g>
</g>
<g>
</g>
<g>
</g>
<g>
</g>
<g>
</g>
<g>
</g>
<g>
</g>
<g>
</g>
<g>
</g>
<g>
</g>
</svg>
