<?xml version="1.0" encoding="iso-8859-1"?>
<!-- Generator: Adobe Illustrator 18.1.1, SVG Export Plug-In . SVG Version: 6.00 Build 0)  -->
<svg version="1.1" id="Capa_1" xmlns="http://www.w3.org/2000/svg" xmlns:xlink="http://www.w3.org/1999/xlink" x="0px" y="0px"
	 viewBox="0 0 199.406 199.406" style="enable-background:new 0 0 199.406 199.406;" xml:space="preserve">
<g>
	<g>
		<g>
			<path style="fill:#010002;" d="M175.342,42.393c-1.177-5.032-4.463-8.464-8.385-8.464h-19.014c-3.897,0-7.161,3.382-8.36,8.36
				h-26.913L99.639,27.248h-44.56L39.031,42.289H26.394C11.835,42.289,0,54.128,0,68.684v77.074
				c0,14.552,11.839,26.401,26.394,26.401h146.622c14.552,0,26.39-11.85,26.39-26.401V68.684
				C199.406,54.916,188.809,43.567,175.342,42.393z M193.673,145.754c0,11.391-9.269,20.657-20.654,20.657H26.394
				c-11.395,0-20.654-9.269-20.654-20.657V68.684c0-11.391,9.258-20.654,20.654-20.654H41.3l16.048-15.045h39.672l13.034,15.045
				h34.751l0.075-2.627c0.297-3.554,1.99-5.737,3.06-5.737h19.014c1.074,0,2.763,2.183,3.06,5.737l0.075,0.827v1.8h2.867
				c11.442,0,20.711,9.266,20.711,20.654v77.071H193.673z"/>
		</g>
		<g>
			<path style="fill:#010002;" d="M21.376,144.251h105.505V71.572H21.376C21.376,71.572,21.376,144.251,21.376,144.251z
				 M33.766,140.654c5.243-19.032,13.886-38.143,19.881-38.143c0.891,0,1.865,0.523,2.888,1.55
				c10.654,10.654,16.205,28.774,18.206,36.597H33.766V140.654z M82.385,140.654c2.373-8.514,7.029-19.369,12.411-20.743
				c0.293-0.075,0.573-0.111,0.852-0.111c5.01,0,9.935,11.968,13.388,20.854H82.385z M24.973,75.172h98.311v65.486h-7.895
				l-0.179-0.465c-4.771-12.333-10.168-26.312-19.558-26.312c-0.766,0-1.55,0.093-2.319,0.29
				c-7.09,1.822-11.85,11.016-14.634,18.646c-2.988-9.581-8.621-23.592-17.977-32.95c-2.18-2.176-4.556-3.278-7.075-3.278
				c-13.124,0-22.983,32.704-26.015,44.066h-2.659C24.973,140.654,24.973,75.172,24.973,75.172z"/>
		</g>
		<g>
			<path style="fill:#010002;" d="M160.057,99.487c-12.34,0-22.382,10.046-22.382,22.386s10.042,22.379,22.382,22.379
				c12.34,0,22.379-10.039,22.379-22.379S172.4,99.487,160.057,99.487z M160.057,140.654c-10.364,0-18.782-8.421-18.782-18.782
				s8.421-18.782,18.782-18.782c10.361,0,18.782,8.421,18.782,18.782S170.418,140.654,160.057,140.654z"/>
		</g>
		<g>
			<circle style="fill:#010002;" cx="100.988" cy="90.554" r="9.144"/>
		</g>
		<g>
			<polygon style="fill:#010002;" points="155.773,109.618 164.699,109.618 160.236,105.152 			"/>
		</g>
		<g>
			<polygon style="fill:#010002;" points="160.236,138.117 164.699,133.665 155.773,133.665 			"/>
		</g>
		<g>
			<polygon style="fill:#010002;" points="172.257,126.335 176.724,121.872 172.257,117.41 			"/>
		</g>
		<g>
			<polygon style="fill:#010002;" points="148.211,126.335 148.211,117.41 143.755,121.872 			"/>
		</g>
		<g>
			<circle style="fill:#010002;" cx="149.732" cy="83.321" r="5.995"/>
		</g>
		<g>
			<circle style="fill:#010002;" cx="168.081" cy="83.321" r="5.995"/>
		</g>
	</g>
</g>
<g>
</g>
<g>
</g>
<g>
</g>
<g>
</g>
<g>
</g>
<g>
</g>
<g>
</g>
<g>
</g>
<g>
</g>
<g>
</g>
<g>
</g>
<g>
</g>
<g>
</g>
<g>
</g>
<g>
</g>
</svg>
