<?xml version="1.0" encoding="iso-8859-1"?>
<!-- Generator: Adobe Illustrator 18.1.1, SVG Export Plug-In . SVG Version: 6.00 Build 0)  -->
<svg version="1.1" id="Capa_1" xmlns="http://www.w3.org/2000/svg" xmlns:xlink="http://www.w3.org/1999/xlink" x="0px" y="0px"
	 viewBox="0 0 202.559 202.559" style="enable-background:new 0 0 202.559 202.559;" xml:space="preserve">
<g>
	<path style="fill:#010002;" d="M175.765,167.784v-0.079l0.061-0.064h-0.061V25.481H149.51V0H26.734v177.078h26.251v25.478h87.65
		v0.004l0.004-0.004h0.175v-0.175l34.865-34.593h0.086V167.784z M33.817,7.083h108.611v135.084H114.38v27.822H33.817V7.083z
		 M132.375,149.242l-10.912,10.826v-10.826H132.375z M60.071,195.477v-18.402h54.309l35.051-34.772h0.075v-0.079l0.061-0.057h-0.061
		V32.56h19.168v135.084h-28.044v27.833H60.071z M147.721,185.549v-10.822h10.912L147.721,185.549z"/>
</g>
<g>
</g>
<g>
</g>
<g>
</g>
<g>
</g>
<g>
</g>
<g>
</g>
<g>
</g>
<g>
</g>
<g>
</g>
<g>
</g>
<g>
</g>
<g>
</g>
<g>
</g>
<g>
</g>
<g>
</g>
</svg>
