<?xml version="1.0" encoding="iso-8859-1"?>
<!-- Generator: Adobe Illustrator 18.1.1, SVG Export Plug-In . SVG Version: 6.00 Build 0)  -->
<svg version="1.1" id="Capa_1" xmlns="http://www.w3.org/2000/svg" xmlns:xlink="http://www.w3.org/1999/xlink" x="0px" y="0px"
	 viewBox="0 0 199.027 199.027" style="enable-background:new 0 0 199.027 199.027;" xml:space="preserve">
<g>
	<g>
		<g>
			<path style="fill:#010002;" d="M99.514,0.009C44.657,0.009,0,44.648,0,99.522c0,54.853,44.657,99.496,99.514,99.496
				c54.871,0,99.514-44.643,99.514-99.496C199.027,44.648,154.384,0.009,99.514,0.009z M99.514,189.43
				c-49.581,0-89.926-40.33-89.926-89.911S49.932,9.593,99.514,9.593s89.926,40.344,89.926,89.926S149.095,189.43,99.514,189.43z"/>
		</g>
		<g>
			<path style="fill:#010002;" d="M104.288,92.54c-13.199-5.604-17.823-9.538-17.823-17.264c0-6.202,3.418-13.184,15.092-13.184
				c9.699,0,15.901,3.5,19.086,5.307l3.783-9.999c-4.549-2.57-10.747-5.007-19.684-5.29V37.383H95.19v15.156
				c-13.796,2.29-22.719,11.825-22.719,24.393c0,13.184,9.552,20.296,24.988,26.365c11.227,4.545,16.169,9.702,16.151,18.027
				c0.018,8.654-6.302,14.856-17.046,14.856c-8.493,0-16.384-3.021-21.674-6.499l-3.633,10.132
				c5.29,3.783,14.244,6.517,23.016,6.682v15.139h9.552v-15.751c15.6-2.423,23.943-13.646,23.943-25.753
				C127.772,106.652,119.892,98.921,104.288,92.54z"/>
		</g>
	</g>
</g>
<g>
</g>
<g>
</g>
<g>
</g>
<g>
</g>
<g>
</g>
<g>
</g>
<g>
</g>
<g>
</g>
<g>
</g>
<g>
</g>
<g>
</g>
<g>
</g>
<g>
</g>
<g>
</g>
<g>
</g>
</svg>
