<?xml version="1.0" encoding="iso-8859-1"?>
<!-- Generator: Adobe Illustrator 18.1.1, SVG Export Plug-In . SVG Version: 6.00 Build 0)  -->
<svg version="1.1" id="Capa_1" xmlns="http://www.w3.org/2000/svg" xmlns:xlink="http://www.w3.org/1999/xlink" x="0px" y="0px"
	 viewBox="0 0 194.85 194.85" style="enable-background:new 0 0 194.85 194.85;" xml:space="preserve">
<g>
	<g>
		<g>
			<path style="fill:#010002;" d="M157.221,83.931c-9.019-13.374-21.727-22.303-36.941-26.151c1.893,0.021,3.804-0.021,5.64-0.097
				c7.483-0.283,23.875-4.116,28.935,3.171c0.97,1.396,6.188-0.938,5.773-1.535c-3.747-5.39-12.079-4.685-17.848-4.552
				c-7.251,0.175-15.708,1.668-23.32,0.591c2.917-0.297,5.826-0.773,8.757-1.578c8.425-2.298,13.861-10.729,23.187-10.694
				c2.147,0.011,6.141-3.235,2.244-3.257c-5.443-0.011-9.845,1.231-14.548,3.951c-2.713,1.568-5.186,3.615-7.813,5.325
				c-5.4,3.486-12.218,3.629-18.664,3.497c11.477-15.955,21.366-39.815,17.597-48.669c-1.818-4.237-6.295-5.282-12.154-1.993
				c-6.274,3.518-13.346,3.998-19.419,3.998c-2.548,0-5.107-0.097-7.634-0.186c-2.548-0.097-5.086-0.197-7.569-0.197
				c-8.167,0-17.479,0.959-24.612,8.103c-5.576,5.794-7.233,13.331-4.542,20.65c2.963,8.027,11.893,17.021,28.48,22.683
				c-38.977,5.794-50.533,31.898-56.403,57.491c-4.792,20.854-0.415,41.754,12.003,57.337
				c11.828,14.852,29.393,23.033,49.453,23.033c47.08,0,71.133-7.143,80.46-47.767C173.305,125.234,169.167,101.639,157.221,83.931z
				 M90.798,11.692c2.602,0.111,5.225,0.197,7.852,0.197c3.919,0,8.539-0.208,13.245-1.306c-2.974,1.764-5.902,3.758-8.768,5.74
				c-13.864,9.509-24.819,17.021-38.397,0.097c5.336-4.237,12.111-4.899,18.721-4.899C85.855,11.52,88.318,11.606,90.798,11.692z
				 M59.891,32.245c-1.471-4.008-1.152-7.863,0.863-11.316c7.036,8.45,13.829,11.545,20.353,11.545
				c9.019,0,17.501-5.826,25.385-11.238c6.055-4.162,12.275-8.407,18.406-9.845c-1.406,11.087-11.066,31.877-22.182,44.074
				C76.207,51.879,63.083,40.902,59.891,32.245z M162.482,145.756c-8.485,36.909-29.887,43.125-74.655,43.125
				c-18.209,0-34.121-7.372-44.793-20.779c-11.27-14.158-15.224-33.215-10.858-52.283C38.632,87.742,51.298,61.76,99.924,61.76
				c2.176,0,4.42,0.054,6.589,0.15c2.269,0.229,4.61,0.404,7.025,0.523c16.141,2.602,29.536,11.184,38.737,24.841
				C163.32,103.629,167.131,125.489,162.482,145.756z"/>
		</g>
		<g>
			<path style="fill:#010002;" d="M100.088,119.791c-9.008-3.819-12.165-6.51-12.165-11.782c0-4.248,2.33-9.008,10.3-9.008
				c6.635,0,10.869,2.373,13.038,3.615l2.595-6.828c-3.103-1.754-7.344-3.421-13.464-3.625l0.011-10.053h-6.521v10.357
				c-9.42,1.568-15.518,8.077-15.518,16.674c0,9.008,6.524,13.864,17.068,18.002c7.666,3.114,11.041,6.632,11.041,12.315
				c0.011,5.902-4.313,10.15-11.653,10.15c-5.805,0-11.184-2.069-14.802-4.452l-2.494,6.936c3.625,2.584,9.738,4.445,15.736,4.552
				V167h6.524l0.011-10.769c10.651-1.657,16.334-9.316,16.334-17.601C116.132,129.429,110.753,124.15,100.088,119.791z"/>
		</g>
	</g>
</g>
<g>
</g>
<g>
</g>
<g>
</g>
<g>
</g>
<g>
</g>
<g>
</g>
<g>
</g>
<g>
</g>
<g>
</g>
<g>
</g>
<g>
</g>
<g>
</g>
<g>
</g>
<g>
</g>
<g>
</g>
</svg>
