<?xml version="1.0" encoding="iso-8859-1"?>
<!-- Generator: Adobe Illustrator 18.1.1, SVG Export Plug-In . SVG Version: 6.00 Build 0)  -->
<svg version="1.1" id="Capa_1" xmlns="http://www.w3.org/2000/svg" xmlns:xlink="http://www.w3.org/1999/xlink" x="0px" y="0px"
	 viewBox="0 0 199.414 199.414" style="enable-background:new 0 0 199.414 199.414;" xml:space="preserve">
<g>
	<g>
		<path style="fill:#010002;" d="M177.851,74.569L164.08,28.337L0,77.203l27.546,92.495l0.666-0.193v1.571h171.201V74.569H177.851z
			 M140.262,41.25l20.063-5.977l6.055,20.321c-4.395,5.959-12.598,7.984-19.29,4.359c-3.547-1.918-6.131-5.1-7.279-8.969
			C138.842,47.731,139.053,44.356,140.262,41.25z M136.018,42.513c-0.723,3.124-0.701,6.374,0.236,9.53
			c1.428,4.821,4.656,8.786,9.072,11.177c4.559,2.469,9.702,2.852,14.315,1.474c3.01-0.895,5.737-2.605,7.992-4.899l4.398,14.773
			H31.973c-0.251-0.279-0.458-0.598-0.727-0.859L136.018,42.513z M57.931,89.342c0,4.03-1.564,7.823-4.416,10.676
			c-5.379,5.379-13.814,5.787-19.727,1.321V80.141h20.936C56.768,82.779,57.931,85.96,57.931,89.342z M6.932,80.954l20.063-5.98
			c0.433,0.308,0.823,0.666,1.213,1.024v22.472c-4.101,3.604-9.953,4.771-15.232,2.806L6.932,80.954z M14.233,105.487
			c3.142,0.673,6.363,0.619,9.369-0.279c1.636-0.483,3.157-1.27,4.61-2.187v32.557c-1.482,0.812-2.899,1.757-4.126,2.981
			L14.233,105.487z M25.324,142.725c0.83-1.099,1.829-1.986,2.888-2.777v12.462L25.324,142.725z M54.9,165.511H33.784v-20.926
			c5.898-4.341,14.244-3.887,19.583,1.446c2.845,2.852,4.416,6.635,4.416,10.672C57.784,159.917,56.753,162.956,54.9,165.511z
			 M193.841,165.511h-21.412c-1.847-2.555-2.885-5.594-2.885-8.804c0-4.041,1.568-7.823,4.42-10.672
			c5.433-5.433,13.965-5.787,19.877-1.206V165.511z M193.841,140.388c-7.168-4.03-16.413-3.074-22.504,3.01
			c-3.554,3.557-5.511,8.285-5.511,13.299c0,3.146,0.845,6.127,2.283,8.815H59.223c1.439-2.688,2.283-5.669,2.276-8.815
			c0-5.01-1.954-9.742-5.508-13.299c-6.009-5.998-15.078-7-22.207-3.164v-34.507c2.817,1.564,5.916,2.423,9.051,2.423
			c4.821,0,9.634-1.843,13.303-5.508c3.554-3.547,5.511-8.274,5.511-13.299c0-3.289-0.916-6.413-2.498-9.201h109.312
			c-1.575,2.788-2.491,5.912-2.487,9.201c0,5.025,1.954,9.752,5.508,13.299c3.661,3.665,8.482,5.508,13.299,5.508
			c3.135,0,6.238-0.859,9.054-2.423v34.661H193.841z M193.841,101.342c-5.909,4.466-14.344,4.058-19.734-1.321
			c-2.845-2.852-4.413-6.642-4.413-10.676c0-3.386,1.167-6.567,3.21-9.201h20.936C193.841,80.145,193.841,101.342,193.841,101.342z"
			/>
		<path style="fill:#010002;" d="M113.815,97.166c-14.147,0-25.66,11.517-25.66,25.664s11.513,25.65,25.66,25.65
			s25.657-11.502,25.657-25.65S127.965,97.166,113.815,97.166z M113.815,144.768c-12.104,0-21.949-9.845-21.949-21.938
			c0-12.104,9.845-21.949,21.949-21.949c12.093,0,21.938,9.845,21.938,21.949C135.753,134.923,125.908,144.768,113.815,144.768z"/>
		<path style="fill:#010002;" d="M115.257,120.715c-3.987-1.696-5.386-2.885-5.39-5.218c0-1.879,1.038-3.99,4.559-3.99
			c2.935,0,4.814,1.063,5.773,1.6l1.145-3.021c-1.374-0.78-3.25-1.514-5.959-1.6l0.004-4.445h-2.888v4.581
			c-4.173,0.684-6.868,3.579-6.868,7.38c0,3.983,2.885,6.134,7.551,7.977c3.393,1.371,4.889,2.931,4.889,5.447
			c0,2.613-1.911,4.484-5.161,4.484c-2.566,0-4.953-0.905-6.553-1.968l-1.099,3.067c1.603,1.145,4.305,1.968,6.961,2.022
			l0.004,4.581h2.885v-4.774c4.717-0.734,7.236-4.116,7.236-7.784C122.354,124.981,119.974,122.644,115.257,120.715z"/>
	</g>
</g>
<g>
</g>
<g>
</g>
<g>
</g>
<g>
</g>
<g>
</g>
<g>
</g>
<g>
</g>
<g>
</g>
<g>
</g>
<g>
</g>
<g>
</g>
<g>
</g>
<g>
</g>
<g>
</g>
<g>
</g>
</svg>
