<?xml version="1.0" encoding="iso-8859-1"?>
<!-- Generator: Adobe Illustrator 18.1.1, SVG Export Plug-In . SVG Version: 6.00 Build 0)  -->
<svg version="1.1" id="Capa_1" xmlns="http://www.w3.org/2000/svg" xmlns:xlink="http://www.w3.org/1999/xlink" x="0px" y="0px"
	 viewBox="0 0 180.446 180.446" style="enable-background:new 0 0 180.446 180.446;" xml:space="preserve">
<g>
	<g>
		<path style="fill:#010002;" d="M132.682,92.542c-1.954,0-3.543,1.582-3.543,3.536c0,1.958,1.589,3.536,3.543,3.536h40.692v60.336
			H7.068V99.617h42.452c1.965,0,3.547-1.578,3.547-3.536c0-1.954-1.578-3.536-3.547-3.536H0v74.49h180.446V92.542H132.682z"/>
		<path style="fill:#010002;" d="M86.161,145.452c0.816,0.82,1.9,1.238,2.985,1.238c0.025,0,0.043-0.018,0.072-0.018
			c0.029,0,0.05,0.018,0.072,0.018c1.095,0,2.18-0.429,2.988-1.238l23.631-23.624c1.653-1.657,1.653-4.334,0-5.987
			c-1.657-1.65-4.33-1.65-5.987,0l-16.395,16.402V17.64c0-2.333-1.893-4.23-4.237-4.23c-2.33,0-4.234,1.897-4.234,4.23v114.745
			l-16.538-16.541c-1.653-1.65-4.33-1.65-5.984,0c-1.653,1.653-1.653,4.33,0,5.987L86.161,145.452z"/>
	</g>
</g>
<g>
</g>
<g>
</g>
<g>
</g>
<g>
</g>
<g>
</g>
<g>
</g>
<g>
</g>
<g>
</g>
<g>
</g>
<g>
</g>
<g>
</g>
<g>
</g>
<g>
</g>
<g>
</g>
<g>
</g>
</svg>
