<?xml version="1.0" encoding="iso-8859-1"?>
<!-- Generator: Adobe Illustrator 18.1.1, SVG Export Plug-In . SVG Version: 6.00 Build 0)  -->
<svg version="1.1" id="Capa_1" xmlns="http://www.w3.org/2000/svg" xmlns:xlink="http://www.w3.org/1999/xlink" x="0px" y="0px"
	 viewBox="0 0 199.482 199.482" style="enable-background:new 0 0 199.482 199.482;" xml:space="preserve">
<g>
	<g>
		<g>
			<path style="fill:#010002;" d="M112.852,187.17l-86.619-86.63h56.85c1.145-8.575,2.813-33.387-12.547-52.448
				C56.961,31.243,33.477,22.701,0.741,22.701L0,14.949c0.558-0.1,13.907-2.638,32.514-2.638c39.26,0,105.447,11.563,112.337,88.229
				h54.631L112.852,187.17z M45.104,108.35l67.748,67.762l67.758-67.762h-43.046l-0.233-3.654
				c-4.159-65.429-52.634-82.475-96.021-84.382C56.324,24.98,68.152,32.639,76.673,43.25c21.112,26.276,13.861,60.586,13.546,62.036
				l-0.68,3.06H45.104V108.35z"/>
		</g>
	</g>
</g>
<g>
</g>
<g>
</g>
<g>
</g>
<g>
</g>
<g>
</g>
<g>
</g>
<g>
</g>
<g>
</g>
<g>
</g>
<g>
</g>
<g>
</g>
<g>
</g>
<g>
</g>
<g>
</g>
<g>
</g>
</svg>
