<?xml version="1.0" encoding="iso-8859-1"?>
<!-- Generator: Adobe Illustrator 18.1.1, SVG Export Plug-In . SVG Version: 6.00 Build 0)  -->
<svg version="1.1" id="Capa_1" xmlns="http://www.w3.org/2000/svg" xmlns:xlink="http://www.w3.org/1999/xlink" x="0px" y="0px"
	 viewBox="0 0 191.919 191.919" style="enable-background:new 0 0 191.919 191.919;" xml:space="preserve">
<g>
	<g>
		<polygon style="fill:#010002;" points="63.321,145.967 95.963,178.617 128.606,145.967 126.018,143.372 97.796,171.592 
			97.796,93.097 94.131,93.097 94.131,171.592 65.915,143.372 		"/>
		<path style="fill:#010002;" d="M146.593,50.494c-6.914-11.531-19.387-18.635-32.865-18.635c-3.092,0-6.199,0.387-9.266,1.152
			c-6.778-12.193-19.465-19.709-33.466-19.709c-20.603,0-37.46,16.341-38.272,36.934C13.961,52.967,0,68.989,0,88.144
			c0,21.13,17.189,38.319,38.312,38.319H76.58v-3.579H38.319c-19.154,0-34.733-15.586-34.733-34.74
			c0-17.844,13.363-32.696,31.089-34.543l1.593-0.372v-1.61c0-19.154,15.582-34.736,34.736-34.736
			c13.127,0,24.988,7.297,30.957,19.039l0.673,1.321l1.421-0.412c3.192-0.927,6.449-1.396,9.677-1.396
			c12.615,0,24.261,6.871,30.392,17.934l0.651,1.167l1.299-0.286c22.271-4.914,42.27,12.279,42.27,33.895
			c0,19.15-15.582,34.74-34.733,34.74H115.06v3.579h38.548c21.122,0,38.312-17.189,38.312-38.319
			C191.923,64.716,170.604,46.006,146.593,50.494z"/>
	</g>
</g>
<g>
</g>
<g>
</g>
<g>
</g>
<g>
</g>
<g>
</g>
<g>
</g>
<g>
</g>
<g>
</g>
<g>
</g>
<g>
</g>
<g>
</g>
<g>
</g>
<g>
</g>
<g>
</g>
<g>
</g>
</svg>
