<?xml version="1.0" encoding="iso-8859-1"?>
<!-- Generator: Adobe Illustrator 18.1.1, SVG Export Plug-In . SVG Version: 6.00 Build 0)  -->
<svg version="1.1" id="Capa_1" xmlns="http://www.w3.org/2000/svg" xmlns:xlink="http://www.w3.org/1999/xlink" x="0px" y="0px"
	 viewBox="0 0 195.044 195.044" style="enable-background:new 0 0 195.044 195.044;" xml:space="preserve">
<g>
	<g>
		<polygon style="fill:#010002;" points="100.168,161.911 100.168,28.216 94.886,28.216 94.886,161.911 54.237,121.262 
			50.505,125.009 97.524,172.025 144.543,125.009 140.821,121.262 		"/>
		<path style="fill:#010002;" d="M97.524,0C43.748,0,0,43.748,0,97.524s43.744,97.52,97.524,97.52s97.52-43.744,97.52-97.52
			S151.299,0,97.524,0z M97.524,190.438c-51.231,0-92.914-41.683-92.914-92.914S46.292,4.61,97.524,4.61
			s92.914,41.683,92.914,92.918C190.438,148.755,148.755,190.438,97.524,190.438z"/>
	</g>
</g>
<g>
</g>
<g>
</g>
<g>
</g>
<g>
</g>
<g>
</g>
<g>
</g>
<g>
</g>
<g>
</g>
<g>
</g>
<g>
</g>
<g>
</g>
<g>
</g>
<g>
</g>
<g>
</g>
<g>
</g>
</svg>
