<?xml version="1.0" encoding="iso-8859-1"?>
<!-- Generator: Adobe Illustrator 18.1.1, SVG Export Plug-In . SVG Version: 6.00 Build 0)  -->
<svg version="1.1" id="Capa_1" xmlns="http://www.w3.org/2000/svg" xmlns:xlink="http://www.w3.org/1999/xlink" x="0px" y="0px"
	 viewBox="0 0 201.611 201.611" style="enable-background:new 0 0 201.611 201.611;" xml:space="preserve">
<g>
	<g>
		<g>
			<path style="fill:#010002;" d="M87.553,189.167L0,101.618h55.215c6.961-77.486,73.853-89.174,113.532-89.174
				c18.807,0,32.299,2.562,32.865,2.666l-0.748,7.831c-33.086,0-56.825,8.636-70.543,25.664
				c-15.525,19.265-13.843,44.346-12.673,53.01h57.458L87.553,189.167z M19.072,109.513l68.481,68.481l68.474-68.481h-44.911
				l-0.687-3.096c-0.319-1.467-7.648-36.143,13.689-62.701c8.611-10.726,20.568-18.467,35.742-23.184
				c-43.855,1.929-92.843,19.154-97.048,85.288l-0.236,3.69H19.072V109.513z"/>
		</g>
	</g>
</g>
<g>
</g>
<g>
</g>
<g>
</g>
<g>
</g>
<g>
</g>
<g>
</g>
<g>
</g>
<g>
</g>
<g>
</g>
<g>
</g>
<g>
</g>
<g>
</g>
<g>
</g>
<g>
</g>
<g>
</g>
</svg>
