<?xml version="1.0" encoding="iso-8859-1"?>
<!-- Generator: Adobe Illustrator 18.1.1, SVG Export Plug-In . SVG Version: 6.00 Build 0)  -->
<svg version="1.1" id="Capa_1" xmlns="http://www.w3.org/2000/svg" xmlns:xlink="http://www.w3.org/1999/xlink" x="0px" y="0px"
	 viewBox="0 0 168.686 168.686" style="enable-background:new 0 0 168.686 168.686;" xml:space="preserve">
<g>
	<g>
		<path style="fill:#010002;" d="M131.324,14.746C118.69,0.377,94.68-3.997,71.585,3.87c-24.418,8.317-40.498,27.668-41.98,50.512
			l7.73,0.497c1.517-23.499,19.981-37.968,36.744-43.68c20.174-6.868,40.838-3.389,51.442,8.654
			c11.792,13.421,10.647,36.44-3.239,64.831c-6.571,9.165-11.009,19.587-15.296,29.665c-10.536,24.762-19.655,46.189-56.56,46.593
			c-4.971-3.174-6.274-7.251-7.648-11.553c-1.782-5.572-3.994-12.483-15.242-12.483c-0.111,0-0.211,0-0.315,0l0.086,7.741
			c5.812-0.129,6.388,1.736,8.103,7.097c1.582,4.935,3.74,11.696,12.039,16.427l0.895,0.515h1.027
			c42.91,0,54.008-26.083,64.745-51.306c4.166-9.781,8.464-19.906,14.648-28.43l0.336-0.565
			C148.935,47.99,141.251,26.044,131.324,14.746z"/>
		<path style="fill:#010002;" d="M68.261,96.956c-13.542-9.674-20.399,16.66-16.448,21.931c15.479,18.059,34.826-9.029,32.249-25.8
			c-3.869-18.059-15.317-23.055-11.449-41.121c5.923-15.74,23.556-12.766,29.83-11.141c-10.046-5.594-49.517-24.959-32.571,26.462
			C72.741,75.991,81.81,106.633,68.261,96.956z"/>
		<path style="fill:#010002;" d="M104.7,41.487c0,0-0.845-0.297-2.262-0.662c1.424,0.787,2.262,1.306,2.262,1.306V41.487z"/>
	</g>
</g>
<g>
</g>
<g>
</g>
<g>
</g>
<g>
</g>
<g>
</g>
<g>
</g>
<g>
</g>
<g>
</g>
<g>
</g>
<g>
</g>
<g>
</g>
<g>
</g>
<g>
</g>
<g>
</g>
<g>
</g>
</svg>
