<?xml version="1.0" encoding="iso-8859-1"?>
<!-- Generator: Adobe Illustrator 18.1.1, SVG Export Plug-In . SVG Version: 6.00 Build 0)  -->
<svg version="1.1" id="Capa_1" xmlns="http://www.w3.org/2000/svg" xmlns:xlink="http://www.w3.org/1999/xlink" x="0px" y="0px"
	 viewBox="0 0 201.718 201.718" style="enable-background:new 0 0 201.718 201.718;" xml:space="preserve">
<g>
	<polygon style="fill:#010002;" points="195.828,127.625 195.828,191.669 105.018,100.859 115.457,90.42 115.457,90.42 
		195.738,10.142 195.738,74.179 201.615,74.179 201.622,0.097 127.532,0.1 127.532,5.977 191.572,5.984 100.852,96.693 
		90.513,86.354 10.046,5.887 74.086,5.887 74.086,0 0,0 0,74.086 5.887,74.093 5.887,10.046 96.701,100.859 86.257,111.299 
		86.257,111.299 5.984,191.576 5.984,127.54 0.097,127.54 0.097,201.629 74.179,201.615 74.186,195.745 10.142,195.745 
		100.859,105.025 111.206,115.368 191.669,195.828 127.633,195.828 127.633,201.718 201.718,201.718 201.718,127.633 	"/>
</g>
<g>
</g>
<g>
</g>
<g>
</g>
<g>
</g>
<g>
</g>
<g>
</g>
<g>
</g>
<g>
</g>
<g>
</g>
<g>
</g>
<g>
</g>
<g>
</g>
<g>
</g>
<g>
</g>
<g>
</g>
</svg>
