<?xml version="1.0" encoding="iso-8859-1"?>
<!-- Generator: Adobe Illustrator 18.1.1, SVG Export Plug-In . SVG Version: 6.00 Build 0)  -->
<svg version="1.1" id="Capa_1" xmlns="http://www.w3.org/2000/svg" xmlns:xlink="http://www.w3.org/1999/xlink" x="0px" y="0px"
	 viewBox="0 0 198.981 198.981" style="enable-background:new 0 0 198.981 198.981;" xml:space="preserve">
<g>
	<g>
		<path style="fill:#010002;" d="M99.496,152.464c-53.493,0-95.949-48.841-97.738-50.916L0,99.494l1.757-2.051
			c1.779-2.086,44.245-50.927,97.738-50.927c53.482,0,95.949,48.841,97.728,50.927l1.757,2.051l-1.757,2.054
			C195.448,103.62,152.978,152.464,99.496,152.464z M8.428,99.494c8.689,9.255,46.55,46.661,91.067,46.661
			c44.521,0,82.378-37.403,91.071-46.661c-8.693-9.269-46.561-46.672-91.071-46.672C54.978,52.826,17.118,90.228,8.428,99.494z"/>
	</g>
	<g>
		<path style="fill:#010002;" d="M116.016,99.487c0,9.126-7.39,16.531-16.52,16.531s-16.527-7.401-16.527-16.531
			c0-9.115,7.401-16.516,16.527-16.516S116.016,90.368,116.016,99.487z"/>
	</g>
</g>
<g>
</g>
<g>
</g>
<g>
</g>
<g>
</g>
<g>
</g>
<g>
</g>
<g>
</g>
<g>
</g>
<g>
</g>
<g>
</g>
<g>
</g>
<g>
</g>
<g>
</g>
<g>
</g>
<g>
</g>
</svg>
