<?xml version="1.0" encoding="iso-8859-1"?>
<!-- Generator: Adobe Illustrator 18.1.1, SVG Export Plug-In . SVG Version: 6.00 Build 0)  -->
<svg version="1.1" id="Capa_1" xmlns="http://www.w3.org/2000/svg" xmlns:xlink="http://www.w3.org/1999/xlink" x="0px" y="0px"
	 viewBox="0 0 206.142 206.142" style="enable-background:new 0 0 206.142 206.142;" xml:space="preserve">
<g>
	<g>
		<path style="fill:#010002;" d="M204.32,100.945c-1.843-2.147-45.838-52.749-101.253-52.749
			c-55.411,0-99.399,50.601-101.246,52.749L0,103.071l1.822,2.126c1.843,2.162,45.834,52.749,101.246,52.749
			c55.419,0,99.399-50.591,101.253-52.749l1.822-2.126L204.32,100.945z M103.067,151.41c-46.124,0-85.345-38.737-94.346-48.34
			c9.004-9.591,48.225-48.336,94.346-48.336s85.341,38.745,94.353,48.336C188.419,112.673,149.242,151.41,103.067,151.41z"/>
		<path style="fill:#010002;" d="M103.067,82.693c-11.241,0-20.382,9.137-20.382,20.378c0,11.245,9.14,20.378,20.382,20.378
			s20.392-9.137,20.392-20.378C123.456,91.83,114.308,82.693,103.067,82.693z M103.067,116.925c-7.634,0-13.843-6.22-13.843-13.854
			c0-7.634,6.209-13.854,13.843-13.854s13.854,6.22,13.854,13.854C116.917,110.705,110.701,116.925,103.067,116.925z"/>
	</g>
</g>
<g>
</g>
<g>
</g>
<g>
</g>
<g>
</g>
<g>
</g>
<g>
</g>
<g>
</g>
<g>
</g>
<g>
</g>
<g>
</g>
<g>
</g>
<g>
</g>
<g>
</g>
<g>
</g>
<g>
</g>
</svg>
