<?xml version="1.0" encoding="iso-8859-1"?>
<!-- Generator: Adobe Illustrator 18.1.1, SVG Export Plug-In . SVG Version: 6.00 Build 0)  -->
<svg version="1.1" id="Capa_1" xmlns="http://www.w3.org/2000/svg" xmlns:xlink="http://www.w3.org/1999/xlink" x="0px" y="0px"
	 viewBox="0 0 202.209 202.209" style="enable-background:new 0 0 202.209 202.209;" xml:space="preserve">
<g>
	<g>
		<g>
			<path style="fill:#010002;" d="M162.603,0v3.16v3.16v7.38H39.652V3.16h-0.014V0H5.549v202.209h34.035v-3.157h0.072v-11.445
				h122.948v11.445h0.047v3.157h34.01V0H162.603z M162.603,20.017V97.18H39.652V20.017H162.603z M11.862,6.32h21.466v189.568h-6.846
				v-7.68h-8.951v7.68h-5.669V6.32z M39.652,181.287v-77.783H162.6v77.783H39.652z M190.343,195.885h-6.023v-7.68h-8.944v7.68
				h-6.463V6.32h21.427v189.565H190.343z"/>
		</g>
		<g>
			<rect x="17.531" y="13.163" style="fill:#010002;" width="8.951" height="17.375"/>
		</g>
		<g>
			<rect x="17.531" y="45.552" style="fill:#010002;" width="8.951" height="17.375"/>
		</g>
		<g>
			<rect x="17.531" y="82.968" style="fill:#010002;" width="8.951" height="17.372"/>
		</g>
		<g>
			<rect x="17.531" y="118.406" style="fill:#010002;" width="8.951" height="17.379"/>
		</g>
		<g>
			<rect x="17.531" y="150.795" style="fill:#010002;" width="8.951" height="17.372"/>
		</g>
		<g>
			<rect x="175.376" y="13.163" style="fill:#010002;" width="8.944" height="17.375"/>
		</g>
		<g>
			<rect x="175.376" y="45.552" style="fill:#010002;" width="8.944" height="17.375"/>
		</g>
		<g>
			<rect x="175.376" y="82.968" style="fill:#010002;" width="8.944" height="17.372"/>
		</g>
		<g>
			<rect x="175.376" y="118.406" style="fill:#010002;" width="8.944" height="17.379"/>
		</g>
		<g>
			<rect x="175.376" y="150.795" style="fill:#010002;" width="8.944" height="17.372"/>
		</g>
	</g>
</g>
<g>
</g>
<g>
</g>
<g>
</g>
<g>
</g>
<g>
</g>
<g>
</g>
<g>
</g>
<g>
</g>
<g>
</g>
<g>
</g>
<g>
</g>
<g>
</g>
<g>
</g>
<g>
</g>
<g>
</g>
</svg>
