<?xml version="1.0" encoding="iso-8859-1"?>
<!-- Generator: Adobe Illustrator 18.1.1, SVG Export Plug-In . SVG Version: 6.00 Build 0)  -->
<svg version="1.1" id="Capa_1" xmlns="http://www.w3.org/2000/svg" xmlns:xlink="http://www.w3.org/1999/xlink" x="0px" y="0px"
	 viewBox="0 0 197.159 197.159" style="enable-background:new 0 0 197.159 197.159;" xml:space="preserve">
<g>
	<g>
		<g>
			<path style="fill:#010002;" d="M28.412,76.174c-10.425,0-18.903,8.482-18.903,18.911c0,10.425,8.478,18.903,18.903,18.903
				c10.436,0,18.918-8.478,18.918-18.903C47.334,84.656,38.848,76.174,28.412,76.174z M28.412,109.096
				c-7.723,0-14.015-6.284-14.015-14.015s6.292-14.022,14.015-14.022c7.73,0,14.022,6.292,14.022,14.022
				S36.143,109.096,28.412,109.096z"/>
		</g>
		<g>
			<path style="fill:#010002;" d="M101.761,76.174c-10.425,0-18.903,8.482-18.903,18.911c0,10.425,8.478,18.903,18.903,18.903
				s18.911-8.478,18.911-18.903C120.672,84.656,112.186,76.174,101.761,76.174z M101.761,109.096
				c-7.73,0-14.022-6.284-14.022-14.015s6.292-14.022,14.022-14.022s14.015,6.292,14.015,14.022S109.491,109.096,101.761,109.096z"
				/>
		</g>
		<g>
			<path style="fill:#010002;" d="M65.092,77.323c10.425,0,18.903-8.485,18.903-18.911c0-10.429-8.478-18.911-18.903-18.911
				s-18.911,8.482-18.911,18.911C46.178,68.837,54.663,77.323,65.092,77.323z M65.092,44.394c7.73,0,14.015,6.288,14.015,14.018
				s-6.284,14.022-14.015,14.022S51.07,66.143,51.07,58.412C51.07,50.682,57.362,44.394,65.092,44.394z"/>
		</g>
		<g>
			<path style="fill:#010002;" d="M65.092,112.847c-10.425,0-18.911,8.478-18.911,18.903s8.485,18.911,18.911,18.911
				s18.903-8.485,18.903-18.911S75.517,112.847,65.092,112.847z M65.092,145.772c-7.73,0-14.022-6.292-14.022-14.022
				s6.292-14.022,14.022-14.022s14.015,6.292,14.015,14.022S72.822,145.772,65.092,145.772z"/>
		</g>
		<g>
			<path style="fill:#010002;" d="M192.424,144.466l-0.204,0.748c-1.696,6.292-6.782,11.431-14.315,14.459
				c-4.27,1.714-8.972,2.623-13.592,2.623c-5.254,0-10.125-1.202-13.714-3.368c-11.366-7.097-13.689-19.304-15.371-33.341
				c-0.365-3.346-0.68-6.8-1.006-10.318c-2.516-27.289-5.375-58.217-32.134-73.968l-0.68-0.397l-0.082,0.14
				c-10.747-7.233-23.255-11.051-36.229-11.051C29.2,29.993,0,59.192,0,95.088s29.2,65.096,65.096,65.096
				c30.832,0,57.237-21.713,63.607-51.36c0.215,2.119,0.408,4.223,0.594,6.284l0.115,1.21c0.308,3.339,0.616,6.621,0.966,9.86
				c1.421,11.814,3.361,27.987,17.662,36.919c4.345,2.62,10.142,4.069,16.323,4.069c5.236,0,10.554-1.024,15.371-2.949
				c8.997-3.615,15.11-9.906,17.214-17.726l0.211-0.755L192.424,144.466z M65.092,155.292c-33.201,0-60.207-27.017-60.207-60.207
				c0-33.197,27.006-60.207,60.207-60.207c33.194,0,60.207,27.01,60.207,60.207C125.299,128.275,98.282,155.292,65.092,155.292z"/>
		</g>
	</g>
</g>
<g>
</g>
<g>
</g>
<g>
</g>
<g>
</g>
<g>
</g>
<g>
</g>
<g>
</g>
<g>
</g>
<g>
</g>
<g>
</g>
<g>
</g>
<g>
</g>
<g>
</g>
<g>
</g>
<g>
</g>
</svg>
