<?xml version="1.0" encoding="iso-8859-1"?>
<!-- Generator: Adobe Illustrator 18.1.1, SVG Export Plug-In . SVG Version: 6.00 Build 0)  -->
<svg version="1.1" id="Capa_1" xmlns="http://www.w3.org/2000/svg" xmlns:xlink="http://www.w3.org/1999/xlink" x="0px" y="0px"
	 viewBox="0 0 199.571 199.571" style="enable-background:new 0 0 199.571 199.571;" xml:space="preserve">
<g>
	<g>
		<path style="fill:#010002;" d="M120.736,145.598c-6.141,4.563-13.378,6.979-20.951,6.979c-7.562,0-14.806-2.416-20.943-6.979
			l-3.69-2.741l-6.646,33.541l2.008,0.977c9.173,4.491,19.018,6.775,29.271,6.775s20.102-2.283,29.279-6.775l2.008-0.977
			l-6.642-33.541L120.736,145.598z M99.786,178.334c-8.614,0-16.914-1.761-24.698-5.236l4.03-20.349
			c6.274,3.704,13.342,5.64,20.668,5.64s14.391-1.936,20.668-5.64l4.037,20.349C116.699,176.573,108.4,178.334,99.786,178.334z"/>
		<path style="fill:#010002;" d="M142.263,127.575l33.548,6.646l0.977-2.015c4.491-9.18,6.771-19.032,6.771-29.275
			c0-10.25-2.28-20.102-6.775-29.275l-0.973-2.008l-33.548,6.642l2.741,3.693c4.567,6.134,6.982,13.381,6.982,20.943
			c0,7.566-2.416,14.813-6.975,20.943L142.263,127.575z M152.166,82.267l20.342-4.026c3.482,7.791,5.236,16.091,5.236,24.698
			c0,8.604-1.754,16.903-5.236,24.698l-20.342-4.023c3.704-6.277,5.633-13.346,5.633-20.675
			C157.799,95.609,155.87,88.552,152.166,82.267z"/>
		<path style="fill:#010002;" d="M57.305,78.298l-33.534-6.642l-0.984,2.008c-4.484,9.176-6.768,19.025-6.768,29.271
			c0,10.253,2.28,20.11,6.768,29.282l0.984,2.011l33.534-6.646l-2.745-3.697c-4.559-6.131-6.968-13.374-6.968-20.947
			c0-7.566,2.405-14.806,6.968-20.94L57.305,78.298z M47.409,123.614l-20.339,4.023c-3.475-7.791-5.239-16.091-5.239-24.701
			c0-8.604,1.764-16.903,5.239-24.694l20.339,4.026c-3.697,6.277-5.637,13.342-5.637,20.668
			C41.772,110.264,43.712,117.336,47.409,123.614z"/>
		<path style="fill:#010002;" d="M99.789,16.609c-10.261,0-20.106,2.28-29.279,6.771l-2.008,0.988l6.646,33.541l3.693-2.752
			c6.131-4.563,13.371-6.972,20.943-6.972c7.566,0,14.806,2.409,20.943,6.972l3.693,2.752l6.639-33.541l-2.008-0.988
			C119.888,18.886,110.039,16.609,99.789,16.609z M120.457,48.007c-6.281-3.704-13.342-5.64-20.668-5.64
			c-7.333,0-14.398,1.936-20.675,5.64l-4.03-20.349c7.788-3.471,16.087-5.232,24.705-5.232c8.611,0,16.906,1.761,24.701,5.232
			L120.457,48.007z"/>
		<path style="fill:#010002;" d="M190.982,140.212c5.511-12.365,8.586-26.036,8.586-40.423c0-13.625-2.749-26.616-7.72-38.458
			c6.607-7.179,0.966-23.152-13.338-37.446C172,17.365,164.706,12.333,157.981,9.72c-6.499-2.53-11.975-2.566-15.657-0.172
			C129.411,3.432,114.996,0,99.786,0c-15.26,0-29.733,3.457-42.674,9.609c-3.693-2.462-9.201-2.448-15.772,0.107
			c-6.718,2.613-14.018,7.644-20.528,14.165C6.381,38.304,0.752,54.445,7.641,61.531C2.727,73.316,0.004,86.236,0.004,99.786
			c0,14.38,3.085,28.058,8.586,40.423l-0.744-0.741c-7.029,7.036-1.403,23.266,13.088,37.757
			c6.517,6.517,13.811,11.553,20.528,14.169c3.328,1.288,6.378,1.933,9.072,1.933c3.21,0,5.873-0.948,7.856-2.781
			c12.623,5.787,26.63,9.026,41.393,9.026c14.766,0,28.778-3.239,41.4-9.026c1.976,1.836,4.645,2.781,7.859,2.781
			c2.673,0,5.74-0.644,9.062-1.933c6.717-2.616,14.015-7.652,20.532-14.169c14.494-14.491,20.117-30.721,13.081-37.757
			L190.982,140.212z M155.88,15.135c5.987,2.33,12.565,6.896,18.528,12.855c10.053,10.049,15.049,20.947,14.326,26.641
			c-8.704-17.064-22.15-31.301-38.619-40.96C151.808,13.836,153.751,14.308,155.88,15.135z M24.92,27.994
			c5.966-5.962,12.544-10.525,18.528-12.855c2.248-0.877,4.298-1.353,6.059-1.489c-16.602,9.727-30.138,24.104-38.841,41.339
			C9.67,49.402,14.645,38.261,24.92,27.994z M43.569,185.968c-5.987-2.326-12.562-6.896-18.528-12.859
			c-10.833-10.83-15.793-22.651-14.036-27.872c9.148,17.805,23.474,32.528,41.003,42.127
			C49.875,187.732,46.944,187.278,43.569,185.968z M99.786,193.759c-51.815,0-93.973-42.152-93.973-93.97
			c0-51.818,42.159-93.973,93.973-93.973c51.818,0,93.973,42.155,93.973,93.97C193.759,151.604,151.604,193.759,99.786,193.759z
			 M174.53,173.109c-5.959,5.962-12.54,10.529-18.528,12.859c-3.375,1.31-6.306,1.764-8.432,1.399
			c17.526-9.602,31.852-24.325,41.01-42.127C190.327,150.458,185.367,162.279,174.53,173.109z"/>
	</g>
</g>
<g>
</g>
<g>
</g>
<g>
</g>
<g>
</g>
<g>
</g>
<g>
</g>
<g>
</g>
<g>
</g>
<g>
</g>
<g>
</g>
<g>
</g>
<g>
</g>
<g>
</g>
<g>
</g>
<g>
</g>
</svg>
