<?xml version="1.0" encoding="iso-8859-1"?>
<!-- Generator: Adobe Illustrator 18.1.1, SVG Export Plug-In . SVG Version: 6.00 Build 0)  -->
<svg version="1.1" id="Capa_1" xmlns="http://www.w3.org/2000/svg" xmlns:xlink="http://www.w3.org/1999/xlink" x="0px" y="0px"
	 viewBox="0 0 195.921 195.921" style="enable-background:new 0 0 195.921 195.921;" xml:space="preserve">
<g>
	<path style="fill:#010002;" d="M193.924,57.865c-6.088-9.137-14.015-18.621-23.585-28.187
		c-16.223-16.223-31.351-26.949-31.988-27.4l-3.035-2.14l-33.512,54.667l0.583,0.587L0,162.693l33.086,33.09L140.388,93.392
		l0.952,0.948l54.581-33.466L193.924,57.865z M33.197,186.052L9.734,162.585l97.585-102.269l28.148,28.148L33.197,186.052z
		 M142.624,85.386l-31.859-31.863l26.577-43.343c5.2,3.919,16.448,12.802,28.08,24.426c8.206,8.199,15.135,16.302,20.661,24.139
		L142.624,85.386z M101.281,107.525l15.139-14.401l4.799,5.046l-15.142,14.398L101.281,107.525z"/>
</g>
<g>
</g>
<g>
</g>
<g>
</g>
<g>
</g>
<g>
</g>
<g>
</g>
<g>
</g>
<g>
</g>
<g>
</g>
<g>
</g>
<g>
</g>
<g>
</g>
<g>
</g>
<g>
</g>
<g>
</g>
</svg>
