<?xml version="1.0" encoding="iso-8859-1"?>
<!-- Generator: Adobe Illustrator 18.1.1, SVG Export Plug-In . SVG Version: 6.00 Build 0)  -->
<svg version="1.1" id="Capa_1" xmlns="http://www.w3.org/2000/svg" xmlns:xlink="http://www.w3.org/1999/xlink" x="0px" y="0px"
	 viewBox="0 0 197.366 197.366" style="enable-background:new 0 0 197.366 197.366;" xml:space="preserve">
<g>
	<g>
		<path style="fill:#010002;" d="M133.459,42.547l-16.316-16.316H80.585L66.449,42.547H0v128.588h197.366V42.547H133.459z
			 M190.842,164.611H6.524V49.079h62.902l14.147-16.32h30.868l16.32,16.32h60.085v115.532H190.842z"/>
		<path style="fill:#010002;" d="M97.971,143.152c-8.872,0-17.214-3.446-23.474-9.706c-12.938-12.941-12.938-33.999,0-46.947
			c6.263-6.256,14.602-9.702,23.474-9.702c6.589,0,12.959,1.918,18.42,5.562l3.257,2.169l-12.021,3.096l0.598,2.888l16.949-4.019
			L121.853,69.6L119,70.348l2.323,11.735l-3.486-2.298c-5.905-3.883-12.784-5.937-19.881-5.937c-9.663,0-18.739,3.751-25.553,10.568
			c-14.094,14.094-14.094,37.02,0,51.12c6.825,6.811,15.897,10.568,25.56,10.568s18.739-3.758,25.564-10.568
			c6.685-6.689,10.443-15.579,10.579-25.027l-2.949-0.047c-0.125,8.675-3.575,16.835-9.717,22.983
			C115.182,139.706,106.843,143.152,97.971,143.152z"/>
	</g>
</g>
<g>
</g>
<g>
</g>
<g>
</g>
<g>
</g>
<g>
</g>
<g>
</g>
<g>
</g>
<g>
</g>
<g>
</g>
<g>
</g>
<g>
</g>
<g>
</g>
<g>
</g>
<g>
</g>
<g>
</g>
</svg>
