<?xml version="1.0" encoding="iso-8859-1"?>
<!-- Generator: Adobe Illustrator 18.1.1, SVG Export Plug-In . SVG Version: 6.00 Build 0)  -->
<svg version="1.1" id="Capa_1" xmlns="http://www.w3.org/2000/svg" xmlns:xlink="http://www.w3.org/1999/xlink" x="0px" y="0px"
	 viewBox="0 0 197.366 197.366" style="enable-background:new 0 0 197.366 197.366;" xml:space="preserve">
<g>
	<g>
		<path style="fill:#010002;" d="M133.459,42.547l-16.316-16.316H80.585L66.449,42.547H0v128.588h197.366V42.547H133.459z
			 M190.842,164.611H6.524V49.079h62.913l14.136-16.32h30.878l16.309,16.32h60.085v115.532H190.842z"/>
		<path style="fill:#010002;" d="M100.312,61.88c-20.435,0-37.066,16.627-37.066,37.066h3.131c0-18.714,15.224-33.931,33.935-33.931
			c15.69,0,29.608,11.13,33.112,26.469l1.024,4.509l-13.199-9.498l-1.865,2.527l18.231,12.666l9.294-18.531l-2.802-1.406
			l-6.628,13.213l-1.12-4.635C132.371,73.841,117.218,61.88,100.312,61.88z"/>
		<path style="fill:#010002;" d="M103.064,144.595c-16.051,0-29.672-10.894-33.122-26.491l-0.988-4.474l13.184,9.488l1.854-2.523
			l-17.994-13.027l-9.52,18.889l2.795,1.403l6.624-13.213l1.124,4.642c3.983,16.477,19.147,28.441,36.043,28.441
			c20.442,0,37.066-16.627,37.066-37.066h-3.132C136.998,129.374,121.77,144.595,103.064,144.595z"/>
	</g>
</g>
<g>
</g>
<g>
</g>
<g>
</g>
<g>
</g>
<g>
</g>
<g>
</g>
<g>
</g>
<g>
</g>
<g>
</g>
<g>
</g>
<g>
</g>
<g>
</g>
<g>
</g>
<g>
</g>
<g>
</g>
</svg>
