<?xml version="1.0" encoding="iso-8859-1"?>
<!-- Generator: Adobe Illustrator 18.1.1, SVG Export Plug-In . SVG Version: 6.00 Build 0)  -->
<svg version="1.1" id="Capa_1" xmlns="http://www.w3.org/2000/svg" xmlns:xlink="http://www.w3.org/1999/xlink" x="0px" y="0px"
	 viewBox="0 0 202.205 202.205" style="enable-background:new 0 0 202.205 202.205;" xml:space="preserve">
<g>
	<g>
		<polygon style="fill:#010002;" points="184.601,91.862 184.615,85.971 120.41,85.96 202.205,4.166 198.043,0 116.245,81.798 
			116.245,17.604 110.329,17.604 110.343,91.876 		"/>
		<polygon style="fill:#010002;" points="17.622,110.329 17.597,116.234 81.802,116.234 0.004,198.029 4.169,202.205 85.964,120.41 
			85.964,184.586 91.873,184.586 91.866,110.329 		"/>
		<polygon style="fill:#010002;" points="184.586,116.255 184.586,110.343 110.329,110.343 110.329,184.611 116.234,184.611 
			116.234,120.418 198.029,202.205 202.205,198.043 120.41,116.241 		"/>
		<polygon style="fill:#010002;" points="85.971,81.809 4.169,0 0,4.177 81.795,85.971 17.615,85.971 17.608,91.876 91.873,91.876 
			91.873,17.619 85.971,17.604 		"/>
	</g>
</g>
<g>
</g>
<g>
</g>
<g>
</g>
<g>
</g>
<g>
</g>
<g>
</g>
<g>
</g>
<g>
</g>
<g>
</g>
<g>
</g>
<g>
</g>
<g>
</g>
<g>
</g>
<g>
</g>
<g>
</g>
</svg>
