<?xml version="1.0" encoding="iso-8859-1"?>
<!-- Generator: Adobe Illustrator 18.1.1, SVG Export Plug-In . SVG Version: 6.00 Build 0)  -->
<svg version="1.1" id="Capa_1" xmlns="http://www.w3.org/2000/svg" xmlns:xlink="http://www.w3.org/1999/xlink" x="0px" y="0px"
	 viewBox="0 0 205.791 205.791" style="enable-background:new 0 0 205.791 205.791;" xml:space="preserve">
<g>
	<g>
		<polygon style="fill:#010002;" points="100.771,8.128 100.771,83.072 105.02,83.072 105.02,8.128 137.68,40.792 140.686,37.786 
			102.894,0 65.101,37.786 68.1,40.792 		"/>
		<polygon style="fill:#010002;" points="83.07,105.021 83.07,100.773 8.226,100.773 40.887,68.109 37.884,65.103 0.091,102.896 
			37.884,140.688 40.887,137.686 8.219,105.021 		"/>
		<polygon style="fill:#010002;" points="105.02,197.667 105.02,122.722 100.771,122.722 100.771,197.667 68.107,164.996 
			65.101,168.002 102.894,205.791 140.686,168.002 137.691,164.996 		"/>
		<polygon style="fill:#010002;" points="167.907,65.103 164.901,68.102 197.565,100.773 122.717,100.773 122.717,105.021 
			197.565,105.021 164.901,137.686 167.907,140.688 205.7,102.896 		"/>
	</g>
</g>
<g>
</g>
<g>
</g>
<g>
</g>
<g>
</g>
<g>
</g>
<g>
</g>
<g>
</g>
<g>
</g>
<g>
</g>
<g>
</g>
<g>
</g>
<g>
</g>
<g>
</g>
<g>
</g>
<g>
</g>
</svg>
