<?xml version="1.0" encoding="iso-8859-1"?>
<!-- Generator: Adobe Illustrator 18.1.1, SVG Export Plug-In . SVG Version: 6.00 Build 0)  -->
<svg version="1.1" id="Capa_1" xmlns="http://www.w3.org/2000/svg" xmlns:xlink="http://www.w3.org/1999/xlink" x="0px" y="0px"
	 viewBox="0 0 202.5 202.5" style="enable-background:new 0 0 202.5 202.5;" xml:space="preserve">
<g>
	<g>
		<g>
			<path style="fill:#010002;" d="M199.28,141.079V95.953c1.131-3.031,6.911-19.988-0.476-30.878
				c-5.397-7.963-16.252-10.525-32.281-7.648c1.797-6.428,3.958-18.449-1.75-26.874c-6.836-10.082-22.371-11.574-46.16-4.212
				c-3.486-2.058-15.568-8.185-36.386-8.185c-19.981,0-29.465,5.712-32.575,8.117c-23.681-7.29-39.142-5.776-45.963,4.28
				c-7.38,10.894-1.596,27.847-0.462,30.878v45.115c-1.127,3.038-6.911,19.988,0.472,30.882c5.397,7.963,16.244,10.543,32.278,7.655
				c-1.793,6.438-3.951,18.445,1.754,26.87c6.818,10.053,22.275,11.563,45.952,4.273c3.106,2.405,12.59,8.117,32.571,8.117
				c20.818,0,32.908-6.12,36.386-8.181c9.938,3.074,18.517,4.635,25.499,4.635c9.738,0,16.688-2.981,20.671-8.85
				C206.19,161.056,200.41,144.107,199.28,141.079z M7.679,134.734c-6.535-9.624,0.111-26.687,0.183-26.863l0.165-0.419V60.519
				l-0.172-0.426c-0.072-0.168-6.728-17.189-0.186-26.841c5.569-8.221,20.031-8.901,41.812-2.001l1.414,0.426l1.031-1.041
				c0.082-0.075,7.877-7.68,30.302-7.68c22.844,0,34.554,7.902,34.668,7.977l0.97,0.676l1.131-0.361
				c21.767-6.896,36.222-6.224,41.801,1.986c6.535,9.627-0.111,26.691-0.183,26.859l-0.165,0.429v46.929l0.165,0.429
				c0.072,0.165,6.721,17.225,0.19,26.852c-5.579,8.21-20.042,8.886-41.808,1.986l-1.131-0.361l-0.97,0.684
				c-0.111,0.075-11.674,7.97-34.668,7.97c-22.425,0-30.22-7.594-30.284-7.652l-1.031-1.088l-1.428,0.444
				C27.717,143.624,13.258,142.951,7.679,134.734z M194.827,169.259c-5.579,8.21-20.038,8.886-41.805,1.986l-1.131-0.354
				l-0.97,0.676c-0.111,0.075-11.678,7.974-34.672,7.974c-22.425,0-30.216-7.598-30.281-7.655l-1.031-1.088l-1.432,0.444
				c-21.763,6.904-36.225,6.234-41.797-1.986c-5.386-7.934-1.84-20.861-0.376-25.281c2.652-0.633,5.418-1.385,8.314-2.276
				c3.106,2.405,12.59,8.117,32.575,8.117c20.818,0,32.9-6.12,36.386-8.181c9.938,3.074,18.517,4.635,25.499,4.635
				c9.731,0,16.688-2.981,20.664-8.85c7.383-10.887,1.596-27.836,0.469-30.875V77.655h10.962v81.651H59.354V146.73
				c-0.855-0.279-1.653-0.565-2.398-0.845v15.829h121.649V75.257h-13.36V62.556c14.985-3.074,25.127-1.349,29.579,5.207
				c6.535,9.631-0.107,26.691-0.179,26.863l-0.168,0.426v46.926l0.168,0.429C194.713,142.575,201.362,159.632,194.827,169.259z"/>
		</g>
		<g>
			<path style="fill:#010002;" d="M144.57,40.732H22.925v86.461H144.57V40.732z M142.175,124.785H25.322V43.133h116.853V124.785z"/>
		</g>
	</g>
</g>
<g>
</g>
<g>
</g>
<g>
</g>
<g>
</g>
<g>
</g>
<g>
</g>
<g>
</g>
<g>
</g>
<g>
</g>
<g>
</g>
<g>
</g>
<g>
</g>
<g>
</g>
<g>
</g>
<g>
</g>
</svg>
