<?xml version="1.0" encoding="iso-8859-1"?>
<!-- Generator: Adobe Illustrator 18.1.1, SVG Export Plug-In . SVG Version: 6.00 Build 0)  -->
<svg version="1.1" id="Capa_1" xmlns="http://www.w3.org/2000/svg" xmlns:xlink="http://www.w3.org/1999/xlink" x="0px" y="0px"
	 viewBox="0 0 199.584 199.584" style="enable-background:new 0 0 199.584 199.584;" xml:space="preserve">
<g>
	<g>
		<g>
			<path style="fill:#010002;" d="M27.154,150.97h144.124V48.539H27.154V150.97z M29.992,51.385h138.444v96.736H29.992V51.385z"/>
		</g>
		<g>
			<path style="fill:#010002;" d="M195.764,126.512v-53.45c1.338-3.59,8.192-23.681-0.558-36.583
				c-8.099-11.946-26.498-13.711-54.692-4.989c-4.116-2.437-18.438-9.695-43.104-9.695c-23.674,0-34.915,6.771-38.587,9.62
				c-28.058-8.636-46.371-6.846-54.452,5.071c-8.743,12.902-1.893,32.986-0.555,36.579v53.45
				c-1.335,3.593-8.181,23.678,0.562,36.587c8.074,11.91,26.387,13.696,54.445,5.071c3.672,2.849,14.913,9.616,38.587,9.616
				c24.665,0,38.988-7.254,43.104-9.699c11.782,3.65,21.942,5.49,30.216,5.49c11.531,0,19.762-3.518,24.483-10.479
				C203.956,150.19,197.11,130.105,195.764,126.512z M190.496,159.913c-6.607,9.724-23.739,10.529-49.528,2.358l-1.338-0.426
				l-1.145,0.798c-0.136,0.1-13.832,9.455-41.074,9.455c-26.569,0-35.803-9.012-35.874-9.08l-1.224-1.278l-1.696,0.533
				c-25.782,8.167-42.914,7.372-49.524-2.362c-7.748-11.406,0.132-31.612,0.211-31.823l0.204-0.501V71.988L9.302,71.48
				c-0.082-0.2-7.974-20.364-0.218-31.802c6.596-9.738,23.728-10.55,49.528-2.369l1.678,0.505l1.224-1.235
				c0.089-0.089,9.323-9.094,35.892-9.094c27.07,0,40.942,9.359,41.074,9.445l1.145,0.809l1.339-0.426
				c25.789-8.174,42.914-7.376,49.521,2.355c7.745,11.409-0.125,31.616-0.211,31.823l-0.2,0.505V127.6l0.2,0.512
				C190.364,128.301,198.241,148.507,190.496,159.913z"/>
		</g>
		<g>
			<path style="fill:#010002;" d="M136.581,134.196c-6.707-14.616-7.297-15.203-7.519-15.425L74.305,64.014
				c-1.224-1.224-3.21-1.224-4.434,0l-6.098,6.098c-1.22,1.224-1.22,3.21,0,4.431l54.756,54.756
				c0.251,0.254,0.837,0.845,16.037,7.004c0.598,0.233,1.278,0.089,1.721-0.372C136.731,135.466,136.849,134.775,136.581,134.196z
				 M119.642,125.975L75.053,81.39l6.102-6.098l44.582,44.589L119.642,125.975z M72.086,66.233l6.843,6.843l-6.095,6.095
				l-6.85-6.843L72.086,66.233z M122.29,127.764l5.293-5.297c1.009,2.029,2.724,5.633,4.484,9.423
				C128.152,130.284,124.405,128.706,122.29,127.764z"/>
		</g>
	</g>
</g>
<g>
</g>
<g>
</g>
<g>
</g>
<g>
</g>
<g>
</g>
<g>
</g>
<g>
</g>
<g>
</g>
<g>
</g>
<g>
</g>
<g>
</g>
<g>
</g>
<g>
</g>
<g>
</g>
<g>
</g>
</svg>
