<?xml version="1.0" encoding="iso-8859-1"?>
<!-- Generator: Adobe Illustrator 18.1.1, SVG Export Plug-In . SVG Version: 6.00 Build 0)  -->
<svg version="1.1" id="Capa_1" xmlns="http://www.w3.org/2000/svg" xmlns:xlink="http://www.w3.org/1999/xlink" x="0px" y="0px"
	 viewBox="0 0 196.54 196.54" style="enable-background:new 0 0 196.54 196.54;" xml:space="preserve">
<g>
	<g>
		<g>
			<path style="fill:#010002;" d="M26.735,148.669h141.93V47.807H26.735V148.669z M29.541,50.605h136.322v95.258H29.541V50.605z"/>
		</g>
		<g>
			<path style="fill:#010002;" d="M192.783,124.591V71.953c1.313-3.536,8.056-23.32-0.551-36.025
				c-7.977-11.764-26.101-13.503-53.865-4.914c-4.055-2.398-18.159-9.548-42.445-9.548c-23.309,0-34.375,6.667-38.004,9.473
				C30.289,22.436,12.255,24.2,4.306,35.932C-4.308,48.64,2.442,68.417,3.759,71.953v52.634c-1.317,3.536-8.06,23.313,0.555,36.021
				c7.956,11.728,25.99,13.489,53.608,4.996c3.629,2.802,14.695,9.47,38.004,9.47c24.286,0,38.39-7.147,42.445-9.548
				c11.603,3.59,21.609,5.404,29.751,5.404c11.356,0,19.473-3.468,24.114-10.318C200.849,147.9,194.096,128.127,192.783,124.591z
				 M187.59,157.477c-6.506,9.577-23.377,10.368-48.769,2.323l-1.321-0.422l-1.131,0.787c-0.132,0.097-13.618,9.312-40.445,9.312
				c-26.169,0-35.262-8.872-35.33-8.944l-1.21-1.26l-1.668,0.526c-25.388,8.045-42.255,7.258-48.762-2.323
				c-7.623-11.23,0.129-31.129,0.211-31.336l0.197-0.49V70.894l-0.2-0.501c-0.075-0.197-7.856-20.056-0.222-31.315
				c6.503-9.591,23.373-10.389,48.776-2.333l1.653,0.497l1.202-1.213c0.089-0.089,9.18-8.954,35.348-8.954
				c26.652,0,40.319,9.212,40.445,9.298l1.131,0.795l1.321-0.422c25.388-8.049,42.259-7.261,48.765,2.319
				c7.623,11.234-0.136,31.136-0.211,31.336l-0.204,0.494l0.004,54.756l0.2,0.501C187.45,126.348,195.213,146.246,187.59,157.477z"
				/>
		</g>
		<g>
			<path style="fill:#010002;" d="M120.028,75.947c-1.474-1.478-3.854-1.478-5.329-0.004l-17.003,17L80.704,75.947
				c-1.478-1.478-3.858-1.474-5.332-0.004c-1.474,1.474-1.474,3.862,0.004,5.332l16.996,16.996l-17,17
				c-1.474,1.474-1.474,3.858,0,5.332c1.474,1.471,3.858,1.471,5.332,0l17-17l17,16.989c1.471,1.482,3.854,1.482,5.325,0.011
				c1.471-1.474,1.471-3.858-0.004-5.332l-16.992-17l17.003-17C121.506,79.801,121.506,77.422,120.028,75.947z"/>
		</g>
	</g>
</g>
<g>
</g>
<g>
</g>
<g>
</g>
<g>
</g>
<g>
</g>
<g>
</g>
<g>
</g>
<g>
</g>
<g>
</g>
<g>
</g>
<g>
</g>
<g>
</g>
<g>
</g>
<g>
</g>
<g>
</g>
</svg>
