<?xml version="1.0" encoding="iso-8859-1"?>
<!-- Generator: Adobe Illustrator 18.1.1, SVG Export Plug-In . SVG Version: 6.00 Build 0)  -->
<svg version="1.1" id="Capa_1" xmlns="http://www.w3.org/2000/svg" xmlns:xlink="http://www.w3.org/1999/xlink" x="0px" y="0px"
	 viewBox="0 0 199.063 199.063" style="enable-background:new 0 0 199.063 199.063;" xml:space="preserve">
<g>
	<g>
		<g>
			<path style="fill:#010002;" d="M62.737,75.163c-10.264,0-18.61,8.335-18.61,18.581c0,10.25,8.346,18.596,18.61,18.596
				c10.243,0,18.589-8.346,18.589-18.596C81.326,83.498,72.98,75.163,62.737,75.163z M62.737,105.462
				c-6.474,0-11.731-5.257-11.731-11.717c0-6.456,5.261-11.71,11.731-11.71c6.46,0,11.71,5.254,11.71,11.71
				C74.447,100.204,69.197,105.462,62.737,105.462z"/>
		</g>
		<g>
			<path style="fill:#010002;" d="M137.689,47.878h-0.791l-0.73,0.354c-12.812,6.338-23.237,9.273-33.566,9.509
				c-0.344-4.366-0.397-12.766,3.493-18.209c1.929-2.698,4.585-4.287,8.113-4.86c1.596-0.258,3.221-0.508,4.849-0.759
				c18.098-2.792,38.605-5.962,43.916-23.323l-6.578-2.011c-4.051,13.238-21.505,15.933-38.39,18.542
				c-1.65,0.251-3.289,0.508-4.896,0.766c-5.368,0.87-9.62,3.45-12.619,7.673c-4.896,6.871-5.154,16.452-4.81,21.938
				c-9.205-0.852-19.082-3.819-31.873-9.538l-0.666-0.304h-0.741C26.208,47.656,0,111.599,0,154.703
				c0,10.3,1.51,18.606,4.488,24.687c3.547,7.251,9.162,11.094,16.209,11.094c16.073,0,25.918-9.402,35.431-18.495
				c10.951-10.447,22.264-21.255,44.431-21.255c18.245,0,32.292,11.109,45.856,21.845c11.302,8.958,21.985,17.411,33.77,17.411
				c6.492,0,11.617-3.257,14.838-9.423c2.681-5.125,4.041-12.218,4.041-21.112C199.074,121.745,171.28,47.878,137.689,47.878z
				 M188.935,177.379c-2.033,3.919-4.824,5.73-8.743,5.73c-9.394,0-18.714-7.372-29.504-15.922
				c-13.822-10.933-29.472-23.331-50.118-23.331c-24.934,0-37.811,12.304-49.177,23.166c-9.319,8.897-17.368,16.592-30.685,16.592
				c-4.37,0-7.648-2.369-10.039-7.24c-2.473-5.057-3.783-12.555-3.783-21.67c0-39.11,23.488-99.263,54.814-100.158
				c15.987,7.086,27.858,10.114,39.579,10.114c11.667,0,23.162-3.053,37.188-9.885c26.773,1.238,53.733,67.501,53.733,104.678
				C192.195,167.111,191.068,173.306,188.935,177.379z"/>
		</g>
		<g>
			<circle style="fill:#010002;" cx="145.913" cy="81.168" r="6.016"/>
		</g>
		<g>
			<circle style="fill:#010002;" cx="133.695" cy="94.102" r="6.012"/>
		</g>
		<g>
			<circle style="fill:#010002;" cx="154.689" cy="96.654" r="6.012"/>
		</g>
		<g>
			<path style="fill:#010002;" d="M139.235,104.513c-2.795,1.786-3.622,5.504-1.832,8.31c1.779,2.795,5.504,3.622,8.299,1.84
				c2.809-1.786,3.625-5.504,1.847-8.303C145.759,103.55,142.041,102.731,139.235,104.513z"/>
		</g>
	</g>
</g>
<g>
</g>
<g>
</g>
<g>
</g>
<g>
</g>
<g>
</g>
<g>
</g>
<g>
</g>
<g>
</g>
<g>
</g>
<g>
</g>
<g>
</g>
<g>
</g>
<g>
</g>
<g>
</g>
<g>
</g>
</svg>
