<?xml version="1.0" encoding="iso-8859-1"?>
<!-- Generator: Adobe Illustrator 18.1.1, SVG Export Plug-In . SVG Version: 6.00 Build 0)  -->
<svg version="1.1" id="Capa_1" xmlns="http://www.w3.org/2000/svg" xmlns:xlink="http://www.w3.org/1999/xlink" x="0px" y="0px"
	 viewBox="0 0 200.677 200.677" style="enable-background:new 0 0 200.677 200.677;" xml:space="preserve">
<g>
	<g>
		<path style="fill:#010002;" d="M195.443,31.744h-45.426c2.305-1.496,4.087-3.228,5.232-5.257
			c2.731-4.871,1.943-10.901-2.341-17.93l-0.286-0.397C147.848,2.741,142.726,0,137.394,0c-10.017,0-18.392,9.258-26.487,18.227
			c-4.237,4.699-8.289,9.148-11.989,11.553c-3.69-2.405-7.737-6.853-11.975-11.553C78.837,9.258,70.469,0,60.449,0
			c-5.325,0-10.447,2.741-15.221,8.16l-0.286,0.397c-4.287,7.029-5.075,13.059-2.341,17.93c1.138,2.029,2.92,3.761,5.232,5.257
			H5.234v41.017h10.708v127.915h66.162h35.939h66.685V72.762h10.715V31.744z M115.116,22.028
			c7.261-8.038,14.777-16.359,22.278-16.359c3.629,0,7.154,1.983,10.794,6.055c3.042,5.046,3.751,9.083,2.119,11.989
			c-2.444,4.348-10.182,7.09-22.017,8.038h-20.485c-0.673-0.05-1.346-0.1-1.968-0.14C108.899,28.917,111.948,25.528,115.116,22.028z
			 M112.36,67.093H87.78V39.468h24.58V67.093z M47.543,23.71c-1.632-2.917-0.92-6.939,2.112-11.989
			c3.633-4.073,7.168-6.055,10.79-6.055c7.501,0,15.006,8.324,22.285,16.359c3.157,3.504,6.216,6.889,9.276,9.581
			c-0.623,0.039-1.303,0.086-1.961,0.14H69.56C57.721,30.8,49.984,28.058,47.543,23.71z M10.91,37.413h58.554
			c2.995,0.225,6.148,0.387,9.613,0.387l0,0c1.027,0,2.029-0.011,3.028-0.039v29.332H10.91V37.413z M21.618,195.004V72.926h60.486
			v122.078H21.618z M87.78,195.004V72.926h24.58v122.078H87.78z M179.059,195.004h-61.016V72.926h61.016V195.004z M189.76,67.093
			h-71.717V37.789c0.236,0,0.472,0.011,0.709,0.011c3.464,0,6.617-0.161,9.62-0.387h61.388V67.093z"/>
	</g>
</g>
<g>
</g>
<g>
</g>
<g>
</g>
<g>
</g>
<g>
</g>
<g>
</g>
<g>
</g>
<g>
</g>
<g>
</g>
<g>
</g>
<g>
</g>
<g>
</g>
<g>
</g>
<g>
</g>
<g>
</g>
</svg>
