<?xml version="1.0" encoding="iso-8859-1"?>
<!-- Generator: Adobe Illustrator 18.1.1, SVG Export Plug-In . SVG Version: 6.00 Build 0)  -->
<svg version="1.1" id="Capa_1" xmlns="http://www.w3.org/2000/svg" xmlns:xlink="http://www.w3.org/1999/xlink" x="0px" y="0px"
	 viewBox="0 0 200.373 200.373" style="enable-background:new 0 0 200.373 200.373;" xml:space="preserve">
<g>
	<path style="fill:#010002;" d="M200.373,108.808l-52.806-77.718l-0.927-0.358c-0.218-0.082-21.087-7.82-34.45,13.131l5.361,3.425
		c9.233-14.473,22.404-11.903,25.925-10.901l47.033,69.222c-6.395-1.457-16.788-3.164-30.406-3.164
		c-13.514,0-27.414,1.696-41.3,5.057l-2.394,0.58l-0.043,3.031c-12.462-5.347-26.219-1.886-32.865,0.444l-0.064-3.475l-2.391-0.58
		c-13.875-3.361-27.775-5.057-41.293-5.057c-12.751,0-22.683,1.5-29.15,2.888l46.847-68.957c3.529-1.041,16.631-3.661,25.918,10.908
		l5.361-3.425C75.367,22.908,54.488,30.645,54.28,30.728l-0.931,0.358L1.131,107.959L0,108.367l0.054,27.299
		C0,136.204-0.97,148.901,8.375,159.069c7.333,7.988,18.764,12.039,33.97,12.039c15.865,0,27.514-4.041,34.604-12.011
		c8.221-9.237,7.036-20.253,7.004-20.399l-0.336-20.371c4.678-1.857,20.328-7.072,32.636-0.175l-0.329,20.224
		c-0.054,0.469-1.238,11.485,6.993,20.722c7.09,7.974,18.735,12.011,34.604,12.011c15.203,0,26.63-4.051,33.97-12.039
		c9.33-10.168,8.364-22.865,8.328-23.123l0.047-26.777L200.373,108.808z M72.132,154.943c-5.851,6.51-15.865,9.802-29.787,9.802
		c-13.306,0-23.141-3.339-29.225-9.917c-7.458-8.06-6.735-18.528-6.721-18.889L6.36,112.938c4.595-1.31,16.466-4.13,33.398-4.13
		c12.24,0,24.805,1.449,37.41,4.316l0.447,25.982C77.622,139.188,78.47,147.881,72.132,154.943z M186.737,154.828
		c-6.088,6.578-15.919,9.917-29.218,9.917c-13.922,0-23.946-3.293-29.787-9.802c-6.349-7.061-5.49-15.751-5.468-16.144l0.426-25.675
		c12.601-2.867,25.174-4.316,37.417-4.316c16.932,0,28.795,2.827,33.384,4.13l-0.021,23.263
		C193.476,136.304,194.199,146.768,186.737,154.828z"/>
</g>
<g>
</g>
<g>
</g>
<g>
</g>
<g>
</g>
<g>
</g>
<g>
</g>
<g>
</g>
<g>
</g>
<g>
</g>
<g>
</g>
<g>
</g>
<g>
</g>
<g>
</g>
<g>
</g>
<g>
</g>
</svg>
