<?xml version="1.0" encoding="iso-8859-1"?>
<!-- Generator: Adobe Illustrator 18.1.1, SVG Export Plug-In . SVG Version: 6.00 Build 0)  -->
<svg version="1.1" id="Capa_1" xmlns="http://www.w3.org/2000/svg" xmlns:xlink="http://www.w3.org/1999/xlink" x="0px" y="0px"
	 viewBox="0 0 185.932 185.932" style="enable-background:new 0 0 185.932 185.932;" xml:space="preserve">
<g>
	<path style="fill:#010002;" d="M180.045,122.445V70.23l4.595-1.553l-4.595-1.55l-1.804-0.608L92.327,37.565L0,68.676l34.003,11.459
		l-0.011,0.025l3.454,1.131l12.444,4.191l0.025-0.104l43.54,14.276l39.213-13.295l2.724,10.404c0.168,0.791,0.308,1.378,0.415,1.836
		c0.147,0.63,0.24,0.977,0.24,1.249c0,4.577-34.178,24.211-44.936,24.211c-10.307,0-41.221-19.444-41.221-24.211
		c0-0.429,0.161-0.877,0.505-1.36l0.075-0.193l0.075-0.247l2.763-11.409l-3.418-1.156l-2.72,11.907
		c-0.487,0.812-0.73,1.636-0.73,2.462c0,7.759,34.114,27.142,44.668,27.142c10.88,0,48.379-19.587,48.379-27.142
		c0-0.565-0.115-1.074-0.301-1.84c-0.107-0.44-0.243-1.002-0.394-1.75l-2.724-11.055l14.505-4.921l-0.043-0.115l25.195-8.493v50.025
		l-6.864,12.386l8.79,14.276l8.281-14.34L180.045,122.445z M164.731,70.834L93.426,94.952L13.514,68.676l78.81-26.555l72.404,24.401
		h-72.4v4.316h72.404V70.834z M177.636,139.935l-3.321-6.338l3.171-6.653l3.421,6.725L177.636,139.935z"/>
</g>
<g>
</g>
<g>
</g>
<g>
</g>
<g>
</g>
<g>
</g>
<g>
</g>
<g>
</g>
<g>
</g>
<g>
</g>
<g>
</g>
<g>
</g>
<g>
</g>
<g>
</g>
<g>
</g>
<g>
</g>
</svg>
