<?xml version="1.0" encoding="iso-8859-1"?>
<!-- Generator: Adobe Illustrator 18.1.1, SVG Export Plug-In . SVG Version: 6.00 Build 0)  -->
<svg version="1.1" id="Capa_1" xmlns="http://www.w3.org/2000/svg" xmlns:xlink="http://www.w3.org/1999/xlink" x="0px" y="0px"
	 viewBox="0 0 209.497 209.497" style="enable-background:new 0 0 209.497 209.497;" xml:space="preserve">
<g>
	<path style="fill:#010002;" d="M152.21,61.408l-4.173-4.177l44.149-44.149l4.177,4.177L152.21,61.408z M167.438,21.894
		l-6.148-6.145l-4.18,4.177l6.152,6.145L167.438,21.894z M173.361,15.971l-6.156-6.148l-4.173,4.177l6.156,6.148L173.361,15.971z
		 M179.037,10.299l-6.145-6.156l-4.18,4.177l6.145,6.156L179.037,10.299z M183.396,45.962l6.148,6.148l4.18-4.18l-6.148-6.148
		L183.396,45.962z M189.319,40.036l6.152,6.148l4.177-4.177l-6.156-6.148L189.319,40.036z M195.002,34.363l6.145,6.148l4.173-4.173
		l-6.145-6.148L195.002,34.363z M149.329,78.2c13.378,18.574,12.784,37.471-1.668,51.933c-8.654,8.643-21.262,14.906-32.374,16.151
		c4.041,18.929-4.728,40.08-15.232,50.591c-8.11,8.103-19.512,12.573-32.099,12.573c-16.728,0-33.917-7.591-47.148-20.807
		c-24.114-24.125-27.815-59.674-8.242-79.254c9.706-9.695,26.122-16.216,40.849-16.216c3.371,0,6.646,0.329,9.742,0.998
		c1.235-11.123,7.501-23.728,16.148-32.381c7.505-7.505,16.087-11.306,25.506-11.306c8.711,0,17.644,3.267,26.544,9.717
		l60.135-60.15l18.005,17.994L149.329,78.2z M92.626,107.264l-1.356-0.107c-0.329-0.025-0.659-0.036-0.988-0.036
		c-3.221,0-6.256,1.245-8.521,3.511c-2.273,2.28-3.522,5.3-3.522,8.528c0,3.221,1.245,6.249,3.522,8.525
		c2.276,2.273,5.3,3.518,8.521,3.518c3.221,0,6.252-1.245,8.528-3.518c2.452-2.462,3.718-5.869,3.479-9.359l-0.089-1.338
		l98.934-98.944l-9.638-9.645L92.626,107.264z M145.081,82.466l-36.859,36.841c-0.036,4.695-1.94,9.241-5.239,12.555
		c-3.389,3.389-7.902,5.257-12.701,5.257c-4.799,0-9.312-1.865-12.694-5.257c-7.004-7.004-7.004-18.399,0-25.399
		c3.378-3.382,7.884-5.247,12.694-5.247h0.05l36.769-36.769c-7.555-5.254-15.049-7.92-22.286-7.92c-7.895,0-15.067,3.174-21.33,9.43
		c-8.557,8.564-14.577,21.713-14.641,31.973c0,0.945-0.437,1.811-1.195,2.373c-0.759,0.555-1.739,0.723-2.623,0.447
		c-3.64-1.131-7.591-1.704-11.76-1.704c-13.159,0-27.843,5.837-36.522,14.516c-17.275,17.272-13.571,49.066,8.242,70.893
		c12.15,12.15,27.818,19.118,42.964,19.118c11.159,0,20.822-3.769,27.933-10.865c10.429-10.439,18.077-31.34,12.816-48.272
		c-0.265-0.891-0.104-1.868,0.44-2.623c0.565-0.755,1.449-1.202,2.369-1.21c10.271-0.057,23.416-6.073,31.988-14.645
		C155.409,114.039,155.964,98.238,145.081,82.466z M60.029,176.554c1.55,1.553,2.398,3.607,2.398,5.801
		c0,2.18-0.855,4.234-2.398,5.776s-3.597,2.401-5.791,2.401c-2.187,0-4.248-0.859-5.791-2.401L21.31,160.983
		c-1.542-1.539-2.401-3.593-2.401-5.783c0-2.187,0.859-4.248,2.401-5.794c3.078-3.081,8.493-3.081,11.578,0L60.029,176.554z
		 M56.522,182.359c0-0.616-0.233-1.188-0.669-1.628l-27.138-27.135c-0.437-0.44-1.009-0.673-1.614-0.673
		c-0.616,0-1.185,0.229-1.614,0.673c-0.437,0.426-0.669,0.995-0.669,1.607c0,0.601,0.233,1.181,0.669,1.61l27.138,27.146
		c0.873,0.866,2.373,0.866,3.228,0C56.29,183.533,56.522,182.96,56.522,182.359z"/>
</g>
<g>
</g>
<g>
</g>
<g>
</g>
<g>
</g>
<g>
</g>
<g>
</g>
<g>
</g>
<g>
</g>
<g>
</g>
<g>
</g>
<g>
</g>
<g>
</g>
<g>
</g>
<g>
</g>
<g>
</g>
</svg>
