<?xml version="1.0" encoding="iso-8859-1"?>
<!-- Generator: Adobe Illustrator 18.1.1, SVG Export Plug-In . SVG Version: 6.00 Build 0)  -->
<svg version="1.1" id="Capa_1" xmlns="http://www.w3.org/2000/svg" xmlns:xlink="http://www.w3.org/1999/xlink" x="0px" y="0px"
	 viewBox="0 0 199.807 199.807" style="enable-background:new 0 0 199.807 199.807;" xml:space="preserve">
<g>
	<g>
		<g>
			<path style="fill:#010002;" d="M198.537,35.91l0.125-0.172l-1.117-1.532c-3.418-4.724-7.211-8.539-11.617-11.663
				c-4.542-3.124-10.311-6.32-18.778-6.32h-0.007c-4.409,0.132-9.037,1.761-12.698,4.449c-3.278,2.355-6.08,5.522-8.324,9.437
				c-0.633,1.102-1.22,2.248-1.764,3.479h-17.959v19.802h13.381c11.238,43.608,9.677,75.134-4.631,93.719
				c-12.179,15.822-29.747,16.624-33.147,16.624l-0.97-0.011c-16.881,0-29.454-5.519-37.367-16.409
				c-20.292-27.911-5.486-83.169-2.333-93.92h11.653V33.591H55.49c-0.533-1.206-1.113-2.358-1.754-3.489
				c-2.262-3.908-5.057-7.079-8.307-9.412c-3.686-2.698-8.324-4.327-12.812-4.466c-8.385,0-14.158,3.203-18.725,6.342
				C9.513,25.675,5.719,29.49,2.301,34.21L1.16,35.839l0.097,0.136C0.429,37.614,0,39.403,0,41.236
				c0,6.546,5.315,11.867,11.867,11.867c6.546,0,11.867-5.325,11.867-11.867c0-3.464-1.532-6.66-3.99-8.861
				c4.352-1.61,7.677-2.162,10.944-1.589c3.171,0.465,5.93,2.874,7.397,6.488c1.381,3.217,2.137,7.208,2.376,12.551
				c0.358,9.344-1.006,18.793-2.537,27.636c-1.406,8.403-2.981,18.377-4.051,28.667c-0.837,9.294-1.432,19.311-0.161,29.504
				c1.328,11.531,5.894,21.505,12.848,28.047c5.626,5.433,11.817,9.498,19.501,12.784c0.684,0.293,17.042,7.122,36.966,7.122
				c11.825,0,22.429-2.419,31.608-7.261c13.9-8.013,18.467-12.483,18.606-12.626c6.972-6.553,11.553-16.524,12.887-28.047
				c1.263-10.253,0.658-20.246-0.19-29.551c-0.927-9.158-2.28-18.07-4.023-28.659c-1.535-8.858-2.895-18.342-2.555-27.6
				c0.247-5.347,1.002-9.341,2.401-12.608c1.46-3.575,4.223-5.984,7.444-6.463c2.985-0.53,6.535,0,10.862,1.593
				c-2.466,2.201-3.998,5.4-3.998,8.868c0,6.546,5.325,11.867,11.867,11.867c6.553,0,11.867-5.325,11.867-11.867
				C199.818,39.378,199.381,37.571,198.537,35.91z M11.871,47.806c-3.633,0-6.582-2.945-6.582-6.574c0-1.381,0.455-2.716,1.31-3.883
				l0.82-1.149c0.598-0.784,1.192-1.532,1.818-2.244l4.015,0.855c3.01,0.637,5.193,3.339,5.193,6.42
				C18.442,44.861,15.496,47.806,11.871,47.806z M171.559,25.281c-1.12,0-2.215,0.093-3.189,0.261
				c-5.021,0.748-9.319,4.366-11.477,9.652c-2.154,5.032-2.634,10.626-2.813,14.423c-0.365,9.777,1.052,19.58,2.627,28.706
				c1.725,10.472,3.06,19.286,3.98,28.284c0.809,8.976,1.406,18.635,0.197,28.412c-1.195,10.311-5.193,19.125-11.309,24.866
				c-0.036,0.047-4.423,4.262-17.486,11.807c-8.317,4.381-18.102,6.607-29.053,6.607c-18.814,0-34.751-6.635-34.894-6.696
				c-7.158-3.067-12.673-6.685-17.916-11.76c-6.07-5.708-10.067-14.523-11.255-24.841c-1.21-9.72-0.623-19.401,0.179-28.366
				c1.049-10.103,2.609-19.977,3.998-28.287c1.575-9.105,2.981-18.889,2.609-28.749c-0.168-3.779-0.651-9.391-2.777-14.358
				c-2.172-5.329-6.474-8.947-11.442-9.684c-1.041-0.183-2.129-0.276-3.25-0.276c-3.382,0-7.14,0.83-11.513,2.559
				c-0.909,0.372-1.789,0.802-2.67,1.245c0.905-0.769,1.85-1.5,2.824-2.19c4.058-2.795,8.768-5.386,15.597-5.39
				c3.321,0.107,6.972,1.392,9.795,3.464c2.652,1.9,4.95,4.524,6.828,7.759c0.791,1.392,1.478,2.856,2.108,4.47l0.659,1.682h15.779
				v9.212H57.448l-0.598,1.829c-0.891,2.741-21.484,67.461,2.53,100.491c8.965,12.34,22.98,18.599,41.651,18.599l0.34-0.007
				c0,0.007,22.801,1.024,37.964-18.674c15.582-20.228,17.279-53.969,5.046-100.269l-0.519-1.972h-12.179v-9.212h16.223l0.659-1.664
				c0.662-1.646,1.356-3.106,2.14-4.477c1.868-3.246,4.155-5.859,6.846-7.78c2.795-2.058,6.446-3.343,9.666-3.446
				c6.929,0,11.638,2.591,15.672,5.368c0.977,0.694,1.922,1.424,2.842,2.208c-0.873-0.447-1.754-0.877-2.681-1.256
				C178.699,26.111,174.941,25.281,171.559,25.281z M187.951,47.806c-3.625,0-6.571-2.945-6.571-6.574c0-3.085,2.18-5.787,5.2-6.428
				l4.041-0.845c0.512,0.598,1.016,1.21,1.514,1.847l-0.018,0.021l1.117,1.532c0.845,1.167,1.299,2.509,1.299,3.876
				C194.528,44.861,191.572,47.806,187.951,47.806z"/>
		</g>
		<g>
			<path style="fill:#010002;" d="M116.853,18.002H79.629v13.796h37.227V18.002H116.853z M115.146,30.084H81.347V19.72h33.799
				V30.084z"/>
		</g>
		<g>
			<path style="fill:#010002;" d="M122.98,36.852H75.202v13.789h47.778V36.852z M121.273,48.923H76.92V38.562h44.353V48.923z"/>
		</g>
		<g>
			<path style="fill:#010002;" d="M71.09,69.956h55.995V56.17H71.09V69.956z M72.808,57.881h52.555v10.364H72.808V57.881z"/>
		</g>
		<g>
			<path style="fill:#010002;" d="M68.32,89.997h63.313V76.208H68.32V89.997z M70.038,77.922h59.874v10.361H70.038V77.922z"/>
		</g>
		<g>
			<path style="fill:#010002;" d="M65.328,110.286h70.31V96.493h-70.31V110.286z M67.046,98.204h66.878v10.364H67.046V98.204z"/>
		</g>
		<g>
			<path style="fill:#010002;" d="M61.324,129.608h79.83v-13.793h-79.83V129.608z M63.031,117.533h76.405v10.364H63.031V117.533z"/>
		</g>
		<g>
			<circle style="fill:#010002;" cx="86.93" cy="24.898" r="2.115"/>
		</g>
		<g>
			<circle style="fill:#010002;" cx="109.509" cy="24.898" r="2.115"/>
		</g>
		<g>
			<circle style="fill:#010002;" cx="82.611" cy="43.748" r="2.115"/>
		</g>
		<g>
			<circle style="fill:#010002;" cx="115.998" cy="43.748" r="2.115"/>
		</g>
		<g>
			<circle style="fill:#010002;" cx="78.176" cy="63.067" r="2.119"/>
		</g>
		<g>
			<circle style="fill:#010002;" cx="120.006" cy="63.067" r="2.119"/>
		</g>
		<g>
			<circle style="fill:#010002;" cx="76.058" cy="83.101" r="2.115"/>
		</g>
		<g>
			<circle style="fill:#010002;" cx="122.74" cy="83.101" r="2.115"/>
		</g>
		<g>
			<circle style="fill:#010002;" cx="72.479" cy="103.39" r="2.115"/>
		</g>
		<g>
			<circle style="fill:#010002;" cx="127.94" cy="103.39" r="2.115"/>
		</g>
		<g>
			<circle style="fill:#010002;" cx="67.902" cy="122.712" r="2.115"/>
		</g>
		<g>
			<circle style="fill:#010002;" cx="132.89" cy="122.712" r="2.115"/>
		</g>
	</g>
</g>
<g>
</g>
<g>
</g>
<g>
</g>
<g>
</g>
<g>
</g>
<g>
</g>
<g>
</g>
<g>
</g>
<g>
</g>
<g>
</g>
<g>
</g>
<g>
</g>
<g>
</g>
<g>
</g>
<g>
</g>
</svg>
