<?xml version="1.0" encoding="iso-8859-1"?>
<!-- Generator: Adobe Illustrator 18.1.1, SVG Export Plug-In . SVG Version: 6.00 Build 0)  -->
<svg version="1.1" id="Capa_1" xmlns="http://www.w3.org/2000/svg" xmlns:xlink="http://www.w3.org/1999/xlink" x="0px" y="0px"
	 viewBox="0 0 203.651 203.651" style="enable-background:new 0 0 203.651 203.651;" xml:space="preserve">
<g>
	<g>
		<path style="fill:#010002;" d="M177.416,71.445h-3.081C171.049,31.469,139.445,0,101.018,0C62.582,0,30.98,31.469,27.691,71.445
			h-1.464c-7.906,0-14.348,6.431-14.348,14.337v56.31c0,7.916,6.442,14.348,14.348,14.348h15.586
			c7.916,0,14.348-6.431,14.348-14.348v-56.31c0-7.906-6.431-14.337-14.348-14.337h-6.242c3.239-35.627,31.354-63.56,65.443-63.56
			s62.204,27.937,65.432,63.56h-4.62c-7.92,0-14.351,6.431-14.351,14.337v56.31c0,6.796,4.835,12.705,11.492,14.061l6.989,0.193
			c0.215,4.681-0.286,13.779-6.324,21.029c-5.035,6.038-12.991,9.681-23.635,10.966c-1.761-2.741-4.835-4.549-8.324-4.549h-15.042
			c-5.476,0-9.931,4.441-9.931,9.931c0,5.486,4.456,9.928,9.931,9.928h15.049c4.656,0,8.539-3.214,9.613-7.548
			c12.576-1.571,22.157-6.145,28.47-13.754c7.48-9.037,8.335-19.863,8.11-25.911h3.547c7.92,0,14.351-6.431,14.351-14.348v-56.31
			C191.767,77.876,185.336,71.445,177.416,71.445z M48.284,85.781v56.31c0,3.557-2.906,6.467-6.467,6.467H26.231
			c-3.572,0-6.467-2.91-6.467-6.467v-56.31c0-3.561,2.895-6.453,6.467-6.453h15.586C45.378,79.325,48.284,82.221,48.284,85.781z
			 M183.883,142.091c0,3.557-2.906,6.467-6.467,6.467l-17.182-0.204c-2.834-0.716-4.867-3.3-4.867-6.263v-56.31
			c0-3.561,2.906-6.453,6.467-6.453h15.582c3.561,0,6.467,2.895,6.467,6.453V142.091z"/>
	</g>
</g>
<g>
</g>
<g>
</g>
<g>
</g>
<g>
</g>
<g>
</g>
<g>
</g>
<g>
</g>
<g>
</g>
<g>
</g>
<g>
</g>
<g>
</g>
<g>
</g>
<g>
</g>
<g>
</g>
<g>
</g>
</svg>
