<?xml version="1.0" encoding="iso-8859-1"?>
<!-- Generator: Adobe Illustrator 18.1.1, SVG Export Plug-In . SVG Version: 6.00 Build 0)  -->
<svg version="1.1" id="Capa_1" xmlns="http://www.w3.org/2000/svg" xmlns:xlink="http://www.w3.org/1999/xlink" x="0px" y="0px"
	 viewBox="0 0 196.933 196.933" style="enable-background:new 0 0 196.933 196.933;" xml:space="preserve">
<g>
	<path style="fill:#010002;" d="M183.244,110.941c-0.551-25.116-9.713-48.658-25.818-66.33C141.196,26.806,119.773,17,97.083,17
		c-46.743,0-85.345,42.406-86.186,94.6C4.366,113.8,0,119.816,0,126.666v37.295c0,8.804,7.165,15.965,15.965,15.965
		c8.811,0,15.976-7.161,15.976-15.965V126.67c0-8.804-7.165-15.965-15.976-15.965c-0.125,0-0.24,0.011-0.365,0.021
		c1.242-49.148,37.7-89.049,81.487-89.049c43.873,0,80.352,40.015,81.487,89.278c-7.77,1.188-13.575,7.87-13.575,15.718v37.295
		c0,8.804,7.165,15.965,15.972,15.965c8.8,0,15.962-7.161,15.962-15.965V126.67C196.93,118.768,191.078,112.079,183.244,110.941z
		 M180.968,175.256c-6.227,0-11.291-5.064-11.291-11.291V126.67c0-6.224,5.064-11.291,11.291-11.291
		c6.224,0,11.288,5.068,11.288,11.291v37.295C192.256,170.192,187.192,175.256,180.968,175.256z M15.965,175.256
		c-6.227,0-11.291-5.064-11.291-11.291V126.67c0-6.224,5.068-11.291,11.291-11.291c6.231,0,11.298,5.068,11.298,11.291v37.295
		C27.264,170.192,22.196,175.256,15.965,175.256z"/>
</g>
<g>
</g>
<g>
</g>
<g>
</g>
<g>
</g>
<g>
</g>
<g>
</g>
<g>
</g>
<g>
</g>
<g>
</g>
<g>
</g>
<g>
</g>
<g>
</g>
<g>
</g>
<g>
</g>
<g>
</g>
</svg>
