<?xml version="1.0" encoding="iso-8859-1"?>
<!-- Generator: Adobe Illustrator 18.1.1, SVG Export Plug-In . SVG Version: 6.00 Build 0)  -->
<svg version="1.1" id="Capa_1" xmlns="http://www.w3.org/2000/svg" xmlns:xlink="http://www.w3.org/1999/xlink" x="0px" y="0px"
	 viewBox="0 0 204.152 204.152" style="enable-background:new 0 0 204.152 204.152;" xml:space="preserve">
<g>
	<g>
		<path style="fill:#010002;" d="M194.549,32.099c-8.747-11.485-22.504-18.088-42.08-20.188c-1.585-0.161-3.257-0.261-4.978-0.261
			c-17.357,0-34.654,8.142-45.416,21.079C91.302,19.791,74.02,11.649,56.67,11.649c-1.721,0-3.382,0.097-5,0.261
			c-19.548,2.101-33.298,8.704-42.051,20.185c-8.675,11.384-11.502,26.813-8.4,45.863c4.534,27.639,40.319,61.288,69.068,88.337
			l0.659,0.619c8.006,7.537,14.924,14.051,19.43,18.896c0.608,0.684,6.098,6.692,12.107,6.692c6.048,0,11.417-6.102,11.907-6.689
			c4.789-5.189,12.562-12.551,20.231-19.802c28.427-26.97,63.814-60.536,68.299-88.065C206.04,58.911,203.227,43.49,194.549,32.099z
			 M195.69,76.766c-4.087,25.098-38.476,57.723-66.252,84.064c-7.605,7.201-15.475,14.641-20.528,20.124
			c-1.256,1.478-4.423,4.227-6.428,4.227c-1.943,0-5.107-2.527-6.682-4.287c-4.735-5.089-11.731-11.681-19.838-19.311l-0.659-0.623
			c-27.947-26.287-62.727-59.001-66.864-84.185c-2.759-16.982-0.408-30.52,7.004-40.244c7.458-9.792,19.569-15.464,36.984-17.34
			c1.367-0.136,2.77-0.222,4.241-0.222c16.724,0,33.358,8.593,42.37,21.899l3.035,4.463l3.031-4.463
			c9.012-13.306,25.65-21.899,42.388-21.899c1.464,0,2.877,0.086,4.219,0.222c17.44,1.872,29.547,7.544,37.016,17.343
			C196.13,46.264,198.478,59.799,195.69,76.766z"/>
	</g>
</g>
<g>
</g>
<g>
</g>
<g>
</g>
<g>
</g>
<g>
</g>
<g>
</g>
<g>
</g>
<g>
</g>
<g>
</g>
<g>
</g>
<g>
</g>
<g>
</g>
<g>
</g>
<g>
</g>
<g>
</g>
</svg>
