<?xml version="1.0" encoding="iso-8859-1"?>
<!-- Generator: Adobe Illustrator 18.1.1, SVG Export Plug-In . SVG Version: 6.00 Build 0)  -->
<svg version="1.1" id="Capa_1" xmlns="http://www.w3.org/2000/svg" xmlns:xlink="http://www.w3.org/1999/xlink" x="0px" y="0px"
	 viewBox="0 0 202.205 202.205" style="enable-background:new 0 0 202.205 202.205;" xml:space="preserve">
<g>
	<path style="fill:#010002;" d="M172.912,38.304V0h-38.315v12.551H96.114V96.79H80.993V73.692h-51.7v51.707h51.7v-23.098h15.121
		v84.246h38.483v15.657h38.315V163.89h-38.315v17.146h-32.976v-78.735h32.976V118.7h38.315V80.392h-38.315V96.79h-32.976V18.062
		h32.976v20.242H172.912z M167.401,5.515v27.278h-27.289V5.515H167.401z M167.401,85.907v27.278h-27.289V85.907H167.401z
		 M167.401,169.405v27.289h-27.289v-27.289H167.401z M34.808,119.884v-40.67h40.67v40.67H34.808z"/>
</g>
<g>
</g>
<g>
</g>
<g>
</g>
<g>
</g>
<g>
</g>
<g>
</g>
<g>
</g>
<g>
</g>
<g>
</g>
<g>
</g>
<g>
</g>
<g>
</g>
<g>
</g>
<g>
</g>
<g>
</g>
</svg>
