<?xml version="1.0" encoding="iso-8859-1"?>
<!-- Generator: Adobe Illustrator 18.1.1, SVG Export Plug-In . SVG Version: 6.00 Build 0)  -->
<svg version="1.1" id="Capa_1" xmlns="http://www.w3.org/2000/svg" xmlns:xlink="http://www.w3.org/1999/xlink" x="0px" y="0px"
	 viewBox="0 0 204.274 204.274" style="enable-background:new 0 0 204.274 204.274;" xml:space="preserve">
<g>
	<g>
		<path style="fill:#010002;" d="M7.559,53.178v97.388h31.419l71.09,53.708V0L39.675,53.178H7.559z M13.356,144.768V58.976H37.75
			v85.792C37.75,144.768,13.356,144.768,13.356,144.768z M104.266,11.656v180.961l-60.719-45.867V57.523L104.266,11.656z"/>
		<path style="fill:#010002;" d="M135.885,81.193l-1.177,0.651c-1.342,0.73-2.656,1.331-3.901,1.793l-1.571,0.562l0.852,1.453
			c3.35,5.601,5.121,11.996,5.121,18.488c0,6.199-1.614,12.333-4.656,17.748l-0.501,0.888l0.948,1.013
			c0.175,0.183,0.347,0.365,0.515,0.558c0.401,0.483,0.791,0.97,1.177,1.457l0.165,0.204c0.293,0.372,0.59,0.748,0.891,1.106
			l1.235,1.489l1.02-1.646c4.252-6.896,6.492-14.784,6.496-22.815c0-7.627-2.047-15.156-5.93-21.774L135.885,81.193z"/>
		<path style="fill:#010002;" d="M155.419,63.804l-1.12-1.568l-1.138,1.553c-0.945,1.303-1.911,2.577-2.867,3.779l-0.63,0.795
			l0.573,0.859c7.161,10.407,10.951,22.482,10.951,34.919c0,14.28-4.749,27.75-13.743,38.959l-0.662,0.827l1.435,1.929
			c0.422,0.49,0.873,0.945,1.331,1.399c0.329,0.326,0.651,0.651,0.963,0.988l1.088,1.167l0.999-1.228
			c10.389-12.651,15.887-27.876,15.887-44.041C168.489,89.686,163.961,75.732,155.419,63.804z"/>
		<path style="fill:#010002;" d="M171.867,39.138l-1.16-1.313l-1.002,1.424c-0.895,1.249-1.789,2.541-2.691,3.876l-0.591,0.888
			l0.705,0.787c14.383,16.499,22.3,37.571,22.296,59.334c0,21.427-7.784,42.298-21.906,58.768l-0.895,1.049l1.02,0.902
			c0.737,0.662,1.482,1.281,2.269,1.943l2.258,1.922l0.905-1.056c15.242-17.773,23.638-40.33,23.638-63.525
			C196.719,80.198,187.886,57.111,171.867,39.138z"/>
	</g>
</g>
<g>
</g>
<g>
</g>
<g>
</g>
<g>
</g>
<g>
</g>
<g>
</g>
<g>
</g>
<g>
</g>
<g>
</g>
<g>
</g>
<g>
</g>
<g>
</g>
<g>
</g>
<g>
</g>
<g>
</g>
</svg>
