<?xml version="1.0" encoding="iso-8859-1"?>
<!-- Generator: Adobe Illustrator 18.1.1, SVG Export Plug-In . SVG Version: 6.00 Build 0)  -->
<svg version="1.1" id="Capa_1" xmlns="http://www.w3.org/2000/svg" xmlns:xlink="http://www.w3.org/1999/xlink" x="0px" y="0px"
	 viewBox="0 0 201.615 201.615" style="enable-background:new 0 0 201.615 201.615;" xml:space="preserve">
<g>
	<g>
		<path style="fill:#010002;" d="M194.979,35.384H6.632C2.974,35.384,0,38.365,0,42.023v113.7c0,3.658,2.97,6.632,6.632,6.632
			h25.449c1.346,2.301,4.348,3.876,7.92,3.876h5.912c3.55,0,6.542-1.557,7.899-3.876h90.08c1.346,2.301,4.348,3.876,7.916,3.876
			h5.912c3.55,0,6.542-1.557,7.899-3.876h29.364c3.65,0,6.632-2.97,6.632-6.632v-113.7C201.611,38.365,198.63,35.384,194.979,35.384
			z M195.924,155.723c0,0.523-0.422,0.945-0.945,0.945H163.55l-2.831-0.011v2.842c-0.129,0.293-1.22,1.041-3.003,1.041h-5.912
			c-1.789,0-2.881-0.748-2.988-1.034v-2.842H51.743l-2.824-0.011v2.845c-0.136,0.293-1.228,1.041-3.01,1.041h-5.912
			c-1.789,0-2.885-0.748-2.992-1.034v-2.842H6.632c-0.523,0-0.945-0.422-0.945-0.945v-113.7c0-0.523,0.422-0.956,0.945-0.956
			h188.351c0.523,0,0.945,0.433,0.945,0.956v113.704H195.924z"/>
		<path style="fill:#010002;" d="M84.715,100.448c-1.503-2.441-5.841-4.162-6.02-4.219l-0.333-0.089
			c-2.988-1.396-5.794-2.294-5.844-2.312c-0.49-0.168-0.923-0.344-1.22-0.472c-1.249-0.619-1.868-1.034-2.172-1.249
			c1.929-2.616,3.335-5.647,3.973-8.657c0.659-0.913,1.092-1.986,1.26-3.021c0.727-2.677,0.777-4.763,0.165-6.295
			c0.855-3.865,1.31-9.985-2.616-14.462c-0.659-0.816-3.167-3.618-8.017-5.046l-2.162-0.744c-3.532-1.084-6.002-1.417-6.621-1.428
			c-0.326,0-0.648,0.039-0.805,0.157l-0.698-0.039c-1.278,0-2.577,0.444-3.078,0.63c-1.356,0.573-8.242,3.747-10.457,10.576
			c-0.372,0.991-1.092,3.847-0.276,9.717c-0.945,1.614-0.991,3.869-0.208,6.639c0.197,1.249,0.63,2.341,1.267,3.257
			c0.601,3.099,1.918,6.02,3.679,8.518c-1.152,1.074-5.461,2.999-9.888,4.359c-3.883,1.474-5.658,3.797-5.912,4.141
			c-5.136,7.623-5.766,23.499-5.783,24.329c0.089,4.663,2.301,6.106,3.346,6.521c11.263,4.996,28.262,5.898,29.05,5.941
			c0.179,0,0.344,0,0.512,0.011l0.029,0.115l2.33-0.115c0.719-0.043,17.726-0.948,28.992-5.952c1.041-0.433,3.257-1.9,3.335-6.66
			c-0.029-0.669-0.651-16.556-5.783-24.168L84.715,100.448z M45.605,73.867c-0.984-5.923-0.218-8.095-0.175-8.224
			c1.514-4.674,6.7-6.943,7.211-7.161c0.276-0.107,0.777-0.225,0.877-0.236l0.562,0.039c0.422,0,0.816-0.068,1.113-0.129
			c0.54,0.079,2.273,0.354,4.781,1.131l2.183,0.755c3.532,1.034,5.125,2.942,5.39,3.278c2.792,3.178,1.772,8.389,1.21,10.486
			l-0.333,1.199l0.823,1.288c0.039,0.315,0.021,1.192-0.433,2.91c-0.107,0.659-0.315,0.934-0.404,1.013l-0.619,0.641l-0.147,0.866
			c-0.945,5.547-5.98,11.993-11.048,11.993c-3.826,0-9.244-5.332-10.25-11.95l-0.129-0.877l-0.598-0.651
			c-0.208-0.218-0.344-0.562-0.494-1.328c-0.383-1.378-0.401-2.215-0.451-2.409l1.238-0.809L45.605,73.867z M84.647,126.172
			c-7.977,3.461-19.508,4.771-24.397,5.193l-0.007-0.079l-2.373,0.157c-0.777,0.05-1.546,0.097-2.312,0.072
			c-0.168,0-16.416-0.866-26.716-5.34c-0.079-0.218-0.197-0.651-0.208-1.389c0.147-4.123,1.31-15.987,4.721-21.072
			c0.039-0.05,1.024-1.27,3.128-2.069c4.252-1.299,9.244-3.214,11.882-5.604c2.53,2.065,5.379,3.364,8.224,3.364
			c3.121,0,6.048-1.26,8.589-3.235c0.884,0.777,2.094,1.535,3.697,2.33c0.54,0.236,1.12,0.472,1.85,0.727
			c0,0,2.577,0.827,5.529,2.183l0.573,0.179c2.076,0.798,3.078,1.875,3.257,2.076c3.471,5.243,4.624,17.028,4.771,20.979
			C84.844,125.489,84.715,125.954,84.647,126.172z"/>
		<rect x="108.751" y="62.555" style="fill:#010002;" width="68.8" height="5.683"/>
		<rect x="108.751" y="81.952" style="fill:#010002;" width="49.077" height="5.687"/>
		<rect x="108.751" y="118.95" style="fill:#010002;" width="49.077" height="5.683"/>
		<rect x="108.751" y="100.455" style="fill:#010002;" width="68.8" height="5.676"/>
	</g>
</g>
<g>
</g>
<g>
</g>
<g>
</g>
<g>
</g>
<g>
</g>
<g>
</g>
<g>
</g>
<g>
</g>
<g>
</g>
<g>
</g>
<g>
</g>
<g>
</g>
<g>
</g>
<g>
</g>
<g>
</g>
</svg>
