<?xml version="1.0" encoding="iso-8859-1"?>
<!-- Generator: Adobe Illustrator 18.1.1, SVG Export Plug-In . SVG Version: 6.00 Build 0)  -->
<svg version="1.1" id="Capa_1" xmlns="http://www.w3.org/2000/svg" xmlns:xlink="http://www.w3.org/1999/xlink" x="0px" y="0px"
	 viewBox="0 0 201.611 201.611" style="enable-background:new 0 0 201.611 201.611;" xml:space="preserve">
<g>
	<g>
		<path style="fill:#010002;" d="M75.771,131.199V59.862H47.939c-6.403,0-11.624,5.207-11.624,11.624v71.327h27.833
			C70.55,142.809,75.771,137.601,75.771,131.199z M40.062,71.482c0-4.355,3.536-7.877,7.877-7.877h24.086v67.594
			c0,4.341-3.536,7.866-7.877,7.866H40.062V71.482z"/>
		<path style="fill:#010002;" d="M120.035,131.199V59.862H92.202c-6.403,0-11.624,5.207-11.624,11.624v71.327h27.829
			C114.824,142.809,120.035,137.601,120.035,131.199z M84.325,71.482c0-4.355,3.536-7.877,7.877-7.877h24.086v67.594
			c0,4.341-3.536,7.866-7.877,7.866H84.325V71.482z"/>
		<path style="fill:#010002;" d="M165.071,131.199V59.862h-27.829c-6.399,0-11.621,5.207-11.621,11.624v71.327h27.829
			C159.849,142.809,165.071,137.601,165.071,131.199z M129.361,71.482c0-4.355,3.536-7.877,7.877-7.877h24.086v67.594
			c0,4.341-3.536,7.866-7.877,7.866h-24.086V71.482z"/>
		<path style="fill:#010002;" d="M16.792,30.29l-0.777,0.079c-8.203,1.621-14.448,7.97-15.94,16.184L0,171.382h181.387
			c10.547,0,19.294-8.217,20.149-18.578l0.075-122.576L16.792,30.29z M194.12,149.77l-0.014,1.528
			c-0.075,6.947-5.791,12.598-12.723,12.598H7.491L7.501,47.583c1.038-5.014,4.91-8.865,9.538-9.81l177.082-0.054
			C194.12,37.719,194.12,149.77,194.12,149.77z"/>
		<path style="fill:#010002;" d="M64.151,82.119h-4.964v25.317c0,7.53-2.616,9.538-7.075,9.538c-1.646,0-3.124-0.351-4.159-0.752
			l-0.741,4.055c1.256,0.508,3.471,0.909,5.3,0.909c6.621,0,11.635-3.139,11.635-13.346V82.119H64.151z"/>
		<path style="fill:#010002;" d="M113.167,115.366c-1.997,0.97-5.068,1.607-8.099,1.607c-9.355,0-14.77-6.052-14.77-15.471
			c0-10.092,5.998-15.847,15.003-15.847c3.203,0,5.873,0.673,7.763,1.593l1.192-4.055c-1.306-0.684-4.341-1.711-9.122-1.711
			c-11.921,0-20.081,8.163-20.081,20.199c0,12.598,8.163,19.451,18.997,19.451c4.678,0,8.332-0.92,10.157-1.829L113.167,115.366z"/>
		<path style="fill:#010002;" d="M157.273,109.601c0-5.687-4.277-8.722-7.931-9.638v-0.104c4.041-1.492,6.488-4.731,6.488-8.45
			c0-3.017-1.177-5.311-3.189-6.789c-2.398-1.943-5.587-2.784-10.547-2.784c-3.486,0-6.907,0.336-9.083,0.791v37.821
			c1.661,0.233,4.291,0.469,7.709,0.469c6.274,0,10.615-1.152,13.295-3.604C155.948,115.434,157.273,112.907,157.273,109.601z
			 M137.979,85.994c0.82-0.168,2.115-0.336,4.406-0.336c5.014,0,8.432,1.764,8.432,6.27c0,3.708-3.067,6.438-8.332,6.438h-4.509
			V85.994H137.979z M142.152,117.027c-1.761,0-3.189-0.054-4.173-0.233v-14.655h4.119c5.418,0,9.913,2.162,9.913,7.408
			C152.012,115.148,147.28,117.027,142.152,117.027z"/>
	</g>
</g>
<g>
</g>
<g>
</g>
<g>
</g>
<g>
</g>
<g>
</g>
<g>
</g>
<g>
</g>
<g>
</g>
<g>
</g>
<g>
</g>
<g>
</g>
<g>
</g>
<g>
</g>
<g>
</g>
<g>
</g>
</svg>
