<?xml version="1.0" encoding="iso-8859-1"?>
<!-- Generator: Adobe Illustrator 18.1.1, SVG Export Plug-In . SVG Version: 6.00 Build 0)  -->
<svg version="1.1" id="Capa_1" xmlns="http://www.w3.org/2000/svg" xmlns:xlink="http://www.w3.org/1999/xlink" x="0px" y="0px"
	 viewBox="0 0 206.883 206.883" style="enable-background:new 0 0 206.883 206.883;" xml:space="preserve">
<g>
	<g>
		<g>
			<path style="fill:#010002;" d="M198.812,81.941h-90.613c-4.173-0.021-11.56-6.65-12.687-10.568l-0.097-0.304
				c-2.505-5.998,0.734-10.683,4.499-16.101c0.526-0.755,1.041-1.51,1.467-2.147c13.585-18.356,16.713-31.004-3.897-49.241
				L93.773,7.77c16.323,14.437,16.957,23.012,3.021,41.83c-0.48,0.723-0.973,1.449-1.478,2.172
				c-3.887,5.594-8.697,12.544-5.125,21.305c0.866,2.824,3.328,6.12,6.406,8.861H8.056C3.611,81.938,0,85.549,0,89.99v105.25
				c0,4.441,3.611,8.063,8.056,8.063h190.76c4.456,0,8.067-3.622,8.067-8.063V89.997C206.879,85.552,203.272,81.941,198.812,81.941z
				 M201.278,195.244c0,1.356-1.095,2.462-2.462,2.462H8.056c-1.356,0-2.462-1.109-2.462-2.462V89.997
				c0-1.356,1.106-2.462,2.462-2.462h100.133l0.021,0.004l0.011-0.004h90.591c1.371,0,2.462,1.106,2.462,2.462v105.247H201.278z"/>
		</g>
		<g>
			<rect x="28.226" y="104.334" style="fill:#010002;" width="17.722" height="17.719"/>
		</g>
		<g>
			<rect x="54.341" y="104.334" style="fill:#010002;" width="17.719" height="17.719"/>
		</g>
		<g>
			<rect x="81.583" y="104.334" style="fill:#010002;" width="17.726" height="17.719"/>
		</g>
		<g>
			<rect x="108.056" y="104.334" style="fill:#010002;" width="17.722" height="17.719"/>
		</g>
		<g>
			<rect x="134.185" y="104.334" style="fill:#010002;" width="17.719" height="17.719"/>
		</g>
		<g>
			<rect x="160.583" y="104.334" style="fill:#010002;" width="17.733" height="17.719"/>
		</g>
		<g>
			<rect x="54.638" y="164.896" style="fill:#010002;" width="71.273" height="17.726"/>
		</g>
		<g>
			<polygon style="fill:#010002;" points="71.899,151.482 71.899,133.756 55.744,133.756 54.166,133.756 28.051,133.756 
				28.051,151.482 54.166,151.482 55.744,151.482 			"/>
		</g>
		<g>
			<rect x="28.226" y="164.896" style="fill:#010002;" width="17.722" height="17.726"/>
		</g>
		<g>
			<rect x="81.408" y="133.756" style="fill:#010002;" width="17.726" height="17.726"/>
		</g>
		<g>
			<rect x="107.881" y="133.756" style="fill:#010002;" width="17.722" height="17.726"/>
		</g>
		<g>
			<rect x="133.999" y="133.756" style="fill:#010002;" width="17.73" height="17.726"/>
		</g>
		<g>
			<rect x="160.408" y="133.756" style="fill:#010002;" width="17.719" height="17.726"/>
		</g>
		<g>
			<rect x="134.185" y="164.896" style="fill:#010002;" width="17.719" height="17.726"/>
		</g>
		<g>
			<rect x="160.583" y="164.896" style="fill:#010002;" width="17.733" height="17.726"/>
		</g>
	</g>
</g>
<g>
</g>
<g>
</g>
<g>
</g>
<g>
</g>
<g>
</g>
<g>
</g>
<g>
</g>
<g>
</g>
<g>
</g>
<g>
</g>
<g>
</g>
<g>
</g>
<g>
</g>
<g>
</g>
<g>
</g>
</svg>
