<?xml version="1.0" encoding="iso-8859-1"?>
<!-- Generator: Adobe Illustrator 18.1.1, SVG Export Plug-In . SVG Version: 6.00 Build 0)  -->
<svg version="1.1" id="Capa_1" xmlns="http://www.w3.org/2000/svg" xmlns:xlink="http://www.w3.org/1999/xlink" x="0px" y="0px"
	 viewBox="0 0 198.372 198.372" style="enable-background:new 0 0 198.372 198.372;" xml:space="preserve">
<g>
	<g>
		<g>
			<path style="fill:#010002;" d="M197.422,185.467l-0.132-0.941v-3.489h-0.483l-8.872-63.163V0H10.427v117.877L1.566,181.04H1.333
				v1.639l-0.383,2.788h0.383v12.905H197.29v-12.905C197.29,185.467,197.422,185.467,197.422,185.467z M112.983,180.27H77.151
				v-7.809h35.835v7.809H112.983z M163.566,157.323h-18.714l-1.41-15.74h18.367L163.566,157.323z M136.374,120.65l1.389,15.736
				h-20.321l-0.519-15.736H136.374z M111.723,120.65l0.526,15.736H89.903l0.526-15.736H111.723z M84.706,136.39h-21.53l1.41-15.736
				h20.661L84.706,136.39z M57.961,136.39h-19.34l1.746-15.736h18.989L57.961,136.39z M38.038,141.583H57.5l-1.396,15.74H36.288
				L38.038,141.583z M62.725,141.583h21.817l-0.54,15.74H61.318L62.725,141.583z M89.741,141.583h22.683l0.526,15.74H89.201
				L89.741,141.583z M118.154,157.323l-0.526-15.74h20.607l1.399,15.74H118.154z M161.236,136.39H142.98l-1.396-15.736h17.891
				L161.236,136.39z M35.719,115.45H15.627v-11.427h167.104v11.427h-18.606H35.719z M182.734,98.819H15.627V20.836h167.104v77.983
				H182.734z M182.734,5.2v10.436H15.627V5.2H182.734z M15.301,120.65h19.845l-4.674,41.873h138.91l-4.674-41.873h18.363
				l8.367,59.62H118.19v-13.002H71.962v13.002H6.93L15.301,120.65z M192.089,193.176H6.537v-6.936h185.553V193.176z"/>
		</g>
		<g>
			<circle style="fill:#010002;" cx="94.702" cy="10.221" r="2.813"/>
		</g>
	</g>
</g>
<g>
</g>
<g>
</g>
<g>
</g>
<g>
</g>
<g>
</g>
<g>
</g>
<g>
</g>
<g>
</g>
<g>
</g>
<g>
</g>
<g>
</g>
<g>
</g>
<g>
</g>
<g>
</g>
<g>
</g>
</svg>
