<?xml version="1.0" encoding="iso-8859-1"?>
<!-- Generator: Adobe Illustrator 18.1.1, SVG Export Plug-In . SVG Version: 6.00 Build 0)  -->
<svg version="1.1" id="Capa_1" xmlns="http://www.w3.org/2000/svg" xmlns:xlink="http://www.w3.org/1999/xlink" x="0px" y="0px"
	 viewBox="0 0 205.218 205.218" style="enable-background:new 0 0 205.218 205.218;" xml:space="preserve">
<g>
	<g>
		<path style="fill:#010002;" d="M102.609,107.101l102.609-49.682L102.899,7.877l-0.29-0.14L0,57.419l102.319,49.542
			L102.609,107.101z M102.609,14.323l89.024,43.097l-89.024,43.104l-89.02-43.104L102.609,14.323z"/>
		<polygon style="fill:#010002;" points="158.654,131.834 191.633,147.803 102.609,190.899 13.596,147.803 46.622,131.813 
			42.878,127.046 0,147.803 102.316,197.341 102.609,197.481 205.218,147.803 162.408,127.067 		"/>
		<polygon style="fill:#010002;" points="158.654,87.31 191.633,103.275 102.609,146.361 13.596,103.275 46.622,87.288 
			42.878,82.514 0,103.275 102.316,152.81 102.609,152.949 205.218,103.275 162.408,82.535 		"/>
	</g>
</g>
<g>
</g>
<g>
</g>
<g>
</g>
<g>
</g>
<g>
</g>
<g>
</g>
<g>
</g>
<g>
</g>
<g>
</g>
<g>
</g>
<g>
</g>
<g>
</g>
<g>
</g>
<g>
</g>
<g>
</g>
</svg>
