<?xml version="1.0" encoding="iso-8859-1"?>
<!-- Generator: Adobe Illustrator 18.1.1, SVG Export Plug-In . SVG Version: 6.00 Build 0)  -->
<svg version="1.1" id="Capa_1" xmlns="http://www.w3.org/2000/svg" xmlns:xlink="http://www.w3.org/1999/xlink" x="0px" y="0px"
	 viewBox="0 0 202.205 202.205" style="enable-background:new 0 0 202.205 202.205;" xml:space="preserve">
<g>
	<g>
		<g>
			<path style="fill:#010002;" d="M100.253,202.205l-87.811-87.811l87.811-87.811v57.637c2.52,0.351,6.417,0.741,11.137,0.741
				c25.306,0,67.769-10.944,67.769-84.21L187.004,0c0.555,2.838,13.07,70.196-20.228,113.242
				c-15.217,19.684-37.596,30.975-66.524,33.588C100.253,146.83,100.253,202.205,100.253,202.205z M23.651,114.394l68.671,68.682
				v-43.63l3.715-0.236c28.362-1.811,50.057-12.175,64.477-30.817c15.139-19.569,20.013-45.24,21.001-66.513
				c-14.183,45.237-51.872,51.017-70.124,51.017c-9.309,0-15.683-1.389-15.951-1.439l-3.117-0.687V45.72L23.651,114.394z"/>
		</g>
	</g>
</g>
<g>
</g>
<g>
</g>
<g>
</g>
<g>
</g>
<g>
</g>
<g>
</g>
<g>
</g>
<g>
</g>
<g>
</g>
<g>
</g>
<g>
</g>
<g>
</g>
<g>
</g>
<g>
</g>
<g>
</g>
</svg>
