<?xml version="1.0" encoding="iso-8859-1"?>
<!-- Generator: Adobe Illustrator 18.1.1, SVG Export Plug-In . SVG Version: 6.00 Build 0)  -->
<svg version="1.1" id="Capa_1" xmlns="http://www.w3.org/2000/svg" xmlns:xlink="http://www.w3.org/1999/xlink" x="0px" y="0px"
	 viewBox="0 0 200.022 200.022" style="enable-background:new 0 0 200.022 200.022;" xml:space="preserve">
<g>
	<g>
		<g>
			<path style="fill:#010002;" d="M184.994,200.022l-7.77-0.744c0-72.482-42.001-83.305-67.035-83.305
				c-4.67,0-8.528,0.39-11.019,0.73v57.018L12.307,86.859L99.169,0v54.774c28.616,2.584,50.755,13.754,65.808,33.23
				C197.913,130.578,185.534,197.209,184.994,200.022z M110.189,108.139c18.055,0,55.308,5.705,69.355,50.394
				c-0.995-21.054-5.816-46.436-20.782-65.761c-14.262-18.428-35.713-28.67-63.764-30.452l-3.672-0.233V18.925l-67.93,67.934
				l67.93,67.941v-44.557l3.081-0.676C94.671,109.502,100.98,108.139,110.189,108.139z"/>
		</g>
	</g>
</g>
<g>
</g>
<g>
</g>
<g>
</g>
<g>
</g>
<g>
</g>
<g>
</g>
<g>
</g>
<g>
</g>
<g>
</g>
<g>
</g>
<g>
</g>
<g>
</g>
<g>
</g>
<g>
</g>
<g>
</g>
</svg>
