<?xml version="1.0" encoding="iso-8859-1"?>
<!-- Generator: Adobe Illustrator 18.1.1, SVG Export Plug-In . SVG Version: 6.00 Build 0)  -->
<svg version="1.1" id="Capa_1" xmlns="http://www.w3.org/2000/svg" xmlns:xlink="http://www.w3.org/1999/xlink" x="0px" y="0px"
	 viewBox="0 0 206.31 206.31" style="enable-background:new 0 0 206.31 206.31;" xml:space="preserve">
<g>
	<g>
		<g>
			<path style="fill:#010002;" d="M103.159,0C57.306,0,21.4,16.037,21.4,36.526v108.149h6.607v-21.069
				c12.394,12.988,41.014,21.895,75.152,21.895s62.755-8.908,75.152-21.895v21.069h6.596V36.522C184.907,16.037,149.004,0,103.159,0
				z M103.159,6.599c44.958,0,75.152,15.471,75.152,29.923c0,9.488-13.088,19.387-34.772,25.091
				c5.336-3.701,8.421-8.264,8.421-13.303c0-13.048-20.475-22.89-47.624-22.89c-27.153,0-47.635,9.842-47.635,22.89
				c0,5.494,3.675,10.407,9.899,14.269C42.608,57.079,28.01,46.564,28.01,36.522C28.01,22.071,58.201,6.599,103.159,6.599z
				 M104.336,64.588c-24.189,0-41.024-8.582-41.024-16.277c0-7.702,16.838-16.284,41.024-16.284
				c24.175,0,41.028,8.582,41.028,16.284C145.364,56.005,128.511,64.588,104.336,64.588z M178.311,108.972
				c0,14.448-30.195,29.923-75.152,29.923c-44.961,0-75.152-15.475-75.152-29.923V94.546c12.394,13.002,41.014,21.888,75.152,21.888
				s62.755-8.883,75.152-21.888V108.972z M178.311,79.93c0,14.448-30.195,29.912-75.152,29.912
				c-44.961,0-75.152-15.464-75.152-29.912V51.149C40.4,64.147,69.02,73.044,103.159,73.044s62.755-8.893,75.152-21.895V79.93z"/>
		</g>
		<g>
			<path style="fill:#010002;" d="M103.159,174.591c-44.961,0-75.152-15.468-75.152-29.916h-6.603
				c0,9.466,7.684,17.98,20.457,24.401v9.377h6.599v-6.431c14.391,5.737,33.477,9.173,54.703,9.173
				c21.212,0,40.301-3.439,54.688-9.173v6.431h6.61v-9.377c12.784-6.42,20.45-14.938,20.45-24.401h-6.599
				C178.311,159.123,148.116,174.591,103.159,174.591z"/>
		</g>
		<g>
			<path style="fill:#010002;" d="M103.159,199.711c-32.238,0-54.703-11.205-54.703-21.244h-6.599
				c0,15.615,26.924,27.843,61.302,27.843c34.361,0,61.295-12.229,61.295-27.843h-6.61
				C157.847,188.505,135.397,199.711,103.159,199.711z"/>
		</g>
	</g>
</g>
<g>
</g>
<g>
</g>
<g>
</g>
<g>
</g>
<g>
</g>
<g>
</g>
<g>
</g>
<g>
</g>
<g>
</g>
<g>
</g>
<g>
</g>
<g>
</g>
<g>
</g>
<g>
</g>
<g>
</g>
</svg>
