<?xml version="1.0" encoding="iso-8859-1"?>
<!-- Generator: Adobe Illustrator 18.1.1, SVG Export Plug-In . SVG Version: 6.00 Build 0)  -->
<svg version="1.1" id="Capa_1" xmlns="http://www.w3.org/2000/svg" xmlns:xlink="http://www.w3.org/1999/xlink" x="0px" y="0px"
	 viewBox="0 0 197.001 197.001" style="enable-background:new 0 0 197.001 197.001;" xml:space="preserve">
<g>
	<g>
		<g>
			<path style="fill:#010002;" d="M177.343,0.005H19.669C8.822,0.005,0,8.82,0,19.668v157.67c0,10.837,8.822,19.659,19.669,19.659
				h157.673c10.833,0,19.659-8.822,19.659-19.659V19.668C197.001,8.82,188.18,0.005,177.343,0.005z M191.522,177.334
				c0,7.823-6.363,14.183-14.179,14.183H19.669c-7.827,0-14.19-6.36-14.19-14.183V19.668c0-7.827,6.367-14.187,14.19-14.187h157.673
				c7.816,0,14.179,6.36,14.179,14.187C191.522,19.668,191.522,177.334,191.522,177.334z"/>
		</g>
		<g>
			<path style="fill:#010002;" d="M98.053,67.95c-16.692,0-30.277,13.578-30.277,30.277c0,16.695,13.585,30.27,30.277,30.27
				s30.266-13.578,30.266-30.27C128.316,81.532,114.742,67.95,98.053,67.95z"/>
		</g>
		<g>
			<path style="fill:#010002;" d="M98.504,27.097c-39.367,0-71.402,32.038-71.402,71.402c0,39.36,32.031,71.402,71.402,71.402
				s71.402-32.041,71.402-71.402C169.906,59.135,137.875,27.097,98.504,27.097z M98.504,163.287
				c-35.721,0-64.788-29.075-64.788-64.788c0-35.717,29.064-64.781,64.788-64.781s64.777,29.064,64.777,64.781
				C163.285,134.212,134.228,163.287,98.504,163.287z"/>
		</g>
	</g>
</g>
<g>
</g>
<g>
</g>
<g>
</g>
<g>
</g>
<g>
</g>
<g>
</g>
<g>
</g>
<g>
</g>
<g>
</g>
<g>
</g>
<g>
</g>
<g>
</g>
<g>
</g>
<g>
</g>
<g>
</g>
</svg>
