<?xml version="1.0" encoding="iso-8859-1"?>
<!-- Generator: Adobe Illustrator 18.1.1, SVG Export Plug-In . SVG Version: 6.00 Build 0)  -->
<svg version="1.1" id="Capa_1" xmlns="http://www.w3.org/2000/svg" xmlns:xlink="http://www.w3.org/1999/xlink" x="0px" y="0px"
	 viewBox="0 0 202.302 202.302" style="enable-background:new 0 0 202.302 202.302;" xml:space="preserve">
<g>
	<g>
		<g>
			<path style="fill:#010002;" d="M101.149,180.947c-30.266,0-50.598-10.418-50.598-20.149h-4.452
				c0,6.378,5.175,12.107,13.775,16.427v6.32h4.449v-4.327c9.688,3.854,22.543,6.177,36.826,6.177
				c14.294,0,27.138-2.319,36.83-6.177v4.327h4.452v-6.313c8.604-4.327,13.771-10.057,13.771-16.434h-4.449
				C151.754,170.529,131.423,180.947,101.149,180.947z"/>
		</g>
		<g>
			<path style="fill:#010002;" d="M101.149,0c-30.868,0-55.05,10.805-55.05,24.597v136.2h4.452V83.233
				c8.342,8.754,27.614,14.745,50.598,14.745c22.987,0,42.263-5.991,50.605-14.745v77.564h4.445v-136.2
				C156.199,10.805,132.017,0,101.149,0z M101.149,4.449c30.273,0,50.605,10.418,50.605,20.149c0,6.388-8.811,13.056-23.406,16.892
				c3.586-2.491,5.672-5.558,5.672-8.954c0-8.786-13.789-15.414-32.077-15.414c-18.284,0-32.074,6.632-32.074,15.414
				c0,3.701,2.469,7.007,6.667,9.609c-16.155-3.697-25.982-10.779-25.982-17.544C50.551,14.867,70.883,4.449,101.149,4.449z
				 M101.94,43.497c-16.277,0-27.629-5.776-27.629-10.962S85.663,21.57,101.94,21.57c16.28,0,27.622,5.78,27.622,10.966
				S118.224,43.497,101.94,43.497z M151.754,73.388c0,9.727-20.331,20.142-50.605,20.142c-30.266,0-50.598-10.414-50.598-20.142
				v-9.717c8.342,8.754,27.614,14.745,50.598,14.745c22.987,0,42.263-5.991,50.605-14.745V73.388z M151.754,53.822
				c0,9.731-20.331,20.145-50.605,20.145c-30.266,0-50.598-10.414-50.598-20.145V34.446c8.342,8.754,27.614,14.741,50.598,14.741
				c22.987,0,42.263-5.991,50.605-14.741V53.822z"/>
		</g>
		<g>
			<path style="fill:#010002;" d="M101.149,197.857c-21.702,0-36.826-7.544-36.826-14.315h-4.449
				c0,10.525,18.138,18.76,41.275,18.76c23.148,0,41.282-8.235,41.282-18.76h-4.456
				C137.975,190.313,122.851,197.857,101.149,197.857z"/>
		</g>
	</g>
</g>
<g>
</g>
<g>
</g>
<g>
</g>
<g>
</g>
<g>
</g>
<g>
</g>
<g>
</g>
<g>
</g>
<g>
</g>
<g>
</g>
<g>
</g>
<g>
</g>
<g>
</g>
<g>
</g>
<g>
</g>
</svg>
