<?xml version="1.0" encoding="iso-8859-1"?>
<!-- Generator: Adobe Illustrator 18.1.1, SVG Export Plug-In . SVG Version: 6.00 Build 0)  -->
<svg version="1.1" id="Capa_1" xmlns="http://www.w3.org/2000/svg" xmlns:xlink="http://www.w3.org/1999/xlink" x="0px" y="0px"
	 viewBox="0 0 202.169 202.169" style="enable-background:new 0 0 202.169 202.169;" xml:space="preserve">
<g>
	<g>
		<path style="fill:#010002;" d="M101.079,0C63.376,0,32.705,30.263,32.705,67.461c0,18.75,7.852,39.271,20.883,54.728
			c0.165,0.233,0.329,0.472,0.501,0.676c4.595,5.669,14.076,20.156,14.076,28.735c0,2.015,0.569,3.883,1.489,5.526v27.55
			c0,5.948,4.842,10.79,10.794,10.79h5.4l2.577,2.967c2.044,2.376,5.014,3.736,8.16,3.736h8.997c3.131,0,6.098-1.36,8.145-3.718
			l2.591-2.985h5.411c5.941,0,10.769-4.842,10.769-10.79v-27.099c1.092-1.761,1.711-3.811,1.711-5.977
			c0-7.831,8.235-21.516,14.083-28.745c0.404-0.501,0.766-1.045,1.084-1.628c12.587-15.439,20.088-35.509,20.088-53.765
			C169.453,30.263,138.779,0,101.079,0z M121.726,188.541h-8.571l-4.663,5.375c-0.737,0.845-1.797,1.339-2.913,1.339h-8.997
			c-1.127,0-2.183-0.483-2.92-1.339l-4.656-5.375h-8.561c-2.14,0-3.872-1.732-3.872-3.862v-22.107
			c0.97,0.265,1.965,0.458,3.013,0.458h43.197c0.956,0,1.882-0.157,2.791-0.394v22.042
			C125.576,186.805,123.851,188.541,121.726,188.541z M95.088,156.102L78.268,63.743l22.812,19.566l22.636-19.422l-18.12,92.216
			H95.088z M143.793,117.111l-0.422,0.648c-0.143,0.286-0.297,0.537-0.476,0.755c-4.341,5.365-15.611,21.777-15.611,33.09
			c0,1.811-1.07,3.436-2.752,4.144c-0.551,0.236-1.138,0.358-1.746,0.358H112.65l21.709-110.465l-33.28,28.549L67.961,45.784
			l20.085,110.318h-8.46c-2.484,0-4.502-2.015-4.502-4.502c0-13.435-15.457-32.897-15.625-33.104l-0.458-0.612
			c-12.132-14.405-19.372-33.258-19.372-50.426c0-33.38,27.568-60.536,61.449-60.536s61.449,27.156,61.449,60.536
			C162.528,84.271,155.524,102.831,143.793,117.111z"/>
	</g>
</g>
<g>
</g>
<g>
</g>
<g>
</g>
<g>
</g>
<g>
</g>
<g>
</g>
<g>
</g>
<g>
</g>
<g>
</g>
<g>
</g>
<g>
</g>
<g>
</g>
<g>
</g>
<g>
</g>
<g>
</g>
</svg>
