<?xml version="1.0" encoding="iso-8859-1"?>
<!-- Generator: Adobe Illustrator 18.1.1, SVG Export Plug-In . SVG Version: 6.00 Build 0)  -->
<svg version="1.1" id="Capa_1" xmlns="http://www.w3.org/2000/svg" xmlns:xlink="http://www.w3.org/1999/xlink" x="0px" y="0px"
	 viewBox="0 0 204.732 204.732" style="enable-background:new 0 0 204.732 204.732;" xml:space="preserve">
<g>
	<g>
		<path style="fill:#010002;" d="M0,54.549v95.119h30.689l69.433,52.448V2.616l-68.75,51.933H0z M5.669,144.002V60.214H29.49v83.788
			C29.49,144.002,5.669,144.002,5.669,144.002z M94.453,13.997v176.734l-59.294-44.793V58.793L94.453,13.997z"/>
		<path style="fill:#010002;" d="M117.737,86.254l-1.152,0.637c-1.317,0.709-2.602,1.299-3.808,1.754l-1.542,0.548l0.837,1.421
			c3.267,5.468,4.993,11.714,4.993,18.055c0,6.052-1.568,12.043-4.549,17.329l-0.48,0.87l0.923,0.988
			c0.165,0.175,0.34,0.358,0.497,0.544c0.397,0.472,0.777,0.945,1.152,1.424l0.157,0.197c0.297,0.369,0.58,0.73,0.877,1.081
			l1.21,1.453l0.995-1.61c4.141-6.732,6.338-14.434,6.338-22.278c0-7.451-2.004-14.806-5.783-21.266L117.737,86.254z"/>
		<path style="fill:#010002;" d="M136.802,69.265l-1.088-1.532l-1.109,1.517c-0.934,1.27-1.872,2.52-2.802,3.69l-0.612,0.777
			l0.555,0.837c7,10.164,10.69,21.956,10.69,34.103c0,13.947-4.642,27.103-13.414,38.05l-0.655,0.812l1.414,1.879
			c0.404,0.483,0.845,0.923,1.299,1.367c0.322,0.319,0.626,0.637,0.941,0.97l1.059,1.138l0.977-1.199
			c10.146-12.354,15.507-27.224,15.507-43.011C149.567,94.543,145.158,80.914,136.802,69.265z"/>
		<path style="fill:#010002;" d="M152.867,45.179l-1.124-1.281l-0.984,1.392c-0.877,1.217-1.743,2.48-2.627,3.786l-0.573,0.866
			l0.691,0.769c14.051,16.112,21.777,36.69,21.777,57.945c0,20.929-7.598,41.314-21.398,57.394l-0.866,1.024l0.995,0.88
			c0.712,0.648,1.439,1.256,2.215,1.9l2.201,1.875l0.877-1.034c14.888-17.354,23.087-39.385,23.087-62.036
			C177.139,85.28,168.521,62.73,152.867,45.179z"/>
		<path style="fill:#010002;" d="M171.853,25.013l-0.888-0.977l-0.995,0.866c-0.744,0.651-1.464,1.313-2.194,1.993l-2.122,1.943
			l0.934,0.998c20.006,21.548,31.018,49.542,31.018,78.831c0,27.443-9.82,54.109-27.654,75.077l-0.895,1.066l1.07,0.873
			c1.024,0.827,2.036,1.696,3.06,2.577l1.31,1.127l0.888-1.049c18.925-22.243,29.347-50.541,29.347-79.68
			C204.735,77.568,193.058,47.86,171.853,25.013z"/>
	</g>
</g>
<g>
</g>
<g>
</g>
<g>
</g>
<g>
</g>
<g>
</g>
<g>
</g>
<g>
</g>
<g>
</g>
<g>
</g>
<g>
</g>
<g>
</g>
<g>
</g>
<g>
</g>
<g>
</g>
<g>
</g>
</svg>
