<?xml version="1.0" encoding="iso-8859-1"?>
<!-- Generator: Adobe Illustrator 18.1.1, SVG Export Plug-In . SVG Version: 6.00 Build 0)  -->
<svg version="1.1" id="Capa_1" xmlns="http://www.w3.org/2000/svg" xmlns:xlink="http://www.w3.org/1999/xlink" x="0px" y="0px"
	 viewBox="0 0 200.212 200.212" style="enable-background:new 0 0 200.212 200.212;" xml:space="preserve">
<g>
	<g>
		<path style="fill:#010002;" d="M27.036,52.119v95.455h30.796l69.68,52.638V0L58.516,52.119H27.036z M56.63,141.894H32.723V57.806
			H56.63V141.894z M62.317,56.378l59.506-44.954v177.368l-59.506-44.954V56.378z"/>
		<path style="fill:#010002;" d="M160.367,58.876l-1.102-1.535l-1.113,1.521c-0.927,1.278-1.875,2.527-2.813,3.704l-0.619,0.784
			l0.573,0.837c7.018,10.203,10.729,22.035,10.729,34.232c0,13.997-4.66,27.196-13.471,38.179l-0.648,0.816l1.406,1.886
			c0.415,0.483,0.852,0.927,1.306,1.371c0.322,0.322,0.637,0.637,0.945,0.977l1.063,1.131l0.981-1.199
			c10.185-12.401,15.572-27.328,15.572-43.165C173.179,84.25,168.745,70.575,160.367,58.876z"/>
	</g>
</g>
<g>
</g>
<g>
</g>
<g>
</g>
<g>
</g>
<g>
</g>
<g>
</g>
<g>
</g>
<g>
</g>
<g>
</g>
<g>
</g>
<g>
</g>
<g>
</g>
<g>
</g>
<g>
</g>
<g>
</g>
</svg>
