<?xml version="1.0" encoding="iso-8859-1"?>
<!-- Generator: Adobe Illustrator 18.1.1, SVG Export Plug-In . SVG Version: 6.00 Build 0)  -->
<svg version="1.1" id="Capa_1" xmlns="http://www.w3.org/2000/svg" xmlns:xlink="http://www.w3.org/1999/xlink" x="0px" y="0px"
	 viewBox="0 0 175.403 175.403" style="enable-background:new 0 0 175.403 175.403;" xml:space="preserve">
<g>
	<g>
		<path style="fill:#010002;" d="M173.896,166.642L99.56,92.291c8.425-10.092,13.034-22.679,13.034-35.992
			c0-15.035-5.866-29.168-16.491-39.804C85.474,5.862,71.33,0.007,56.292,0.007c-15.031,0-29.164,5.855-39.8,16.488
			C5.859,27.124,0,41.26,0,56.299C0,71.341,5.859,85.477,16.491,96.11c10.633,10.626,24.769,16.484,39.8,16.484
			c13.31,0,25.904-4.61,36.007-13.034l74.336,74.336c0.995,1.006,2.312,1.5,3.629,1.5c1.321,0,2.627-0.494,3.636-1.5
			C175.904,171.892,175.904,168.639,173.896,166.642z M23.764,88.838c-8.693-8.689-13.478-20.242-13.478-32.535
			c0-12.29,4.781-23.846,13.478-32.535c8.686-8.686,20.238-13.474,32.528-13.474c12.304,0,23.849,4.789,32.542,13.474
			c8.686,8.689,13.474,20.246,13.474,32.535c0,12.293-4.789,23.846-13.474,32.535c-8.7,8.693-20.256,13.478-32.542,13.478
			S32.449,97.531,23.764,88.838z"/>
		<path style="fill:#010002;" d="M78.645,52.251H59.327V32.929c0-1.675-1.353-3.028-3.035-3.028c-1.668,0-3.028,1.353-3.028,3.028
			v19.322H33.945c-1.675,0-3.028,1.353-3.028,3.028s1.353,3.031,3.028,3.031h19.319v19.319c0,1.671,1.36,3.031,3.028,3.031
			c1.682,0,3.035-1.356,3.035-3.031V58.31h19.319c1.675,0,3.035-1.356,3.035-3.031C81.68,53.604,80.32,52.251,78.645,52.251z"/>
	</g>
</g>
<g>
</g>
<g>
</g>
<g>
</g>
<g>
</g>
<g>
</g>
<g>
</g>
<g>
</g>
<g>
</g>
<g>
</g>
<g>
</g>
<g>
</g>
<g>
</g>
<g>
</g>
<g>
</g>
<g>
</g>
</svg>
