<?xml version="1.0" encoding="iso-8859-1"?>
<!-- Generator: Adobe Illustrator 18.1.1, SVG Export Plug-In . SVG Version: 6.00 Build 0)  -->
<svg version="1.1" id="Capa_1" xmlns="http://www.w3.org/2000/svg" xmlns:xlink="http://www.w3.org/1999/xlink" x="0px" y="0px"
	 viewBox="0 0 193.823 193.823" style="enable-background:new 0 0 193.823 193.823;" xml:space="preserve">
<g>
	<path style="fill:#010002;" d="M155.49,58.57c-21.144,0-38.347,17.2-38.347,38.34c0,14.942,8.607,27.876,21.108,34.203H55.576
		c12.497-6.327,21.108-19.261,21.108-34.203c0-21.14-17.204-38.34-38.344-38.34S0,75.77,0,96.91s17.196,38.344,38.337,38.344h117.15
		c21.14,0,38.337-17.204,38.337-38.344S176.631,58.57,155.49,58.57z M4.141,96.91c0-18.857,15.343-34.203,34.199-34.203
		c18.864,0,34.207,15.346,34.207,34.203c0,18.861-15.346,34.203-34.207,34.203C19.483,131.113,4.141,115.77,4.141,96.91z
		 M155.49,131.113c-18.864,0-34.21-15.343-34.21-34.203c0-18.857,15.346-34.203,34.21-34.203c18.861,0,34.199,15.346,34.199,34.203
		C189.69,115.77,174.351,131.113,155.49,131.113z"/>
</g>
<g>
</g>
<g>
</g>
<g>
</g>
<g>
</g>
<g>
</g>
<g>
</g>
<g>
</g>
<g>
</g>
<g>
</g>
<g>
</g>
<g>
</g>
<g>
</g>
<g>
</g>
<g>
</g>
<g>
</g>
</svg>
