<?xml version="1.0" encoding="iso-8859-1"?>
<!-- Generator: Adobe Illustrator 18.1.1, SVG Export Plug-In . SVG Version: 6.00 Build 0)  -->
<svg version="1.1" id="Capa_1" xmlns="http://www.w3.org/2000/svg" xmlns:xlink="http://www.w3.org/1999/xlink" x="0px" y="0px"
	 viewBox="0 0 174.174 174.174" style="enable-background:new 0 0 174.174 174.174;" xml:space="preserve">
<g>
	<path style="fill:#010002;" d="M123.072,0v8.521h32.671l-32.031,32.027c-29.211-22.407-71.301-20.324-98.025,6.399
		c-29.06,29.067-29.06,76.362,0,105.426c29.067,29.067,76.366,29.067,105.433,0c29.067-29.064,29.067-76.358,0-105.426
		c-0.297-0.293-0.626-0.54-0.923-0.83l31.565-31.569v32.668h8.518V0H123.072z M125.094,146.346c-25.75,25.75-67.633,25.75-93.383,0
		c-25.739-25.743-25.739-67.63,0-93.376c25.75-25.746,67.63-25.746,93.383,0C150.833,78.713,150.833,120.6,125.094,146.346z"/>
</g>
<g>
</g>
<g>
</g>
<g>
</g>
<g>
</g>
<g>
</g>
<g>
</g>
<g>
</g>
<g>
</g>
<g>
</g>
<g>
</g>
<g>
</g>
<g>
</g>
<g>
</g>
<g>
</g>
<g>
</g>
</svg>
