<?xml version="1.0" encoding="iso-8859-1"?>
<!-- Generator: Adobe Illustrator 18.1.1, SVG Export Plug-In . SVG Version: 6.00 Build 0)  -->
<svg version="1.1" id="Capa_1" xmlns="http://www.w3.org/2000/svg" xmlns:xlink="http://www.w3.org/1999/xlink" x="0px" y="0px"
	 viewBox="0 0 201.611 201.611" style="enable-background:new 0 0 201.611 201.611;" xml:space="preserve">
<g>
	<g>
		<path style="fill:#010002;" d="M81.884,129.558c7.083,0,13.582-2.502,18.66-6.675c5.146,4.284,11.742,6.875,18.946,6.875
			c16.359,0,29.679-13.31,29.679-29.669s-13.32-29.669-29.679-29.669c-7.215,0-13.836,2.591-18.979,6.896
			c-5.068-4.155-11.567-6.653-18.628-6.653c-16.273,0-29.447,13.188-29.447,29.447C52.437,116.384,65.615,129.558,81.884,129.558z
			 M119.494,76.791c12.859,0,23.313,10.443,23.313,23.298c0,12.844-10.454,23.302-23.313,23.302c-5.472,0-10.497-1.918-14.484-5.093
			c3.944-5,6.324-11.313,6.324-18.188c0-6.886-2.391-13.21-6.345-18.22C108.972,78.706,114.008,76.791,119.494,76.791z"/>
		<path style="fill:#010002;" d="M0,39.092v123.427h201.611V39.092H0z M195.244,156.152H6.367V45.459h188.874v110.694H195.244z"/>
	</g>
</g>
<g>
</g>
<g>
</g>
<g>
</g>
<g>
</g>
<g>
</g>
<g>
</g>
<g>
</g>
<g>
</g>
<g>
</g>
<g>
</g>
<g>
</g>
<g>
</g>
<g>
</g>
<g>
</g>
<g>
</g>
</svg>
