<?xml version="1.0" encoding="iso-8859-1"?>
<!-- Generator: Adobe Illustrator 18.1.1, SVG Export Plug-In . SVG Version: 6.00 Build 0)  -->
<svg version="1.1" id="Capa_1" xmlns="http://www.w3.org/2000/svg" xmlns:xlink="http://www.w3.org/1999/xlink" x="0px" y="0px"
	 viewBox="0 0 204.691 204.691" style="enable-background:new 0 0 204.691 204.691;" xml:space="preserve">
<g>
	<g>
		<path style="fill:#010002;" d="M201.076,1.243h-28.795h-11.259H3.599c-1.31,0-2.53,0.73-3.153,1.879
			c-0.641,1.163-0.583,2.573,0.125,3.69c0.297,0.444,28.978,45.398,24.708,84.085l0.032,77.947
			c0.218,19.086,16.398,34.604,35.481,34.604h80.488c19.082,0,34.615-15.518,34.615-34.604V8.451h21.577v73.245h7.219V4.85
			C204.687,2.86,203.069,1.243,201.076,1.243z M168.684,25.575h-51.306c-1.993,0-3.6,1.618-3.6,3.607c0,1.993,1.607,3.611,3.6,3.611
			h51.306v15.758h-33.248c-1.993,0-3.611,1.618-3.611,3.607c0,1.99,1.618,3.597,3.611,3.597h33.248v13.038h-33.248
			c-1.993,0-3.611,1.603-3.611,3.597c0,1.993,1.618,3.611,3.611,3.611h33.248v12.479h-33.248c-1.993,0-3.611,1.618-3.611,3.611
			c0,1.993,1.618,3.597,3.611,3.597h33.248v14.129h-51.306c-1.993,0-3.6,1.603-3.6,3.597c0,2.008,1.607,3.611,3.6,3.611h51.306
			v9.749h-34.887c-1.993,0-3.611,1.614-3.611,3.607c0,1.997,1.618,3.6,3.611,3.6h34.887v13.038h-34.887
			c-1.993,0-3.611,1.603-3.611,3.6c0,1.993,1.618,3.607,3.611,3.607h34.887v12.479h-34.887c-1.993,0-3.611,1.603-3.611,3.611
			c0,1.993,1.618,3.607,3.611,3.607h34.396c-2.391,12.687-13.539,22.318-26.917,22.318H60.789c-15.11,0-27.84-12.286-27.189-27.668
			l-0.276-76.924C36.159,58.336,17.782,22.115,9.973,8.451h151.049h7.666v17.125H168.684z"/>
	</g>
</g>
<g>
</g>
<g>
</g>
<g>
</g>
<g>
</g>
<g>
</g>
<g>
</g>
<g>
</g>
<g>
</g>
<g>
</g>
<g>
</g>
<g>
</g>
<g>
</g>
<g>
</g>
<g>
</g>
<g>
</g>
</svg>
