<?xml version="1.0" encoding="iso-8859-1"?>
<!-- Generator: Adobe Illustrator 18.1.1, SVG Export Plug-In . SVG Version: 6.00 Build 0)  -->
<svg version="1.1" id="Capa_1" xmlns="http://www.w3.org/2000/svg" xmlns:xlink="http://www.w3.org/1999/xlink" x="0px" y="0px"
	 viewBox="0 0 202.946 202.946" style="enable-background:new 0 0 202.946 202.946;" xml:space="preserve">
<g>
	<g>
		<path style="fill:#010002;" d="M185.916,137.342l-16.345-48.307c5.046-6.113,6.624-14.348,4.098-21.835
			c-2.53-7.476-8.775-13.056-16.499-14.852L140.79,3.94C139.902,1.328,138.528,0,136.71,0c-2.845,0-4.645,3.554-5.698,6.71
			c-11.871,47.291-64.992,62.333-65.661,62.515c-2.265,0.766-3.844,1.972-4.781,3.543c-1.031-0.583-2.248-0.977-3.758-0.977
			c-1.134,0-2.358,0.218-3.64,0.655l-22.479,7.605c-6.757,2.62-18.166,11.599-13.016,26.82l7.959,23.531
			c0.218,0.68,5.49,16.735,19.752,16.735c2.215,0,4.538-0.408,6.764-1.16c0,0,0.258-0.068,0.655-0.068
			c2.766,0,5.01,2.616,6.367,7.508l14.355,42.424c0.512,2.57,2.731,7.104,7.834,7.104c0.988,0,2.033-0.179,3.131-0.526
			c1.421-0.283,10.024-2.226,12.079-8.636c1.381-4.309-0.53-9.326-5.701-14.938c1.993-5.941-1.127-10.962-4.159-15.829
			c-2.698-4.345-5.49-8.829-5.594-14.62c0.619-2.094,3.024-10.815,1.417-15.579l-0.394-1.188c0.508,0.093,1.034,0.154,1.585,0.154
			c1.618,0,2.867-0.404,3.01-0.454c13.292-4.495,26.319-6.775,38.712-6.775c33.584,0,52.133,16.817,52.316,16.985l0.34,0.261
			c0.68,0.433,3.056,1.857,5.018,1.857c1.639,0,2.491-0.895,2.856-1.424C187.047,140.645,186.424,138.605,185.916,137.342z
			 M82.705,165.508c3.396,5.465,5.222,8.754,3.271,12.852l-0.709,1.492l1.163,1.177c4.57,4.642,6.524,8.553,5.647,11.302
			c-1.092,3.436-6.578,5.118-8.593,5.476l-0.354,0.086c-0.655,0.225-1.256,0.34-1.779,0.34c-2.52-0.007-3.16-3.056-3.221-3.386
			L63.68,152.03c-2.724-9.777-8.511-10.833-10.88-10.833c-1.045,0-1.754,0.186-2.029,0.272c-1.879,0.633-3.686,0.952-5.39,0.952
			c-10.801,0-15.214-13.317-15.267-13.485l-7.97-23.574c-4.985-14.723,9.631-20.668,10.16-20.875l22.379-7.573
			c0.795-0.268,1.507-0.404,2.129-0.404c2.462,0,3.028,2.462,3.11,2.931l18.13,54.878c0.945,2.784-0.451,9.477-1.553,13.041
			l-0.111,0.694C76.388,155.358,79.745,160.751,82.705,165.508z M180.794,137.925c-2.162-1.933-21.219-18.088-55.351-18.088
			c-12.909,0-26.448,2.366-40.201,7.022c-0.007,0-0.676,0.215-1.521,0.215c-1.568,0-2.494-0.687-3.013-2.226L64.822,77.919
			l-0.157-0.369c-0.007-0.011-0.594-1.181-0.222-2.126c0.354-0.873,1.507-1.424,2.283-1.689c0.562-0.15,56.31-15.879,68.807-65.693
			c0.251-0.734,0.594-1.521,0.934-2.169l17.118,50.612l1.396,0.236c6.646,1.12,12.104,5.715,14.222,11.989
			c2.119,6.288,0.58,13.256-4.015,18.184l-0.97,1.031l17.01,50.251C181.077,138.094,180.937,138.011,180.794,137.925z"/>
	</g>
</g>
<g>
</g>
<g>
</g>
<g>
</g>
<g>
</g>
<g>
</g>
<g>
</g>
<g>
</g>
<g>
</g>
<g>
</g>
<g>
</g>
<g>
</g>
<g>
</g>
<g>
</g>
<g>
</g>
<g>
</g>
</svg>
