<?xml version="1.0" encoding="iso-8859-1"?>
<!-- Generator: Adobe Illustrator 18.1.1, SVG Export Plug-In . SVG Version: 6.00 Build 0)  -->
<svg version="1.1" id="Capa_1" xmlns="http://www.w3.org/2000/svg" xmlns:xlink="http://www.w3.org/1999/xlink" x="0px" y="0px"
	 viewBox="0 0 201.622 201.622" style="enable-background:new 0 0 201.622 201.622;" xml:space="preserve">
<g>
	<g>
		<path style="fill:#010002;" d="M0.005,0v201.622h201.611V0H0.005z M195.021,195.015H6.601V6.596h188.419
			C195.021,6.596,195.021,195.015,195.021,195.015z"/>
		<path style="fill:#010002;" d="M40.017,121.878c11.621,0,21.072-9.452,21.072-21.069c0-11.624-9.452-21.069-21.072-21.069
			s-21.072,9.445-21.072,21.069C18.945,112.426,28.396,121.878,40.017,121.878z M40.017,86.336c7.977,0,14.473,6.492,14.473,14.473
			c0,7.977-6.492,14.473-14.473,14.473s-14.473-6.492-14.473-14.473C25.544,92.828,32.036,86.336,40.017,86.336z"/>
		<path style="fill:#010002;" d="M104.236,121.878c11.624,0,21.079-9.452,21.079-21.069c0-11.624-9.455-21.069-21.079-21.069
			c-11.613,0-21.069,9.445-21.069,21.069C83.167,112.426,92.622,121.878,104.236,121.878z M104.236,86.336
			c7.977,0,14.473,6.492,14.473,14.473c0,7.977-6.492,14.473-14.473,14.473c-7.977,0-14.469-6.492-14.469-14.473
			C89.767,92.828,96.259,86.336,104.236,86.336z"/>
		<path style="fill:#010002;" d="M164.25,121.878c11.617,0,21.069-9.452,21.069-21.069c0-11.624-9.452-21.069-21.069-21.069
			c-11.624,0-21.076,9.445-21.076,21.069C143.174,112.426,152.625,121.878,164.25,121.878z M164.25,86.336
			c7.977,0,14.473,6.492,14.473,14.473c0,7.977-6.492,14.473-14.473,14.473c-7.981,0-14.473-6.496-14.473-14.473
			C149.777,92.828,156.269,86.336,164.25,86.336z"/>
	</g>
</g>
<g>
</g>
<g>
</g>
<g>
</g>
<g>
</g>
<g>
</g>
<g>
</g>
<g>
</g>
<g>
</g>
<g>
</g>
<g>
</g>
<g>
</g>
<g>
</g>
<g>
</g>
<g>
</g>
<g>
</g>
</svg>
