<?xml version="1.0" encoding="iso-8859-1"?>
<!-- Generator: Adobe Illustrator 18.1.1, SVG Export Plug-In . SVG Version: 6.00 Build 0)  -->
<svg version="1.1" id="Capa_1" xmlns="http://www.w3.org/2000/svg" xmlns:xlink="http://www.w3.org/1999/xlink" x="0px" y="0px"
	 viewBox="0 0 205.702 205.702" style="enable-background:new 0 0 205.702 205.702;" xml:space="preserve">
<g>
	<g>
		<g>
			<path style="fill:#010002;" d="M102.849,124.319c17.569,0,32.396-15.439,32.396-33.724V32.399
				c0-17.34-13.703-31.501-30.843-32.324C103.89,0.029,103.372,0,102.849,0c-0.523,0-1.049,0.029-1.553,0.075
				c-17.15,0.823-30.85,14.985-30.85,32.324v58.196C70.446,108.879,85.28,124.319,102.849,124.319z M112.77,15.21v10.579
				c0,5.468-4.459,9.917-9.921,9.917c-5.472,0-9.921-4.449-9.921-9.917V15.21c0-5.465,4.449-9.921,9.921-9.921
				C108.31,5.29,112.77,9.742,112.77,15.21z M75.736,82.181h14.541v-5.29H75.736v-9.813h14.541v-5.29H75.736v-9.853h14.541v-5.29
				H75.736V32.399c0-9.835,5.29-18.435,13.134-23.187c-0.795,1.836-1.231,3.865-1.231,5.998v10.579
				c0,8.389,6.825,15.207,15.21,15.207c8.389,0,15.203-6.818,15.203-15.207V15.21c0-2.133-0.44-4.162-1.235-5.998
				c7.856,4.753,13.138,13.353,13.138,23.187v13.757h-14.544v5.29h14.544v9.856h-14.544v5.29h14.544v9.806h-14.544v5.29h14.544
				v8.904c0,15.411-12.419,28.43-27.106,28.43c-14.698,0-27.113-13.02-27.113-28.43C75.736,90.591,75.736,82.181,75.736,82.181z"/>
		</g>
		<g>
			<path style="fill:#010002;" d="M151.042,93.669V42.957h-5.293v50.712c0,21.505-16.098,39.503-37.446,41.876l-3.783,0.422
				l1.707,3.4c0.293,0.591,0.458,1.192,0.458,1.786v47.355h22.393c3.278,0,5.944,2.666,5.944,5.941c0,3.285-2.666,5.959-5.944,5.959
				H76.62c-3.289,0-5.959-2.673-5.959-5.959c0-3.275,2.67-5.941,5.959-5.941h22.046v-47.355c0-0.601,0.154-1.213,0.465-1.818
				l1.754-3.389l-3.794-0.447c-21.172-2.516-37.152-20.496-37.152-41.83V42.957H54.66v50.712c0,22.98,16.452,42.499,38.755,46.618
				c-0.029,0.286-0.036,0.58-0.036,0.866v42.062H76.623c-6.202,0-11.248,5.043-11.248,11.238c0,6.202,5.043,11.248,11.248,11.248
				h52.459c6.191,0,11.245-5.043,11.245-11.248c0-6.191-5.05-11.238-11.245-11.238h-17.11v-42.062c0-0.261-0.011-0.526-0.029-0.791
				C134.44,136.39,151.042,116.832,151.042,93.669z"/>
		</g>
	</g>
</g>
<g>
</g>
<g>
</g>
<g>
</g>
<g>
</g>
<g>
</g>
<g>
</g>
<g>
</g>
<g>
</g>
<g>
</g>
<g>
</g>
<g>
</g>
<g>
</g>
<g>
</g>
<g>
</g>
<g>
</g>
</svg>
