<?xml version="1.0" encoding="iso-8859-1"?>
<!-- Generator: Adobe Illustrator 18.1.1, SVG Export Plug-In . SVG Version: 6.00 Build 0)  -->
<svg version="1.1" id="Capa_1" xmlns="http://www.w3.org/2000/svg" xmlns:xlink="http://www.w3.org/1999/xlink" x="0px" y="0px"
	 viewBox="0 0 197.925 197.925" style="enable-background:new 0 0 197.925 197.925;" xml:space="preserve">
<g>
	<g>
		<path style="fill:#010002;" d="M76.065,114.409l3.035-3.038l-0.251-0.251c-4.649-4.66-7.208-10.837-7.208-17.397V40.638h54.649
			V64.18l4.298-4.295V28.939C130.589,12.98,117.605,0,101.647,0h-5.358C80.331,0,67.343,12.98,67.343,28.939v64.788
			c0,7.702,3.01,14.963,8.468,20.432L76.065,114.409z M96.285,4.291h5.358c13.592,0,24.644,11.059,24.644,24.648v7.408H71.638
			v-7.408C71.638,15.35,82.693,4.291,96.285,4.291z"/>
		<path style="fill:#010002;" d="M101.643,122.662c15.958,0,28.942-12.98,28.942-28.939v-9.545l-4.298,4.295v5.25
			c0,13.589-11.051,24.648-24.644,24.648h-5.25l-4.03,4.03l0.741,0.079c1.138,0.122,2.18,0.183,3.182,0.183H101.643z"/>
		<path style="fill:#010002;" d="M146.665,97.892c0,23.638-19.233,42.875-42.878,42.875h-9.004c-5.859,0-11.563-1.181-16.957-3.511
			l-0.225-0.097l-3.207,3.21l0.462,0.218c6.338,2.97,13.045,4.474,19.927,4.474h2.355v48.572H71.402v4.291h55.766v-4.291h-25.736
			v-48.572h2.355c26.015,0,47.176-21.158,47.176-47.169v-0.358h-4.295v0.358H146.665z"/>
		<path style="fill:#010002;" d="M60.393,130.077l3.038-3.038l-0.229-0.251c-7.283-7.956-11.295-18.216-11.295-28.896v-0.358h-4.295
			v0.358c0,11.81,4.452,23.144,12.533,31.909L60.393,130.077z"/>
		<polygon style="fill:#010002;" points="175.314,24.286 19.83,179.773 19.573,180.023 22.611,183.062 178.094,27.575 
			178.352,27.321 		"/>
	</g>
</g>
<g>
</g>
<g>
</g>
<g>
</g>
<g>
</g>
<g>
</g>
<g>
</g>
<g>
</g>
<g>
</g>
<g>
</g>
<g>
</g>
<g>
</g>
<g>
</g>
<g>
</g>
<g>
</g>
<g>
</g>
</svg>
