<?xml version="1.0" encoding="iso-8859-1"?>
<!-- Generator: Adobe Illustrator 18.1.1, SVG Export Plug-In . SVG Version: 6.00 Build 0)  -->
<svg version="1.1" id="Capa_1" xmlns="http://www.w3.org/2000/svg" xmlns:xlink="http://www.w3.org/1999/xlink" x="0px" y="0px"
	 viewBox="0 0 197.928 197.928" style="enable-background:new 0 0 197.928 197.928;" xml:space="preserve">
<g>
	<g>
		<path style="fill:#010002;" d="M95.96,122.662h5.358c15.958,0,28.942-12.98,28.942-28.939V28.939
			C130.259,12.98,117.275,0,101.317,0H95.96C80.002,0,67.018,12.98,67.018,28.939v64.788
			C67.018,109.681,80.002,122.662,95.96,122.662z M95.96,4.291h5.358c13.592,0,24.648,11.059,24.648,24.648v7.408H71.312v-7.408
			C71.312,15.35,82.367,4.291,95.96,4.291z M101.317,118.37H95.96c-13.592,0-24.648-11.059-24.648-24.648V40.638h54.653v53.085
			C125.965,107.312,114.91,118.37,101.317,118.37z"/>
		<path style="fill:#010002;" d="M146.339,97.538v0.358c0,23.638-19.233,42.875-42.875,42.875H94.46
			c-23.645,0-42.882-19.236-42.882-42.875v-0.358h-4.291v0.358c0,26.011,21.158,47.169,47.176,47.169h2.351v48.572H71.083v4.291
			h55.758v-4.291H101.11v-48.576h2.355c26.011,0,47.176-21.158,47.176-47.169v-0.358h-4.302V97.538z"/>
	</g>
</g>
<g>
</g>
<g>
</g>
<g>
</g>
<g>
</g>
<g>
</g>
<g>
</g>
<g>
</g>
<g>
</g>
<g>
</g>
<g>
</g>
<g>
</g>
<g>
</g>
<g>
</g>
<g>
</g>
<g>
</g>
</svg>
