<?xml version="1.0" encoding="iso-8859-1"?>
<!-- Generator: Adobe Illustrator 18.1.1, SVG Export Plug-In . SVG Version: 6.00 Build 0)  -->
<svg version="1.1" id="Capa_1" xmlns="http://www.w3.org/2000/svg" xmlns:xlink="http://www.w3.org/1999/xlink" x="0px" y="0px"
	 viewBox="0 0 203.039 203.039" style="enable-background:new 0 0 203.039 203.039;" xml:space="preserve">
<g>
	<g>
		<path style="fill:#010002;" d="M193.501,19.859L182.768,9.126C176.878,3.239,169.051,0,160.715,0
			c-8.339,0-16.18,3.242-22.064,9.126l-23.277,23.273c-6.875,6.875-10.085,16.291-8.876,25.9c-2.834,1.374-5.393,3.185-7.616,5.404
			l-78.23,78.234c-11.184,11.184-1.721,20.65,3.944,26.315l2.72,2.681L0.408,197.835l5.214,5.204l26.891-26.891
			c0.558,0.565,1.117,1.135,1.664,1.675c4.348,4.348,7.838,7.297,11.792,8.55c5.05,1.596,9.81,0.086,14.512-4.606l78.227-78.227
			c2.183-2.183,3.973-4.685,5.318-7.455c1.417,0.193,2.838,0.29,4.252,0.29c8.274,0,16.062-3.232,21.949-9.119l23.277-23.273
			c5.887-5.887,9.126-13.714,9.126-22.064C202.627,33.573,199.389,25.746,193.501,19.859z M193.569,50.723
			c-27.911-10.465-38.734-35.087-41.232-41.848c2.681-1.009,5.501-1.51,8.385-1.51c6.378,0,12.351,2.469,16.842,6.961l10.733,10.737
			C194.979,31.737,197.037,41.951,193.569,50.723z M143.075,88.433c-15.679-8.328-27.307-26.526-28.949-29.2
			c-1.618-7.895,0.787-15.972,6.453-21.631l23.277-23.273c0.594-0.598,1.249-1.174,1.99-1.75c2.097,5.501,7.387,17.06,17.969,27.632
			c7.369,7.369,16.087,13.059,25.957,16.917c-0.483,0.598-0.97,1.145-1.471,1.643l-23.277,23.273
			C159.309,87.768,151.028,90.173,143.075,88.433z M137.113,93.444c-0.966,1.818-2.172,3.45-3.607,4.885l-78.23,78.23
			c-2.058,2.058-3.876,3.053-5.547,3.053c-0.501,0-0.981-0.075-1.55-0.261c-2.502-0.78-5.329-3.25-8.84-6.753l-2.212-2.248
			c-0.82-0.837-1.653-1.686-2.512-2.541c-0.855-0.866-1.711-1.704-2.537-2.509l-2.287-2.251c-8.07-8.07-8.8-11.041-3.933-15.908
			l78.23-78.227c1.482-1.482,3.192-2.731,5.107-3.715c2.491,3.819,7.279,10.54,13.868,17.128
			C127.525,86.798,132.246,90.541,137.113,93.444z"/>
	</g>
</g>
<g>
</g>
<g>
</g>
<g>
</g>
<g>
</g>
<g>
</g>
<g>
</g>
<g>
</g>
<g>
</g>
<g>
</g>
<g>
</g>
<g>
</g>
<g>
</g>
<g>
</g>
<g>
</g>
<g>
</g>
</svg>
