<?xml version="1.0" encoding="iso-8859-1"?>
<!-- Generator: Adobe Illustrator 18.1.1, SVG Export Plug-In . SVG Version: 6.00 Build 0)  -->
<svg version="1.1" id="Capa_1" xmlns="http://www.w3.org/2000/svg" xmlns:xlink="http://www.w3.org/1999/xlink" x="0px" y="0px"
	 viewBox="0 0 200.28 200.28" style="enable-background:new 0 0 200.28 200.28;" xml:space="preserve">
<g>
	<g>
		<g>
			<path style="fill:#010002;" d="M110.724,56.771c-0.043-4.613,2.101-8.217,4.169-11.71c2.752-4.627,5.594-9.42,3.618-16.008
				c-2.015-6.041-5.826-9.012-9.198-11.628c-4.534-3.529-7.809-6.077-6.102-15.736l0.147-0.827L98.463,0l-0.147,0.823
				c-2.23,12.615,3.182,16.817,7.959,20.521c3.074,2.401,5.987,4.663,7.505,9.208c1.328,4.423-0.651,7.755-3.153,11.971
				c-2.323,3.919-4.942,8.335-4.889,14.244C80.973,56.8,55.671,57.82,55.671,145.842c0,39.654,31.873,54.438,51.965,54.438
				s51.965-14.784,51.965-54.438C159.593,57.931,133.808,56.846,110.724,56.771z M107.632,195.309
				c-18.17,0-46.987-13.431-46.987-49.467c0-7.211,0.165-13.983,0.483-20.16c7.247,3.364,24.254,9.917,46.6,9.917
				c15.922,0,31.53-3.375,46.411-10.039c0.329,6.216,0.494,13.034,0.494,20.278C154.63,181.877,125.809,195.309,107.632,195.309z
				 M110.119,130.599v-10.733c3.056-0.591,5.358-3.296,5.358-6.463V80.968c0-3.171-2.301-5.873-5.358-6.463V61.739
				c20.439,0.043,39.579,0.855,43.687,58.511C139.824,126.777,125.129,130.256,110.119,130.599z M110.506,113.403
				c0,0.902-0.734,1.639-1.636,1.639h-2.469c-0.913,0-1.639-0.737-1.639-1.639V80.968c0-0.902,0.727-1.639,1.639-1.639h2.469
				c0.902,0,1.636,0.737,1.636,1.639V113.403z M103.366,64.509v9.999c-2.827,0.569-4.942,3.071-4.942,6.005v33.18
				c0,2.928,2.115,5.433,4.942,6.005v8.128c-20.9-0.508-36.189-7.469-40.123-9.441C67.023,65.35,84.584,64.555,103.366,64.509z"/>
		</g>
		<g>
			<path style="fill:#010002;" d="M83.232,53.633l0.816-0.183l-1.084-4.849l-0.816,0.186C52.579,55.422,49.93,83.512,49.902,83.799
				l-0.072,0.837l4.957,0.376l0.072-0.823C54.88,83.942,57.246,59.466,83.232,53.633z"/>
		</g>
		<g>
			<path style="fill:#010002;" d="M74.077,44.474l0.816-0.183l-1.092-4.849l-0.816,0.183c-29.568,6.639-32.217,34.726-32.235,35.012
				l-0.072,0.83l4.95,0.387l0.072-0.827C45.725,74.784,48.066,50.311,74.077,44.474z"/>
		</g>
	</g>
</g>
<g>
</g>
<g>
</g>
<g>
</g>
<g>
</g>
<g>
</g>
<g>
</g>
<g>
</g>
<g>
</g>
<g>
</g>
<g>
</g>
<g>
</g>
<g>
</g>
<g>
</g>
<g>
</g>
<g>
</g>
</svg>
