<?xml version="1.0" encoding="iso-8859-1"?>
<!-- Generator: Adobe Illustrator 18.1.1, SVG Export Plug-In . SVG Version: 6.00 Build 0)  -->
<svg version="1.1" id="Capa_1" xmlns="http://www.w3.org/2000/svg" xmlns:xlink="http://www.w3.org/1999/xlink" x="0px" y="0px"
	 viewBox="0 0 197.9 197.9" style="enable-background:new 0 0 197.9 197.9;" xml:space="preserve">
<g>
	<g>
		<path style="fill:#010002;" d="M102.006,56.098c-0.054-4.556,2.072-8.12,4.119-11.574c2.713-4.577,5.522-9.312,3.568-15.815
			c-1.986-5.966-5.744-8.893-9.087-11.488c-4.477-3.486-7.716-6.005-6.038-15.55l0.147-0.82L89.885,0l-0.143,0.816
			c-2.201,12.469,3.142,16.617,7.856,20.278c3.049,2.373,5.927,4.61,7.423,9.097c1.31,4.381-0.641,7.669-3.117,11.832
			c-2.294,3.872-4.889,8.235-4.828,14.076c-24.469,0.029-49.47,1.041-49.47,88.011c0,39.181,31.49,53.79,51.346,53.79
			c19.852,0,51.346-14.609,51.346-53.79C150.296,57.247,124.818,56.177,102.006,56.098z M101.409,129.05v-10.608
			c3.024-0.583,5.293-3.257,5.293-6.385V80.005c0-3.135-2.273-5.801-5.293-6.385V61.005c20.199,0.043,39.099,0.845,43.168,57.809
			C130.759,125.271,116.243,128.71,101.409,129.05z M101.795,112.057c0,0.888-0.73,1.618-1.621,1.618h-2.452
			c-0.891,0-1.618-0.73-1.618-1.618V80.005c0-0.891,0.727-1.618,1.618-1.618h2.452c0.891,0,1.621,0.727,1.621,1.618V112.057z
			 M96.491,73.621c-3.024,0.583-5.293,3.257-5.293,6.385v32.052c0,3.128,2.269,5.801,5.293,6.385v10.611
			c-22.575-0.53-39.02-8.063-43.172-10.16c4.058-57.047,22.969-57.845,43.172-57.888V73.621z M98.95,192.982
			c-17.952,0-46.439-13.27-46.439-48.876c0-7.104,0.161-13.796,0.48-19.916c7.168,3.328,23.975,9.802,46.053,9.802
			c15.725,0,31.15-3.339,45.856-9.917c0.326,6.156,0.49,12.887,0.49,20.034C145.389,179.712,116.901,192.982,98.95,192.982z"/>
	</g>
</g>
<g>
</g>
<g>
</g>
<g>
</g>
<g>
</g>
<g>
</g>
<g>
</g>
<g>
</g>
<g>
</g>
<g>
</g>
<g>
</g>
<g>
</g>
<g>
</g>
<g>
</g>
<g>
</g>
<g>
</g>
</svg>
