<?xml version="1.0" encoding="iso-8859-1"?>
<!-- Generator: Adobe Illustrator 18.1.1, SVG Export Plug-In . SVG Version: 6.00 Build 0)  -->
<svg version="1.1" id="Capa_1" xmlns="http://www.w3.org/2000/svg" xmlns:xlink="http://www.w3.org/1999/xlink" x="0px" y="0px"
	 viewBox="0 0 202.209 202.209" style="enable-background:new 0 0 202.209 202.209;" xml:space="preserve">
<g>
	<g>
		<path style="fill:#010002;" d="M64.105,19.014V150.53c-5.443-1.109-11.424-0.952-17.257,0.49
			c-17.45,4.373-28.831,19.14-25.428,32.639c1.668,10.583,13.9,18.549,28.477,18.549c3.196,0,6.381-0.387,9.441-1.163
			c13.639-3.378,23.921-13.331,25.725-24.411h0.272L85.724,63.7l74.415-13.603v81.981c-5.536-1.152-11.653-1.002-17.586,0.469
			c-17.601,4.406-29.082,19.311-25.61,33.233c2.759,11.073,14.14,18.513,28.291,18.513l0,0c3.3,0,6.642-0.422,9.953-1.235
			c16.162-4.087,26.204-15.271,26.204-29.203V0L64.105,19.014z M174.734,153.848c0,10.74-8.117,19.447-21.172,22.744
			c-2.759,0.694-5.569,1.038-8.332,1.038l0,0c-11.048,0-19.823-5.411-21.845-13.467c-2.58-10.364,6.735-21.652,20.772-25.166
			c6.277-1.564,12.741-1.346,18.195,0.583l4.438,1.564V42.102L79.075,58.138L78.71,169.974l-0.021,3.31
			c-0.068,9.359-8.879,18.317-20.965,21.308c-2.545,0.641-5.182,0.959-7.831,0.959c-11.137,0-20.761-5.683-21.971-13.213
			c-2.555-10.239,6.653-21.391,20.532-24.859c2.752-0.684,5.536-1.027,8.264-1.027c3.389,0,6.632,0.526,9.609,1.575l4.427,1.553
			V24.676L174.73,7.809v146.039H174.734z"/>
	</g>
</g>
<g>
</g>
<g>
</g>
<g>
</g>
<g>
</g>
<g>
</g>
<g>
</g>
<g>
</g>
<g>
</g>
<g>
</g>
<g>
</g>
<g>
</g>
<g>
</g>
<g>
</g>
<g>
</g>
<g>
</g>
</svg>
