<?xml version="1.0" encoding="iso-8859-1"?>
<!-- Generator: Adobe Illustrator 18.1.1, SVG Export Plug-In . SVG Version: 6.00 Build 0)  -->
<svg version="1.1" id="Capa_1" xmlns="http://www.w3.org/2000/svg" xmlns:xlink="http://www.w3.org/1999/xlink" x="0px" y="0px"
	 viewBox="0 0 197.409 197.409" style="enable-background:new 0 0 197.409 197.409;" xml:space="preserve">
<g>
	<g>
		<g>
			<path style="fill:#010002;" d="M197.055,77.57c-0.44-0.809-7.805-13.507-35.799-22.117
				c-18.535-20.543-39.672-31.011-61.384-31.079c-0.075,0-0.154,0-0.222,0c-36.536,0-62.569,29.146-63.693,30.384l0.623,0.569
				C8.242,63.942,0.791,76.765,0.347,77.57L0,78.214v63.453c0,17.293,12.941,31.369,28.838,31.369h139.729
				c15.901,0,28.842-14.076,28.842-31.369V78.214L197.055,77.57z M99.65,30.071c0.068,0,0.136,0,0.204,0
				c17.608,0.057,35.134,7.652,50.755,22.572c-13.36-3.017-30.342-5.068-51.9-5.068c-21.813,0-38.92,2.094-52.351,5.171
				C56.016,44.405,75.396,30.071,99.65,30.071z M5.705,141.667V91.824h35.345c7.258,0,13.381,9.709,13.381,21.208v11.227
				c0,11.499-6.123,21.208-13.381,21.208H5.984C5.819,144.226,5.705,142.966,5.705,141.667z M168.571,167.324H28.842
				c-9.738,0-18.062-6.7-21.473-16.151h33.684c10.701,0,19.082-11.825,19.082-26.917v-11.227c0-15.092-8.382-26.909-19.082-26.909
				H5.705v-6.335c2.741-3.815,22.082-26.512,93.004-26.512c70.99,0,90.291,22.754,92.993,26.501v6.345h-35.223
				c-10.697,0-19.079,11.814-19.079,26.909v11.227c0,15.092,8.382,26.917,19.079,26.917h33.559
				C186.626,160.624,178.302,167.324,168.571,167.324z M191.422,145.464h-34.944c-7.247,0-13.378-9.709-13.378-21.208v-11.227
				c0-11.499,6.131-21.208,13.378-21.208h35.223v49.843C191.701,142.966,191.587,144.226,191.422,145.464z"/>
		</g>
		<g>
			<path style="fill:#010002;" d="M126.902,69.764L126.902,69.764l-63.059,0.057c-1.124,0-2.144,0.655-2.605,1.682
				c-0.451,1.031-0.268,2.23,0.49,3.067l21.62,24.1c0.537,0.598,1.317,0.941,2.122,0.941h20.138c0.823,0,1.593-0.347,2.144-0.963
				l21.291-24.15c0.741-0.845,0.916-2.036,0.465-3.063C129.046,70.416,128.026,69.764,126.902,69.764z M104.32,93.911H86.737
				L70.231,75.512l50.351-0.039L104.32,93.911z"/>
		</g>
	</g>
</g>
<g>
</g>
<g>
</g>
<g>
</g>
<g>
</g>
<g>
</g>
<g>
</g>
<g>
</g>
<g>
</g>
<g>
</g>
<g>
</g>
<g>
</g>
<g>
</g>
<g>
</g>
<g>
</g>
<g>
</g>
</svg>
