<?xml version="1.0" encoding="iso-8859-1"?>
<!-- Generator: Adobe Illustrator 18.1.1, SVG Export Plug-In . SVG Version: 6.00 Build 0)  -->
<svg version="1.1" id="Capa_1" xmlns="http://www.w3.org/2000/svg" xmlns:xlink="http://www.w3.org/1999/xlink" x="0px" y="0px"
	 viewBox="0 0 202.588 202.588" style="enable-background:new 0 0 202.588 202.588;" xml:space="preserve">
<g>
	<g>
		<g>
			<path style="fill:#010002;" d="M183.874,61.639c-10.325,0-18.714,8.403-18.714,18.714v71.473h7.916V80.352
				c0-5.952,4.846-10.783,10.801-10.783c5.937,0,10.783,4.835,10.783,10.783l-0.157,0.136l-0.021,92.152
				c0,11.352-12.501,20.847-28.359,21.616c-14.026-0.633-25.023-8.886-25.023-18.803l0.075-175.124H0v172.307
				c0,16.33,17.254,29.622,38.451,29.622h125.503c0.519,0,1.038-0.021,1.546-0.057l0.53-0.025l0.598,0.025
				c0.394,0.021,0.795,0.047,1.199,0.047l1.084-0.147v-0.089c19.165-1.897,33.494-14.391,33.494-29.375v-20.811h0.183V80.352
				C202.588,70.042,194.185,61.639,183.874,61.639z M7.927,8.246h125.321l-0.072,167.207c0,7.147,3.64,13.879,10.085,18.882H38.451
				c-16.828,0-30.524-9.738-30.524-21.699C7.927,172.637,7.927,8.246,7.927,8.246z"/>
		</g>
		<g>
			<rect x="15.776" y="77.586" style="fill:#010002;" width="48.436" height="5.737"/>
		</g>
		<g>
			<rect x="20.439" y="25.131" style="fill:#010002;" width="99.875" height="5.748"/>
		</g>
		<g>
			<rect x="40.924" y="42.012" style="fill:#010002;" width="58.915" height="5.748"/>
		</g>
		<g>
			<rect x="15.776" y="91.916" style="fill:#010002;" width="48.436" height="5.748"/>
		</g>
		<g>
			<rect x="15.776" y="106.066" style="fill:#010002;" width="48.436" height="5.748"/>
		</g>
		<g>
			<rect x="15.776" y="120.432" style="fill:#010002;" width="48.436" height="5.748"/>
		</g>
		<g>
			<rect x="15.776" y="136.308" style="fill:#010002;" width="48.436" height="5.748"/>
		</g>
		<g>
			<rect x="74.397" y="78.445" style="fill:#010002;" width="48.436" height="5.748"/>
		</g>
		<g>
			<rect x="74.397" y="92.775" style="fill:#010002;" width="48.436" height="5.748"/>
		</g>
		<g>
			<rect x="74.397" y="106.925" style="fill:#010002;" width="48.436" height="5.744"/>
		</g>
		<g>
			<rect x="74.397" y="121.291" style="fill:#010002;" width="48.436" height="5.748"/>
		</g>
		<g>
			<rect x="74.397" y="137.167" style="fill:#010002;" width="48.436" height="5.748"/>
		</g>
	</g>
</g>
<g>
</g>
<g>
</g>
<g>
</g>
<g>
</g>
<g>
</g>
<g>
</g>
<g>
</g>
<g>
</g>
<g>
</g>
<g>
</g>
<g>
</g>
<g>
</g>
<g>
</g>
<g>
</g>
<g>
</g>
</svg>
