<?xml version="1.0" encoding="iso-8859-1"?>
<!-- Generator: Adobe Illustrator 18.1.1, SVG Export Plug-In . SVG Version: 6.00 Build 0)  -->
<svg version="1.1" id="Capa_1" xmlns="http://www.w3.org/2000/svg" xmlns:xlink="http://www.w3.org/1999/xlink" x="0px" y="0px"
	 viewBox="0 0 199.508 199.508" style="enable-background:new 0 0 199.508 199.508;" xml:space="preserve">
<g>
	<polygon style="fill:#010002;" points="6.989,128.769 6.989,108.864 73.749,108.864 66.76,101.881 0,101.881 0,135.77 
		100.648,135.77 93.655,128.769 	"/>
	<polygon style="fill:#010002;" points="163.31,108.864 163.31,128.769 123.295,128.769 130.281,135.77 170.303,135.77 
		170.303,101.881 96.396,101.881 103.379,108.864 	"/>
	<path style="fill:#010002;" d="M174.49,135.77h20.951v-33.888H174.49V135.77z M181.473,108.864h6.986v19.906h-6.986V108.864z"/>
	<path style="fill:#010002;" d="M176.86,59.003c5.529,4.667,8.206,9.394,7.949,14.065c-0.404,7.215-7.72,12.186-7.795,12.233
		l1.929,2.91c0.365-0.24,8.843-5.955,9.341-14.92c0.336-5.837-2.759-11.538-9.18-16.957c-5.54-4.667-8.213-9.394-7.952-14.058
		c0.404-7.19,7.712-12.136,7.791-12.182l-1.922-2.913c-0.365,0.236-8.833,5.923-9.344,14.87
		C167.333,47.88,170.418,53.585,176.86,59.003z"/>
	<path style="fill:#010002;" d="M184.211,41.084c1.278,7.523,8.457,11.495,8.772,11.66l1.657-3.071
		c-0.061-0.032-5.984-3.307-6.979-9.173c-0.687-4.03,1.106-8.439,5.336-13.106c5.375-5.919,7.437-11.137,6.131-15.514
		c-1.7-5.662-8.321-7.44-8.604-7.512l-0.866,3.382c0.043,0.011,5.01,1.396,6.131,5.128c0.909,3.081-0.948,7.287-5.368,12.172
		C185.427,30.548,183.334,35.945,184.211,41.084z"/>
	<path style="fill:#010002;" d="M175.94,190.204l-4.939,4.935L20.342,44.48l4.935-4.935L175.94,190.204z"/>
</g>
<g>
</g>
<g>
</g>
<g>
</g>
<g>
</g>
<g>
</g>
<g>
</g>
<g>
</g>
<g>
</g>
<g>
</g>
<g>
</g>
<g>
</g>
<g>
</g>
<g>
</g>
<g>
</g>
<g>
</g>
</svg>
