<?xml version="1.0" encoding="iso-8859-1"?>
<!-- Generator: Adobe Illustrator 18.1.1, SVG Export Plug-In . SVG Version: 6.00 Build 0)  -->
<svg version="1.1" id="Capa_1" xmlns="http://www.w3.org/2000/svg" xmlns:xlink="http://www.w3.org/1999/xlink" x="0px" y="0px"
	 viewBox="0 0 206.106 206.106" style="enable-background:new 0 0 206.106 206.106;" xml:space="preserve">
<g>
	<g>
		<path style="fill:#010002;" d="M206.106,22.459L183.649,0.002l-31.515,31.526l-4.653-4.663l7.494-7.501l-3.4-3.403L77.257,90.278
			l3.403,3.414l11.56-11.574l4.66,4.649L0,183.658l22.457,22.447l33.681-33.691l0.115,0.115l3.414-3.393l-0.129-0.125
			L206.106,22.459z M144.07,30.272l4.66,4.66l-14.34,14.33l-4.653-4.649L144.07,30.272z M126.326,48.016l4.67,4.649l-13.907,13.907
			l-4.652-4.66L126.326,48.016z M95.623,78.715l13.414-13.403l4.649,4.649l-13.403,13.414L95.623,78.715z M22.457,199.304
			L6.803,183.661l30.288-30.288l15.64,15.64L22.457,199.304z M56.141,165.61l-15.643-15.64l59.785-59.799l2.781,2.777
			c-2.695,3.106-4.144,5.98-3.278,6.839c1.016,1.027,4.831-1.131,8.518-4.821c3.686-3.686,5.844-7.501,4.821-8.518
			c-0.834-0.845-3.625,0.519-6.646,3.117l-2.792-2.802l13.403-13.399l2.788,2.788c-2.652,3.063-4.048,5.887-3.203,6.743
			c1.024,1.013,4.842-1.142,8.518-4.821c3.686-3.69,5.844-7.505,4.831-8.528c-0.855-0.845-3.675,0.558-6.743,3.203l-2.792-2.792
			l13.9-13.897l2.788,2.788c-2.652,3.063-4.048,5.887-3.192,6.743c1.013,1.024,4.831-1.142,8.507-4.831
			c3.69-3.69,5.844-7.494,4.831-8.518c-0.855-0.845-3.686,0.551-6.743,3.203l-2.788-2.792l14.34-14.34l2.799,2.802
			c-2.57,3.013-3.922,5.758-3.085,6.607c1.027,1.013,4.842-1.142,8.521-4.821c3.686-3.69,5.844-7.505,4.831-8.518
			c-0.866-0.866-3.776,0.58-6.893,3.307l-2.766-2.766l28.108-28.123l15.654,15.654L56.141,165.61z"/>
	</g>
</g>
<g>
</g>
<g>
</g>
<g>
</g>
<g>
</g>
<g>
</g>
<g>
</g>
<g>
</g>
<g>
</g>
<g>
</g>
<g>
</g>
<g>
</g>
<g>
</g>
<g>
</g>
<g>
</g>
<g>
</g>
</svg>
