<?xml version="1.0" encoding="iso-8859-1"?>
<!-- Generator: Adobe Illustrator 18.1.1, SVG Export Plug-In . SVG Version: 6.00 Build 0)  -->
<svg version="1.1" id="Capa_1" xmlns="http://www.w3.org/2000/svg" xmlns:xlink="http://www.w3.org/1999/xlink" x="0px" y="0px"
	 viewBox="0 0 199.324 199.324" style="enable-background:new 0 0 199.324 199.324;" xml:space="preserve">
<g>
	<g>
		<rect x="50.147" y="79.406" style="fill:#010002;" width="40.047" height="4.484"/>
		<path style="fill:#010002;" d="M199.324,54.522l-25.209-33.437l0.075-0.064h-0.125l-0.115-0.15l-0.193,0.15H58.339L9.731,59.189
			v1.5L0,90.379l9.731-7.086v95.162h119.262v-0.29l45.111-40.119v-58.07L199.324,54.522z M193.394,54.125l-39.94,40.291
			l-23.832-32.571l41.168-37.71L193.394,54.125z M59.928,25.508h102.717l-36.766,33.684H18.317L59.928,25.508z M124.505,173.966
			H14.226V63.687h110.279V173.966z M169.612,136.02l-40.624,36.125V68.58l23.946,32.739l16.674-16.821v51.521H169.612z"/>
	</g>
</g>
<g>
</g>
<g>
</g>
<g>
</g>
<g>
</g>
<g>
</g>
<g>
</g>
<g>
</g>
<g>
</g>
<g>
</g>
<g>
</g>
<g>
</g>
<g>
</g>
<g>
</g>
<g>
</g>
<g>
</g>
</svg>
