<?xml version="1.0" encoding="iso-8859-1"?>
<!-- Generator: Adobe Illustrator 18.1.1, SVG Export Plug-In . SVG Version: 6.00 Build 0)  -->
<svg version="1.1" id="Capa_1" xmlns="http://www.w3.org/2000/svg" xmlns:xlink="http://www.w3.org/1999/xlink" x="0px" y="0px"
	 viewBox="0 0 196.883 196.883" style="enable-background:new 0 0 196.883 196.883;" xml:space="preserve">
<g>
	<g>
		<path style="fill:#010002;" d="M153.239,68.496h-4.159V39.589C149.081,17.762,131.326,0,109.491,0H87.396
			C65.565,0,47.81,17.762,47.81,39.589v28.906h-4.162c-7.773,0-14.104,6.327-14.104,14.101v100.19
			c0,7.773,6.335,14.097,14.104,14.097h109.588c7.773,0,14.104-6.327,14.104-14.097V82.596
			C167.343,74.823,161.009,68.496,153.239,68.496z M57.215,39.589c0-16.642,13.532-30.184,30.18-30.184h22.096
			c16.645,0,30.18,13.542,30.18,30.184v28.906H57.215V39.589z M157.938,182.786c0,2.588-2.115,4.699-4.699,4.699H43.648
			c-2.588,0-4.699-2.112-4.699-4.699V82.596c0-2.591,2.112-4.699,4.699-4.699h109.588c2.588,0,4.699,2.112,4.699,4.699v100.19
			H157.938z"/>
		<path style="fill:#010002;" d="M98.44,112.147c-9.774,0-17.733,7.956-17.733,17.73c0,6.03,3.099,11.595,8.178,14.849v19.791
			c0,5.279,4.295,9.566,9.556,9.566c5.282,0,9.566-4.287,9.566-9.566v-19.784c5.075-3.26,8.174-8.829,8.174-14.856
			C116.18,120.103,108.221,112.147,98.44,112.147z M104.549,141.315l-1.242,0.666v22.54c0,2.684-2.183,4.86-4.867,4.86
			c-2.673,0-4.856-2.176-4.856-4.86v-22.54l-1.235-0.673c-4.28-2.283-6.932-6.66-6.932-11.431c0-7.183,5.848-13.027,13.023-13.027
			c7.186,0,13.031,5.844,13.031,13.027C111.47,134.647,108.819,139.028,104.549,141.315z"/>
	</g>
</g>
<g>
</g>
<g>
</g>
<g>
</g>
<g>
</g>
<g>
</g>
<g>
</g>
<g>
</g>
<g>
</g>
<g>
</g>
<g>
</g>
<g>
</g>
<g>
</g>
<g>
</g>
<g>
</g>
<g>
</g>
</svg>
