<?xml version="1.0" encoding="iso-8859-1"?>
<!-- Generator: Adobe Illustrator 18.1.1, SVG Export Plug-In . SVG Version: 6.00 Build 0)  -->
<svg version="1.1" id="Capa_1" xmlns="http://www.w3.org/2000/svg" xmlns:xlink="http://www.w3.org/1999/xlink" x="0px" y="0px"
	 viewBox="0 0 203.228 203.228" style="enable-background:new 0 0 203.228 203.228;" xml:space="preserve">
<g>
	<g>
		<path style="fill:#010002;" d="M202.991,50.805c0.068-0.1,0.129-0.208,0.168-0.326c0.011-0.05,0.011-0.1,0.025-0.161
			c0.021-0.104,0.043-0.218,0.036-0.326c0-0.018,0.011-0.036,0.007-0.05c-0.007-0.061-0.036-0.104-0.047-0.165
			c-0.014-0.064-0.014-0.132-0.039-0.197c-0.007-0.025-0.025-0.043-0.039-0.064c-0.032-0.072-0.072-0.132-0.111-0.19
			c-0.054-0.075-0.1-0.15-0.165-0.218c-0.047-0.043-0.093-0.075-0.147-0.118c-0.075-0.057-0.157-0.107-0.243-0.15
			c-0.057-0.029-0.115-0.047-0.179-0.061c-0.089-0.032-0.19-0.05-0.286-0.057c0,0-0.061-0.018-0.089-0.018h-0.05L1.308,55.379
			c-0.648,0.018-1.192,0.501-1.292,1.145c-0.1,0.637,0.276,1.267,0.888,1.482l44.635,15.736l12.952,79.644
			c0.029,0.172,0.089,0.333,0.175,0.476c0.011,0.021,0.029,0.032,0.043,0.05c0.115,0.168,0.268,0.304,0.44,0.404
			c0.025,0.014,0.032,0.047,0.057,0.057c0.025,0.018,0.047,0.007,0.064,0.018c0.172,0.075,0.358,0.132,0.551,0.132h0.004l0,0l0,0
			c0.068,0,0.143-0.004,0.215-0.018c0.211-0.036,0.39-0.115,0.548-0.233c0.011-0.007,0.025,0,0.032-0.007l136.569-99.896
			l5.365-3.135c0.039-0.021,0.061-0.05,0.086-0.072c0.111-0.075,0.211-0.154,0.29-0.254
			C202.955,50.876,202.969,50.841,202.991,50.805z M59.056,77.861c-0.018,0.021-0.039,0.029-0.054,0.05
			c-0.165,0.19-0.268,0.422-0.304,0.673c-0.007,0.025-0.032,0.043-0.032,0.064c0,0.011,0.007,0.029,0.004,0.047
			c0,0.032-0.011,0.068-0.011,0.104l-0.143,57.881L48.298,73.874l101.02-14.763L59.74,77.474
			C59.468,77.532,59.239,77.678,59.056,77.861z M194.165,53.006l-82.085,47.989L64.367,79.296L194.165,53.006z M177.788,52.215
			L46.878,71.347L8.573,57.841L177.788,52.215z M61.182,150.504l0.175-69.609l50.243,22.847c0.175,0.082,0.369,0.125,0.555,0.125
			c0.236,0,0.472-0.064,0.68-0.19l61.542-35.985L61.182,150.504z"/>
	</g>
</g>
<g>
</g>
<g>
</g>
<g>
</g>
<g>
</g>
<g>
</g>
<g>
</g>
<g>
</g>
<g>
</g>
<g>
</g>
<g>
</g>
<g>
</g>
<g>
</g>
<g>
</g>
<g>
</g>
<g>
</g>
</svg>
