<?xml version="1.0" encoding="iso-8859-1"?>
<!-- Generator: Adobe Illustrator 18.1.1, SVG Export Plug-In . SVG Version: 6.00 Build 0)  -->
<svg version="1.1" id="Capa_1" xmlns="http://www.w3.org/2000/svg" xmlns:xlink="http://www.w3.org/1999/xlink" x="0px" y="0px"
	 viewBox="0 0 206.783 206.783" style="enable-background:new 0 0 206.783 206.783;" xml:space="preserve">
<g>
	<g>
		<path style="fill:#010002;" d="M201.465,20.126l-9.051-9.001l-0.247,0.247c-3.847-3.01-8.296-5.54-13.084-7.412
			c-4.549-1.729-8.908-2.817-13.252-3.31C130.868-3.558,98.909,12.414,55.569,55.758C-4.351,115.689,0.176,163.989,0.398,166.061
			c0.544,4.542,1.625,8.89,3.343,13.313c1.847,4.742,4.37,9.173,7.387,13.027l-0.183,0.197l8.936,9.112
			c6.592,6.589,17.118,6.786,23.477,0.437l31.945-31.934c6.335-6.356,6.141-16.889-0.444-23.477l-16.091-16.087
			c0.558-1.016,1.145-2.076,1.772-3.178c5.63-10.15,13.346-24.053,27.99-38.695c14.673-14.68,28.602-22.396,38.773-28.037
			c1.081-0.598,2.108-1.17,3.096-1.729l10.783,10.797l5.304,5.3c6.61,6.589,17.128,6.785,23.488,0.437L201.908,43.6
			C208.257,37.251,208.061,26.722,201.465,20.126z M194.819,36.514l-31.931,31.938c-2.448,2.441-6.635,2.244-9.323-0.437
			l-21.541-21.559l-3.357,1.983c-1.865,1.106-3.955,2.269-6.231,3.525c-10.69,5.93-25.338,14.054-40.996,29.719
			c-15.636,15.636-23.749,30.248-29.669,40.924c-1.274,2.298-2.444,4.409-3.565,6.299l-2.004,3.35l21.566,21.555
			c2.681,2.688,2.874,6.868,0.429,9.316l-31.92,31.927c-2.459,2.444-6.621,2.248-9.312-0.429l-4.005-4.012l-1.535-1.6
			c-2.434-2.53-5.851-6.896-8.349-13.267c-1.392-3.618-2.29-7.168-2.72-10.805c-0.039-0.455-3.915-45.874,52.287-102.087
			c47.803-47.799,75.335-55.461,102.012-52.248c3.536,0.404,7.1,1.296,10.819,2.698c6.399,2.509,10.758,5.93,13.281,8.36
			l5.619,5.547C197.07,29.9,197.263,34.07,194.819,36.514z"/>
	</g>
</g>
<g>
</g>
<g>
</g>
<g>
</g>
<g>
</g>
<g>
</g>
<g>
</g>
<g>
</g>
<g>
</g>
<g>
</g>
<g>
</g>
<g>
</g>
<g>
</g>
<g>
</g>
<g>
</g>
<g>
</g>
</svg>
