<?xml version="1.0" encoding="iso-8859-1"?>
<!-- Generator: Adobe Illustrator 18.1.1, SVG Export Plug-In . SVG Version: 6.00 Build 0)  -->
<svg version="1.1" id="Capa_1" xmlns="http://www.w3.org/2000/svg" xmlns:xlink="http://www.w3.org/1999/xlink" x="0px" y="0px"
	 viewBox="0 0 201.84 201.84" style="enable-background:new 0 0 201.84 201.84;" xml:space="preserve">
<g>
	<g>
		<g>
			<path style="fill:#010002;" d="M126.09,66.542c-23.542,0-42.692,19.154-42.692,42.689c0,23.538,19.154,42.696,42.692,42.696
				s42.681-19.158,42.681-42.696C168.771,85.696,149.628,66.542,126.09,66.542z M126.09,146.114
				c-20.339,0-36.884-16.545-36.884-36.884s16.545-36.88,36.884-36.88c20.335,0,36.873,16.541,36.873,36.88
				S146.425,146.114,126.09,146.114z"/>
		</g>
		<g>
			<path style="fill:#010002;" d="M49.209,54.062H35.517c-2.938,0-5.329,2.387-5.329,5.329v3.131c0,2.938,2.391,5.325,5.329,5.325
				h13.693c2.938,0,5.329-2.387,5.329-5.325v-3.131C54.538,56.449,52.147,54.062,49.209,54.062z"/>
		</g>
		<g>
			<path style="fill:#010002;" d="M19.115,82.246c-2.788,0-5.046,2.258-5.046,5.046v53.253c0,2.788,2.258,5.046,5.046,5.046
				s5.057-2.258,5.057-5.046V87.292C24.168,84.504,21.899,82.246,19.115,82.246z"/>
		</g>
		<g>
			<path style="fill:#010002;" d="M175.12,42.803h-12.794l-16.241-15.221h-45.101L87.793,42.803H60.561
				c-1.22-5.032-4.517-8.46-8.468-8.46H32.847c-3.969,0-7.297,3.471-8.485,8.568C10.726,44.106,0,55.587,0,69.526v78.005
				c0,14.731,11.982,26.727,26.723,26.727h148.401c14.731,0,26.716-11.996,26.716-26.727V69.523
				C201.836,54.792,189.854,42.803,175.12,42.803z M196.035,147.527c0,11.531-9.384,20.915-20.915,20.915H26.72
				c-11.538,0-20.911-9.384-20.911-20.915V69.523c0-11.527,9.373-20.911,20.958-20.911h2.91V46.79l0.068-0.837
				c0.301-3.593,2.015-5.808,3.099-5.808H52.09c1.088,0,2.795,2.212,3.099,5.808l0.075,2.659h35.18l13.192-15.221h40.151
				l16.241,15.221h15.092c11.531,0,20.915,9.384,20.915,20.911C196.035,69.523,196.035,147.527,196.035,147.527z"/>
		</g>
	</g>
</g>
<g>
</g>
<g>
</g>
<g>
</g>
<g>
</g>
<g>
</g>
<g>
</g>
<g>
</g>
<g>
</g>
<g>
</g>
<g>
</g>
<g>
</g>
<g>
</g>
<g>
</g>
<g>
</g>
<g>
</g>
</svg>
