<?xml version="1.0" encoding="iso-8859-1"?>
<!-- Generator: Adobe Illustrator 18.1.1, SVG Export Plug-In . SVG Version: 6.00 Build 0)  -->
<svg version="1.1" id="Capa_1" xmlns="http://www.w3.org/2000/svg" xmlns:xlink="http://www.w3.org/1999/xlink" x="0px" y="0px"
	 viewBox="0 0 198.19 198.19" style="enable-background:new 0 0 198.19 198.19;" xml:space="preserve">
<g>
	<g>
		<g>
			<path style="fill:#010002;" d="M121.155,57.179c-20.943,0-37.975,17.039-37.975,37.979c0,20.94,17.032,37.982,37.975,37.982
				s37.982-17.042,37.982-37.982C159.137,74.218,142.098,57.179,121.155,57.179z M121.155,127.965
				c-18.095,0-32.811-14.72-32.811-32.807c0-18.091,14.72-32.807,32.811-32.807s32.811,14.716,32.811,32.807
				C153.966,113.246,139.246,127.965,121.155,127.965z"/>
		</g>
		<g>
			<path style="fill:#010002;" d="M121.466,47.452c-26.405,0-47.896,21.487-47.896,47.889c0,26.394,21.487,47.881,47.896,47.881
				c26.398,0,47.878-21.487,47.878-47.881C169.344,68.939,147.864,47.452,121.466,47.452z M121.466,138.788
				c-23.968,0-43.458-19.494-43.458-43.444c0-23.957,19.487-43.451,43.458-43.451c23.95,0,43.44,19.494,43.44,43.451
				C164.906,119.294,145.416,138.788,121.466,138.788z"/>
		</g>
		<g>
			<path style="fill:#010002;" d="M52.756,46.078H40.581c-2.623,0-4.742,2.122-4.742,4.742v2.788c0,2.613,2.119,4.738,4.742,4.738
				h12.172c2.623,0,4.753-2.122,4.753-4.738V50.82C57.505,48.2,55.379,46.078,52.756,46.078z"/>
		</g>
		<g>
			<circle style="fill:#010002;" cx="121.455" cy="95.341" r="15.181"/>
		</g>
		<g>
			<path style="fill:#010002;" d="M194.46,61.306h-5.909v-1.474c0-13.109-10.661-23.771-23.774-23.771H153.4l-14.451-13.546H98.826
				L87.091,36.061H62.855c-1.077-4.477-4.019-7.53-7.526-7.53H38.204c-3.532,0-6.488,3.089-7.548,7.619
				C18.524,37.213,8.983,47.431,8.983,59.828v1.474H3.726C1.668,61.302,0,62.97,0,65.028c0,2.051,1.664,3.722,3.726,3.722h5.254
				v83.158c0,13.106,10.661,23.767,23.767,23.767h132.035c13.113,0,23.774-10.661,23.774-23.767V68.753h5.909
				c2.051,0,3.726-1.668,3.726-3.722C198.186,62.977,196.515,61.306,194.46,61.306z M183.384,151.911
				c0,10.257-8.339,18.603-18.603,18.603H32.746c-10.257,0-18.603-8.346-18.603-18.603v-92.08c0-10.257,8.349-18.606,18.653-18.606
				h2.58v-1.621l0.068-0.744c0.268-3.199,1.789-5.164,2.759-5.164h17.125c0.97,0,2.491,1.965,2.759,5.164l0.061,2.366H89.45
				l11.739-13.542h35.728l14.451,13.542h13.417c10.264,0,18.603,8.349,18.603,18.606v92.08H183.384z"/>
		</g>
	</g>
</g>
<g>
</g>
<g>
</g>
<g>
</g>
<g>
</g>
<g>
</g>
<g>
</g>
<g>
</g>
<g>
</g>
<g>
</g>
<g>
</g>
<g>
</g>
<g>
</g>
<g>
</g>
<g>
</g>
<g>
</g>
</svg>
