<?xml version="1.0" encoding="iso-8859-1"?>
<!-- Generator: Adobe Illustrator 18.1.1, SVG Export Plug-In . SVG Version: 6.00 Build 0)  -->
<svg version="1.1" id="Capa_1" xmlns="http://www.w3.org/2000/svg" xmlns:xlink="http://www.w3.org/1999/xlink" x="0px" y="0px"
	 viewBox="0 0 198.583 198.583" style="enable-background:new 0 0 198.583 198.583;" xml:space="preserve">
<g>
	<g>
		<g>
			<path style="fill:#ededed;" d="M10.937,110.472h111.292V12.286H10.937V110.472z M14.906,16.248h103.35v85.101
				c-5.211-13.124-11.356-25.907-20.725-25.907c-0.83,0-1.696,0.107-2.541,0.326c-8.289,2.122-13.94,13.27-17.225,22.246
				l-1.27,3.493l-1.106-3.554c-3.779-12.118-10.64-28.928-21.895-40.194c-2.441-2.441-5.086-3.683-7.848-3.683
				c-14.92,0-26.73,38.1-30.599,52.262h4.975c4.746-16.946,15.826-47.463,25.628-47.463c1.446,0,2.938,0.773,4.459,2.283
				c13.134,13.142,20.081,35.295,22.661,45.179h7.34c1.614-5.583,7.462-23.713,16.065-25.918c0.462-0.118,0.913-0.179,1.364-0.179
				c6.707,0,12.555,13.32,17.529,26.097h3.196v0.165H14.906V16.248z"/>
		</g>
		<g>
			<path style="fill:#ededed;" d="M88.709,55.376c7.333,0,13.299-5.977,13.299-13.32c0-7.337-5.966-13.303-13.299-13.303
				c-7.34,0-13.31,5.966-13.31,13.303C75.396,49.399,81.365,55.376,88.709,55.376z M88.709,30.578
				c6.327,0,11.477,5.146,11.477,11.477c0,6.335-5.15,11.485-11.477,11.485c-6.338,0-11.485-5.154-11.485-11.485
				C77.221,35.728,82.371,30.578,88.709,30.578z"/>
		</g>
		<g>
			<path style="fill:#ededed;" d="M171.738,62.755l4.556-18.442l-42.749-10.576V0.354H0v133.541h16.563l-1.972,7.977l16.957,4.194
				l-2.91,8.371l126.165,43.791l43.78-126.158L171.738,62.755z M133.545,50.111l24.089,5.966l-20.432,82.607
				c-0.866-6.274-1.936-12.505-3.658-17.69V50.111z M132.893,142.76l-36.511-8.861h35.194
				C132.063,136.802,132.507,139.779,132.893,142.76z M3.973,129.934V4.316h125.614V129.93H3.973V129.934z M19.401,138.978
				l1.253-5.078h59.219l58.987,14.587l23.581-95.312l-28.896-7.147v-8.203l37.95,9.387l-30.08,121.584l-0.966-0.344l-0.111,0.437
				L36.726,143.261v0.004L19.401,138.978z M167.898,78.248l11.034,3.833l-27.901,80.392c-0.186-4.123-0.472-8.231-0.977-12.075
				L167.898,78.248z M152.355,193.179l-118.66-41.178l1.721-4.971l108.804,26.917l0.959-3.844l6.607,2.294l32.192-92.764
				l-15.124-5.25l1.925-7.755l22.758,7.899L152.355,193.179z"/>
		</g>
	</g>
</g>
<g>
</g>
<g>
</g>
<g>
</g>
<g>
</g>
<g>
</g>
<g>
</g>
<g>
</g>
<g>
</g>
<g>
</g>
<g>
</g>
<g>
</g>
<g>
</g>
<g>
</g>
<g>
</g>
<g>
</g>
</svg>
