<?xml version="1.0" encoding="iso-8859-1"?>
<!-- Generator: Adobe Illustrator 18.1.1, SVG Export Plug-In . SVG Version: 6.00 Build 0)  -->
<svg version="1.1" id="Capa_1" xmlns="http://www.w3.org/2000/svg" xmlns:xlink="http://www.w3.org/1999/xlink" x="0px" y="0px"
	 viewBox="0 0 204.728 204.728" style="enable-background:new 0 0 204.728 204.728;" xml:space="preserve">
<g>
	<g>
		<g>
			<g>
				<g>
					<g>
						<path style="fill:#010002;" d="M196.404,192.038H8.349c-4.602,0-8.349-3.722-8.349-8.314V20.994
							c0-4.577,3.747-8.303,8.349-8.303h188.054c4.592,0,8.324,3.726,8.324,8.303v162.73
							C204.732,188.316,200.999,192.038,196.404,192.038z M8.693,183.355h187.353v-37.256H9.477c-0.265,0-0.53-0.021-0.784-0.068
							V183.355z M8.693,21.384v116.098c0.254-0.047,0.519-0.068,0.784-0.068h38.065c4.33-16.345,18.896-65.078,38.287-65.078
							c3.701,0,7.19,1.618,10.389,4.814c13.728,13.732,21.996,34.307,26.387,48.365c4.091-11.195,11.073-24.701,21.48-27.367
							c1.124-0.286,2.28-0.433,3.403-0.433c13.789,0,21.709,20.525,28.702,38.627l0.415,1.074h19.44V21.384H8.693z M127.908,137.417
							h39.382c-5.075-13.084-12.376-31.011-19.798-31.011c-0.412,0-0.82,0.057-1.253,0.165
							C138.255,108.615,131.355,124.859,127.908,137.417z M56.542,137.417h60.354c-2.852-11.281-11.016-38.308-26.827-54.116
							c-1.5-1.507-2.931-2.269-4.241-2.269C76.995,81.029,64.222,109.348,56.542,137.417z"/>
					</g>
				</g>
			</g>
		</g>
		<g>
			<g>
				<g>
					<g>
						<path style="fill:#010002;" d="M48.819,77.754c-10.937,0-19.838-8.893-19.838-19.82c0-10.933,8.901-19.823,19.838-19.823
							c10.933,0,19.827,8.89,19.827,19.823C68.646,68.861,59.752,77.754,48.819,77.754z M48.819,42.459
							c-8.539,0-15.489,6.943-15.489,15.479c0,8.532,6.947,15.471,15.489,15.471c8.536,0,15.479-6.939,15.479-15.471
							C64.298,49.402,57.355,42.459,48.819,42.459z"/>
					</g>
				</g>
			</g>
		</g>
		<g>
			<g>
				<g>
					<g>
						<path style="fill:#010002;" d="M156.6,75.02c-3.797,0-7.551-0.612-10.898-1.775c-2.516,0.394-5.089,0.598-7.655,0.598
							c-12.465,0-25.045-4.313-25.045-13.936c0-6.288,5.816-11.109,15.622-13.027c2.312-3.865,6.51-6.306,10.987-6.306h2.58
							c1.865,0,3.704,0.404,5.386,1.177c2.867-0.78,5.891-1.177,9.022-1.177c13.607,0,24.257,7.562,24.257,17.211
							C180.861,67.451,170.207,75.02,156.6,75.02z M146.117,68.768l0.537,0.204c3.013,1.113,6.449,1.7,9.946,1.7
							c11.166,0,19.916-5.662,19.916-12.887c0-7.215-8.75-12.866-19.916-12.866c-2.974,0-5.944,0.429-8.6,1.235l-0.88,0.265
							l-0.802-0.444c-1.256-0.691-2.681-1.056-4.123-1.056h-2.58c-3.199,0-6.188,1.908-7.612,4.856l-0.487,1.006l-1.109,0.19
							c-8.052,1.364-13.059,4.785-13.059,8.933c0,6.295,10.411,9.591,20.7,9.591c2.512,0,5.039-0.215,7.491-0.63L146.117,68.768z"/>
					</g>
				</g>
			</g>
		</g>
	</g>
</g>
<g>
</g>
<g>
</g>
<g>
</g>
<g>
</g>
<g>
</g>
<g>
</g>
<g>
</g>
<g>
</g>
<g>
</g>
<g>
</g>
<g>
</g>
<g>
</g>
<g>
</g>
<g>
</g>
<g>
</g>
</svg>
