<?xml version="1.0" encoding="iso-8859-1"?>
<!-- Generator: Adobe Illustrator 18.1.1, SVG Export Plug-In . SVG Version: 6.00 Build 0)  -->
<svg version="1.1" id="Capa_1" xmlns="http://www.w3.org/2000/svg" xmlns:xlink="http://www.w3.org/1999/xlink" x="0px" y="0px"
	 viewBox="0 0 194.477 194.477" style="enable-background:new 0 0 194.477 194.477;" xml:space="preserve">
<g>
	<g>
		<g>
			<path style="fill:#010002;" d="M186.925,93.989h-3.765c-3.497-8.736-12.272-23.184-32.374-24.544l3.604-7.58l0.043-0.673
				c0-3.468-2.656-6.66-6.163-7.419c-0.115-0.025-0.748-0.161-1.886-0.161c-3.697,0-11.094,1.546-19.397,11.85
				c-5.01-4.305-10.869-7.741-17.4-10.214c1.578-2.752,2.416-5.798,2.416-8.854c0-9.885-8.045-17.926-17.926-17.926
				s-17.926,8.042-17.926,17.926c0,1.947,0.354,3.922,1.056,5.898c-27.715,5.082-47.778,28.459-47.778,55.78
				c0,0.319,0.014,0.641,0.025,0.963c-0.701,0.007-1.41,0.018-2.119,0.018c-1.757,0-3.114-0.054-4.373-0.172
				c-0.583-5.601-4.431-12.193-10.59-13.646c-3.003-0.698-5.4,0.036-6.692,2.026c-1.249,1.943-1.256,4.86-0.014,7.63
				c1.882,4.205,5.408,6.879,10.769,8.171c-0.186,0.834-0.863,1.772-3.461,1.772c-1.822,0-4.041-0.458-6.002-0.852
				c-1.51-0.311-2.82-0.583-3.783-0.591c-1.958,0-3.003,1.002-3.164,2.011c-0.157,0.97,0.447,2.269,2.616,2.995
				c3.028,1.02,6.446,1.603,9.394,1.603c4.041,0,9.122-1.066,10.601-6.077c1.467,0.093,3.056,0.125,5.089,0.125
				c0.727,0,1.435,0,2.137-0.007l0.222,2.28c0.591,3.865,1.553,5.071,2.895,6.735c0.784,0.977,1.678,2.094,2.709,4.044
				l-1.424,27.367c0,7.655,2.895,11.538,8.607,11.538h8.457c8.128,0,10.329-14.988,10.683-17.858l0.87,0.211
				c6.041,1.807,17.293,5.175,28.069,5.175c9.545,0,22.815-3.132,28.881-4.585c0.812,5.451,5.35,17.06,11.395,17.06h8.135
				c6.352,0,11.531-5.175,11.531-11.538v-0.49l-5.565-12.043c1.335,0.1,2.634,0.15,3.876,0.15c11.08,0,19.401-3.822,26.938-12.372
				h10.794c4.162,0,7.544-3.393,7.544-7.551v-20.618C194.47,97.382,191.088,93.989,186.925,93.989z M145.654,155.001
				c-0.261,3.264-3.024,5.805-6.306,5.805h-8.135c-3.25,0-6.331-9.931-6.331-13.653v-5.189l-3.425,1.145
				c-4.896,1.639-19.379,5.225-30.52,5.225c-10.44,0-21.817-3.318-27.665-5.297l-0.97-0.333l-5.293-1.206l-0.093,4.381v1.274
				c0,3.293-2.051,13.653-5.601,13.653h-8.457c-1.435,0-3.411,0-3.411-6.202l1.492-28.556v-0.111l-0.336-0.641
				c-1.099-2.044-2.069-3.149-2.852-4.037c-1.213-1.374-2.015-2.276-2.523-5.587l-0.54-5.572l-0.007-0.118
				c-0.025-0.641-0.057-1.27-0.057-1.904c0-25.159,19.401-47.019,45.162-50.952c3.443,4.574,8.632,7.201,14.287,7.201
				c4.499,0,8.797-1.707,12.136-4.796c7.383,2.559,13.893,6.467,19.344,11.631l2.154,2.04l1.736-2.398
				c7.881-10.819,14.473-11.993,16.939-11.993c0.454,0,0.734,0.032,0.777,0.043c0.938,0.204,1.779,0.995,2.008,1.882l-6.617,13.907
				l5.164-0.1c20.861,0,28.77,16.019,31.193,22.915l0.616,1.736h7.401c1.292,0,2.344,1.049,2.344,2.348v20.618
				c0,1.299-1.052,2.355-2.344,2.355h-13.206l-0.787,0.938c-6.8,8.192-13.746,11.384-24.776,11.384c-2.248,0-4.499-0.211-6.71-0.623
				l-4.964-0.913L145.654,155.001z M94.072,32.54c7.644,0,13.861,6.213,13.861,13.861c0,7.637-6.213,13.857-13.861,13.857
				c-7.637,0-13.857-6.22-13.857-13.857C80.215,38.753,86.431,32.54,94.072,32.54z M15.71,106.876
				c-0.49-0.272-0.931-0.54-1.328-0.827c-0.977-0.709-1.897-2.033-2.741-3.901c-0.186-0.455-0.336-0.909-0.455-1.392
				c0.061,0.036,0.125,0.068,0.186,0.1C13.237,101.83,14.79,103.999,15.71,106.876z"/>
		</g>
		<g>
			<path style="fill:#010002;" d="M165.792,98.563c2.047,0,3.711-2.505,3.711-5.579c0-3.131-1.628-5.587-3.711-5.587
				c-2.079,0-3.697,2.455-3.697,5.587C162.095,96.057,163.749,98.563,165.792,98.563z"/>
		</g>
		<g>
			<path style="fill:#010002;" d="M95.167,64.857c-4.567,0-9.409,0.938-14.38,2.784c-0.727,0.268-1.299,0.802-1.621,1.5
				c-0.319,0.701-0.347,1.485-0.082,2.205c0.422,1.12,1.503,1.882,2.698,1.882c0.329,0,0.659-0.061,1.013-0.186
				c4.355-1.614,8.532-2.441,12.415-2.441c6.288,0,9.545,2.137,9.577,2.162c0.465,0.297,1.006,0.447,1.557,0.447
				c0.984,0,1.897-0.48,2.43-1.299c0.863-1.324,0.501-3.096-0.802-3.965C107.919,67.91,103.363,64.857,95.167,64.857z"/>
		</g>
	</g>
</g>
<g>
</g>
<g>
</g>
<g>
</g>
<g>
</g>
<g>
</g>
<g>
</g>
<g>
</g>
<g>
</g>
<g>
</g>
<g>
</g>
<g>
</g>
<g>
</g>
<g>
</g>
<g>
</g>
<g>
</g>
</svg>
