<?xml version="1.0" encoding="iso-8859-1"?>
<!-- Generator: Adobe Illustrator 18.1.1, SVG Export Plug-In . SVG Version: 6.00 Build 0)  -->
<svg version="1.1" id="Capa_1" xmlns="http://www.w3.org/2000/svg" xmlns:xlink="http://www.w3.org/1999/xlink" x="0px" y="0px"
	 viewBox="0 0 206.897 206.897" style="enable-background:new 0 0 206.897 206.897;" xml:space="preserve">
<g>
	<path style="fill:#010002;" d="M169.485,66.051c1.124-0.458,2.702-0.966,3.969-1.374c4.577-1.474,10.293-3.307,14.262-7.283
		l1.174-1.249v-0.079c3.93-4.502,6.059-10.2,6.07-16.234c0-6.607-2.584-12.823-7.244-17.49c-4.695-4.681-10.912-7.258-17.526-7.258
		c-6.449,0-12.53,2.459-17.175,6.932l-0.358,0.34c-3.951,3.951-5.891,9.43-7.444,13.829c-0.462,1.31-1.041,2.945-1.546,4.051
		c-0.054-0.054-0.115-0.107-0.168-0.165L103.438,0L61.333,42.119c-0.884,0.884-3.55,3.557-2.752,7.079
		c0.852,3.761,4.685,5.118,8.74,6.553c2.942,1.041,6.249,2.208,8.382,4.109l0.397,0.39c2.487,2.498,3.865,5.816,3.865,9.341
		c0,3.514-1.378,6.818-3.876,9.312c-4.967,4.985-13.653,4.975-18.653-0.004l-0.419-0.408c-1.818-2.101-2.899-5.483-3.865-8.489
		c-1.364-4.295-2.917-9.158-7.687-9.158c-1.922,0-3.794,0.938-5.723,2.863L0.002,103.45l103.436,103.447l37.073-37.077
		c0.984-0.981,3.965-3.962,3.106-7.759c-0.923-4.083-5.125-5.562-9.989-7.283c-3.822-1.356-8.149-2.881-10.847-5.579
		c-6.488-6.499-6.488-17.075,0-23.567c3.153-3.153,7.344-4.882,11.785-4.882c4.452,0,8.643,1.729,11.782,4.882l0.612,0.565
		c2.258,2.641,3.579,6.764,4.746,10.436c1.639,5.132,3.339,10.432,8.464,10.432c2.781,0,4.924-1.822,6.302-3.192l40.423-40.43
		L169.485,66.051z M160.782,138.122c-0.462-1.124-0.956-2.688-1.364-3.951c-1.471-4.588-3.289-10.293-7.269-14.272l-1.399-1.317
		l-0.093,0.007c-4.484-3.84-10.121-5.934-16.087-5.934c-6.607,0-12.823,2.577-17.511,7.254c-9.649,9.652-9.649,25.363,0.043,35.048
		c3.958,3.958,9.434,5.891,13.832,7.444c1.292,0.465,2.917,1.034,4.023,1.535c-0.054,0.054-0.104,0.104-0.157,0.165l-31.361,31.354
		L11.447,103.45l33.251-33.255c0.265,0.737,0.526,1.568,0.755,2.273c1.238,3.887,2.784,8.725,6.216,12.154l1.177,1.127h0.093
		c3.854,3.303,8.707,5.107,13.843,5.107c5.683,0,11.03-2.215,15.031-6.234c4.023-4.008,6.249-9.348,6.249-15.028
		c0-5.415-2.004-10.522-5.669-14.469l-0.591-0.637c-3.414-3.403-8.045-5.05-11.782-6.367c-0.734-0.261-1.618-0.573-2.373-0.87
		l35.789-35.803l34.343,34.343c1.399,1.396,3.582,3.25,6.406,3.25c5.075,0,6.904-5.164,8.664-10.16
		c1.303-3.69,2.774-7.848,5.264-10.525l0.315-0.304c3.142-3.146,7.322-4.874,11.764-4.874c4.452,0,8.643,1.736,11.803,4.896
		c3.142,3.139,4.874,7.315,4.874,11.764c0,4.452-1.732,8.636-4.874,11.782l-0.523,0.544c-2.634,2.294-6.793,3.629-10.493,4.817
		c-4.978,1.6-9.284,2.981-10.271,7.061c-0.913,3.772,2.058,6.739,3.038,7.712l31.716,31.698L160.782,138.122z"/>
</g>
<g>
</g>
<g>
</g>
<g>
</g>
<g>
</g>
<g>
</g>
<g>
</g>
<g>
</g>
<g>
</g>
<g>
</g>
<g>
</g>
<g>
</g>
<g>
</g>
<g>
</g>
<g>
</g>
<g>
</g>
</svg>
