<?xml version="1.0" encoding="iso-8859-1"?>
<!-- Generator: Adobe Illustrator 18.1.1, SVG Export Plug-In . SVG Version: 6.00 Build 0)  -->
<svg version="1.1" id="Capa_1" xmlns="http://www.w3.org/2000/svg" xmlns:xlink="http://www.w3.org/1999/xlink" x="0px" y="0px"
	 viewBox="0 0 205.634 205.634" style="enable-background:new 0 0 205.634 205.634;" xml:space="preserve">
<g>
	<g>
		<path style="fill:#010002;" d="M105.955,10.88V0h-6.263v10.88H16.334v126.877H189.3V10.88H105.955z M183.037,131.487H22.597
			V17.143h160.44V131.487z"/>
		<polygon style="fill:#010002;" points="104.867,144.464 98.604,144.464 98.604,172.744 67.83,200.942 72.064,205.566 
			101.808,178.305 133.659,205.634 137.739,200.877 104.867,172.68 		"/>
		<path style="fill:#010002;" d="M50.247,77.174c2.82,0,5.307-1.435,6.778-3.618l25.972,10.157c-0.097,0.508-0.15,1.031-0.15,1.568
			c0,4.506,3.661,8.171,8.171,8.171c4.506,0,8.171-3.665,8.171-8.171c0-1.739-0.558-3.35-1.492-4.678l16.559-18.098
			c1.317,0.913,2.917,1.46,4.642,1.46c4.506,0,8.171-3.665,8.171-8.174c0-0.157-0.036-0.308-0.057-0.469l24.744-4.71
			c1.217,3.006,4.144,5.136,7.576,5.136c4.509,0,8.171-3.665,8.171-8.171c0-4.509-3.661-8.174-8.171-8.174
			c-4.495,0-8.145,3.643-8.171,8.131l-24.92,4.746c-1.324-2.749-4.101-4.663-7.347-4.663c-4.509,0-8.171,3.668-8.171,8.174
			c0,1.65,0.494,3.182,1.338,4.47l-16.62,18.17c-1.281-0.83-2.795-1.324-4.431-1.324c-2.852,0-5.375,1.485-6.836,3.715
			l-25.94-10.146c0.111-0.537,0.175-1.095,0.175-1.668c0-4.506-3.675-8.174-8.171-8.174c-4.509,0-8.171,3.668-8.171,8.174
			S45.738,77.174,50.247,77.174z M159.334,42.531c2.774,0,5.035,2.262,5.035,5.043c0,2.774-2.262,5.039-5.035,5.039
			c-1.882,0-3.529-1.063-4.398-2.609l4.695-0.888c0.845-0.165,1.406-0.984,1.242-1.836c-0.165-0.848-0.966-1.403-1.832-1.245
			l-4.685,0.891C154.674,44.453,156.779,42.531,159.334,42.531z M118.897,60.83c-0.913,0-1.743-0.258-2.491-0.68l3.117-3.403
			l4.406-0.837C123.864,58.632,121.638,60.83,118.897,60.83z M118.897,50.748c1.7,0,3.203,0.852,4.109,2.147l-5.1,0.97l-3.618,3.955
			c-0.276-0.619-0.429-1.306-0.429-2.033C113.861,53.014,116.112,50.748,118.897,50.748z M91.017,80.238
			c0.812,0,1.568,0.211,2.258,0.558l-2.412,2.627l-3.643-1.424C88.14,80.932,89.489,80.238,91.017,80.238z M86.014,84.894
			l5.715,2.237l3.776-4.112c0.34,0.684,0.548,1.446,0.548,2.265c0,2.774-2.258,5.039-5.032,5.039c-2.774,0-5.035-2.262-5.035-5.039
			C85.982,85.148,86.003,85.023,86.014,84.894z M50.247,63.965c2.784,0,5.035,2.262,5.035,5.039c0,0.168-0.032,0.326-0.043,0.49
			l-4.585-1.793c-0.812-0.319-1.711,0.082-2.029,0.891c-0.319,0.805,0.086,1.714,0.888,2.029l4.466,1.746
			c-0.934,1.016-2.248,1.675-3.729,1.675c-2.784,0-5.035-2.258-5.035-5.039C45.212,66.223,47.463,63.965,50.247,63.965z"/>
	</g>
</g>
<g>
</g>
<g>
</g>
<g>
</g>
<g>
</g>
<g>
</g>
<g>
</g>
<g>
</g>
<g>
</g>
<g>
</g>
<g>
</g>
<g>
</g>
<g>
</g>
<g>
</g>
<g>
</g>
<g>
</g>
</svg>
