<?xml version="1.0" encoding="iso-8859-1"?>
<!-- Generator: Adobe Illustrator 18.1.1, SVG Export Plug-In . SVG Version: 6.00 Build 0)  -->
<svg version="1.1" id="Capa_1" xmlns="http://www.w3.org/2000/svg" xmlns:xlink="http://www.w3.org/1999/xlink" x="0px" y="0px"
	 viewBox="0 0 194.128 194.128" style="enable-background:new 0 0 194.128 194.128;" xml:space="preserve">
<g>
	<g>
		<g>
			<path style="fill:#010002;" d="M182.409,14.634L119.804,0L0.03,119.781l74.34,74.347L194.097,74.411L182.409,14.634z
				 M9.686,119.781L121.958,7.519l54.588,12.755l10.139,51.879L74.37,184.472L9.686,119.781z"/>
		</g>
		<g>
			<path style="fill:#010002;" d="M140.35,35.083c-4.123,4.137-4.123,10.84,0,14.977c4.137,4.137,10.826,4.137,14.981,0
				c4.134-4.137,4.134-10.84,0-14.977C151.176,30.946,144.487,30.961,140.35,35.083z"/>
		</g>
		<g>
			<path style="fill:#010002;" d="M94.083,86.751c-2.552,2.541-4.703,5.486-6.335,7.766l-6.073-6.077l-4.116,4.116l6.725,6.725
				c-1.442,1.965-2.684,3.335-4.245,4.907c-4.892,4.892-12.283,6.134-18.875,3.983l-3.264,3.26l27.103,27.103l4.763-4.763
				l-19.465-19.465l0.143-0.129c4.101,0.329,8.027-0.451,11.549-2.545c2.942-1.772,5.293-4.373,7.576-7.057l8.876,8.876l4.126-4.112
				l-9.409-9.394c1.704-2.484,3.464-4.907,6.277-7.709c4.635-4.635,10.189-6.134,15.285-1.041c2.731,2.731,4.044,5.354,4.559,7.172
				l5.558-3.06c-0.523-2.222-2.094-5.358-5.483-8.761C112.099,79.307,101.791,79.046,94.083,86.751z"/>
		</g>
	</g>
</g>
<g>
</g>
<g>
</g>
<g>
</g>
<g>
</g>
<g>
</g>
<g>
</g>
<g>
</g>
<g>
</g>
<g>
</g>
<g>
</g>
<g>
</g>
<g>
</g>
<g>
</g>
<g>
</g>
<g>
</g>
</svg>
