<?xml version="1.0" encoding="iso-8859-1"?>
<!-- Generator: Adobe Illustrator 18.1.1, SVG Export Plug-In . SVG Version: 6.00 Build 0)  -->
<svg version="1.1" id="Capa_1" xmlns="http://www.w3.org/2000/svg" xmlns:xlink="http://www.w3.org/1999/xlink" x="0px" y="0px"
	 viewBox="0 0 201.289 201.289" style="enable-background:new 0 0 201.289 201.289;" xml:space="preserve">
<g>
	<g>
		<g>
			<path style="fill:#010002;" d="M189.135,15.174L124.226,0L0.032,124.193l77.085,77.096l124.14-124.136L189.135,15.174z
				 M10.046,124.193L126.455,7.798l56.6,13.224l10.515,53.794L77.114,191.275L10.046,124.193z"/>
		</g>
		<g>
			<path style="fill:#010002;" d="M145.534,36.379c-4.284,4.287-4.284,11.238,0,15.529c4.28,4.291,11.22,4.291,15.521,0
				c4.291-4.291,4.291-11.241,0-15.529C156.754,32.088,149.814,32.102,145.534,36.379z"/>
		</g>
		<g>
			<path style="fill:#010002;" d="M128.542,68.624l-7.931,7.916c-8.4-6.02-18.041-5.701-24.622,0.884
				c-6.889,6.886-5.612,15.589-0.719,26.841c3.489,8.239,3.378,13.507-0.973,17.858c-4.509,4.524-11.062,4.474-16.681-1.138
				c-4.438-4.449-6.979-10.15-7.916-14.745l-7.208,3.407c0.798,4.742,4.037,10.844,8.543,15.529l-7.916,7.916l4.989,4.992
				l8.235-8.238c9.423,6.889,19.648,5.383,25.972-0.956c7.047-7.05,6.972-15.199,2.158-26.684
				c-3.969-9.831-4.327-14.305-0.301-18.345c3.25-3.235,8.686-5.1,14.777,1.006c5.075,5.064,6.492,10.135,7.215,12.748l7.201-3.25
				c-1.031-3.715-3.003-8.235-7.526-13.063l7.695-7.684L128.542,68.624z"/>
		</g>
	</g>
</g>
<g>
</g>
<g>
</g>
<g>
</g>
<g>
</g>
<g>
</g>
<g>
</g>
<g>
</g>
<g>
</g>
<g>
</g>
<g>
</g>
<g>
</g>
<g>
</g>
<g>
</g>
<g>
</g>
<g>
</g>
</svg>
