<?xml version="1.0" encoding="iso-8859-1"?>
<!-- Generator: Adobe Illustrator 18.1.1, SVG Export Plug-In . SVG Version: 6.00 Build 0)  -->
<svg version="1.1" id="Capa_1" xmlns="http://www.w3.org/2000/svg" xmlns:xlink="http://www.w3.org/1999/xlink" x="0px" y="0px"
	 viewBox="0 0 196.515 196.515" style="enable-background:new 0 0 196.515 196.515;" xml:space="preserve">
<g>
	<g>
		<g>
			<path style="fill:#010002;" d="M184.651,14.816L121.28,0L0.032,121.251l75.263,75.263L196.482,75.324L184.651,14.816z
				 M9.82,121.251L123.449,7.612l55.279,12.909l10.268,52.516l-113.7,113.697L9.82,121.251z"/>
		</g>
		<g>
			<circle style="fill:#010002;" cx="149.653" cy="43.097" r="10.722"/>
		</g>
		<g>
			<path style="fill:#010002;" d="M102.577,80.184c-5.733,0.011-11.81,2.033-17.54,6.08l-4.61-4.61l-3.493,3.497l4.116,4.126
				c-1.052,0.909-2.165,1.89-3.207,2.931c-0.358,0.347-0.705,0.705-1.052,1.052l-3.983-3.983l-3.507,3.493l4.33,4.33
				c-4.391,5.662-6.7,11.463-6.989,17.039c-0.623,7.48,2.323,14.752,7.981,20.414c4.538,4.549,9.645,6.843,13.27,7.548l3.289-5.658
				c-2.598-0.637-7.133-2.512-10.83-6.224c-3.779-3.769-6.02-8.518-5.805-13.904c0.147-4.044,1.818-8.389,5.3-12.995l19.791,19.777
				l3.497-3.504L82.865,99.338c0.419-0.419,0.766-0.766,1.185-1.195c1.041-1.041,2.022-2.022,3.074-2.788l20.127,20.124l3.493-3.493
				L91.239,92.481c4.416-3.003,8.951-4.749,13.081-4.81c4.81-0.075,9.287,1.746,13.052,5.515c3.146,3.146,5.111,6.918,5.876,9.788
				l6.02-3.221c-0.909-3.003-2.942-7.405-7.129-11.606C116.481,82.493,109.771,79.98,102.577,80.184z"/>
		</g>
	</g>
</g>
<g>
</g>
<g>
</g>
<g>
</g>
<g>
</g>
<g>
</g>
<g>
</g>
<g>
</g>
<g>
</g>
<g>
</g>
<g>
</g>
<g>
</g>
<g>
</g>
<g>
</g>
<g>
</g>
<g>
</g>
</svg>
