<?xml version="1.0" encoding="iso-8859-1"?>
<!-- Generator: Adobe Illustrator 18.1.1, SVG Export Plug-In . SVG Version: 6.00 Build 0)  -->
<svg version="1.1" id="Capa_1" xmlns="http://www.w3.org/2000/svg" xmlns:xlink="http://www.w3.org/1999/xlink" x="0px" y="0px"
	 viewBox="0 0 201.811 201.811" style="enable-background:new 0 0 201.811 201.811;" xml:space="preserve">
<g>
	<g>
		<g>
			<path style="fill:#010002;" d="M181.412,67.526h-35.173V14.53L128.556,0H55.572v67.526h-35.18c-5.035,0-9.13,4.098-9.13,9.14
				v66.62c0,5.043,4.094,9.148,9.13,9.148h36.214v49.377l90.677-0.007v-49.37h34.128c5.032,0,9.137-4.101,9.137-9.148V76.67
				C190.549,71.624,186.444,67.526,181.412,67.526z M130.41,14.398V9.012l6.556,5.383h-6.556V14.398z M140.456,20.174v46.314h-79.1
				V5.783h63.27v14.391C124.626,20.174,140.456,20.174,140.456,20.174z M56.607,114.96v31.691H20.392
				c-1.843,0-3.353-1.503-3.353-3.361V76.67c0-1.85,1.51-3.357,3.353-3.357h161.02c1.85,0,3.353,1.507,3.353,3.357v66.62
				c0,1.861-1.503,3.361-3.353,3.361h-34.128V114.96C147.284,114.96,56.607,114.96,56.607,114.96z M62.379,196.028l0.007-75.285
				h79.111v75.278L62.379,196.028z"/>
		</g>
		<g>
			<path style="fill:#010002;" d="M166.9,95.48c4.899,0,8.886-3.983,8.886-8.879s-3.987-8.876-8.886-8.876
				c-4.892,0-8.876,3.98-8.876,8.876S162.007,95.48,166.9,95.48z M166.9,83.509c1.711,0,3.103,1.392,3.103,3.092
				c0,1.707-1.396,3.092-3.103,3.092c-1.707,0-3.092-1.389-3.092-3.092C163.808,84.897,165.196,83.509,166.9,83.509z"/>
		</g>
		<g>
			<path style="fill:#010002;" d="M22.948,94.983h50.555v-16.76H22.948V94.983z M67.719,84.006v5.186H28.731v-5.186H67.719z"/>
		</g>
		<g>
			<rect x="75.349" y="133.076" style="fill:#010002;" width="54.019" height="5.78"/>
		</g>
		<g>
			<rect x="75.349" y="143.48" style="fill:#010002;" width="54.019" height="5.783"/>
		</g>
		<g>
			<rect x="74.93" y="154.452" style="fill:#010002;" width="54.026" height="5.783"/>
		</g>
		<g>
			<rect x="74.93" y="164.867" style="fill:#010002;" width="54.026" height="5.783"/>
		</g>
		<g>
			<rect x="74.93" y="175.407" style="fill:#010002;" width="54.026" height="5.783"/>
		</g>
	</g>
</g>
<g>
</g>
<g>
</g>
<g>
</g>
<g>
</g>
<g>
</g>
<g>
</g>
<g>
</g>
<g>
</g>
<g>
</g>
<g>
</g>
<g>
</g>
<g>
</g>
<g>
</g>
<g>
</g>
<g>
</g>
</svg>
