<?xml version="1.0" encoding="iso-8859-1"?>
<!-- Generator: Adobe Illustrator 18.1.1, SVG Export Plug-In . SVG Version: 6.00 Build 0)  -->
<svg version="1.1" id="Capa_1" xmlns="http://www.w3.org/2000/svg" xmlns:xlink="http://www.w3.org/1999/xlink" x="0px" y="0px"
	 viewBox="0 0 196.615 196.615" style="enable-background:new 0 0 196.615 196.615;" xml:space="preserve">
<g>
	<g>
		<g>
			<path style="fill:#010002;" d="M44.113,61.322l108.951-41.354c1.539,1.253,3.493,2.033,5.63,2.033
				c4.96,0,8.986-4.026,8.986-8.994c0-4.96-4.026-8.994-8.986-8.994c-4.971,0-8.994,4.033-8.994,8.994
				c0,0.354,0.068,0.68,0.107,1.027L25.227,61.322H0v131.279h196.615V61.322H44.113z M189.919,185.902H6.696V68.018h183.219v117.884
				H189.919z"/>
		</g>
		<g>
			<path style="fill:#010002;" d="M135.213,170.802c22.794,0,41.336-18.553,41.336-41.343s-18.542-41.332-41.336-41.332
				c-22.79,0-41.332,18.542-41.332,41.332S112.419,170.802,135.213,170.802z M135.213,164.096c-14.416,0-26.802-8.872-32.002-21.437
				c1.725-2.083,6.077-6.517,11.864-6.954c5.089-0.39,10.55,2.437,16.019,8.425c6.46,7.072,13.492,10.644,20.929,10.644
				c0.175,0,0.354,0,0.53,0c2.799-0.072,5.397-0.651,7.752-1.51C153.991,159.916,145.094,164.096,135.213,164.096z M100.587,129.46
				c0-3.232,0.472-6.37,1.321-9.348l0.465,0.308c0.061-0.072,5.089-7.448,12.472-7.999c5.061-0.394,10.296,2.437,15.65,8.403
				c6.363,7.083,13.306,10.661,20.646,10.661c0.168,0,0.333,0,0.512,0c7.87-0.179,14.154-4.488,17.694-7.605
				c0.293,1.825,0.494,3.679,0.494,5.583c0,3.74-0.612,7.34-1.707,10.712c-1.6,1.696-7.831,7.73-15.779,7.888
				c-5.662,0.129-11.087-2.734-16.316-8.46c-6.932-7.573-14.222-11.184-21.47-10.583c-5.819,0.444-10.404,3.432-13.471,6.184
				C100.78,133.325,100.587,131.424,100.587,129.46z M135.213,94.834c14.509,0,26.945,8.976,32.084,21.656
				c-0.236,0.286-6.943,8.12-15.84,8.296c-5.544,0.157-10.837-2.734-15.969-8.443c-6.814-7.594-13.925-11.145-21.155-10.611
				c-1.933,0.147-3.715,0.58-5.365,1.202C115.321,99.537,124.719,94.834,135.213,94.834z"/>
		</g>
		<g>
			<path style="fill:#010002;" d="M43.433,135.34c11.628,0,21.087-9.459,21.087-21.097c0-11.617-9.459-21.087-21.087-21.087
				s-21.097,9.47-21.097,21.087C22.339,125.881,31.805,135.34,43.433,135.34z M43.433,99.866c7.927,0,14.391,6.449,14.391,14.38
				c0,7.941-6.46,14.398-14.391,14.398c-7.938,0-14.391-6.46-14.391-14.398C29.046,106.312,35.495,99.866,43.433,99.866z"/>
		</g>
		<g>
			<path style="fill:#010002;" d="M43.433,143.453c-6.521,0-11.825,5.297-11.825,11.817s5.304,11.825,11.825,11.825
				c6.517,0,11.814-5.304,11.814-11.825S49.954,143.453,43.433,143.453z M43.433,160.388c-2.82,0-5.118-2.298-5.118-5.118
				s2.298-5.121,5.118-5.121c2.809,0,5.107,2.301,5.107,5.121S46.246,160.388,43.433,160.388z"/>
		</g>
	</g>
</g>
<g>
</g>
<g>
</g>
<g>
</g>
<g>
</g>
<g>
</g>
<g>
</g>
<g>
</g>
<g>
</g>
<g>
</g>
<g>
</g>
<g>
</g>
<g>
</g>
<g>
</g>
<g>
</g>
<g>
</g>
</svg>
