<?xml version="1.0" encoding="iso-8859-1"?>
<!-- Generator: Adobe Illustrator 18.1.1, SVG Export Plug-In . SVG Version: 6.00 Build 0)  -->
<svg version="1.1" id="Capa_1" xmlns="http://www.w3.org/2000/svg" xmlns:xlink="http://www.w3.org/1999/xlink" x="0px" y="0px"
	 viewBox="0 0 200.888 200.888" style="enable-background:new 0 0 200.888 200.888;" xml:space="preserve">
<g>
	<g>
		<g>
			<g>
				<g>
					<path style="fill:#010002;" d="M128.559,200.888c-2.491,0-4.577-1.829-5.35-2.613c0,0-30.367-29.39-33.559-32.582
						c-1.818-1.818-2.137-3.74-2.086-5.014c0.111-2.899,2.147-4.788,2.552-5.143l32.281-33.201c0.981-1.045,3.067-2.863,5.511-2.863
						c1.829,0,4.935,1.242,4.935,5.916v11.306l60.107-0.047c2.874,0,5.755,2.094,5.755,6.771c0,2.126-1.41,7.04-5.694,20.718
						c-1.743,5.604-3.93,12.583-4.101,13.922c0.011,2.834-1.621,4.395-2.58,5.05c-1.313,0.891-2.663,0.988-3.178,0.988l0,0h-49.324
						v10.15C133.827,200.706,129.103,200.888,128.559,200.888z M95.677,160.841c4.355,4.287,23.517,22.855,30.427,29.543
						l0.025-13.979h55.272c0.394-2.022,1.56-5.862,4.284-14.555c1.818-5.83,4.456-14.276,5.168-17.501l-65.693,0.039v-13.868
						L95.677,160.841z"/>
				</g>
			</g>
		</g>
		<g>
			<g>
				<g>
					<path style="fill:#010002;" d="M194.403,146.035c-1.596,0-2.713-0.863-3.683-1.625c-0.211-0.168-0.44-0.365-0.673-0.523
						h-26.806c-2.774,0-6.9-1.979-8.815-4.23l-0.526-0.805l-7.476-15.271c-1.192-2.061-1.006-3.919-0.626-5.064
						c0.909-2.681,3.536-3.808,4.799-4.352l24.572-11.356c1.02-0.526,2.197-0.83,3.353-0.83c3.536,0,5.83,2.738,6.542,5.443
						l13.442,34.339v3.84L194.403,146.035z M160.511,134.901c0.698,0.562,2.172,1.242,2.784,1.292h24.991l-10.461-26.197
						l-24.046,11.162L160.511,134.901z"/>
				</g>
			</g>
		</g>
		<g>
			<g>
				<g>
					<path style="fill:#010002;" d="M156.818,98.182L156.818,98.182c-1.274,0-2.283-0.322-2.566-0.419l-44.839-11.506
						c-1.56-0.376-5.35-1.65-5.83-5.064c-0.172-1.263,0.014-3.661,3.278-5.519l9.82-5.622L87.149,18.499
						c-0.723-0.97-1.288-2.412-1.066-4.055c0.183-1.364,0.97-3.31,3.708-4.874c1.843-1.063,6.839-2.28,20.915-5.39
						c5.698-1.26,12.776-2.827,14.018-3.332C125.607,0.329,126.745,0,127.876,0c2.53,0,4.284,1.603,4.996,2.974l24.451,42.685
						l8.811-5.053c3.364-1.929,6.345-1.485,8.002,0.709c1.707,2.23,1.12,5.297,0.787,6.51l0,0c0,0-10.432,40.938-11.61,45.294
						C162.451,96.25,159.971,98.182,156.818,98.182z M156.51,90.574l0.293,3.765l0.014-3.844
						C156.732,90.495,156.621,90.523,156.51,90.574z M115.146,79.79l40.946,10.525c1.56-5.952,8.224-32.049,10.565-41.236
						l-12.186,7.083L126.978,8.149c-1.643,0.633-5.472,1.514-14.62,3.539c-5.977,1.321-14.63,3.232-17.819,4.23l32.636,56.986
						L115.146,79.79z"/>
				</g>
			</g>
		</g>
		<g>
			<g>
				<g>
					<path style="fill:#010002;" d="M93.701,68.317L93.701,68.317c-2.001,0-3.622-1.009-5.071-2.101L66.559,50.533
						c-2.358-1.546-3.046-3.579-3.192-5.003c-0.297-3.164,1.865-5.451,2.308-5.88L87.66,11.527l0.884-0.508l1.414-0.122
						c1.768,0,4.001,0.895,4.542,5.157c0.036,0.308,0.061,0.641,0.136,0.92l13.499,23.506c1.403,2.398,1.729,6.968,0.698,9.767
						l-0.415,0.83L98.88,65.146C97.298,67.876,94.954,68.317,93.701,68.317z M71.513,44.61l21.602,15.357l8.579-12.687
						c0.136-0.834,0.025-2.426-0.247-3.017L88.777,22.171L71.513,44.61z"/>
				</g>
			</g>
		</g>
		<g>
			<g>
				<g>
					<path style="fill:#010002;" d="M36.343,176.208c-1.106,0-2.248-0.283-3.475-0.859c-2.036-0.97-6.556-5.018-16.363-14.043
						c-4.309-3.955-9.659-8.886-10.79-9.613c-1.94-0.888-2.849-2.419-3.228-3.522c-0.723-2.115,0.036-3.883,0.297-4.37l20.99-44.503
						l-9.18-4.334c-3.658-1.729-4.323-4.058-4.234-5.715c0.183-3.582,3.962-5.204,5.118-5.608l0,0c0,0,39.546-14.913,43.78-16.427
						c4.37-1.568,8.103,1.553,8.986,4.76l16.252,43.369c0.612,1.553,1.424,4.588-0.136,6.871c-0.895,1.306-2.344,2.051-3.99,2.051
						l0,0c-0.959,0-1.976-0.251-3.092-0.773l-10.225-4.839l-25.349,53.701C41.057,174.351,39.142,176.208,36.343,176.208z
						 M10.422,145.62c1.668,1.224,4.638,3.901,11.291,10.024c4.491,4.123,10.983,10.096,13.639,12.154l28.047-59.384l12.519,5.916
						L61.08,74.701c-5.44,2.018-30.649,11.517-39.707,14.931l12.644,5.991L10.422,145.62z"/>
				</g>
			</g>
		</g>
		<g>
			<g>
				<g>
					<path style="fill:#010002;" d="M72.15,178.463L72.15,178.463l-1.435-0.122l-36.358-2.605l-2.137-1.009l-0.379-2.702
						c-0.061-2.63,2.122-3.801,3.178-4.366c0.197-0.097,0.394-0.204,0.591-0.319l11.467-24.283c1.167-2.512,4.713-5.408,7.584-6.177
						l0.945-0.129l16.989-0.236c2.566-0.179,4.234,0.945,5.018,1.754c1.879,1.947,1.782,4.61,1.732,6.045l-0.233,27.053
						c0.1,2.505-0.945,4.162-1.84,5.082C76.015,177.751,74.2,178.463,72.15,178.463z M71.72,171.137l0.429,3.489v-3.815
						C71.999,170.865,71.853,170.99,71.72,171.137z M43.376,168.9l28.047,1.818l0.233-26.512l-15.317,0.222
						c-0.773,0.379-2.001,1.389-2.333,1.954L43.376,168.9z"/>
				</g>
			</g>
		</g>
	</g>
</g>
<g>
</g>
<g>
</g>
<g>
</g>
<g>
</g>
<g>
</g>
<g>
</g>
<g>
</g>
<g>
</g>
<g>
</g>
<g>
</g>
<g>
</g>
<g>
</g>
<g>
</g>
<g>
</g>
<g>
</g>
</svg>
