<?xml version="1.0" encoding="iso-8859-1"?>
<!-- Generator: Adobe Illustrator 18.1.1, SVG Export Plug-In . SVG Version: 6.00 Build 0)  -->
<svg version="1.1" id="Capa_1" xmlns="http://www.w3.org/2000/svg" xmlns:xlink="http://www.w3.org/1999/xlink" x="0px" y="0px"
	 viewBox="0 0 204.252 204.252" style="enable-background:new 0 0 204.252 204.252;" xml:space="preserve">
<g>
	<g>
		<g>
			<path style="fill:#010002;" d="M102.983,204.252v-55.937c-29.218-2.638-51.818-14.047-67.193-33.924
				C2.152,70.904,14.8,2.87,15.355,0l7.924,0.759c0,33.094,8.539,56.965,25.367,70.947c19.673,16.348,45.434,14.605,54.334,13.367
				V26.852l88.702,88.698L102.983,204.252z M20.934,42.556c1.027,21.459,5.973,47.284,21.205,66.96
				c14.559,18.81,36.465,29.271,65.103,31.097l3.751,0.24v44.07l69.38-69.38l-69.376-69.362v45.498l-3.139,0.694
				c-0.655,0.136-37.138,8.063-64.319-14.512C33.149,69.236,25.597,57.423,20.934,42.556z"/>
		</g>
	</g>
</g>
<g>
</g>
<g>
</g>
<g>
</g>
<g>
</g>
<g>
</g>
<g>
</g>
<g>
</g>
<g>
</g>
<g>
</g>
<g>
</g>
<g>
</g>
<g>
</g>
<g>
</g>
<g>
</g>
<g>
</g>
</svg>
