<?xml version="1.0" encoding="iso-8859-1"?>
<!-- Generator: Adobe Illustrator 18.1.1, SVG Export Plug-In . SVG Version: 6.00 Build 0)  -->
<svg version="1.1" id="Capa_1" xmlns="http://www.w3.org/2000/svg" xmlns:xlink="http://www.w3.org/1999/xlink" x="0px" y="0px"
	 viewBox="0 0 201.861 201.861" style="enable-background:new 0 0 201.861 201.861;" xml:space="preserve">
<g>
	<g>
		<g>
			<path style="fill:#010002;" d="M15.175,201.861c-0.555-2.845-13.048-70.088,20.195-113.049
				c15.203-19.659,37.531-30.932,66.416-33.541V0l87.653,87.653l-87.657,87.66v-57.541c-2.52-0.34-6.413-0.741-11.112-0.741
				c-25.274,0-67.662,10.926-67.662,84.082L15.175,201.861z M109.693,19.093v43.558l-3.704,0.236
				c-28.298,1.797-49.95,12.136-64.348,30.735c-15.092,19.505-19.966,45.108-20.961,66.359
				c14.176-45.101,51.772-50.855,69.995-50.855c9.287,0,15.65,1.374,15.919,1.435l3.103,0.687v44.961l68.56-68.556L109.693,19.093z"
				/>
		</g>
	</g>
</g>
<g>
</g>
<g>
</g>
<g>
</g>
<g>
</g>
<g>
</g>
<g>
</g>
<g>
</g>
<g>
</g>
<g>
</g>
<g>
</g>
<g>
</g>
<g>
</g>
<g>
</g>
<g>
</g>
<g>
</g>
</svg>
