<?xml version="1.0" encoding="iso-8859-1"?>
<!-- Generator: Adobe Illustrator 18.1.1, SVG Export Plug-In . SVG Version: 6.00 Build 0)  -->
<svg version="1.1" id="Capa_1" xmlns="http://www.w3.org/2000/svg" xmlns:xlink="http://www.w3.org/1999/xlink" x="0px" y="0px"
	 viewBox="0 0 198.662 198.662" style="enable-background:new 0 0 198.662 198.662;" xml:space="preserve">
<g>
	<g>
		<g>
			<path style="fill:#010002;" d="M99.342,0.007C44.56,0.007,0,44.557,0,99.327s44.56,99.327,99.342,99.327
				c54.76,0,99.32-44.557,99.32-99.327C198.662,44.557,154.102,0.007,99.342,0.007z M99.342,191.526
				c-50.845,0-92.202-41.354-92.202-92.198c0-50.834,41.357-92.191,92.202-92.191c50.834,0,92.191,41.357,92.191,92.191
				C191.533,150.172,150.176,191.526,99.342,191.526z"/>
		</g>
		<g>
			<path style="fill:#010002;" d="M99.331,26.823c-1.968,0-3.565,1.596-3.565,3.565v65.371H37.378c-1.968,0-3.565,1.596-3.565,3.575
				c0,1.968,1.596,3.568,3.565,3.568h61.953c1.979,0,3.565-1.596,3.565-3.568V30.388C102.896,28.423,101.31,26.823,99.331,26.823z"
				/>
		</g>
	</g>
</g>
<g>
</g>
<g>
</g>
<g>
</g>
<g>
</g>
<g>
</g>
<g>
</g>
<g>
</g>
<g>
</g>
<g>
</g>
<g>
</g>
<g>
</g>
<g>
</g>
<g>
</g>
<g>
</g>
<g>
</g>
</svg>
