<?xml version="1.0" encoding="iso-8859-1"?>
<!-- Generator: Adobe Illustrator 18.1.1, SVG Export Plug-In . SVG Version: 6.00 Build 0)  -->
<svg version="1.1" id="Capa_1" xmlns="http://www.w3.org/2000/svg" xmlns:xlink="http://www.w3.org/1999/xlink" x="0px" y="0px"
	 viewBox="0 0 200.147 200.147" style="enable-background:new 0 0 200.147 200.147;" xml:space="preserve">
<g>
	<g>
		<path style="fill:#010002;" d="M0,0v200.147h200.147V0H0z M193.322,38.38H46.79V6.821h146.529V38.38H193.322z M39.976,83.928
			v33.237H6.821V83.928C6.821,83.928,39.976,83.928,39.976,83.928z M6.821,77.113V45.201h33.151v31.913H6.821z M39.976,123.986
			v30.048H6.821v-30.048H39.976z M46.79,123.986h146.529v30.048H46.79V123.986z M46.79,117.161V83.924h146.529v33.237H46.79z
			 M46.79,77.113V45.201h146.529v31.913H46.79z M39.976,6.821V38.38H6.821V6.821H39.976z M6.821,160.855h33.151v32.464H6.821
			V160.855z M46.79,193.322v-32.464h146.529v32.464H46.79z"/>
	</g>
</g>
<g>
</g>
<g>
</g>
<g>
</g>
<g>
</g>
<g>
</g>
<g>
</g>
<g>
</g>
<g>
</g>
<g>
</g>
<g>
</g>
<g>
</g>
<g>
</g>
<g>
</g>
<g>
</g>
<g>
</g>
</svg>
