<?xml version="1.0" encoding="iso-8859-1"?>
<!-- Generator: Adobe Illustrator 18.1.1, SVG Export Plug-In . SVG Version: 6.00 Build 0)  -->
<svg version="1.1" id="Capa_1" xmlns="http://www.w3.org/2000/svg" xmlns:xlink="http://www.w3.org/1999/xlink" x="0px" y="0px"
	 viewBox="0 0 186.623 186.623" style="enable-background:new 0 0 186.623 186.623;" xml:space="preserve">
<g>
	<g>
		<path style="fill:#010002;" d="M151.994,7.634l26.999,26.995l-8.224,8.221l-9.276-9.262c-0.633-0.641-1.668-0.644-2.308,0
			c-0.644,0.644-0.644,1.675,0,2.316l9.273,9.266l-6.642,6.646l-9.276-9.269c-0.641-0.637-1.675-0.637-2.312,0
			c-0.637,0.641-0.637,1.678,0,2.316l9.262,9.262l-7.526,7.533l-9.273-9.266c-0.63-0.648-1.678-0.644-2.316,0
			c-0.633,0.641-0.633,1.678,0,2.316l9.276,9.266l-7.272,7.272l-17.064-17.05c-0.633-0.644-1.675-0.644-2.308,0
			c-0.644,0.644-0.644,1.678,0,2.316l17.05,17.05l-10.529,10.536l-9.276-9.266c-0.641-0.644-1.671-0.644-2.319,0
			c-0.641,0.641-0.641,1.671,0,2.312l9.269,9.266l-1.8,1.797l4.635,4.627l53.59-53.583c2.559-2.552,2.559-6.707,0-9.266
			L156.643,2.992c-2.57-2.555-6.721-2.555-9.276,0l-53.583,53.59l4.62,4.635L151.994,7.634z"/>
		<path style="fill:#010002;" d="M86.411,127.203l-9.266-9.266c-0.641-0.644-1.675-0.644-2.316,0c-0.644,0.651-0.641,1.678,0,2.316
			l9.266,9.28L73.56,140.059l-17.05-17.05c-0.637-0.644-1.671-0.644-2.316,0c-0.641,0.633-0.644,1.675,0,2.308l17.05,17.064
			l-7.272,7.272l-9.266-9.276c-0.637-0.633-1.675-0.633-2.316,0c-0.644,0.641-0.644,1.689,0,2.316l9.266,9.273l-7.53,7.526
			l-9.262-9.258c-0.641-0.641-1.678-0.641-2.319-0.004c-0.637,0.641-0.633,1.675,0,2.312l9.269,9.28l-6.642,6.639l-9.266-9.273
			c-0.641-0.644-1.675-0.644-2.316,0c-0.641,0.641-0.637,1.675,0.004,2.308l9.262,9.276l-8.221,8.224L7.634,152.001l53.583-53.593
			l-4.635-4.624L3.003,147.37c-2.559,2.555-2.555,6.707,0,9.276l26.992,26.985c2.555,2.555,6.71,2.555,9.262,0l53.583-53.59
			l-4.631-4.638L86.411,127.203z"/>
		<path style="fill:#010002;" d="M186.283,180.185c-16.03-34.901-17.443-36.311-17.977-36.851L27.357,3.321
			c-2.92-2.92-7.68-2.92-10.601,0L2.19,17.891c-2.92,2.92-2.92,7.673,0,10.597l140.946,140.019
			c0.601,0.594,2.011,1.997,38.333,16.713c1.421,0.573,3.056,0.225,4.109-0.884C186.651,183.23,186.92,181.584,186.283,180.185z
			 M7.483,23.195L22.049,8.622l16.355,16.359L23.849,39.55L7.483,23.195z M29.146,44.85l14.566-14.569l116.645,115.708
			l-14.562,14.562L29.146,44.85z M152.123,164.831l12.648-12.658c2.423,4.846,6.499,13.467,10.704,22.522
			C166.127,170.848,157.18,167.09,152.123,164.831z"/>
	</g>
</g>
<g>
</g>
<g>
</g>
<g>
</g>
<g>
</g>
<g>
</g>
<g>
</g>
<g>
</g>
<g>
</g>
<g>
</g>
<g>
</g>
<g>
</g>
<g>
</g>
<g>
</g>
<g>
</g>
<g>
</g>
</svg>
