<?xml version="1.0" encoding="iso-8859-1"?>
<!-- Generator: Adobe Illustrator 18.1.1, SVG Export Plug-In . SVG Version: 6.00 Build 0)  -->
<svg version="1.1" id="Capa_1" xmlns="http://www.w3.org/2000/svg" xmlns:xlink="http://www.w3.org/1999/xlink" x="0px" y="0px"
	 viewBox="0 0 200.283 200.283" style="enable-background:new 0 0 200.283 200.283;" xml:space="preserve">
<g>
	<g>
		<path style="fill:#010002;" d="M191.624,154.019c0,0-2.455-6.088-2.634-6.438c-0.172-0.336-16.803-33.018-12.34-57.14
			c5.068,0.576,7.433-1.17,8.371-2.656c4.652-7.39-10.973-20.017-20.951-26.308c-10.196-6.42-20.324-10.414-26.43-10.414
			c-3.776,0-5.54,1.539-6.36,2.834c-1.84,2.928-0.655,6.921,3.504,11.889c-0.093,17.826,4.592,40.115,4.814,41.125
			c0.072,0.329,1.85,7.967,3.199,11.674l9.584,24.773l6.224,13.832c-0.63,1.432-2.154,4.116-4.864,4.116
			c-0.812,0-1.704-0.2-2.688-0.612l-29.017-64.512l0.948-0.422c0.315-0.154,0.526-0.422,0.669-0.716l2.366,5.293l4.942-2.205
			l-5.597-12.551l-4.953,2.212l2.366,5.286c-0.319-0.086-0.662-0.122-0.984,0.032l-0.952,0.437l-5.705-12.676l0.995-0.433
			c0.315-0.154,0.526-0.426,0.669-0.716l2.366,5.282l4.953-2.219l-5.608-12.54l-4.942,2.212l2.355,5.293
			c-0.319-0.089-0.655-0.115-0.984,0.025l-0.984,0.444l-5.526-12.286l1.031-0.458c0.319-0.15,0.526-0.422,0.666-0.712l2.366,5.279
			l4.946-2.201l-5.597-12.544l-4.953,2.215l2.366,5.293c-0.315-0.093-0.659-0.125-0.973,0.025l-1.041,0.451l-5.651-12.526
			l1.07-0.483c0.329-0.14,0.54-0.422,0.68-0.712l2.262,5.046l4.942-2.205l-5.597-12.558l-4.957,2.219l2.469,5.536
			c-0.319-0.089-0.659-0.115-0.984,0.025l-1.063,0.48L81.119,5.232c-0.304-0.676-0.88-1.16-1.55-1.424
			C78.045,2.638,74.033,0,68.89,0c-5.987,0-14.502,3.618-21.062,20.886l-0.784,2.094c-2.144,5.851-6.138,16.76-11.699,20.278
			c-6.023,3.769-18.438,7.587-27.246,9.699c-0.812,0.193-1.492,0.723-1.875,1.449c-0.394,0.727-0.458,1.589-0.161,2.376l0.365,0.973
			c0.422,1.149,1.5,1.908,2.72,1.908H9.17c5.751-0.057,23.989-1.181,32.163-5.572c5.343-2.881,13.997-12.297,18.614-17.569
			l66.109,146.905c4.882,10.862,14.094,16.856,25.932,16.856c6.023,0,12.429-1.517,19.043-4.477
			C191.23,186.691,199.11,170.632,191.624,154.019z M168.637,190.527c-5.773,2.591-11.538,3.958-16.667,3.958
			c-6.66,0-15.65-2.326-20.65-13.446L63.336,29.984c-0.412-0.913-1.256-1.546-2.248-1.686c-0.129-0.011-0.258-0.025-0.401-0.025
			c-0.845,0-1.661,0.379-2.226,1.045c-3.772,4.524-14.695,16.878-19.902,19.68c-1.417,0.773-3.361,1.439-5.622,2.022
			c2.029-0.902,3.897-1.861,5.468-2.845c7.244-4.556,11.517-16.219,14.072-23.187l0.759-2.04c2.967-7.823,8.095-17.146,15.64-17.146
			c3.804,0,6.85,2.366,7.376,2.799l18.846,41.873l-2.938,1.324c-0.737,0.326-1.07,1.185-0.737,1.908
			c0.233,0.54,0.773,0.87,1.324,0.87c0.2,0,0.401-0.047,0.598-0.132l2.945-1.324l5.64,12.547l-2.978,1.324
			c-0.737,0.326-1.063,1.181-0.737,1.918c0.247,0.54,0.773,0.859,1.328,0.859c0.193,0,0.394-0.036,0.594-0.122l2.988-1.335
			l5.526,12.286l-3.021,1.349c-0.737,0.326-1.063,1.185-0.737,1.922c0.243,0.537,0.773,0.852,1.324,0.852
			c0.2,0,0.394-0.036,0.594-0.125l3.024-1.349l5.708,12.676l-3.06,1.36c-0.723,0.326-1.066,1.192-0.723,1.918
			c0.233,0.544,0.759,0.859,1.313,0.859c0.2,0,0.394-0.036,0.594-0.132l3.071-1.367l29.465,65.511
			c0.268,0.601,0.737,1.077,1.324,1.381c2.144,1.12,4.241,1.664,6.209,1.664c6.474,0,9.824-5.816,10.783-9.248
			c0.19-0.666,0.132-1.36-0.136-1.983l-6.653-14.752l-9.513-24.565c-1.188-3.332-2.96-10.873-2.96-10.894
			c-0.047-0.236-4.957-23.56-4.663-40.892c0.011-0.727-0.247-1.432-0.727-1.979c-3.16-3.55-3.69-5.529-3.783-5.683
			c0.104-0.068,0.573-0.24,1.557-0.24c4.087,0,12.895,2.938,23.338,9.509c13.174,8.328,19.43,16.434,19.276,18.181
			c0,0-2.083,0.422-5.2-0.268c-1.51-0.372-3.046,0.587-3.446,2.097c-6.825,26.444,11.459,62.351,12.175,63.732
			c0.229,0.519,2.48,6.077,2.516,6.184C195.424,176.545,175.079,187.618,168.637,190.527z"/>
	</g>
</g>
<g>
</g>
<g>
</g>
<g>
</g>
<g>
</g>
<g>
</g>
<g>
</g>
<g>
</g>
<g>
</g>
<g>
</g>
<g>
</g>
<g>
</g>
<g>
</g>
<g>
</g>
<g>
</g>
<g>
</g>
</svg>
