<?xml version="1.0" encoding="iso-8859-1"?>
<!-- Generator: Adobe Illustrator 18.1.1, SVG Export Plug-In . SVG Version: 6.00 Build 0)  -->
<svg version="1.1" id="Capa_1" xmlns="http://www.w3.org/2000/svg" xmlns:xlink="http://www.w3.org/1999/xlink" x="0px" y="0px"
	 viewBox="0 0 197.513 197.513" style="enable-background:new 0 0 197.513 197.513;" xml:space="preserve">
<g>
	<g>
		<path style="fill:#010002;" d="M165.833,106.043c-0.898-36.257-30.613-65.489-67.075-65.489
			c-36.472,0-66.173,29.232-67.086,65.482H0v50.923h197.513v-50.916H165.833z M98.758,46.283c33.305,0,60.443,26.659,61.345,59.76
			h-20.976c-0.888-22.307-19.251-40.187-41.765-40.187s-40.885,17.88-41.772,40.18H37.403
			C38.312,72.942,65.454,46.283,98.758,46.283z M133.412,106.043l-72.1-0.007c0.891-19.136,16.699-34.45,36.05-34.45
			C116.724,71.586,132.521,86.9,133.412,106.043z M192.599,152.042h-6.621v-28.38c0-1.117-0.902-2.015-2.015-2.015
			c-1.117,0-2.022,0.898-2.022,2.015v28.38h-7.648v-18.266c0-1.12-0.909-2.015-2.022-2.022c-1.113,0-2.015,0.902-2.015,2.022
			l-0.011,18.266h-7.287v-18.266c0-1.12-0.909-2.022-2.022-2.022c-1.12,0-2.022,0.902-2.022,2.022v18.266h-6.986v-18.266
			c0-1.12-0.913-2.015-2.022-2.022c-1.117,0-2.015,0.902-2.015,2.022v18.266h-7.909v-28.38c0-1.117-0.909-2.015-2.022-2.015
			c-1.12,0-2.015,0.898-2.015,2.015v28.38h-5.465v-19.183c0-1.12-0.902-2.015-2.022-2.015c-1.117,0-2.015,0.891-2.015,2.015v19.183
			h-7.301v-19.183c0-1.12-0.898-2.015-2.015-2.015c-1.12,0-2.018,0.891-2.018,2.015v19.183h-6.989v-19.183
			c0-1.12-0.902-2.022-2.015-2.015c-1.12,0-2.033,0.891-2.033,2.015v19.183h-7.981v-28.38c0-1.117-0.909-2.015-2.026-2.015
			c-1.113,0-2.018,0.898-2.018,2.015v28.38h-8.825v-18.266c0-1.12-0.902-2.022-2.018-2.015c-1.12-0.011-2.018,0.891-2.018,2.015
			v18.266h-7.304v-18.266c0-1.113-0.905-2.022-2.018-2.022c-1.113,0-2.018,0.902-2.018,2.022v18.266h-6.993v-18.266
			c0.011-1.12-0.898-2.022-2.015-2.022c-1.12,0-2.022,0.902-2.022,2.022v18.266l-7.906,0.011v-28.391
			c0-1.117-0.898-2.015-2.018-2.015s-2.018,0.898-2.018,2.015v28.38h-5.458v-19.183c0-1.12-0.905-2.015-2.022-2.015
			c-1.113,0-2.022,0.891-2.015,2.015l-0.007,19.183h-7.29v-19.183c0-1.12-0.905-2.015-2.026-2.015c-1.113,0-2.018,0.891-2.018,2.015
			v19.183h-6.997v-19.183c0-1.12-0.902-2.015-2.015-2.015c-1.12,0-2.022,0.891-2.022,2.015v19.183H4.914v-41.085h187.682v41.085
			H192.599z"/>
	</g>
</g>
<g>
</g>
<g>
</g>
<g>
</g>
<g>
</g>
<g>
</g>
<g>
</g>
<g>
</g>
<g>
</g>
<g>
</g>
<g>
</g>
<g>
</g>
<g>
</g>
<g>
</g>
<g>
</g>
<g>
</g>
</svg>
