<?xml version="1.0" encoding="iso-8859-1"?>
<!-- Generator: Adobe Illustrator 18.1.1, SVG Export Plug-In . SVG Version: 6.00 Build 0)  -->
<svg version="1.1" id="Capa_1" xmlns="http://www.w3.org/2000/svg" xmlns:xlink="http://www.w3.org/1999/xlink" x="0px" y="0px"
	 viewBox="0 0 199.324 199.324" style="enable-background:new 0 0 199.324 199.324;" xml:space="preserve">
<g>
	<g>
		<g>
			<path style="fill:#010002;" d="M0.184,199.324h145.777V53.543H0.184V199.324z M5.184,58.529h135.782v135.792H5.184V58.529z"/>
		</g>
		<g>
			<polygon style="fill:#010002;" points="179.313,158.511 179.313,76.072 195.604,92.363 199.14,88.838 176.811,66.517 
				154.486,88.838 158.026,92.363 174.313,76.072 174.313,158.511 158.026,142.224 154.486,145.749 176.811,168.077 199.14,145.749 
				195.604,142.224 			"/>
		</g>
		<g>
			<polygon style="fill:#010002;" points="47.844,41.114 31.546,24.823 113.985,24.823 97.683,41.114 101.23,44.65 123.54,22.328 
				101.23,0 97.683,3.536 113.985,19.823 31.546,19.823 47.844,3.536 44.308,0 21.98,22.328 44.308,44.65 			"/>
		</g>
	</g>
</g>
<g>
</g>
<g>
</g>
<g>
</g>
<g>
</g>
<g>
</g>
<g>
</g>
<g>
</g>
<g>
</g>
<g>
</g>
<g>
</g>
<g>
</g>
<g>
</g>
<g>
</g>
<g>
</g>
<g>
</g>
</svg>
