<?xml version="1.0" encoding="iso-8859-1"?>
<!-- Generator: Adobe Illustrator 18.1.1, SVG Export Plug-In . SVG Version: 6.00 Build 0)  -->
<svg version="1.1" id="Capa_1" xmlns="http://www.w3.org/2000/svg" xmlns:xlink="http://www.w3.org/1999/xlink" x="0px" y="0px"
	 viewBox="0 0 198.447 198.447" style="enable-background:new 0 0 198.447 198.447;" xml:space="preserve">
<g>
	<path style="fill:#010002;" d="M198.082,113.915l-24.73-75.904l-70.206-13.485v-6.335c0-2.09-1.693-3.786-3.779-3.786
		c-2.094,0-3.783,1.696-3.783,3.786v4.878L24.393,9.398L0.333,94.528l1.789,0.505H0c0,12.111,12.93,21.96,28.817,21.96
		c15.031,0,28.216-10.69,28.763-23.062l0.132-0.043l-0.107-0.344c0.004-0.136,0.029-0.268,0.029-0.404h-0.157l-23.57-74.204
		L95.58,30.778v137.607H55.905l-12.444,20.664h109.119l-9.459-20.664h-39.976V32.231l58.214,11.18l-16.427,72.397h-0.097
		c0,12.107,12.021,21.96,26.813,21.96c14.272,0,26.798-11.148,26.798-23.853H198.082z M49.9,94.288
		c-0.845,7.369-9.527,15.131-21.087,15.131c-10.847,0-20.102-5.851-21.137-13.045l20.192-71.43L49.9,94.288z M138.262,175.947
		l2.523,5.533H56.857l3.332-5.533H138.262z M171.645,130.191c-10.275,0-18.628-6.07-19.154-13.66l15.883-69.405l22.293,68.431
		C189.604,122.776,181.866,130.191,171.645,130.191z"/>
</g>
<g>
</g>
<g>
</g>
<g>
</g>
<g>
</g>
<g>
</g>
<g>
</g>
<g>
</g>
<g>
</g>
<g>
</g>
<g>
</g>
<g>
</g>
<g>
</g>
<g>
</g>
<g>
</g>
<g>
</g>
</svg>
