<?xml version="1.0" encoding="iso-8859-1"?>
<!-- Generator: Adobe Illustrator 18.1.1, SVG Export Plug-In . SVG Version: 6.00 Build 0)  -->
<svg version="1.1" id="Capa_1" xmlns="http://www.w3.org/2000/svg" xmlns:xlink="http://www.w3.org/1999/xlink" x="0px" y="0px"
	 viewBox="0 0 192.728 192.728" style="enable-background:new 0 0 192.728 192.728;" xml:space="preserve">
<g>
	<g>
		<path style="fill:#010002;" d="M139.312,139.504c-3.733-1.013-7.355-0.673-10.314,1.006c-7.544,4.33-9.04,15.972-3.328,25.957
			c3.203,5.604,8.353,9.82,13.746,11.288c1.417,0.383,2.817,0.583,4.159,0.583c2.237,0,4.302-0.533,6.134-1.585
			c7.555-4.323,9.058-15.969,3.343-25.972C149.798,145.101,144.78,140.992,139.312,139.504z M146.344,170.887
			c-1.371,0.791-3.124,0.895-5.15,0.347c-3.647-0.991-7.362-4.109-9.656-8.124c-3.733-6.521-3.35-14.337,0.82-16.731
			c0.802-0.455,1.743-0.684,2.795-0.684c0.752,0,1.553,0.115,2.373,0.34c3.772,1.02,7.283,3.976,9.656,8.11
			C150.918,160.669,150.521,168.492,146.344,170.887z"/>
		<path style="fill:#010002;" d="M165.563,143.63c-5.146-8.961-13.335-15.532-22.479-18.02c-6.22-1.7-12.54-1.381-18.041,0.852
			l-14.376-25.134c27.024-53.937,35.119-69.487,37.123-72.998c6.549-11.452-4.198-24.164-4.66-24.698l-3.124-3.629L96.373,76.319
			L52.736,0l-3.124,3.629c-0.465,0.533-11.223,13.249-4.67,24.701c4.091,7.14,26.705,52.18,37.134,72.994l-14.376,25.138
			c-5.508-2.233-11.839-2.552-18.045-0.852c-9.144,2.487-17.336,9.058-22.49,18.02c-9.656,16.881-5.758,37.349,8.693,45.616
			c6.252,3.586,13.768,4.427,21.233,2.401c9.148-2.487,17.34-9.058,22.489-18.023c0.472-0.837,0.916-1.689,1.338-2.545l0.888,2.652
			l2.308-12.139l0.215-1.127c0.047-0.272,0.086-0.558,0.093-0.666c2.849-19.122,7.68-30.578,11.946-37.338
			c4.259,6.746,9.087,18.177,11.921,37.152c0.021,0.272,0.061,0.537,0.147,1.102l0.132,1.163l0.125,0.125
			c0.848,4.008,2.344,7.913,4.456,11.628c0.311,0.53,0.619,1.052,0.948,1.564l1.109,2.788v-1.127
			c5.146,7.304,12.429,12.608,20.435,14.791c2.641,0.712,5.325,1.081,7.949,1.081c4.789,0,9.255-1.17,13.285-3.482
			C171.321,180.979,175.219,160.515,165.563,143.63z M153.513,183.377c-4.688,2.691-10.368,3.3-16.091,1.736
			c-7.43-2.018-14.133-7.433-18.392-14.834c-1.908-3.353-3.21-6.889-3.876-10.508l-0.021,0.004l-0.125-0.977
			c-3.683-24.716-10.737-37.725-16.005-44.285l-2.63-3.282l-2.645,3.282c-5.268,6.567-12.308,19.583-16.015,44.464l-0.136,0.794
			c-0.666,3.636-1.968,7.168-3.869,10.497c-4.252,7.412-10.958,12.827-18.388,14.845c-5.723,1.56-11.395,0.956-16.101-1.736
			c-11.209-6.424-13.99-22.74-6.184-36.379c4.262-7.423,10.969-12.841,18.399-14.867c5.665-1.539,11.298-0.945,15.976,1.696
			l2.931,1.653l19.401-33.942l-0.812-1.618C78.887,79.88,55.084,32.453,50.814,24.973c-2.43-4.245-0.734-9.255,1.127-12.719
			l44.428,77.69l44.406-77.672c1.854,3.475,3.55,8.493,1.149,12.698c-3.021,5.268-15.844,30.488-38.115,74.948l-0.812,1.618
			l19.401,33.942l2.92-1.653c4.692-2.638,10.325-3.232,15.987-1.696c7.43,2.026,14.133,7.444,18.381,14.856
			C167.503,160.637,164.733,176.96,153.513,183.377z"/>
		<path style="fill:#010002;" d="M63.734,140.506c-2.949-1.678-6.61-2.008-10.293-1.002c-5.479,1.489-10.497,5.597-13.757,11.281
			c-5.712,9.996-4.216,21.645,3.328,25.961c1.843,1.059,3.908,1.593,6.145,1.593c1.349,0,2.752-0.2,4.159-0.583
			c5.404-1.467,10.543-5.683,13.757-11.288C72.792,156.489,71.296,144.843,63.734,140.506z M61.207,163.11
			c-2.308,4.012-6.012,7.129-9.666,8.124c-2.015,0.544-3.772,0.444-5.161-0.358c-4.169-2.384-4.552-10.21-0.83-16.731
			c2.384-4.134,5.905-7.09,9.677-8.113c0.809-0.225,1.61-0.34,2.355-0.34c1.063,0,2.008,0.229,2.799,0.68
			C64.543,148.776,64.933,156.589,61.207,163.11z"/>
	</g>
</g>
<g>
</g>
<g>
</g>
<g>
</g>
<g>
</g>
<g>
</g>
<g>
</g>
<g>
</g>
<g>
</g>
<g>
</g>
<g>
</g>
<g>
</g>
<g>
</g>
<g>
</g>
<g>
</g>
<g>
</g>
</svg>
