<?xml version="1.0" encoding="iso-8859-1"?>
<!-- Generator: Adobe Illustrator 18.1.1, SVG Export Plug-In . SVG Version: 6.00 Build 0)  -->
<svg version="1.1" id="Capa_1" xmlns="http://www.w3.org/2000/svg" xmlns:xlink="http://www.w3.org/1999/xlink" x="0px" y="0px"
	 viewBox="0 0 204.993 204.993" style="enable-background:new 0 0 204.993 204.993;" xml:space="preserve">
<g>
	<g>
		<g>
			<g>
				<g>
					<path style="fill:#010002;" d="M113.711,202.935H92.163c-3.242,0-4.373,0.007-15.421-27.364l-8.532-3.468
						c-23.248,10.547-26,10.547-26.92,10.547h-1.779l-1.517-1.303l-15.275-14.945c-2.323-2.319-3.128-3.124,8.825-30.137
						l-3.479-8.231C0,117.977,0,116.81,0,113.496V92.37c0-3.31,0-4.355,27.972-15.171l3.479-8.249
						c-12.644-26.602-11.774-27.428-9.28-29.776l16.427-16.105l2.04-0.064c2.48,0,11.681,3.357,27.371,9.981l8.507-3.454
						C86.758,2.054,88.015,2.058,91.246,2.058h21.548c3.228,0,4.363,0.004,15.411,27.382l8.546,3.443
						c23.212-10.533,26-10.533,26.927-10.533h1.768l1.517,1.281l15.275,14.92c2.323,2.344,3.117,3.146-8.836,30.17l3.489,8.278
						c28.101,10.014,28.101,11.177,28.101,14.498v21.101c0,3.232,0,4.37-28.008,15.192l-3.457,8.256
						c12.58,26.487,11.749,27.317,9.394,29.69l-16.552,16.205l-2.051,0.057c-2.469,0-11.649-3.361-27.317-9.992l-8.557,3.457
						C118.174,202.935,117.007,202.935,113.711,202.935z M94.403,194.213h16.996c1.95-3.976,6.166-14.516,9.541-23.595l0.68-1.807
						l15.475-6.249l1.664,0.705c9.223,3.933,20.124,8.292,24.372,9.631l11.943-11.681c-1.517-4.205-6.116-14.494-10.264-23.173
						l-0.837-1.764l6.403-15.285l1.743-0.673c9.316-3.586,20.11-8.013,24.143-10.032V93.88c-4.08-1.918-14.831-6.009-24.096-9.294
						l-1.814-0.648l-6.445-15.3l0.769-1.725c3.965-8.947,8.375-19.501,9.788-23.753l-11.975-11.706
						c-3.865,1.349-14.688,5.987-23.817,10.153l-1.7,0.78l-15.475-6.238l-0.691-1.721c-3.658-9.13-8.203-19.716-10.253-23.635
						H93.569c-1.961,3.965-6.163,14.509-9.53,23.585l-0.669,1.797l-15.432,6.27l-1.664-0.712
						c-9.244-3.926-20.167-8.278-24.429-9.616L29.923,43.805c1.496,4.198,6.109,14.48,10.243,23.159l0.848,1.768L34.579,84.01
						l-1.732,0.669c-9.301,3.582-20.077,8.006-24.111,10.017v16.431c4.08,1.925,14.82,6.027,24.079,9.326l1.8,0.655l6.446,15.249
						l-0.769,1.721c-3.965,8.94-8.371,19.48-9.788,23.724l12,11.742c3.854-1.36,14.663-5.998,23.803-10.168l1.711-0.784
						l15.443,6.277l0.691,1.721C87.821,179.723,92.352,190.291,94.403,194.213z M102.495,137.653
						c-19.759,0-35.849-15.772-35.849-35.159c0-19.372,16.087-35.134,35.849-35.134c19.748,0,35.799,15.765,35.799,35.134
						C138.294,121.881,122.243,137.653,102.495,137.653z M102.495,76.09c-14.956,0-27.113,11.846-27.113,26.405
						c0,14.569,12.154,26.426,27.113,26.426c14.931,0,27.078-11.857,27.078-26.426C129.569,87.936,117.426,76.09,102.495,76.09z"/>
				</g>
			</g>
		</g>
	</g>
</g>
<g>
</g>
<g>
</g>
<g>
</g>
<g>
</g>
<g>
</g>
<g>
</g>
<g>
</g>
<g>
</g>
<g>
</g>
<g>
</g>
<g>
</g>
<g>
</g>
<g>
</g>
<g>
</g>
<g>
</g>
</svg>
