<?xml version="1.0" encoding="iso-8859-1"?>
<!-- Generator: Adobe Illustrator 18.1.1, SVG Export Plug-In . SVG Version: 6.00 Build 0)  -->
<svg version="1.1" id="Capa_1" xmlns="http://www.w3.org/2000/svg" xmlns:xlink="http://www.w3.org/1999/xlink" x="0px" y="0px"
	 viewBox="0 0 202.463 202.463" style="enable-background:new 0 0 202.463 202.463;" xml:space="preserve">
<g>
	<g>
		<g>
			<path style="fill:#010002;" d="M172.114,31.075l-26.641,26.652h-57.04v6.832h55.007l-19.501,63.381H56.066l-18.388-26.917h72.615
				v-6.832H33.029l-20.12-29.633h60.69v-6.832H0l27.811,40.942l-0.014,0.007l24.665,36.1h69.38l-7.143,23.216H58.274v0.115
				c-7.627,0.587-13.671,6.914-13.671,14.691c0,8.171,6.639,14.816,14.813,14.816c8.163,0,14.809-6.642,14.809-14.816
				c0-2.935-0.884-5.669-2.369-7.977h24.73c-1.482,2.308-2.369,5.039-2.369,7.977c0,8.171,6.642,14.816,14.809,14.816
				c8.167,0,14.809-6.642,14.809-14.816c0-3.665-1.385-6.982-3.597-9.573l31.376-101.983l23.334-23.334h27.514v-6.843h-30.349
				V31.075z M59.413,180.782c-4.398,0-7.977-3.575-7.977-7.977c0-4.395,3.575-7.977,7.977-7.977c4.398,0,7.977,3.582,7.977,7.977
				C67.39,177.207,63.811,180.782,59.413,180.782z M109.026,180.782c-4.398,0-7.977-3.575-7.977-7.977
				c0-4.395,3.575-7.977,7.977-7.977s7.977,3.582,7.977,7.977C117,177.207,113.425,180.782,109.026,180.782z"/>
		</g>
		<g>
			<polygon style="fill:#010002;" points="78.516,23.617 78.516,90.348 83.094,90.348 83.094,23.617 106.467,46.994 109.71,43.751 
				80.803,14.849 51.908,43.751 55.143,46.994 			"/>
		</g>
	</g>
</g>
<g>
</g>
<g>
</g>
<g>
</g>
<g>
</g>
<g>
</g>
<g>
</g>
<g>
</g>
<g>
</g>
<g>
</g>
<g>
</g>
<g>
</g>
<g>
</g>
<g>
</g>
<g>
</g>
<g>
</g>
</svg>
