<?xml version="1.0" encoding="iso-8859-1"?>
<!-- Generator: Adobe Illustrator 18.1.1, SVG Export Plug-In . SVG Version: 6.00 Build 0)  -->
<svg version="1.1" id="Capa_1" xmlns="http://www.w3.org/2000/svg" xmlns:xlink="http://www.w3.org/1999/xlink" x="0px" y="0px"
	 viewBox="0 0 201.607 201.607" style="enable-background:new 0 0 201.607 201.607;" xml:space="preserve">
<g>
	<g>
		<path style="fill:#010002;" d="M171.398,24.279L144.865,50.82h-25.882L89.597,21.437L77.675,33.366L65.751,21.437L36.365,50.82H0
			l27.693,40.774l-0.007,0.007l24.558,35.95h69.086l-7.111,23.123H58.031v0.111c-7.594,0.583-13.614,6.886-13.614,14.634
			c0,8.135,6.617,14.752,14.748,14.752s14.745-6.617,14.745-14.752c0-2.924-0.88-5.647-2.358-7.945h24.626
			c-1.474,2.298-2.358,5.018-2.358,7.945c0,8.135,6.617,14.752,14.752,14.752s14.748-6.617,14.748-14.752
			c0-3.65-1.381-6.954-3.582-9.534l31.24-101.557l23.234-23.234h27.396v-6.811h-30.209V24.279z M59.166,173.356
			c-4.381,0-7.941-3.561-7.941-7.941c0-4.377,3.561-7.945,7.941-7.945c4.384,0,7.941,3.568,7.941,7.945
			C67.107,169.795,63.55,173.356,59.166,173.356z M108.572,173.356c-4.384,0-7.941-3.561-7.941-7.941
			c0-4.377,3.561-7.945,7.941-7.945c4.381,0,7.945,3.568,7.945,7.945C116.517,169.795,112.956,173.356,108.572,173.356z
			 M78.524,35.889l11.069-11.069l26.004,26H63.9L78.524,35.889z M65.751,24.819L75.99,35.058L60.554,50.82H39.75L65.751,24.819z
			 M123.42,120.736H55.834L37.524,93.931h72.311v-6.8H32.893L12.855,57.623h129.987L123.42,120.736z"/>
	</g>
</g>
<g>
</g>
<g>
</g>
<g>
</g>
<g>
</g>
<g>
</g>
<g>
</g>
<g>
</g>
<g>
</g>
<g>
</g>
<g>
</g>
<g>
</g>
<g>
</g>
<g>
</g>
<g>
</g>
<g>
</g>
</svg>
