<?xml version="1.0" encoding="iso-8859-1"?>
<!-- Generator: Adobe Illustrator 18.1.1, SVG Export Plug-In . SVG Version: 6.00 Build 0)  -->
<svg version="1.1" id="Capa_1" xmlns="http://www.w3.org/2000/svg" xmlns:xlink="http://www.w3.org/1999/xlink" x="0px" y="0px"
	 viewBox="0 0 201.607 201.607" style="enable-background:new 0 0 201.607 201.607;" xml:space="preserve">
<g>
	<g>
		<g>
			<polygon style="fill:#010002;" points="98.698,86.157 105.057,92.51 109.831,92.51 109.831,85.706 99.148,85.706 			"/>
		</g>
		<g>
			<path style="fill:#010002;" d="M171.398,22.858l-26.534,26.541H0l27.693,40.774l-0.011,0.007l24.562,35.95h69.086l-7.111,23.123
				H58.035v0.111c-7.594,0.583-13.621,6.886-13.621,14.634c0,8.135,6.617,14.752,14.756,14.752c8.128,0,14.745-6.617,14.745-14.752
				c0-2.924-0.884-5.647-2.358-7.945h24.626c-1.474,2.298-2.358,5.018-2.358,7.945c0,8.135,6.614,14.752,14.748,14.752
				s14.745-6.617,14.745-14.752c0-3.65-1.378-6.954-3.579-9.534l31.24-101.557l23.234-23.234h27.396v-6.811h-30.209V22.858z
				 M59.169,171.935c-4.381,0-7.941-3.561-7.941-7.941c0-4.377,3.561-7.945,7.941-7.945c4.377,0,7.941,3.568,7.941,7.945
				C67.111,168.374,63.546,171.935,59.169,171.935z M108.572,171.935c-4.384,0-7.941-3.561-7.941-7.941
				c0-4.377,3.557-7.945,7.941-7.945s7.941,3.568,7.941,7.945C116.513,168.374,112.956,171.935,108.572,171.935z M123.42,119.315
				H55.834L37.524,92.51h35.155l6.352-6.352l-0.451-0.451H32.893L12.855,56.199h129.987L123.42,119.315z"/>
		</g>
		<g>
			<polygon style="fill:#010002;" points="69.941,102.688 72.554,105.304 89.543,88.315 106.532,105.304 109.137,102.688 
				92.155,85.706 109.137,68.718 106.532,66.105 89.543,83.094 72.554,66.105 69.941,68.718 86.93,85.706 			"/>
		</g>
	</g>
</g>
<g>
</g>
<g>
</g>
<g>
</g>
<g>
</g>
<g>
</g>
<g>
</g>
<g>
</g>
<g>
</g>
<g>
</g>
<g>
</g>
<g>
</g>
<g>
</g>
<g>
</g>
<g>
</g>
<g>
</g>
</svg>
