<?xml version="1.0" encoding="iso-8859-1"?>
<!-- Generator: Adobe Illustrator 18.1.1, SVG Export Plug-In . SVG Version: 6.00 Build 0)  -->
<svg version="1.1" id="Capa_1" xmlns="http://www.w3.org/2000/svg" xmlns:xlink="http://www.w3.org/1999/xlink" x="0px" y="0px"
	 viewBox="0 0 205.827 205.827" style="enable-background:new 0 0 205.827 205.827;" xml:space="preserve">
<g>
	<g>
		<g>
			<polygon style="fill:#010002;" points="115.794,60.162 112.501,56.88 88.741,80.637 88.741,12.793 84.082,12.793 84.082,80.637 
				60.322,56.88 57.033,60.162 86.411,89.548 			"/>
		</g>
		<g>
			<path style="fill:#010002;" d="M174.981,33.879l-27.085,27.095h-24.73l0.372,0.369l-6.574,6.574h28.867l-19.823,64.437H57.004
				l-18.699-27.364h73.828v-6.947H86.841l-0.057,0.054l-0.061-0.054H33.58L13.124,67.921H56.6l-6.574-6.574l0.372-0.369H0
				l28.277,41.626l-0.007,0.007l25.063,36.701h70.536l-7.261,23.603H59.248v0.118c-7.755,0.594-13.9,7.025-13.9,14.938
				c0,8.307,6.757,15.063,15.056,15.063c8.307,0,15.06-6.757,15.06-15.063c0-2.988-0.898-5.762-2.409-8.11h25.141
				c-1.507,2.344-2.409,5.121-2.409,8.11c0,8.307,6.757,15.063,15.053,15.063c8.307,0,15.063-6.757,15.063-15.063
				c0-3.726-1.417-7.097-3.658-9.734l31.891-103.679l23.721-23.721h27.969v-6.954h-30.846V33.879z M60.404,186.077
				c-4.47,0-8.11-3.636-8.11-8.11c0-4.466,3.64-8.11,8.11-8.11c4.474,0,8.11,3.643,8.11,8.11
				C68.514,182.444,64.877,186.077,60.404,186.077z M110.841,186.077c-4.466,0-8.106-3.636-8.106-8.11c0-4.466,3.64-8.11,8.106-8.11
				c4.477,0,8.113,3.643,8.113,8.11C118.95,182.444,115.318,186.077,110.841,186.077z"/>
		</g>
	</g>
</g>
<g>
</g>
<g>
</g>
<g>
</g>
<g>
</g>
<g>
</g>
<g>
</g>
<g>
</g>
<g>
</g>
<g>
</g>
<g>
</g>
<g>
</g>
<g>
</g>
<g>
</g>
<g>
</g>
<g>
</g>
</svg>
