<?xml version="1.0" encoding="iso-8859-1"?>
<!-- Generator: Adobe Illustrator 18.1.1, SVG Export Plug-In . SVG Version: 6.00 Build 0)  -->
<svg version="1.1" id="Capa_1" xmlns="http://www.w3.org/2000/svg" xmlns:xlink="http://www.w3.org/1999/xlink" x="0px" y="0px"
	 viewBox="0 0 208.214 208.214" style="enable-background:new 0 0 208.214 208.214;" xml:space="preserve">
<g>
	<g>
		<path style="fill:#010002;" d="M122.216,27.6l-0.523-0.107l0.344,5.057l0.297,0.064c39.489,8.521,68.145,44.006,68.145,84.368
			c0,47.624-38.741,86.376-86.368,86.376c-47.624,0-86.368-38.752-86.368-86.376c0-40.355,28.688-75.811,68.213-84.307l0.326-0.068
			v-5.021l-0.494,0.104c-42.252,8.657-72.916,46.21-72.916,89.292c0,50.304,40.924,91.232,91.236,91.232
			s91.236-40.928,91.236-91.232C195.343,73.76,164.586,36.171,122.216,27.6z"/>
		<rect x="101.677" y="0" style="fill:#010002;" width="4.856" height="70.088"/>
	</g>
</g>
<g>
</g>
<g>
</g>
<g>
</g>
<g>
</g>
<g>
</g>
<g>
</g>
<g>
</g>
<g>
</g>
<g>
</g>
<g>
</g>
<g>
</g>
<g>
</g>
<g>
</g>
<g>
</g>
<g>
</g>
</svg>
