<?xml version="1.0" encoding="iso-8859-1"?>
<!-- Generator: Adobe Illustrator 18.1.1, SVG Export Plug-In . SVG Version: 6.00 Build 0)  -->
<svg version="1.1" id="Capa_1" xmlns="http://www.w3.org/2000/svg" xmlns:xlink="http://www.w3.org/1999/xlink" x="0px" y="0px"
	 viewBox="0 0 173.591 173.591" style="enable-background:new 0 0 173.591 173.591;" xml:space="preserve">
<g>
	<path style="fill:#010002;" d="M57.605,163.155c-5.043-3.214-6.36-7.347-7.755-11.706c-1.8-5.64-4.048-12.658-15.457-12.658
		c-0.1,0-0.211,0.007-0.315,0.007l0.086,7.841c5.891-0.132,6.471,1.761,8.21,7.201c1.6,4.996,3.79,11.853,12.207,16.652l0.898,0.523
		h1.045c35.867,0,49.803-17.984,59.699-38.627l-5.719-6.292C101.156,146.617,89.839,162.804,57.605,163.155z"/>
	<path style="fill:#010002;" d="M81.583,11.351c20.453-6.964,41.414-3.436,52.144,8.775c11.968,13.607,10.801,36.941-3.271,65.726
		c-5.451,7.601-9.437,16.04-13.084,24.454l5.794,6.378c3.922-9.187,8.067-18.531,13.847-26.509l0.344-0.569
		c20.124-40.956,12.343-63.206,2.269-74.658c-12.809-14.566-37.145-19-60.568-11.023c-15.131,5.154-27.085,14.509-34.45,26.276
		l5.49,6.045C57.243,23.63,69.819,15.356,81.583,11.351z"/>
	<path style="fill:#010002;" d="M37.878,46.13c-0.705,2.928-1.181,5.927-1.378,8.997l7.831,0.508
		c0.054-0.73,0.161-1.421,0.233-2.137L37.878,46.13z"/>
	<path style="fill:#010002;" d="M110.342,41.381c-9.981-5.554-48.561-24.465-33.956,23.803l5.508,6.059
		c-2.265-5.136-3.504-10.593-1.793-18.563C86.099,36.721,103.983,39.735,110.342,41.381z"/>
	<path style="fill:#010002;" d="M91.013,104.63l-8.042-8.851c-0.329,4.223-2.28,6.084-7.29,2.509
		c-13.728-9.81-20.679,16.896-16.67,22.235C71.773,135.412,87.13,120.037,91.013,104.63z"/>
	<path style="fill:#010002;" d="M112.636,42.054c0,0-0.863-0.304-2.294-0.673c1.439,0.802,2.294,1.324,2.294,1.324V42.054z"/>
	<path style="fill:#010002;" d="M8.646,8.115l5.805-5.279l150.494,165.475l-5.805,5.279L8.646,8.115z"/>
</g>
<g>
</g>
<g>
</g>
<g>
</g>
<g>
</g>
<g>
</g>
<g>
</g>
<g>
</g>
<g>
</g>
<g>
</g>
<g>
</g>
<g>
</g>
<g>
</g>
<g>
</g>
<g>
</g>
<g>
</g>
</svg>
