<?xml version="1.0" encoding="iso-8859-1"?>
<!-- Generator: Adobe Illustrator 18.1.1, SVG Export Plug-In . SVG Version: 6.00 Build 0)  -->
<svg version="1.1" id="Capa_1" xmlns="http://www.w3.org/2000/svg" xmlns:xlink="http://www.w3.org/1999/xlink" x="0px" y="0px"
	 viewBox="0 0 174.057 174.057" style="enable-background:new 0 0 174.057 174.057;" xml:space="preserve">
<g>
	<g>
		<path style="fill:#010002;" d="M168.295,104.384c1.102-5.408,1.664-10.948,1.664-16.481c0-45.237-36.812-82.038-82.056-82.038
			c-4.255,0-8.553,0.336-12.791,0.995C67.569,2.373,58.965,0,50.143,0C23.141,0,1.174,21.971,1.174,48.973
			c0,8.281,2.112,16.434,6.106,23.667c-0.941,4.985-1.417,10.117-1.417,15.264c0,45.244,36.812,82.052,82.042,82.052
			c4.66,0,9.319-0.401,13.897-1.174c6.818,3.45,14.441,5.275,22.124,5.275c26.999,0,48.959-21.967,48.959-48.969
			C172.88,117.841,171.337,110.887,168.295,104.384z M123.925,167.465c-6.989,0-13.904-1.739-20.042-5.028l-1.013-0.544
			l-1.142,0.208c-4.549,0.837-9.187,1.267-13.822,1.267c-41.597,0-75.449-33.852-75.449-75.456c0-5.132,0.519-10.232,1.517-15.171
			l0.258-1.242L13.6,70.407c-3.815-6.488-5.826-13.897-5.826-21.43c0-23.366,19.007-42.377,42.374-42.377
			c7.992,0,15.793,2.251,22.54,6.503l1.07,0.673l1.245-0.215c4.266-0.73,8.604-1.102,12.902-1.102
			c41.608,0,75.46,33.845,75.46,75.446c0,5.451-0.591,10.898-1.746,16.205l-0.24,1.127l0.523,1.034
			c2.91,5.88,4.391,12.207,4.391,18.818C166.284,148.451,147.273,167.465,123.925,167.465z"/>
		<path style="fill:#010002;" d="M118.224,88.934c-3.278-2.144-7.39-4.008-12.197-5.554c-4.964-1.585-10.651-3.078-16.906-4.427
			c-5.39-1.242-9.044-2.144-11.22-2.749c-2.448-0.673-4.91-1.628-7.29-2.824c-2.684-1.356-4.846-3.028-6.42-4.967
			c-1.829-2.215-2.756-4.882-2.756-7.909c0-4.781,2.452-8.815,7.279-11.971c4.277-2.809,9.842-4.234,16.538-4.234
			c7.383,0,12.73,1.346,16.362,4.112c3.335,2.545,6.213,6.07,8.536,10.486c1.621,2.784,2.827,4.141,3.529,4.774
			c0.562,0.487,1.757,0.773,3.267,0.773c1.764,0,3.124-0.562,4.277-1.757c1.192-1.245,1.754-2.491,1.754-3.937
			c0-2.029-0.626-4.209-1.84-6.478c-1.256-2.341-3.357-4.681-6.256-6.936c-2.931-2.298-6.75-4.18-11.313-5.597
			c-4.678-1.446-10.329-2.18-16.799-2.18c-8.178,0-15.332,1.113-21.273,3.314c-5.665,2.086-10.014,5.068-12.923,8.868
			c-2.827,3.675-4.255,7.949-4.255,12.712c0,5.007,1.328,9.205,3.94,12.487c2.774,3.471,6.635,6.277,11.467,8.335
			c5.247,2.219,11.86,4.191,19.669,5.859c6.084,1.278,11.105,2.52,14.917,3.704c4.223,1.338,7.734,3.296,10.443,5.819
			c3.131,2.949,4.724,6.764,4.724,11.345c0,5.744-2.745,10.518-8.145,14.197c-4.903,3.357-11.238,5.053-18.835,5.053
			c-5.522,0-10.135-0.855-13.7-2.541c-3.622-1.714-6.503-3.976-8.575-6.714c-1.84-2.423-3.575-5.483-5.146-9.09
			c-0.938-2.208-2.011-3.829-3.196-4.839c-0.92-0.777-2.044-1.145-3.511-1.145c-1.961,0-3.418,0.519-4.595,1.621
			c-1.102,1.041-1.61,2.172-1.61,3.579c0,3.525,1.378,7.294,4.094,11.216c2.827,4.087,6.574,7.408,11.127,9.863
			c6.614,3.504,15.249,5.29,25.685,5.29c8.718,0,16.312-1.321,22.583-3.926c6.041-2.505,10.647-5.98,13.707-10.304
			c3.01-4.262,4.545-9.151,4.545-14.523c0-4.506-0.855-8.299-2.53-11.277C123.685,93.451,121.273,90.917,118.224,88.934z"/>
	</g>
</g>
<g>
</g>
<g>
</g>
<g>
</g>
<g>
</g>
<g>
</g>
<g>
</g>
<g>
</g>
<g>
</g>
<g>
</g>
<g>
</g>
<g>
</g>
<g>
</g>
<g>
</g>
<g>
</g>
<g>
</g>
</svg>
