<?xml version="1.0" encoding="iso-8859-1"?>
<!-- Generator: Adobe Illustrator 18.1.1, SVG Export Plug-In . SVG Version: 6.00 Build 0)  -->
<svg version="1.1" id="Capa_1" xmlns="http://www.w3.org/2000/svg" xmlns:xlink="http://www.w3.org/1999/xlink" x="0px" y="0px"
	 viewBox="0 0 207.226 207.226" style="enable-background:new 0 0 207.226 207.226;" xml:space="preserve">
<g>
	<g>
		<path style="fill:#010002;" d="M36.182,106.596c0-9.981-8.117-18.088-18.091-18.088S0.004,96.615,0.004,106.596
			c0,9.971,8.113,18.091,18.088,18.091S36.182,116.567,36.182,106.596z M18.091,119.97c-7.376,0-13.374-6.002-13.374-13.374
			c0-7.38,6.002-13.378,13.374-13.378c7.38,0,13.381,5.998,13.381,13.378C31.472,113.972,25.471,119.97,18.091,119.97z"/>
		<path style="fill:#010002;" d="M189.132,88.509c-9.974,0-18.091,8.11-18.091,18.088c0,9.971,8.117,18.091,18.091,18.091
			c9.981,0,18.091-8.12,18.091-18.091C207.219,96.615,199.113,88.509,189.132,88.509z M189.132,119.97
			c-7.372,0-13.374-6.002-13.374-13.374c0-7.38,6.005-13.378,13.374-13.378c7.376,0,13.378,5.998,13.378,13.378
			C202.509,113.972,196.504,119.97,189.132,119.97z"/>
		<path style="fill:#010002;" d="M43.887,64.212c4.835,0,9.377-1.882,12.794-5.297c3.411-3.411,5.293-7.952,5.293-12.791
			s-1.882-9.38-5.293-12.787c-3.411-3.421-7.952-5.304-12.794-5.304c-4.839,0-9.38,1.882-12.794,5.304
			c-3.414,3.414-5.293,7.952-5.293,12.784c0,4.839,1.879,9.384,5.293,12.798C34.518,62.329,39.06,64.212,43.887,64.212z
			 M43.887,32.75c3.579,0,6.936,1.385,9.459,3.908c5.214,5.222,5.214,13.711,0,18.921c-2.523,2.53-5.884,3.922-9.459,3.922
			s-6.936-1.392-9.459-3.922c-2.53-2.523-3.922-5.88-3.922-9.462c0-3.568,1.392-6.929,3.922-9.459
			C36.955,34.135,40.312,32.75,43.887,32.75z"/>
		<path style="fill:#010002;" d="M164.831,148.977c-4.831,0-9.377,1.879-12.794,5.293c-3.418,3.414-5.293,7.959-5.293,12.791
			c0,4.839,1.875,9.38,5.293,12.787c3.418,3.421,7.963,5.3,12.794,5.3c4.831,0,9.369-1.879,12.791-5.3
			c3.418-3.407,5.297-7.952,5.297-12.787c0-4.835-1.879-9.377-5.297-12.791C174.204,150.856,169.663,148.977,164.831,148.977z
			 M164.831,180.442c-3.586,0-6.936-1.392-9.459-3.915c-2.53-2.523-3.922-5.887-3.922-9.466c0-3.572,1.392-6.932,3.922-9.462
			c2.52-2.523,5.88-3.915,9.459-3.915c3.575,0,6.936,1.392,9.459,3.919c2.53,2.527,3.922,5.884,3.922,9.459
			c0,3.579-1.392,6.936-3.922,9.466C171.771,179.05,168.406,180.442,164.831,180.442z"/>
		<path style="fill:#010002;" d="M164.824,64.212c4.839,0,9.377-1.882,12.798-5.297c3.418-3.418,5.297-7.959,5.297-12.791
			s-1.879-9.369-5.297-12.787c-3.407-3.421-7.949-5.304-12.791-5.304c-4.842,0-9.384,1.882-12.794,5.304
			c-3.411,3.407-5.286,7.952-5.286,12.787c0,4.842,1.872,9.384,5.286,12.791C155.447,62.329,160,64.212,164.824,64.212z
			 M164.831,32.75c3.575,0,6.936,1.389,9.459,3.908c2.527,2.534,3.922,5.898,3.922,9.466c0,3.579-1.392,6.936-3.922,9.455
			c-2.527,2.53-5.884,3.922-9.466,3.922c-3.565,0-6.932-1.392-9.459-3.922c-5.207-5.211-5.207-13.7,0-18.921
			C157.895,34.135,161.252,32.75,164.831,32.75z"/>
		<path style="fill:#010002;" d="M43.887,148.977c-4.835,0-9.38,1.879-12.794,5.293c-3.418,3.425-5.3,7.97-5.3,12.791
			c0,4.839,1.882,9.38,5.3,12.787c3.414,3.421,7.956,5.3,12.794,5.3c4.835,0,9.377-1.879,12.794-5.3
			c3.414-3.407,5.297-7.952,5.297-12.787c0-4.828-1.879-9.369-5.297-12.791C53.264,150.856,48.722,148.977,43.887,148.977z
			 M43.887,180.442c-3.579,0-6.936-1.392-9.459-3.915c-2.53-2.523-3.922-5.887-3.922-9.466c0-3.575,1.392-6.932,3.922-9.459
			c2.52-2.527,5.876-3.919,9.459-3.919c3.579,0,6.939,1.392,9.459,3.919c2.527,2.527,3.915,5.884,3.915,9.459
			c0,3.579-1.389,6.936-3.919,9.466C50.823,179.05,47.463,180.442,43.887,180.442z"/>
		<path style="fill:#010002;" d="M104.359,0c-9.978,0-18.091,8.117-18.091,18.091s8.117,18.088,18.091,18.088
			c9.978,0,18.091-8.117,18.091-18.088C122.45,8.117,114.337,0,104.359,0z M104.359,31.469c-7.376,0-13.378-5.998-13.378-13.378
			S96.983,4.71,104.359,4.71s13.374,6.002,13.374,13.381S111.735,31.469,104.359,31.469z"/>
		<path style="fill:#010002;" d="M104.359,171.04c-9.978,0-18.091,8.12-18.091,18.102c0,9.964,8.117,18.084,18.091,18.084
			c9.978,0,18.091-8.12,18.091-18.084C122.45,179.157,114.337,171.04,104.359,171.04z M104.359,202.516
			c-7.376,0-13.378-6.005-13.378-13.374c0-7.383,6.002-13.388,13.378-13.388s13.374,6.005,13.374,13.388
			C117.733,196.511,111.735,202.516,104.359,202.516z"/>
	</g>
</g>
<g>
</g>
<g>
</g>
<g>
</g>
<g>
</g>
<g>
</g>
<g>
</g>
<g>
</g>
<g>
</g>
<g>
</g>
<g>
</g>
<g>
</g>
<g>
</g>
<g>
</g>
<g>
</g>
<g>
</g>
</svg>
