<?xml version="1.0" encoding="iso-8859-1"?>
<!-- Generator: Adobe Illustrator 18.1.1, SVG Export Plug-In . SVG Version: 6.00 Build 0)  -->
<svg version="1.1" id="Capa_1" xmlns="http://www.w3.org/2000/svg" xmlns:xlink="http://www.w3.org/1999/xlink" x="0px" y="0px"
	 viewBox="0 0 194.757 194.757" style="enable-background:new 0 0 194.757 194.757;" xml:space="preserve">
<g>
	<g>
		<g>
			<path style="fill:#010002;" d="M139.495,0H55.263c-5.59,0-10.135,4.381-10.135,9.76v175.242c0,5.375,4.545,9.756,10.135,9.756
				h84.232c5.594,0,10.135-4.381,10.135-9.756V9.76C149.63,4.377,145.085,0,139.495,0z M52.056,170.26h90.652v14.738
				c0,1.564-1.446,2.834-3.214,2.834H55.263c-1.768,0-3.207-1.27-3.207-2.834V170.26z M142.708,28.974v134.357H52.056V28.974
				H142.708z M55.263,6.925h84.232c1.768,0,3.214,1.27,3.214,2.834v12.286H52.056V9.76C52.056,8.196,53.495,6.925,55.263,6.925z"/>
		</g>
		<g>
			<path style="fill:#010002;" d="M97.379,184.54c3.128,0,5.669-2.541,5.669-5.669c0-3.117-2.541-5.662-5.669-5.662
				c-3.128,0-5.669,2.545-5.669,5.662C91.71,182.002,94.251,184.54,97.379,184.54z"/>
		</g>
	</g>
</g>
<g>
</g>
<g>
</g>
<g>
</g>
<g>
</g>
<g>
</g>
<g>
</g>
<g>
</g>
<g>
</g>
<g>
</g>
<g>
</g>
<g>
</g>
<g>
</g>
<g>
</g>
<g>
</g>
<g>
</g>
</svg>
