<?xml version="1.0" encoding="iso-8859-1"?>
<!-- Generator: Adobe Illustrator 18.1.1, SVG Export Plug-In . SVG Version: 6.00 Build 0)  -->
<svg version="1.1" id="Capa_1" xmlns="http://www.w3.org/2000/svg" xmlns:xlink="http://www.w3.org/1999/xlink" x="0px" y="0px"
	 viewBox="0 0 199.207 199.207" style="enable-background:new 0 0 199.207 199.207;" xml:space="preserve">
<g>
	<path style="fill:#010002;" d="M198.655,49.735c-0.175-1.321-1.081-2.423-2.344-2.845c-1.263-0.422-2.648-0.097-3.6,0.845
		L168.675,71.77l-35.119-6.109l-6.12-35.13l24.046-24.036c0.941-0.941,1.267-2.333,0.841-3.593c-0.426-1.26-1.528-2.172-2.849-2.351
		c-18.07-2.473-35.774,3.461-48.597,16.28C85.81,31.894,80.9,53.281,86.028,72.521L8.414,150.147
		c-11.216,11.213-11.216,29.447-0.011,40.649c11.216,11.216,29.447,11.216,40.659,0l77.629-77.622
		c19.233,5.139,40.62,0.218,55.687-14.841C195.198,85.509,201.131,67.801,198.655,49.735z M44.113,185.842
		c-8.478,8.478-22.278,8.478-30.757,0c-8.478-8.475-8.468-22.268,0.011-30.746l75.17-75.17c2.802,6.689,6.893,12.966,12.34,18.402
		c5.447,5.436,11.721,9.541,18.406,12.343L44.113,185.842z M177.425,93.379c-19.737,19.737-51.858,19.737-71.595,0
		c-19.737-19.741-19.737-51.854,0-71.595c9.48-9.48,22.017-14.677,35.23-14.777l-19.855,19.859c-0.809,0.809-1.167,1.95-0.981,3.074
		l6.839,39.349c0.261,1.46,1.399,2.595,2.859,2.849l39.353,6.843c1.113,0.193,2.258-0.172,3.063-0.977l19.855-19.859
		C192.098,71.358,186.905,83.895,177.425,93.379z"/>
</g>
<g>
</g>
<g>
</g>
<g>
</g>
<g>
</g>
<g>
</g>
<g>
</g>
<g>
</g>
<g>
</g>
<g>
</g>
<g>
</g>
<g>
</g>
<g>
</g>
<g>
</g>
<g>
</g>
<g>
</g>
</svg>
