<?xml version="1.0" encoding="iso-8859-1"?>
<!-- Generator: Adobe Illustrator 18.1.1, SVG Export Plug-In . SVG Version: 6.00 Build 0)  -->
<svg version="1.1" id="Capa_1" xmlns="http://www.w3.org/2000/svg" xmlns:xlink="http://www.w3.org/1999/xlink" x="0px" y="0px"
	 viewBox="0 0 197.553 197.553" style="enable-background:new 0 0 197.553 197.553;" xml:space="preserve">
<g>
	<g>
		<path style="fill:#010002;" d="M197.553,116.713l-0.161-98.268c0-5.841-3.743-8.453-7.44-8.453c-3.919,0-8.106,3.024-10.278,4.846
			L39.854,71.913c-6.725,0-17.178,0.025-24.823,0.039H0.175v5.186L0,121.631l40.488,0.054l24.268,10.651l-9.305,20.618
			l60.246,27.711l9.774-21.677l56.438,24.776c1.797,1.442,5.257,3.797,8.589,3.797c1.986,0,3.783-0.773,5.064-2.169
			c1.514-1.646,2.162-3.944,1.943-6.385L197.553,116.713z M20.26,82.356v28.158h-9.67V82.364c1.364,0,2.999,0,4.713-0.007
			C15.303,82.356,20.26,82.356,20.26,82.356z M110.526,166.832l-41.339-19.014l5.089-11.302l41.661,18.292L110.526,166.832z
			 M187.113,174.677L42.678,111.284l-12.003-0.014V82.324c3.808,0,7.415-0.007,10.21-0.007h1.027L184.39,24.146l0.834-0.336
			l0.662-0.587c0.34-0.304,0.716-0.616,1.109-0.913l0.165,94.403L187.113,174.677z"/>
	</g>
</g>
<g>
</g>
<g>
</g>
<g>
</g>
<g>
</g>
<g>
</g>
<g>
</g>
<g>
</g>
<g>
</g>
<g>
</g>
<g>
</g>
<g>
</g>
<g>
</g>
<g>
</g>
<g>
</g>
<g>
</g>
</svg>
