<?xml version="1.0" encoding="iso-8859-1"?>
<!-- Generator: Adobe Illustrator 18.1.1, SVG Export Plug-In . SVG Version: 6.00 Build 0)  -->
<svg version="1.1" id="Capa_1" xmlns="http://www.w3.org/2000/svg" xmlns:xlink="http://www.w3.org/1999/xlink" x="0px" y="0px"
	 viewBox="0 0 419.999 419.999" style="enable-background:new 0 0 419.999 419.999;" xml:space="preserve">
<g>
	<path style="fill:#010002;" d="M388.87,95.294c-34.786-43.846-92.656-72.849-158.771-79.57c-9.435-0.963-18.974-1.441-28.385-1.441
		c-104.297,0-190.581,59.323-200.727,138.004c-6.458,50.138,19.048,100.688,68.371,135.877
		c6.807,33.305,5.494,76.706-35.974,101.249c-3.729,2.215-5.271,6.794-3.669,10.808c1.355,3.369,4.614,5.496,8.109,5.496
		c0.666,0,1.322-0.08,1.979-0.24c4.152-0.946,98.5-23.327,130.801-76.33c6.521,1.146,12.96,2.043,19.238,2.664
		c9.432,0.98,18.989,1.438,28.402,1.438c104.303,0,190.598-59.351,200.729-138.002C423.484,160.346,413.066,125.79,388.87,95.294z
		 M401.621,193.015c-9.022,69.973-87.854,122.758-183.379,122.754c-8.819,0-17.78-0.453-26.637-1.354
		c-7.733-0.781-15.773-2.005-23.895-3.604c-3.876-0.778-7.771,1.147-9.533,4.674c-14.93,29.779-55.332,49.92-85.645,61.396
		c17.112-24.527,21.823-57.378,13.194-95.854c-0.479-2.135-1.751-4.021-3.575-5.291c-45.673-31.454-69.52-76.755-63.783-121.216
		c9.006-69.973,87.839-122.739,183.344-122.739c8.82,0,17.797,0.47,26.623,1.354c60.536,6.152,115.416,33.457,146.795,73.045
		C396.333,132.882,405.479,162.909,401.621,193.015z"/>
</g>
<g>
</g>
<g>
</g>
<g>
</g>
<g>
</g>
<g>
</g>
<g>
</g>
<g>
</g>
<g>
</g>
<g>
</g>
<g>
</g>
<g>
</g>
<g>
</g>
<g>
</g>
<g>
</g>
<g>
</g>
</svg>
