<?xml version="1.0" encoding="iso-8859-1"?>
<!-- Generator: Adobe Illustrator 18.1.1, SVG Export Plug-In . SVG Version: 6.00 Build 0)  -->
<svg version="1.1" id="Capa_1" xmlns="http://www.w3.org/2000/svg" xmlns:xlink="http://www.w3.org/1999/xlink" x="0px" y="0px"
	 viewBox="0 0 201.718 201.718" style="enable-background:new 0 0 201.718 201.718;" xml:space="preserve">
<g>
	<g>
		<path style="fill:#010002;" d="M60.075,58.178c-9.047,0-16.409,7.362-16.409,16.416c0,9.047,7.362,16.405,16.409,16.405
			s16.409-7.362,16.409-16.405C76.484,65.539,69.122,58.178,60.075,58.178z M60.075,85.957c-6.267,0-11.37-5.096-11.37-11.359
			c0-6.274,5.103-11.37,11.37-11.37s11.366,5.096,11.366,11.37C71.441,80.861,66.341,85.957,60.075,85.957z"/>
		<path style="fill:#010002;" d="M101.783,58.178c-9.047,0-16.409,7.362-16.409,16.416c0,9.047,7.362,16.405,16.409,16.405
			c9.054,0,16.409-7.362,16.409-16.405C118.195,65.539,110.837,58.178,101.783,58.178z M101.783,85.957
			c-6.267,0-11.366-5.096-11.366-11.359c0-6.274,5.1-11.37,11.366-11.37c6.27,0,11.37,5.096,11.37,11.37
			C113.156,80.861,108.056,85.957,101.783,85.957z"/>
		<path style="fill:#010002;" d="M144.306,58.178c-9.044,0-16.402,7.362-16.402,16.416c0,9.047,7.358,16.405,16.402,16.405
			c9.051,0,16.416-7.362,16.416-16.405C160.723,65.539,153.357,58.178,144.306,58.178z M144.306,85.957
			c-6.263,0-11.363-5.096-11.363-11.359c0-6.274,5.1-11.37,11.363-11.37c6.274,0,11.374,5.096,11.374,11.37
			C155.676,80.861,150.58,85.957,144.306,85.957z"/>
		<path style="fill:#010002;" d="M163.077,0H38.652C22.901,0,10.085,10.576,10.085,23.57V124.14
			c0,12.998,12.816,23.563,28.566,23.563h9.552l34.2,53.192l0.526,0.823l34.726-54.019h45.419c15.747,0,28.559-10.565,28.559-23.563
			V23.57C191.637,10.576,178.824,0,163.077,0z M163.077,142.667h-48.171l-31.973,49.721l-31.791-49.435l-0.183-0.286H38.655
			c-12.97,0-23.52-8.31-23.52-18.528V23.57c0-10.214,10.55-18.524,23.52-18.524h124.426c12.966,0,23.524,8.31,23.524,18.524V124.14
			C186.601,134.354,176.044,142.667,163.077,142.667z"/>
	</g>
</g>
<g>
</g>
<g>
</g>
<g>
</g>
<g>
</g>
<g>
</g>
<g>
</g>
<g>
</g>
<g>
</g>
<g>
</g>
<g>
</g>
<g>
</g>
<g>
</g>
<g>
</g>
<g>
</g>
<g>
</g>
</svg>
