<?xml version="1.0" encoding="iso-8859-1"?>
<!-- Generator: Adobe Illustrator 18.1.1, SVG Export Plug-In . SVG Version: 6.00 Build 0)  -->
<svg version="1.1" id="Capa_1" xmlns="http://www.w3.org/2000/svg" xmlns:xlink="http://www.w3.org/1999/xlink" x="0px" y="0px"
	 viewBox="0 0 204.209 204.209" style="enable-background:new 0 0 204.209 204.209;" xml:space="preserve">
<g>
	<g>
		<path style="fill:#010002;" d="M59.248,52.96c-9.595,0-17.4,7.805-17.4,17.411c0,9.591,7.805,17.397,17.4,17.397
			c9.598,0,17.404-7.805,17.404-17.397C76.652,60.765,68.846,52.96,59.248,52.96z M59.248,82.414
			c-6.646,0-12.054-5.404-12.054-12.046c0-6.653,5.404-12.057,12.054-12.057s12.057,5.404,12.057,12.057
			C71.305,77.01,65.897,82.414,59.248,82.414z"/>
		<path style="fill:#010002;" d="M103.482,52.96c-9.595,0-17.397,7.805-17.397,17.411c0,9.591,7.805,17.397,17.397,17.397
			s17.397-7.805,17.397-17.397C120.879,60.765,113.074,52.96,103.482,52.96z M103.482,82.414c-6.646,0-12.057-5.404-12.057-12.046
			c0-6.653,5.411-12.057,12.057-12.057c6.646,0,12.057,5.404,12.057,12.057C115.54,77.01,110.128,82.414,103.482,82.414z"/>
		<path style="fill:#010002;" d="M148.572,52.96c-9.598,0-17.404,7.805-17.404,17.411c0,9.591,7.809,17.397,17.404,17.397
			s17.404-7.805,17.404-17.397C165.98,60.765,158.171,52.96,148.572,52.96z M148.572,82.414c-6.646,0-12.05-5.404-12.05-12.046
			c0-6.653,5.404-12.057,12.05-12.057s12.05,5.404,12.05,12.057C160.626,77.01,155.222,82.414,148.572,82.414z"/>
		<path style="fill:#010002;" d="M0,1.002v141.901h39.417l-0.011,60.304l60.436-60.304h104.366V1.002H0z M44.754,190.316
			l0.011-52.767H5.347V6.345h193.516v131.208H97.635L44.754,190.316z"/>
	</g>
</g>
<g>
</g>
<g>
</g>
<g>
</g>
<g>
</g>
<g>
</g>
<g>
</g>
<g>
</g>
<g>
</g>
<g>
</g>
<g>
</g>
<g>
</g>
<g>
</g>
<g>
</g>
<g>
</g>
<g>
</g>
</svg>
