<?xml version="1.0" encoding="iso-8859-1"?>
<!-- Generator: Adobe Illustrator 18.1.1, SVG Export Plug-In . SVG Version: 6.00 Build 0)  -->
<svg version="1.1" id="Capa_1" xmlns="http://www.w3.org/2000/svg" xmlns:xlink="http://www.w3.org/1999/xlink" x="0px" y="0px"
	 viewBox="0 0 199.335 199.335" style="enable-background:new 0 0 199.335 199.335;" xml:space="preserve">
<g>
	<path style="fill:#010002;" d="M161.143,0H38.192C22.624,0,9.962,10.45,9.962,23.291v99.381c0,12.844,12.662,23.284,28.23,23.284
		h9.437l33.795,52.563l0.523,0.816l34.321-53.375h44.875c15.564,0,28.23-10.439,28.23-23.284V23.295
		C189.37,10.45,176.704,0,161.143,0z M161.143,140.982h-47.599l-31.598,49.134l-31.415-48.851l-0.183-0.279H38.192
		c-12.819,0-23.248-8.213-23.248-18.306V23.295c0-10.092,10.429-18.306,23.248-18.306H161.14c12.819,0,23.245,8.213,23.245,18.306
		v99.381C184.388,132.768,173.963,140.982,161.143,140.982z"/>
</g>
<g>
</g>
<g>
</g>
<g>
</g>
<g>
</g>
<g>
</g>
<g>
</g>
<g>
</g>
<g>
</g>
<g>
</g>
<g>
</g>
<g>
</g>
<g>
</g>
<g>
</g>
<g>
</g>
<g>
</g>
</svg>
