<?xml version="1.0" encoding="iso-8859-1"?>
<!-- Generator: Adobe Illustrator 18.1.1, SVG Export Plug-In . SVG Version: 6.00 Build 0)  -->
<svg version="1.1" id="Capa_1" xmlns="http://www.w3.org/2000/svg" xmlns:xlink="http://www.w3.org/1999/xlink" x="0px" y="0px"
	 viewBox="0 0 204.764 204.764" style="enable-background:new 0 0 204.764 204.764;" xml:space="preserve">
<g>
	<path style="fill:#010002;" d="M102.384,0C53.751,0,14.179,35.91,14.179,80.048c0,26.251,14.187,50.834,37.964,65.797
		c0.888,26.562-8.006,49.986-8.389,50.963l-3.117,7.956l64.172-44.721c47.316-1.177,85.774-37.016,85.774-79.994
		C190.588,35.907,151.02,0,102.384,0z M103.146,154.886l-52.047,36.272c2.928-9.774,7.065-27.45,6.174-46.904l-0.072-1.378
		l-1.174-0.716c-22.955-13.968-36.658-37.181-36.658-62.115c0-41.275,37.238-74.859,83.015-74.859s83.015,33.584,83.015,74.859
		c0,40.523-36.544,74.086-81.469,74.83L103.146,154.886z"/>
</g>
<g>
</g>
<g>
</g>
<g>
</g>
<g>
</g>
<g>
</g>
<g>
</g>
<g>
</g>
<g>
</g>
<g>
</g>
<g>
</g>
<g>
</g>
<g>
</g>
<g>
</g>
<g>
</g>
<g>
</g>
</svg>
