<?xml version="1.0" encoding="iso-8859-1"?>
<!-- Generator: Adobe Illustrator 18.1.1, SVG Export Plug-In . SVG Version: 6.00 Build 0)  -->
<svg version="1.1" id="Capa_1" xmlns="http://www.w3.org/2000/svg" xmlns:xlink="http://www.w3.org/1999/xlink" x="0px" y="0px"
	 viewBox="0 0 202.377 202.377" style="enable-background:new 0 0 202.377 202.377;" xml:space="preserve">
<g>
	<g>
		<path style="fill:#010002;" d="M101.185,0c-48.06,0-87.17,35.491-87.17,79.114c0,25.947,14.018,50.243,37.517,65.031
			c0.895,26.755-8.203,50.143-8.292,50.369l-3.081,7.863l63.424-44.202c46.772-1.163,84.779-36.587,84.779-79.064
			C188.362,35.491,149.26,0,101.185,0z M101.94,153.082l-51.439,35.853c2.888-9.674,6.982-27.153,6.098-46.36l-0.064-1.364
			l-1.16-0.705c-22.697-13.807-36.239-36.748-36.239-61.392c0-40.795,36.805-73.989,82.049-73.989
			c45.251,0,82.056,33.194,82.056,73.989c0,40.051-36.121,73.223-80.524,73.961L101.94,153.082z"/>
		<rect x="53.239" y="62.82" style="fill:#010002;" width="101.278" height="5.114"/>
		<rect x="53.239" y="91.028" style="fill:#010002;" width="101.278" height="5.114"/>
	</g>
</g>
<g>
</g>
<g>
</g>
<g>
</g>
<g>
</g>
<g>
</g>
<g>
</g>
<g>
</g>
<g>
</g>
<g>
</g>
<g>
</g>
<g>
</g>
<g>
</g>
<g>
</g>
<g>
</g>
<g>
</g>
</svg>
