<?xml version="1.0" encoding="iso-8859-1"?>
<!-- Generator: Adobe Illustrator 18.1.1, SVG Export Plug-In . SVG Version: 6.00 Build 0)  -->
<svg version="1.1" id="Capa_1" xmlns="http://www.w3.org/2000/svg" xmlns:xlink="http://www.w3.org/1999/xlink" x="0px" y="0px"
	 viewBox="0 0 202.176 202.176" style="enable-background:new 0 0 202.176 202.176;" xml:space="preserve">
<g>
	<g>
		<rect x="44.564" y="57.92" style="fill:#010002;" width="116.091" height="5.06"/>
		<rect x="44.564" y="85.76" style="fill:#010002;" width="116.091" height="5.057"/>
		<path style="fill:#010002;" d="M163.443,0H38.734C22.948,0,10.103,10.601,10.103,23.624v100.802
			c0,13.027,12.844,23.617,28.631,23.617h9.573l34.278,53.311l0.53,0.823l34.804-54.137h45.523c15.786,0,28.631-10.59,28.631-23.617
			V23.624C192.073,10.601,179.229,0,163.443,0z M163.443,142.989h-48.275l-32.049,49.835l-31.866-49.553l-0.183-0.283H38.737
			c-12.995,0-23.577-8.332-23.577-18.567V23.624c0-10.232,10.583-18.563,23.577-18.563h124.709c13.002,0,23.57,8.332,23.57,18.563
			v100.802C187.013,134.658,176.445,142.989,163.443,142.989z"/>
	</g>
</g>
<g>
</g>
<g>
</g>
<g>
</g>
<g>
</g>
<g>
</g>
<g>
</g>
<g>
</g>
<g>
</g>
<g>
</g>
<g>
</g>
<g>
</g>
<g>
</g>
<g>
</g>
<g>
</g>
<g>
</g>
</svg>
