<?xml version="1.0" encoding="iso-8859-1"?>
<!-- Generator: Adobe Illustrator 18.1.1, SVG Export Plug-In . SVG Version: 6.00 Build 0)  -->
<svg version="1.1" id="Capa_1" xmlns="http://www.w3.org/2000/svg" xmlns:xlink="http://www.w3.org/1999/xlink" x="0px" y="0px"
	 viewBox="0 0 202.205 202.205" style="enable-background:new 0 0 202.205 202.205;" xml:space="preserve">
<g>
	<g>
		<path style="fill:#010002;" d="M193.906,180.986V85.932c3.919-3.507,6.388-8.607,6.388-14.269L200.226,0H2.684l-0.1,71.659
			c0,5.504,2.33,10.468,6.052,13.979v95.348H0.734v21.219h200.738v-21.219H193.906z M9.165,6.481h184.59v18.943H9.165V6.481z
			 M193.813,31.891v39.772c0,6.997-5.694,12.701-12.698,12.701c-6.997,0-12.698-5.705-12.698-12.701V31.891H193.813z
			 M161.947,31.891v39.772c0,6.997-5.701,12.701-12.701,12.701c-7.004,0-12.701-5.705-12.701-12.701V31.891H161.947z M130.07,31.891
			v39.772c0,6.997-5.698,12.701-12.698,12.701s-12.698-5.705-12.698-12.701V31.891H130.07z M98.193,31.891v39.772
			c0,6.997-5.694,12.701-12.694,12.701c-6.939,0-12.601-5.604-12.694-12.522c0-0.068,0-0.125,0-0.179V31.891H98.193z M66.327,31.891
			v39.772c0,0.057,0,0.111,0,0.179c-0.097,6.918-5.755,12.522-12.694,12.522c-7.007,0-12.698-5.705-12.698-12.701V31.891H66.327z
			 M9.058,31.891h25.396v39.772c0,6.997-5.694,12.701-12.694,12.701S9.058,78.66,9.058,71.663
			C9.058,71.663,9.058,31.891,9.058,31.891z M194.99,195.724H7.215v-8.264h7.902V89.65c2.076,0.762,4.309,1.188,6.642,1.188
			c6.632,0,12.494-3.386,15.933-8.528c3.446,5.146,9.305,8.528,15.94,8.528s12.487-3.386,15.937-8.518
			c3.446,5.136,9.298,8.518,15.933,8.518c6.635,0,12.487-3.386,15.933-8.528c3.446,5.146,9.305,8.528,15.94,8.528
			c6.632,0,12.494-3.386,15.933-8.528c3.443,5.146,9.309,8.528,15.94,8.528c6.635,0,12.494-3.386,15.94-8.528
			c3.443,5.146,9.294,8.528,15.929,8.528c2.205,0,4.338-0.379,6.31-1.074v97.699h7.566v8.26H194.99z"/>
		<path style="fill:#010002;" d="M25.875,149.059h93.841v-46.997H25.875V149.059z M32.356,108.539h80.886v34.046H32.356V108.539z"/>
		<path style="fill:#010002;" d="M135.399,178.388h40.398v-76.326h-40.398V178.388z M141.876,108.539h27.443v63.367h-27.443V108.539
			z"/>
	</g>
</g>
<g>
</g>
<g>
</g>
<g>
</g>
<g>
</g>
<g>
</g>
<g>
</g>
<g>
</g>
<g>
</g>
<g>
</g>
<g>
</g>
<g>
</g>
<g>
</g>
<g>
</g>
<g>
</g>
<g>
</g>
</svg>
