<?xml version="1.0" encoding="iso-8859-1"?>
<!-- Generator: Adobe Illustrator 18.1.1, SVG Export Plug-In . SVG Version: 6.00 Build 0)  -->
<svg version="1.1" id="Capa_1" xmlns="http://www.w3.org/2000/svg" xmlns:xlink="http://www.w3.org/1999/xlink" x="0px" y="0px"
	 viewBox="0 0 197.868 197.868" style="enable-background:new 0 0 197.868 197.868;" xml:space="preserve">
<g>
	<g>
		<g>
			<path style="fill:#010002;" d="M95.931,13.796c38.566,0,70.367,29.568,73.921,67.225l-28.141-20.235l-4.055,5.526l39.868,27.715
				l20.342-40.548l-6.127-3.071L176.663,80.46C172.826,39.285,138.09,6.932,95.931,6.932c-44.721,0-81.1,36.386-81.1,81.111h6.853
				C21.688,47.105,54.985,13.796,95.931,13.796z"/>
		</g>
		<g>
			<path style="fill:#010002;" d="M101.936,184.075c-38.569,0-70.367-29.565-73.914-67.229l28.141,20.238l4.055-5.522
				l-39.371-28.498l-0.497,0.773L0,144.396l6.134,3.071l15.071-30.052c3.84,41.178,38.576,73.52,80.728,73.52
				c44.732,0,81.108-36.386,81.108-81.104h-6.854C176.19,150.77,142.882,184.075,101.936,184.075z"/>
		</g>
	</g>
</g>
<g>
</g>
<g>
</g>
<g>
</g>
<g>
</g>
<g>
</g>
<g>
</g>
<g>
</g>
<g>
</g>
<g>
</g>
<g>
</g>
<g>
</g>
<g>
</g>
<g>
</g>
<g>
</g>
<g>
</g>
</svg>
