<?xml version="1.0" encoding="iso-8859-1"?>
<!-- Generator: Adobe Illustrator 18.1.1, SVG Export Plug-In . SVG Version: 6.00 Build 0)  -->
<svg version="1.1" id="Capa_1" xmlns="http://www.w3.org/2000/svg" xmlns:xlink="http://www.w3.org/1999/xlink" x="0px" y="0px"
	 viewBox="0 0 202.899 202.899" style="enable-background:new 0 0 202.899 202.899;" xml:space="preserve">
<g>
	<g>
		<g>
			<path style="fill:#010002;" d="M159.871,0H43.036c-5.379,0-9.76,4.216-9.76,9.391v184.114c0,5.179,4.381,9.394,9.76,9.394
				h116.835c5.383,0,9.752-4.216,9.752-9.394V9.391C169.623,4.216,165.253,0,159.871,0z M163.02,193.505
				c0,1.542-1.421,2.792-3.149,2.792H43.036c-1.736,0-3.146-1.253-3.146-2.792v-14.301h123.13V193.505z M163.02,172.604H39.89
				V27.926h123.13V172.604z M163.02,21.319H39.89V9.391c0-1.539,1.41-2.792,3.146-2.792h116.835c1.725,0,3.149,1.253,3.149,2.792
				V21.319z"/>
		</g>
		<g>
			<path style="fill:#010002;" d="M102.241,193.015c2.988,0,5.433-2.441,5.433-5.44c0-2.988-2.444-5.429-5.433-5.429
				c-2.988,0-5.433,2.441-5.433,5.429C96.808,190.574,99.249,193.015,102.241,193.015z"/>
		</g>
		<g>
			<path style="fill:#010002;" d="M87.166,127.529h27.915c2.502,0,4.549-2.036,4.549-4.549V97.463c0-2.509-2.044-4.549-4.549-4.549
				h-0.104v-6.406c0-6.088-4.957-11.041-11.051-11.041h-5.619c-6.088,0-11.041,4.957-11.041,11.041v6.406h-0.1
				c-2.512,0-4.549,2.04-4.549,4.549v25.517C82.618,125.492,84.654,127.529,87.166,127.529z M91.576,86.512
				c0-3.715,3.017-6.732,6.732-6.732h5.619c3.711,0,6.732,3.021,6.732,6.732v6.406H91.572v-6.406H91.576z M86.927,97.463
				c0-0.129,0.097-0.24,0.236-0.24h27.915c0.125,0,0.236,0.111,0.236,0.24v25.517c0,0.132-0.111,0.236-0.236,0.236H87.163
				c-0.14,0-0.236-0.104-0.236-0.236V97.463z"/>
		</g>
	</g>
</g>
<g>
</g>
<g>
</g>
<g>
</g>
<g>
</g>
<g>
</g>
<g>
</g>
<g>
</g>
<g>
</g>
<g>
</g>
<g>
</g>
<g>
</g>
<g>
</g>
<g>
</g>
<g>
</g>
<g>
</g>
</svg>
