<?xml version="1.0" encoding="iso-8859-1"?>
<!-- Generator: Adobe Illustrator 18.1.1, SVG Export Plug-In . SVG Version: 6.00 Build 0)  -->
<svg version="1.1" id="Capa_1" xmlns="http://www.w3.org/2000/svg" xmlns:xlink="http://www.w3.org/1999/xlink" x="0px" y="0px"
	 viewBox="0 0 198.462 198.462" style="enable-background:new 0 0 198.462 198.462;" xml:space="preserve">
<g>
	<g>
		<g>
			<path style="fill:#010002;" d="M65.061,198.462h100.705c4.631,0,8.407-3.633,8.407-8.095V31.666c0-4.459-3.776-8.092-8.407-8.092
				H65.061c-4.638,0-8.407,3.636-8.407,8.092v158.701C56.654,194.829,60.419,198.462,65.061,198.462z M62.345,41.948V31.662
				c0-1.328,1.224-2.405,2.713-2.405h100.705c1.5,0,2.716,1.077,2.716,2.405v10.286C168.479,41.948,62.345,41.948,62.345,41.948z
				 M62.345,172.351V47.638h106.134v124.709H62.345V172.351z M65.061,192.771c-1.489,0-2.713-1.081-2.713-2.405v-12.329h106.134
				v12.329c0,1.324-1.217,2.405-2.716,2.405H65.061z"/>
		</g>
		<g>
			<path style="fill:#010002;" d="M110.044,185.256c0-2.577,2.108-4.681,4.685-4.681c2.588,0,4.692,2.104,4.692,4.681
				c0,2.584-2.104,4.688-4.692,4.688C112.152,189.944,110.044,187.84,110.044,185.256z"/>
		</g>
		<g>
			<path style="fill:#010002;" d="M37.261,42.27l4.839-8.349c0.451-0.791,1.464-1.056,2.251-0.598c0.53,0.304,0.82,0.859,0.82,1.424
				c0,0.283-0.068,0.569-0.222,0.83l-7.652,13.192c-0.276,0.48-0.769,0.784-1.328,0.816c-0.558,0.036-1.077-0.215-1.421-0.655
				L24.62,35.739c-0.548-0.73-0.401-1.764,0.326-2.312c0.73-0.544,1.764-0.401,2.312,0.326l6.725,8.94
				c-1.052-12.991,1.929-23.305,8.979-30.628C56.307-1.786,79.015,0.04,79.971,0.122l-0.29,3.285
				c-0.215-0.021-22.117-1.761-34.357,10.962C38.989,20.947,36.309,30.345,37.261,42.27z"/>
		</g>
	</g>
</g>
<g>
</g>
<g>
</g>
<g>
</g>
<g>
</g>
<g>
</g>
<g>
</g>
<g>
</g>
<g>
</g>
<g>
</g>
<g>
</g>
<g>
</g>
<g>
</g>
<g>
</g>
<g>
</g>
<g>
</g>
</svg>
