<?xml version="1.0" encoding="iso-8859-1"?>
<!-- Generator: Adobe Illustrator 18.1.1, SVG Export Plug-In . SVG Version: 6.00 Build 0)  -->
<svg version="1.1" id="Capa_1" xmlns="http://www.w3.org/2000/svg" xmlns:xlink="http://www.w3.org/1999/xlink" x="0px" y="0px"
	 viewBox="0 0 202.205 202.205" style="enable-background:new 0 0 202.205 202.205;" xml:space="preserve">
<g>
	<g>
		<path style="fill:#010002;" d="M0.005,0v202.205H202.2V0H0.005z M195.307,155.616h-31.19V125.26h31.19V155.616z M62.596,67.461
			l10.436,10.447H52.153L62.596,67.461z M47.278,73.03V52.158l10.436,10.436L47.278,73.03z M118.09,113.228l-10.962-10.962
			l10.962-10.962V113.228z M102.264,97.398L89.666,84.79h25.188L102.264,97.398z M77.867,72.994l-10.407-10.4L77.867,52.18V72.994z
			 M97.386,102.266l-12.633,12.633V89.636L97.386,102.266z M102.264,107.144l11.223,11.223H91.041L102.264,107.144z M130.122,125.26
			h22.583l-11.284,11.284L130.122,125.26z M136.539,141.425l-11.556,11.556v-23.116L136.539,141.425z M157.224,130.485v21.874
			l-10.926-10.937L157.224,130.485z M195.307,118.367h-31.19V84.79h31.19V118.367z M157.224,118.367h-32.242V84.79h32.242V118.367z
			 M84.756,77.912V45.673h33.333v32.238H84.756z M62.596,57.716L50.535,45.67h24.1L62.596,57.716z M40.386,35.506l-12.68-12.676
			l12.68-12.68V35.506z M33.897,38.777H11.773l11.059-11.069L33.897,38.777z M6.895,45.67h33.491v32.238H6.895V45.67z M6.895,84.79
			h33.491v33.577H6.895V84.79z M47.278,84.79h30.588v33.577H47.278V84.79z M118.09,125.26v30.356H84.756V125.26H118.09z
			 M141.42,146.303l9.319,9.316h-18.632L141.42,146.303z M167.374,162.508H192.1l-12.358,12.368L167.374,162.508z M174.875,179.748
			l-10.758,10.758V169L174.875,179.748z M195.307,77.912h-31.19V45.673h31.19V77.912z M157.224,77.912h-32.242V45.673h32.242V77.912
			z M124.982,38.777V6.893h32.242v31.884C157.224,38.777,124.982,38.777,124.982,38.777z M118.09,38.777H84.756V6.893h33.333V38.777
			z M77.867,38.777H47.278V6.893h30.588V38.777z M22.828,17.962L11.769,6.893h22.114L22.828,17.962z M17.957,22.829L6.895,33.899
			V11.774L17.957,22.829z M6.895,125.26h33.491v30.356H6.895V125.26z M47.278,125.26h30.588v30.356H47.278V125.26z M77.867,162.508
			v32.8H47.278v-32.8H77.867z M84.756,162.508h33.333v32.8H84.756V162.508z M124.982,162.727l0.225-0.218h32.013v32.8h-32.242
			v-32.582H124.982z M179.742,184.626l10.701,10.683h-21.391L179.742,184.626z M184.62,179.748l10.686-10.686v21.376L184.62,179.748
			z M195.307,38.777h-31.19V6.893h31.19V38.777z M6.895,162.508h33.491v32.8H6.895V162.508z"/>
	</g>
</g>
<g>
</g>
<g>
</g>
<g>
</g>
<g>
</g>
<g>
</g>
<g>
</g>
<g>
</g>
<g>
</g>
<g>
</g>
<g>
</g>
<g>
</g>
<g>
</g>
<g>
</g>
<g>
</g>
<g>
</g>
</svg>
