<?xml version="1.0" encoding="iso-8859-1"?>
<!-- Generator: Adobe Illustrator 18.1.1, SVG Export Plug-In . SVG Version: 6.00 Build 0)  -->
<svg version="1.1" id="Capa_1" xmlns="http://www.w3.org/2000/svg" xmlns:xlink="http://www.w3.org/1999/xlink" x="0px" y="0px"
	 viewBox="0 0 201.611 201.611" style="enable-background:new 0 0 201.611 201.611;" xml:space="preserve">
<g>
	<g>
		<path style="fill:#010002;" d="M163.722,0h-6.861h-32.074h-6.875H85.839h-6.871H0v201.611h201.611V0H163.722z M156.861,6.875
			v31.787h-32.074V6.875H156.861z M124.787,155.161v-30.27h32.074v30.266h-32.074V155.161z M117.912,84.543v33.477H85.839V84.543
			C85.839,84.543,117.912,84.543,117.912,84.543z M85.839,77.683V45.537h32.074v32.145H85.839z M117.912,124.891v30.266H85.839
			v-30.266H117.912z M124.787,118.02V84.543h32.074v33.477H124.787z M124.787,77.683V45.537h32.074v32.145H124.787z M90.416,6.875
			h27.496v31.787H85.839V6.875H90.416z M47.141,6.875h31.823v31.787H47.141V6.875z M47.141,45.537h31.823v32.145H47.141V45.537z
			 M47.141,84.543h31.823v33.477H47.141V84.543z M47.141,124.891h31.823v30.266H47.141V124.891z M40.266,194.736H6.875v-32.704
			h33.394v32.704H40.266z M40.266,155.161H6.875v-30.27h33.394v30.27H40.266z M40.266,118.02H6.875V84.543h33.394v33.477H40.266z
			 M40.266,77.683H6.875V45.537h33.394v32.145H40.266z M40.266,38.662H6.875V6.875h33.394v31.787H40.266z M47.141,162.032h31.823
			v32.704H47.141V162.032z M194.736,194.736H85.839v-32.704h108.897C194.736,162.032,194.736,194.736,194.736,194.736z
			 M194.736,155.161h-31.014v-30.27h31.014C194.736,124.891,194.736,155.161,194.736,155.161z M194.736,118.02h-31.014V84.543
			h31.014C194.736,84.543,194.736,118.02,194.736,118.02z M194.736,77.683h-31.014V45.537h31.014
			C194.736,45.537,194.736,77.683,194.736,77.683z M194.736,38.662h-31.014V6.875h31.014
			C194.736,6.875,194.736,38.662,194.736,38.662z"/>
	</g>
</g>
<g>
</g>
<g>
</g>
<g>
</g>
<g>
</g>
<g>
</g>
<g>
</g>
<g>
</g>
<g>
</g>
<g>
</g>
<g>
</g>
<g>
</g>
<g>
</g>
<g>
</g>
<g>
</g>
<g>
</g>
</svg>
