<?xml version="1.0" encoding="iso-8859-1"?>
<!-- Generator: Adobe Illustrator 18.1.1, SVG Export Plug-In . SVG Version: 6.00 Build 0)  -->
<svg version="1.1" id="Capa_1" xmlns="http://www.w3.org/2000/svg" xmlns:xlink="http://www.w3.org/1999/xlink" x="0px" y="0px"
	 viewBox="0 0 190.542 190.542" style="enable-background:new 0 0 190.542 190.542;" xml:space="preserve">
<g>
	<g>
		<g>
			<path style="fill:#ededed;" d="M181.716,31.252H8.822C3.965,31.252,0,35.361,0,40.411v109.713c0,5.057,3.962,9.165,8.822,9.165
				H181.72c4.867,0,8.822-4.105,8.822-9.165V40.411C190.538,35.361,186.587,31.252,181.716,31.252z M20.02,153.091H8.822
				c-1.446,0-2.62-1.335-2.62-2.967V40.411c0-1.628,1.177-2.963,2.62-2.963H20.02V153.091z M162.09,153.091H26.222V37.451H162.09
				V153.091z M184.35,150.124c0,1.632-1.185,2.967-2.63,2.967h-13.428V37.451h13.428c1.446,0,2.63,1.335,2.63,2.963V150.124z"/>
		</g>
		<g>
			<path style="fill:#ededed;" d="M176.162,89.43c-2.806,0-5.103,2.29-5.103,5.1c0,2.817,2.298,5.1,5.103,5.1s5.1-2.283,5.1-5.1
				C181.258,91.717,178.968,89.43,176.162,89.43z"/>
		</g>
		<g>
			<path style="fill:#ededed;" d="M82.221,120.029h26.212c2.348,0,4.27-1.915,4.27-4.273V91.789c0-2.355-1.922-4.266-4.27-4.266
				h-0.093v-6.02c0-5.715-4.653-10.368-10.375-10.368h-5.279c-5.715,0-10.368,4.653-10.368,10.368v6.02h-0.093
				c-2.358,0-4.28,1.911-4.28,4.266v23.968C77.937,118.115,79.858,120.029,82.221,120.029z M86.358,81.503
				c0-3.489,2.834-6.324,6.324-6.324h5.279c3.489,0,6.324,2.834,6.324,6.324v6.02H86.358V81.503z M81.995,91.789
				c0-0.122,0.093-0.225,0.225-0.225h26.212c0.122,0,0.225,0.104,0.225,0.225v23.968c0,0.125-0.1,0.225-0.225,0.225H82.221
				c-0.132,0-0.225-0.1-0.225-0.225C81.995,115.756,81.995,91.789,81.995,91.789z"/>
		</g>
	</g>
</g>
<g>
</g>
<g>
</g>
<g>
</g>
<g>
</g>
<g>
</g>
<g>
</g>
<g>
</g>
<g>
</g>
<g>
</g>
<g>
</g>
<g>
</g>
<g>
</g>
<g>
</g>
<g>
</g>
<g>
</g>
</svg>
