<?xml version="1.0" encoding="iso-8859-1"?>
<!-- Generator: Adobe Illustrator 18.1.1, SVG Export Plug-In . SVG Version: 6.00 Build 0)  -->
<svg version="1.1" id="Capa_1" xmlns="http://www.w3.org/2000/svg" xmlns:xlink="http://www.w3.org/1999/xlink" x="0px" y="0px"
	 viewBox="0 0 197.865 197.865" style="enable-background:new 0 0 197.865 197.865;" xml:space="preserve">
<g>
	<g>
		<g>
			<path style="fill:#010002;" d="M189.795,56.483H31.577c-4.456,0-8.07,3.758-8.07,8.385V165.27c0,4.62,3.618,8.382,8.07,8.382
				h158.214c4.445,0,8.074-3.761,8.074-8.382V64.869C197.869,60.241,194.24,56.483,189.795,56.483z M41.827,167.979h-10.25
				c-1.324,0-2.398-1.22-2.398-2.709V64.869c0-1.492,1.074-2.713,2.398-2.713h10.25V167.979z M171.833,167.979H47.503V62.156
				h124.329V167.979z M192.193,165.27c0,1.489-1.074,2.709-2.398,2.709h-12.29V62.156h12.29c1.324,0,2.398,1.22,2.398,2.713V165.27z
				"/>
		</g>
		<g>
			<circle style="fill:#010002;" cx="184.702" cy="114.389" r="4.67"/>
		</g>
		<g>
			<path style="fill:#010002;" d="M42.142,37.143l-8.321,4.824c-0.787,0.451-1.049,1.46-0.598,2.244
				c0.308,0.53,0.852,0.82,1.424,0.82c0.283,0,0.565-0.068,0.82-0.222l13.149-7.627c0.48-0.276,0.784-0.773,0.82-1.324
				s-0.215-1.081-0.648-1.414l-13.149-9.903c-0.734-0.54-1.757-0.401-2.305,0.326c-0.544,0.727-0.401,1.754,0.326,2.301l8.908,6.714
				c-12.955-1.056-23.237,1.915-30.531,8.947c-13.814,13.303-12,35.942-11.914,36.898l3.278-0.29
				c-0.018-0.218-1.757-22.049,10.93-34.253C20.887,38.872,30.257,36.202,42.142,37.143z"/>
		</g>
	</g>
</g>
<g>
</g>
<g>
</g>
<g>
</g>
<g>
</g>
<g>
</g>
<g>
</g>
<g>
</g>
<g>
</g>
<g>
</g>
<g>
</g>
<g>
</g>
<g>
</g>
<g>
</g>
<g>
</g>
<g>
</g>
</svg>
