<?xml version="1.0" encoding="iso-8859-1"?>
<!-- Generator: Adobe Illustrator 18.1.1, SVG Export Plug-In . SVG Version: 6.00 Build 0)  -->
<svg version="1.1" id="Capa_1" xmlns="http://www.w3.org/2000/svg" xmlns:xlink="http://www.w3.org/1999/xlink" x="0px" y="0px"
	 viewBox="0 0 207.137 207.137" style="enable-background:new 0 0 207.137 207.137;" xml:space="preserve">
<g>
	<g>
		<g>
			<path style="fill:#010002;" d="M163.201,0H43.936c-5.494,0-9.964,4.305-9.964,9.588v187.961c0,5.29,4.47,9.588,9.964,9.588
				h119.265c5.494,0,9.964-4.298,9.964-9.588V9.588C173.164,4.305,168.695,0,163.201,0z M40.718,182.951h125.7v14.598
				c0,1.571-1.442,2.849-3.217,2.849H43.936c-1.775,0-3.217-1.274-3.217-2.849V182.951z M166.422,28.513v147.699H40.718V28.513
				H166.422z M43.936,6.739h119.265c1.775,0,3.217,1.274,3.217,2.849V21.77h-125.7V9.588C40.718,8.017,42.164,6.739,43.936,6.739z"
				/>
		</g>
		<g>
			<path style="fill:#010002;" d="M104.372,197.044c3.06,0,5.547-2.484,5.547-5.547c0-3.053-2.484-5.54-5.547-5.54
				c-3.053,0-5.54,2.487-5.54,5.54C98.832,194.561,101.319,197.044,104.372,197.044z"/>
		</g>
	</g>
</g>
<g>
</g>
<g>
</g>
<g>
</g>
<g>
</g>
<g>
</g>
<g>
</g>
<g>
</g>
<g>
</g>
<g>
</g>
<g>
</g>
<g>
</g>
<g>
</g>
<g>
</g>
<g>
</g>
<g>
</g>
</svg>
