<?xml version="1.0" encoding="iso-8859-1"?>
<!-- Generator: Adobe Illustrator 18.1.1, SVG Export Plug-In . SVG Version: 6.00 Build 0)  -->
<svg version="1.1" id="Capa_1" xmlns="http://www.w3.org/2000/svg" xmlns:xlink="http://www.w3.org/1999/xlink" x="0px" y="0px"
	 viewBox="0 0 206.285 206.285" style="enable-background:new 0 0 206.285 206.285;" xml:space="preserve">
<g>
	<path style="fill:#010002;" d="M175.922,102.595c-1.414-38.698-32.553-69.841-71.255-71.251V0.004h-5.451v31.34
		c-38.698,1.414-69.838,32.553-71.255,71.251H0v5.443h27.962c1.417,38.702,32.557,69.845,71.255,71.258v26.985h5.451v-26.985
		c38.702-1.417,69.841-32.557,71.255-71.258h30.363v-5.443H175.922z M170.471,108.038c-1.414,35.667-30.145,64.398-65.804,65.808
		v-28.684h-5.451v28.684c-35.656-1.41-64.394-30.152-65.801-65.808h27.707v-5.443H33.416c1.41-35.653,30.145-64.387,65.801-65.801
		V61.12h5.451V36.794c35.66,1.414,64.394,30.148,65.804,65.801h-25.302v5.443H170.471z"/>
</g>
<g>
</g>
<g>
</g>
<g>
</g>
<g>
</g>
<g>
</g>
<g>
</g>
<g>
</g>
<g>
</g>
<g>
</g>
<g>
</g>
<g>
</g>
<g>
</g>
<g>
</g>
<g>
</g>
<g>
</g>
</svg>
