<?xml version="1.0" encoding="iso-8859-1"?>
<!-- Generator: Adobe Illustrator 18.1.1, SVG Export Plug-In . SVG Version: 6.00 Build 0)  -->
<svg version="1.1" id="Capa_1" xmlns="http://www.w3.org/2000/svg" xmlns:xlink="http://www.w3.org/1999/xlink" x="0px" y="0px"
	 viewBox="0 0 201.611 201.611" style="enable-background:new 0 0 201.611 201.611;" xml:space="preserve">
<g>
	<g>
		<g>
			<path style="fill:#010002;" d="M0,27.536v130.349h201.611V27.536H0z M195.91,152.187H5.701V33.248H195.91
				C195.91,33.248,195.91,152.187,195.91,152.187z"/>
		</g>
		<g>
			<polygon style="fill:#010002;" points="62.78,174.075 99.249,174.075 136.533,174.075 136.533,164.262 62.78,164.262 			"/>
		</g>
		<g>
			<path style="fill:#010002;" d="M77.407,125.772c3.117,0,6.528-1.746,9.112-4.688c2.641-2.985,3.84-6.517,3.514-9.491V76.101
				l34.815-1.292v23.925c-3.504-1.299-8.425,0.272-11.821,4.112c-4.212,4.767-4.778,10.915-1.299,13.983
				c1.238,1.088,2.824,1.653,4.61,1.653c3.114,0,6.528-1.746,9.112-4.678c2.473-2.817,3.665-6.098,3.525-8.954h0.064l-0.007-38.938
				c0-1.006-0.487-1.961-1.274-2.537c-0.734-0.537-1.682-0.752-2.577-0.548l-36.93,2.026l-0.437,0.075
				c-1.331,0.419-2.212,1.628-2.212,3.021c0,6.488,0.007,19.591,0.029,26.101l0.007,2.967c0,2.967,0,5.952,0.007,8.929
				c-3.486-1.145-8.239,0.437-11.549,4.191c-4.212,4.771-4.778,10.919-1.303,13.986C74.032,125.203,75.621,125.772,77.407,125.772z
				 M121.881,110.651c-3.142,3.561-6.417,3.98-7.419,3.089c-1.052-0.93-0.744-4.491,2.129-7.745c2.262-2.57,4.724-3.471,6.156-3.471
				c0.558,0,0.984,0.122,1.274,0.379C125.067,103.83,124.752,107.391,121.881,110.651z M89.178,68.381l36.264-1.99v4.817
				l-36.264,1.346C89.178,71.033,89.178,69.584,89.178,68.381z M77.647,113.263c2.269-2.588,4.763-3.497,6.191-3.497
				c0.558,0,0.995,0.129,1.281,0.379c1.052,0.93,0.737,4.52-2.158,7.802c-3.16,3.59-6.463,4.005-7.476,3.114
				C74.429,120.124,74.748,116.538,77.647,113.263z"/>
		</g>
	</g>
</g>
<g>
</g>
<g>
</g>
<g>
</g>
<g>
</g>
<g>
</g>
<g>
</g>
<g>
</g>
<g>
</g>
<g>
</g>
<g>
</g>
<g>
</g>
<g>
</g>
<g>
</g>
<g>
</g>
<g>
</g>
</svg>
