<?xml version="1.0" encoding="iso-8859-1"?>
<!-- Generator: Adobe Illustrator 18.1.1, SVG Export Plug-In . SVG Version: 6.00 Build 0)  -->
<svg version="1.1" id="Capa_1" xmlns="http://www.w3.org/2000/svg" xmlns:xlink="http://www.w3.org/1999/xlink" x="0px" y="0px"
	 viewBox="0 0 204.94 204.94" style="enable-background:new 0 0 204.94 204.94;" xml:space="preserve">
<g>
	<g>
		<path style="fill:#010002;" d="M138.871,144.657c-2.079-2.069-4.971-3.21-8.138-3.21c-3.346,0-6.567,1.306-8.843,3.586
			l-14.408,14.398l-3.89-2.154c-8.561-4.749-20.285-11.259-32.671-23.656c-12.433-12.419-18.943-24.172-23.71-32.768l-2.122-3.783
			L59.51,82.647c4.771-4.785,4.935-12.404,0.361-16.989L33.223,39.013c-2.072-2.072-4.964-3.214-8.131-3.214
			c-3.343,0-6.56,1.306-8.843,3.59l-6.546,6.582l-0.608,1.002c-2.437,3.124-4.431,6.635-5.919,10.465
			c-1.385,3.647-2.248,7.111-2.648,10.586c-3.436,28.556,9.734,54.778,45.462,90.498c42.334,42.327,77.715,45.623,87.553,45.623
			c1.689,0,2.706-0.097,2.992-0.125c3.636-0.44,7.111-1.317,10.622-2.67c3.786-1.482,7.29-3.461,10.404-5.891l1.489-1.174
			l6.123-6.009c4.763-4.767,4.917-12.379,0.344-16.953L138.871,144.657z M161.858,184.98l-4.713,4.663
			c-2.23,2.144-6.063,5.161-11.678,7.355c-3.167,1.22-6.267,2.001-9.47,2.384c-0.175,0.018-0.898,0.068-2.065,0.068
			c-9.477,0-43.594-3.192-84.643-44.224C8.876,114.799,2.42,91.358,5.165,68.575c0.358-3.11,1.131-6.206,2.355-9.455
			c2.226-5.669,5.243-9.502,7.376-11.71l4.642-4.71c1.432-1.432,3.461-2.258,5.554-2.258c1.904,0,3.618,0.669,4.828,1.882
			l26.655,26.637c2.749,2.759,2.591,7.423-0.365,10.386L39.572,95.974l-0.336,0.34l0.923,1.564c0.931,1.568,1.911,3.332,2.97,5.254
			c4.903,8.829,11.613,20.922,24.486,33.795c12.902,12.898,24.948,19.569,33.752,24.451c2.001,1.106,3.736,2.076,5.282,2.999
			l1.568,0.934l16.967-16.975c1.428-1.421,3.446-2.24,5.544-2.24c1.908,0,3.629,0.666,4.839,1.882l26.641,26.623
			C164.957,177.379,164.796,182.028,161.858,184.98z"/>
		<path style="fill:#010002;" d="M86.201,90.978l-0.469,1.002l1.081,0.279c6.521,1.643,12.483,5.01,17.218,9.752
			c4.52,4.517,7.823,10.175,9.548,16.337l0.183,0.655l1.041,0.032c0.265,0.007,0.533,0.018,0.805,0.039
			c0.644,0.057,1.278,0.122,1.911,0.2c0.565,0.072,1.127,0.136,1.693,0.186l1.278,0.115l-0.297-1.253
			c-1.879-7.931-5.898-15.142-11.613-20.861c-5.418-5.418-12.233-9.323-19.709-11.281l-0.87-0.229l-0.251,0.859
			C87.307,88.291,86.791,89.693,86.201,90.978z"/>
		<path style="fill:#010002;" d="M88.699,65.118l0.082,0.669l0.673,0.136c12.751,2.355,24.25,8.371,33.269,17.386
			c10.357,10.361,16.674,23.57,18.281,38.222l0.075,0.691l2.015,0.297c0.648,0.05,1.278,0.05,1.922,0.05
			c0.48-0.011,0.956,0,1.428,0.018l1.052,0.039l-0.1-1.049c-1.618-16.477-8.579-31.272-20.124-42.821
			C116.94,68.424,103.741,61.685,89.1,59.266l-1.26-0.211l0.197,1.26C88.294,61.922,88.516,63.525,88.699,65.118z"/>
		<path style="fill:#010002;" d="M147.592,58.439c-17.153-17.15-40.001-27.36-64.344-28.752l-1.152-0.075l0.193,1.138
			c0.251,1.539,0.548,3.106,0.855,4.71l0.14,0.687l0.701,0.043c22.343,1.528,43.315,11.044,59.058,26.791
			c15.5,15.5,24.977,36.232,26.673,58.371l0.068,0.913l0.909-0.057c1.013-0.061,2.015-0.143,3.024-0.229l2.512-0.204l-0.075-0.923
			C174.344,97.209,164.198,75.045,147.592,58.439z"/>
		<path style="fill:#010002;" d="M204.865,118.138c-2.43-30.22-15.561-58.647-36.937-80.034
			c-22.822-22.819-53.21-36.06-85.545-37.27l-0.895-0.039l-0.068,0.891c-0.068,1.024-0.104,2.044-0.143,3.071l-0.107,2.498
			l0.923,0.036c30.739,1.138,59.602,13.707,81.272,35.377c20.306,20.306,32.768,47.295,35.091,76.011l0.075,0.941l0.945-0.093
			c1.367-0.143,2.759-0.251,4.159-0.358l1.306-0.104L204.865,118.138z"/>
	</g>
</g>
<g>
</g>
<g>
</g>
<g>
</g>
<g>
</g>
<g>
</g>
<g>
</g>
<g>
</g>
<g>
</g>
<g>
</g>
<g>
</g>
<g>
</g>
<g>
</g>
<g>
</g>
<g>
</g>
<g>
</g>
</svg>
