<?xml version="1.0" encoding="iso-8859-1"?>
<!-- Generator: Adobe Illustrator 18.1.1, SVG Export Plug-In . SVG Version: 6.00 Build 0)  -->
<svg version="1.1" id="Capa_1" xmlns="http://www.w3.org/2000/svg" xmlns:xlink="http://www.w3.org/1999/xlink" x="0px" y="0px"
	 viewBox="0 0 201.611 201.611" style="enable-background:new 0 0 201.611 201.611;" xml:space="preserve">
<g>
	<g>
		<g>
			<path style="fill:#010002;" d="M0,27.539v130.345h201.611V27.539H0z M195.903,152.183H5.708V33.248h190.194
				C195.903,33.248,195.903,152.183,195.903,152.183z"/>
		</g>
		<g>
			<polygon style="fill:#010002;" points="62.78,174.072 99.252,174.072 136.526,174.072 136.526,164.262 62.78,164.262 			"/>
		</g>
		<g>
			<path style="fill:#010002;" d="M87.632,121.549c0.361,0.168,0.752,0.251,1.142,0.251c0.612,0,1.217-0.215,1.711-0.616
				l31.909-26.33c0.623-0.501,0.977-1.267,0.977-2.076c0-0.798-0.358-1.564-0.977-2.065l-31.909-26.33
				c-0.809-0.662-1.915-0.798-2.852-0.354c-0.941,0.437-1.546,1.385-1.546,2.426v52.652
				C86.086,120.153,86.691,121.101,87.632,121.549z M91.461,72.16l25.002,20.621l-25.002,20.632V72.16z"/>
		</g>
	</g>
</g>
<g>
</g>
<g>
</g>
<g>
</g>
<g>
</g>
<g>
</g>
<g>
</g>
<g>
</g>
<g>
</g>
<g>
</g>
<g>
</g>
<g>
</g>
<g>
</g>
<g>
</g>
<g>
</g>
<g>
</g>
</svg>
