<?xml version="1.0" encoding="iso-8859-1"?>
<!-- Generator: Adobe Illustrator 18.1.1, SVG Export Plug-In . SVG Version: 6.00 Build 0)  -->
<svg version="1.1" id="Capa_1" xmlns="http://www.w3.org/2000/svg" xmlns:xlink="http://www.w3.org/1999/xlink" x="0px" y="0px"
	 viewBox="0 0 204.751 204.751" style="enable-background:new 0 0 204.751 204.751;" xml:space="preserve">
<g>
	<g>
		<path style="fill:#010002;" d="M200.711,164.64l-32.31-32.328c-2.516-2.512-6.027-3.894-9.874-3.894
			c-4.051,0-7.959,1.578-10.722,4.341l-17.461,17.468l-4.717-2.616c-10.386-5.755-24.601-13.646-39.618-28.684
			c-15.078-15.06-22.973-29.314-28.749-39.736l-2.584-4.585l17.497-17.49c5.787-5.805,5.984-15.042,0.437-20.6L40.292,4.207
			c-2.52-2.512-6.023-3.901-9.863-3.901c-4.058,0-7.963,1.585-10.726,4.352l-7.934,7.981l-0.744,1.217
			c-2.949,3.79-5.368,8.049-7.179,12.687c-1.678,4.423-2.727,8.625-3.207,12.837C-3.527,74.013,12.442,105.8,55.76,149.115
			c51.349,51.339,94.253,55.329,106.185,55.329c2.036,0,3.275-0.107,3.625-0.143c4.402-0.537,8.625-1.596,12.88-3.246
			c4.592-1.789,8.836-4.191,12.608-7.143l1.807-1.421l7.426-7.287C206.072,179.417,206.254,170.195,200.711,164.64z
			 M196.277,181.207l-5.723,5.655c-2.706,2.595-7.355,6.252-14.154,8.915c-3.84,1.478-7.601,2.426-11.481,2.885
			c-0.218,0.025-1.092,0.086-2.512,0.086c-11.492,0-52.86-3.869-102.634-53.633C10.767,96.112,2.933,67.675,6.268,40.053
			c0.433-3.772,1.364-7.526,2.856-11.463c2.691-6.879,6.352-11.524,8.94-14.204l5.63-5.712c1.743-1.736,4.198-2.738,6.743-2.738
			c2.301,0,4.388,0.809,5.851,2.283l32.317,32.303c3.339,3.346,3.146,8.997-0.437,12.594L47.987,73.279l-0.408,0.415l1.113,1.897
			c1.131,1.9,2.319,4.041,3.604,6.37c5.944,10.704,14.079,25.367,29.697,40.981c15.643,15.64,30.245,23.731,40.924,29.644
			c2.426,1.346,4.534,2.516,6.417,3.64l1.893,1.127l20.582-20.582c1.725-1.725,4.173-2.72,6.714-2.72
			c2.319,0,4.406,0.812,5.876,2.287l32.296,32.285C200.031,171.984,199.837,177.628,196.277,181.207z"/>
		<path style="fill:#010002;" d="M143.259,85.018h-20.9v-0.14l3.718-3.436c9.806-9.448,16.037-16.388,16.037-24.977
			c0-6.657-4.227-13.528-14.244-13.528c-5.372,0-9.953,2.008-13.17,4.728l2.004,4.434c2.147-1.789,5.655-3.933,9.874-3.933
			c6.947,0,9.23,4.366,9.23,9.087c-0.072,7.018-5.436,13.031-17.318,24.336l-4.939,4.796v3.865h29.708
			C143.259,90.25,143.259,85.018,143.259,85.018z"/>
		<path style="fill:#010002;" d="M169.757,90.247h5.937V77.577h6.514v-4.935h-6.514V43.725h-6.796L148.141,73.43v4.151h21.616
			C169.757,77.581,169.757,90.247,169.757,90.247z M154.508,72.642v-0.147l11.384-15.819c1.288-2.144,2.437-4.148,3.865-6.871h0.215
			c-0.14,2.437-0.215,4.867-0.215,7.304v15.532H154.508z"/>
	</g>
</g>
<g>
</g>
<g>
</g>
<g>
</g>
<g>
</g>
<g>
</g>
<g>
</g>
<g>
</g>
<g>
</g>
<g>
</g>
<g>
</g>
<g>
</g>
<g>
</g>
<g>
</g>
<g>
</g>
<g>
</g>
</svg>
