<?xml version="1.0" encoding="iso-8859-1"?>
<!-- Generator: Adobe Illustrator 18.1.1, SVG Export Plug-In . SVG Version: 6.00 Build 0)  -->
<svg version="1.1" id="Capa_1" xmlns="http://www.w3.org/2000/svg" xmlns:xlink="http://www.w3.org/1999/xlink" x="0px" y="0px"
	 viewBox="0 0 204.116 204.116" style="enable-background:new 0 0 204.116 204.116;" xml:space="preserve">
<g>
	<g>
		<path style="fill:#010002;" d="M198.507,165.071l-31.691-31.705c-2.466-2.462-5.909-3.819-9.681-3.819
			c-3.973,0-7.813,1.553-10.518,4.259l-17.125,17.132l-4.631-2.57c-10.185-5.647-24.129-13.385-38.856-28.133
			c-14.788-14.77-22.532-28.752-28.198-38.974l-2.534-4.499l17.161-17.153c5.676-5.694,5.869-14.756,0.429-20.206L41.17,7.712
			c-2.469-2.462-5.905-3.826-9.67-3.826c-3.98,0-7.809,1.557-10.518,4.27l-7.795,7.827l-0.73,1.195
			c-2.892,3.715-5.264,7.895-7.043,12.444c-1.646,4.338-2.677,8.46-3.142,12.594c-4.087,33.967,11.574,65.146,54.062,107.63
			c50.365,50.354,92.449,54.27,104.148,54.27c2.001,0,3.21-0.107,3.554-0.143c4.323-0.523,8.46-1.568,12.633-3.185
			c4.506-1.754,8.664-4.109,12.369-7.007l1.772-1.396l7.283-7.147C203.765,179.569,203.951,170.522,198.507,165.071z
			 M194.163,181.322l-5.615,5.547c-2.648,2.541-7.215,6.134-13.882,8.743c-3.769,1.449-7.455,2.376-11.259,2.831
			c-0.215,0.021-1.07,0.082-2.462,0.082c-11.273,0-51.847-3.797-100.669-52.606C12.207,97.857,4.523,69.967,7.794,42.871
			c0.422-3.697,1.338-7.38,2.799-11.245c2.641-6.746,6.231-11.302,8.768-13.932l5.522-5.601c1.711-1.704,4.116-2.688,6.614-2.688
			c2.258,0,4.305,0.795,5.74,2.24l31.694,31.687c3.275,3.282,3.089,8.825-0.429,12.354L48.707,75.464l-0.401,0.404l1.099,1.857
			c1.109,1.865,2.276,3.962,3.532,6.249c5.83,10.5,13.811,24.88,29.128,40.194c15.343,15.343,29.669,23.277,40.137,29.078
			c2.38,1.321,4.449,2.466,6.295,3.568l1.861,1.109l20.188-20.192c1.693-1.693,4.094-2.663,6.589-2.663
			c2.273,0,4.32,0.795,5.758,2.24l31.68,31.669C197.845,172.275,197.656,177.815,194.163,181.322z"/>
		<path style="fill:#010002;" d="M129.851,89.435c1.292,1.292,2.591,1.954,3.858,1.968c0.981,0.011,1.908-0.372,2.623-1.088
			c0.175-0.183,0.301-0.344,0.397-0.469l40.112-40.105l12.118,12.111c2.634,2.634,4.373,1.471,4.996,0.841
			c1.371-1.371,1.406-4.23,1.371-4.874l4.907-51.915c0.014-0.261,0.165-2.645-1.41-4.345C198.171,0.845,196.968,0,194.928,0
			c-5.604,0.004-50.405,6.292-52.079,6.546c-0.537,0-3.293,0.064-4.703,1.474c-0.88,0.88-1.897,2.831,1.206,5.927l11.109,11.109
			l-39.704,39.7c-0.966,0.97-2.108,3.475,0.465,6.052L129.851,89.435z M113.016,67l41.948-41.944l-13.353-13.356
			c-0.938-0.927-1.117-1.417-1.177-1.457c0.322-0.268,1.474-0.515,2.641-0.533c0.465-0.064,46.471-6.521,51.861-6.521
			c0.716,0,1.22,0.172,1.553,0.523c0.54,0.576,0.605,1.6,0.58,1.922l-4.903,52.09c0.025,0.862-0.115,1.922-0.308,2.452
			c-0.15-0.1-0.369-0.276-0.655-0.558l-14.358-14.366l-42.463,42.452l-0.197,0.19l-0.1,0.172c-0.161,0.165-0.286,0.161-0.344,0.161
			c-0.136,0-0.684-0.079-1.646-1.034L113.47,68.56C112.808,67.909,112.661,67.379,113.016,67z"/>
	</g>
</g>
<g>
</g>
<g>
</g>
<g>
</g>
<g>
</g>
<g>
</g>
<g>
</g>
<g>
</g>
<g>
</g>
<g>
</g>
<g>
</g>
<g>
</g>
<g>
</g>
<g>
</g>
<g>
</g>
<g>
</g>
</svg>
