<?xml version="1.0" encoding="iso-8859-1"?>
<!-- Generator: Adobe Illustrator 18.1.1, SVG Export Plug-In . SVG Version: 6.00 Build 0)  -->
<svg version="1.1" id="Capa_1" xmlns="http://www.w3.org/2000/svg" xmlns:xlink="http://www.w3.org/1999/xlink" x="0px" y="0px"
	 viewBox="0 0 197.585 197.585" style="enable-background:new 0 0 197.585 197.585;" xml:space="preserve">
<g>
	<g>
		<path style="fill:#010002;" d="M121.602,100.208V22.822C121.602,10.236,111.367,0,98.791,0C86.204,0,75.975,10.236,75.975,22.822
			v77.382c-17.408,8.65-28.563,26.509-28.563,45.999c0,28.334,23.048,51.382,51.382,51.382c28.33,0,51.378-23.048,51.378-51.382
			C150.169,126.716,139.013,108.858,121.602,100.208z M98.791,5.522c9.545,0,17.3,7.759,17.3,17.304v8.625H81.487v-8.625
			C81.49,13.278,89.249,5.522,98.791,5.522z M98.791,192.077c-25.295,0-45.87-20.582-45.87-45.874
			c0-17.93,10.583-34.314,26.949-41.744l1.621-0.73V36.966h34.604v12.669h-20.36v5.511h20.36v9.656h-20.36v5.511h20.36v10.565
			h-20.36v5.519h20.36v17.34l1.61,0.73c16.373,7.43,26.945,23.814,26.945,41.744C144.65,171.495,124.079,192.077,98.791,192.077z"/>
	</g>
</g>
<g>
</g>
<g>
</g>
<g>
</g>
<g>
</g>
<g>
</g>
<g>
</g>
<g>
</g>
<g>
</g>
<g>
</g>
<g>
</g>
<g>
</g>
<g>
</g>
<g>
</g>
<g>
</g>
<g>
</g>
</svg>
