<?xml version="1.0" encoding="iso-8859-1"?>
<!-- Generator: Adobe Illustrator 18.1.1, SVG Export Plug-In . SVG Version: 6.00 Build 0)  -->
<svg version="1.1" id="Capa_1" xmlns="http://www.w3.org/2000/svg" xmlns:xlink="http://www.w3.org/1999/xlink" x="0px" y="0px"
	 viewBox="0 0 199.045 199.045" style="enable-background:new 0 0 199.045 199.045;" xml:space="preserve">
<g>
	<g>
		<path style="fill:#010002;" d="M185.059,6.12l-0.054-0.519H14.058L0.072,134.565L0,135.205h0.322v58.239h198.404v-58.239h0.319
			L185.059,6.12z M179.948,11.241l12.827,118.32h-54.248v2.827c0,21.495-17.493,38.984-38.999,38.984
			c-21.502,0-38.995-17.49-38.995-38.984v-2.827H6.281l12.834-118.32H179.948z M144.074,135.205h49.016v52.602H5.962v-52.602h49.016
			c1.467,23.488,20.933,41.812,44.546,41.812C123.145,177.014,142.61,158.693,144.074,135.205z"/>
		<polygon style="fill:#010002;" points="151.625,48.375 147.799,44.546 89.239,103.107 65.271,79.132 61.442,82.954 
			89.239,110.755 		"/>
	</g>
</g>
<g>
</g>
<g>
</g>
<g>
</g>
<g>
</g>
<g>
</g>
<g>
</g>
<g>
</g>
<g>
</g>
<g>
</g>
<g>
</g>
<g>
</g>
<g>
</g>
<g>
</g>
<g>
</g>
<g>
</g>
</svg>
