<?xml version="1.0" encoding="iso-8859-1"?>
<!-- Generator: Adobe Illustrator 18.1.1, SVG Export Plug-In . SVG Version: 6.00 Build 0)  -->
<svg version="1.1" id="Capa_1" xmlns="http://www.w3.org/2000/svg" xmlns:xlink="http://www.w3.org/1999/xlink" x="0px" y="0px"
	 viewBox="0 0 206.372 206.372" style="enable-background:new 0 0 206.372 206.372;" xml:space="preserve">
<g>
	<g>
		<path style="fill:#010002;" d="M21.77,136.91c-0.179,0.179-0.379,0.333-0.576,0.476l-0.415,0.29l-0.297,0.401
			c-0.179,0.254-0.304,0.422-0.465,0.587c-3.801,3.797-5.887,8.854-5.887,14.244c0,5.372,2.086,10.429,5.887,14.226
			c3.801,3.801,8.854,5.887,14.237,5.887s10.44-2.097,14.237-5.902c0.179-0.172,0.351-0.297,0.54-0.422l0.433-0.286l0.297-0.433
			c0.154-0.208,0.304-0.412,0.487-0.594l19.852-19.859l-28.473-28.463L21.77,136.91z M61.86,145.52l-0.322,0.322l-15.414,15.425
			c-0.279,0.279-0.526,0.576-0.766,0.884l-0.089,0.086c-0.347,0.254-0.637,0.515-0.895,0.777c-2.698,2.698-6.295,4.184-10.125,4.184
			c-3.833,0-7.433-1.485-10.125-4.177c-2.698-2.698-4.184-6.288-4.184-10.11c0-3.833,1.485-7.433,4.184-10.135
			c0.29-0.286,0.54-0.583,0.773-0.88c0.394-0.326,0.691-0.583,0.973-0.873l15.743-15.736l0.326,0.326L61.86,145.52z"/>
		<path style="fill:#010002;" d="M44.385,114.295l28.448,28.473l21.788-21.777l-28.47-28.455L44.385,114.295z M86.39,120.991
			l-0.326,0.326l-13.231,13.235l-0.329-0.333l-19.902-19.923l0.329-0.322l13.22-13.22l0.322,0.329L86.39,120.991z"/>
		<path style="fill:#010002;" d="M186.361,69.466c-3.797-3.797-8.85-5.891-14.24-5.891c-5.383,0-10.429,2.09-14.226,5.891
			l-65.432,65.443l28.473,28.463l62.966-62.966c0.2-0.193,0.458-0.387,0.812-0.591l0.666-0.39l0.376-0.662
			c0.197-0.336,0.383-0.598,0.601-0.823c3.808-3.801,5.905-8.854,5.905-14.237C192.263,78.324,190.166,73.27,186.361,69.466z
			 M182.271,93.806c-0.376,0.376-0.734,0.809-1.095,1.324l-0.122,0.122c-0.508,0.34-0.927,0.691-1.285,1.07l-58.833,58.829
			l-0.326-0.336l-19.927-19.906l0.329-0.326l61.002-61.005c2.695-2.695,6.288-4.177,10.11-4.177c3.826,0,7.426,1.482,10.128,4.173
			c2.698,2.709,4.184,6.306,4.184,10.132C186.437,87.539,184.955,91.125,182.271,93.806z"/>
		<path style="fill:#010002;" d="M196.361,59.474c-6.467-6.453-15.074-10.006-24.232-10.006c-9.169,0-17.773,3.554-24.225,10.006
			l-50.526,50.544l-0.329-0.333L77.142,89.78l0.329-0.329l22.225-22.082c4.202-2.512,20.804-8.485,32.94-8.485
			c3.343,0,6.063,0.483,7.87,1.392l0.49,0.247l1.188,0.082c1.421,0,2.362-0.551,2.899-1.009c0.859-0.744,1.331-1.822,1.331-3.042
			c0-9.377-44.503-50.909-51.242-50.909c-1.138,0-2.158,0.505-2.799,1.381c-0.501,0.676-0.97,1.865-0.404,3.661
			c2.967,9.319-2.806,37.016-5.991,41.414l-0.752,1.367L61.413,77.286l-7.53-7.53c-0.172-0.172-0.372-0.286-0.612-0.415
			l-0.712-0.412l3.149-3.153l-3.779-3.769l-10.59,10.586l3.779,3.779l3.139-3.139l0.387,0.68c0.14,0.236,0.268,0.465,0.447,0.651
			l7.523,7.523l-8.593,8.604l-7.541-7.541c-0.175-0.179-0.415-0.308-0.662-0.444l-0.659-0.365l3.146-3.16l-3.772-3.779L27.94,85.993
			l3.772,3.779l3.157-3.157l0.361,0.659c0.14,0.251,0.272,0.494,0.455,0.669l7.537,7.537l-8.829,8.836l-7.533-7.533
			c-0.204-0.208-0.451-0.336-0.744-0.49L25.567,96l0.387-0.472l2.52-2.502l-3.779-3.779l-10.59,10.59l3.779,3.769l3.375-3.378
			l0.293,0.551c0.175,0.344,0.311,0.594,0.508,0.78l7.541,7.544l-0.329,0.326l-17.49,17.493c-0.283,0.286-0.54,0.576-0.791,0.898
			c-0.365,0.308-0.666,0.558-0.991,0.863C3.557,135.135,0,143.738,0,152.9c0.004,9.173,3.565,17.762,10.028,24.225
			c6.453,6.463,15.056,10.017,24.225,10.017c9.155,0,17.758-3.554,24.222-10.017c0.276-0.279,0.533-0.576,0.777-0.88l0.136-0.125
			c0.283-0.233,0.573-0.469,0.845-0.748l29.472-29.468l0.322,0.333l19.927,19.906l-0.329,0.326l-6.993,6.982l-0.243-0.054
			c-0.197-0.039-0.401-0.089-0.587-0.147c-1.421-0.369-3.013-0.773-4.488-0.773c-1.55,0-2.781,0.451-3.675,1.342l-2.19,2.197
			c-4.355,4.384-0.694,13.399,2.752,16.846l3.128,3.114c2.305,2.305,7.093,4.753,11.442,4.753c2.813,0,4.495-1.092,5.408-2.001
			l2.19-2.194c2.119-2.115,1.267-5.443,0.58-8.128c-0.054-0.218-0.104-0.404-0.154-0.587l-0.068-0.251l0.19-0.197l76.97-76.974
			c0.369-0.372,0.709-0.784,1.041-1.267l0.118-0.118c0.519-0.365,0.938-0.705,1.313-1.084
			C209.71,94.583,209.71,72.841,196.361,59.474z M192.252,103.82c-0.225,0.208-0.472,0.387-0.863,0.633l-0.633,0.376l-0.376,0.633
			c-0.225,0.369-0.419,0.637-0.608,0.841l-79.107,79.089l0.032,1.253c0.036,0.945,0.301,1.983,0.605,3.167l0.082,0.326
			c0.19,0.748,0.447,1.772,0.505,2.412l0.018,0.218l-1.829,1.847c-0.161,0.115-0.501,0.286-1.306,0.286
			c-2.459,0-5.898-1.593-7.329-3.035l-3.128-3.103c-2.212-2.222-3.672-7.38-2.792-8.582l1.879-1.89l0.211,0.018
			c0.752,0.075,1.861,0.361,2.756,0.587c1.22,0.315,2.237,0.565,3.171,0.601l1.253,0.029l13.378-13.381l-28.466-28.459
			l-33.577,33.573c-0.147,0.143-0.301,0.268-0.465,0.383l-0.512,0.372l-0.419,0.558c-0.111,0.15-0.225,0.297-0.354,0.429
			c-5.372,5.383-12.519,8.332-20.12,8.332c-7.612,0-14.763-2.949-20.131-8.321c-5.354-5.354-8.31-12.49-8.314-20.092
			c-0.011-7.605,2.931-14.731,8.278-20.077c0.218-0.208,0.422-0.369,0.641-0.523l0.394-0.279l0.29-0.404
			c0.154-0.215,0.297-0.412,0.49-0.594l74.172-74.179l0.769-1.542c3.507-5.368,8.579-27.514,7.627-40.799L98.4,13.514l0.809,0.608
			c9.602,7.226,32.21,28.631,39.335,38.666l0.644,0.913l-1.106-0.193c-1.653-0.29-3.486-0.433-5.44-0.433
			c-13.184,0-31.265,6.277-36.322,9.559l-27.41,27.142l28.473,28.47l54.645-54.642c5.361-5.368,12.508-8.321,20.11-8.321
			c7.594,0,14.741,2.953,20.113,8.321c5.368,5.365,8.321,12.508,8.321,20.117C200.566,91.315,197.617,98.458,192.252,103.82z"/>
	</g>
</g>
<g>
</g>
<g>
</g>
<g>
</g>
<g>
</g>
<g>
</g>
<g>
</g>
<g>
</g>
<g>
</g>
<g>
</g>
<g>
</g>
<g>
</g>
<g>
</g>
<g>
</g>
<g>
</g>
<g>
</g>
</svg>
