<?xml version="1.0" encoding="iso-8859-1"?>
<!-- Generator: Adobe Illustrator 18.1.1, SVG Export Plug-In . SVG Version: 6.00 Build 0)  -->
<svg version="1.1" id="Capa_1" xmlns="http://www.w3.org/2000/svg" xmlns:xlink="http://www.w3.org/1999/xlink" x="0px" y="0px"
	 viewBox="0 0 204.781 204.781" style="enable-background:new 0 0 204.781 204.781;" xml:space="preserve">
<g>
	<g>
		<path style="fill:#010002;" d="M34.56,148.148c-6.131,0-11.116,4.982-11.116,11.102c0,6.134,4.985,11.119,11.116,11.119
			c6.138,0,11.13-4.989,11.13-11.119C45.69,153.13,40.698,148.148,34.56,148.148z M34.56,164.761c-3.038,0-5.511-2.473-5.511-5.511
			c0-3.028,2.473-5.49,5.511-5.49c3.046,0,5.519,2.462,5.519,5.49C40.078,162.284,37.605,164.761,34.56,164.761z"/>
		<path style="fill:#010002;" d="M151.488,149.1c-6.127,0-11.112,4.982-11.112,11.102c0,6.134,4.989,11.109,11.112,11.109
			c6.138,0,11.123-4.978,11.123-11.109C162.611,154.078,157.626,149.1,151.488,149.1z M151.488,165.709
			c-3.038,0-5.504-2.473-5.504-5.511c0-3.028,2.466-5.49,5.504-5.49c3.046,0,5.519,2.462,5.519,5.49
			C157.007,163.236,154.53,165.709,151.488,165.709z"/>
		<path style="fill:#010002;" d="M157.944,122.201c-28.527,0-51.743-23.209-51.743-51.747c0-4.212,0.573-8.55,1.704-12.887
			l0.913-3.511H78.068l-0.029,25.192H51.706c-12.547,0-23.735,14.369-33.613,27.053c-3.085,3.958-5.998,7.702-8.636,10.565
			l-0.283,0.361c-13.61,20.697-8.12,42.452-7.881,43.365l0.548,2.094h11.259c1.65,10.364,10.629,18.32,21.455,18.32
			c10.83,0,19.816-7.959,21.466-18.32h21.938h3.475h48.45c1.242,10.83,10.45,19.272,21.602,19.272
			c11.162,0,20.371-8.439,21.616-19.272h18.918v-23.484h6.145v-35.667l-4.731,4.474
			C183.744,117.158,171.143,122.201,157.944,122.201z M50.84,85.06h24.909v28.04H20.924C29.836,100.807,43.636,85.06,50.84,85.06z
			 M34.56,175.404c-8.181,0-14.884-6.141-15.933-14.04v-1.485c0-9.044,7.355-16.388,16.398-16.388c3.31,0,6.378,0.999,8.958,2.688
			c4.058,2.938,6.732,7.684,6.732,13.066C50.715,168.157,43.468,175.404,34.56,175.404z M56.838,157.073
			c-0.737-5.762-3.754-10.78-8.063-14.262c-3.815-3.307-8.783-5.325-14.215-5.325c-11.263,0-20.553,8.607-21.641,19.587H6.312
			c-0.916-5.615-2.333-21.588,7.43-36.576c0.519-0.573,1.045-1.163,1.575-1.786h60.432v35.95l0.068,2.416H56.838V157.073z
			 M151.488,176.346c-8.901,0-16.141-7.247-16.141-16.148c0-8.904,7.236-16.155,16.141-16.155c8.818,0,15.983,7.1,16.133,15.883
			v0.54C167.471,169.245,160.306,176.346,151.488,176.346z M192.555,133.596h-14.487v17.486h8.346v5.995h-13.367
			c-0.029-0.229-0.111-0.433-0.15-0.669c-0.104-0.591-0.24-1.185-0.39-1.764c-2.362-9.598-10.962-16.76-21.262-16.76
			c-11.184,0-20.446,8.385-21.824,19.19H83.572l0.097-97.409h18.009c-0.719,3.629-1.081,7.247-1.081,10.79
			c0,31.623,25.728,57.355,57.351,57.355c12.576,0,24.658-4.123,34.611-11.71v17.497H192.555z"/>
		<path style="fill:#010002;" d="M157.286,117.81c26.19,0,47.495-21.308,47.495-47.499c0-26.179-21.301-47.488-47.495-47.488
			c-26.183,0-47.488,21.308-47.488,47.488C109.798,96.498,131.099,117.81,157.286,117.81z M157.286,29.197
			c22.668,0,41.121,18.435,41.121,41.114c0,22.676-18.453,41.125-41.121,41.125c-22.676,0-41.117-18.449-41.117-41.125
			C116.168,47.632,134.61,29.197,157.286,29.197z"/>
		<path style="fill:#010002;" d="M154.705,76.549c0.705,0.719,1.65,1.066,2.58,1.066c0.934,0,1.865-0.351,2.588-1.066l0,0
			l21.935-21.938c1.424-1.428,1.424-3.736,0-5.161c-1.424-1.428-3.729-1.428-5.157,0l-19.362,19.358L137.931,49.45
			c-1.424-1.428-3.736-1.428-5.168,0c-1.428,1.424-1.428,3.733,0,5.161L154.705,76.549z"/>
	</g>
</g>
<g>
</g>
<g>
</g>
<g>
</g>
<g>
</g>
<g>
</g>
<g>
</g>
<g>
</g>
<g>
</g>
<g>
</g>
<g>
</g>
<g>
</g>
<g>
</g>
<g>
</g>
<g>
</g>
<g>
</g>
</svg>
