<?xml version="1.0" encoding="iso-8859-1"?>
<!-- Generator: Adobe Illustrator 18.1.1, SVG Export Plug-In . SVG Version: 6.00 Build 0)  -->
<svg version="1.1" id="Capa_1" xmlns="http://www.w3.org/2000/svg" xmlns:xlink="http://www.w3.org/1999/xlink" x="0px" y="0px"
	 viewBox="0 0 201.307 201.307" style="enable-background:new 0 0 201.307 201.307;" xml:space="preserve">
<g>
	<g>
		<g>
			<path style="fill:#010002;" d="M197.883,59.775c-3.035-11.327-49.871-57.283-58.55-59.606c-2.129-0.565-3.425,0.426-3.869,0.884
				c-0.759,0.752-1.496,2.108-0.802,4.32c2.423,7.648-2.079,33.437-5.69,48.912l-0.079,0.293l-34.5,34.514l-3.672-3.654l3.761-3.783
				l-4.155-4.144L79.813,88.066l4.169,4.134l3.772-3.786l3.672,3.654l-9.896,9.892l-3.611-3.607l3.772-3.797l-4.144-4.144
				l-10.5,10.543l4.155,4.144l3.751-3.772l3.611,3.6l-9.563,9.577l-3.622-3.611l3.747-3.776l-4.141-4.141l-10.508,10.543
				l4.169,4.148l3.761-3.797l3.622,3.6l-9.781,9.777l-3.59-3.568l3.554-3.593l-4.155-4.126l-10.5,10.543l4.155,4.148l3.98-3.99
				l3.579,3.55l-43.165,43.175l-0.48-0.032c-1.764-0.136-3.479,0.483-4.706,1.725c-2.316,2.333-2.301,6.113,0.018,8.435
				l11.463,11.467c2.333,2.333,6.131,2.333,8.475-0.011c1.732-1.725,2.212-4.413,1.22-6.667l-0.297-0.648l11.527-11.527l0.598,1.482
				c1.879,4.806,4.699,9.122,8.389,12.819c13.979,13.958,36.998,14.537,51.689,1.432l1.768-1.65l52.462-52.459
				c14.68-14.677,14.68-38.58,0-53.268c-3.511-3.511-7.612-6.238-12.157-8.128l-1.464-0.598l5.909-5.898l0.276-0.075
				c14.655-3.862,39.256-8.192,46.965-4.287c0.365,0.186,0.748,0.286,1.16,0.329c1.657,0.136,2.985-0.286,3.965-1.256
				C197.553,63.902,198.577,62.384,197.883,59.775z M188.077,58.065c-15.765-2.09-42.968,5.107-46.017,5.934
				c-0.533,0.15-1.013,0.426-1.399,0.809l-10.325,10.325c-0.82,0.82-1.12,2.029-0.784,3.142c0.336,1.109,1.249,1.94,2.387,2.176
				c6.009,1.21,11.492,4.155,15.833,8.496c12.222,12.236,12.222,32.134,0,44.36l-53.157,53.117
				c-12.218,11.703-31.891,11.506-43.852-0.451c-4.502-4.524-7.505-10.25-8.647-16.549c-0.208-1.156-1.034-2.101-2.147-2.444
				c-1.131-0.365-2.344-0.061-3.174,0.777l-17.569,17.569c-0.276,0.272-0.49,0.587-0.644,0.92l-0.623,1.385l-7.068-7.065
				l1.331-0.626c0.336-0.168,0.633-0.365,0.888-0.63L133.993,58.401c0.408-0.422,0.694-0.938,0.834-1.5
				c0.734-3.067,7.108-30.406,6.793-46.11l-0.054-2.226l1.754,1.374c12.157,9.606,37.481,34.808,45.745,46.479l1.399,1.972
				L188.077,58.065z"/>
		</g>
		<g>
			<path style="fill:#010002;" d="M108.894,103.051l-44.567,44.557c-7.165,7.179-7.165,18.835,0,26.004
				c7.165,7.161,18.832,7.172,26,0l44.567-44.56c7.165-7.172,7.165-18.835,0-26C127.719,95.875,116.059,95.875,108.894,103.051z
				 M130.432,107.499c4.706,4.717,4.706,12.379,0,17.085l-44.557,44.571c-4.713,4.706-12.379,4.699-17.085,0
				c-4.713-4.706-4.713-12.379,0-17.085l44.557-44.571C118.053,102.79,125.722,102.79,130.432,107.499z"/>
		</g>
	</g>
</g>
<g>
</g>
<g>
</g>
<g>
</g>
<g>
</g>
<g>
</g>
<g>
</g>
<g>
</g>
<g>
</g>
<g>
</g>
<g>
</g>
<g>
</g>
<g>
</g>
<g>
</g>
<g>
</g>
<g>
</g>
</svg>
