<?xml version="1.0" encoding="iso-8859-1"?>
<!-- Generator: Adobe Illustrator 18.1.1, SVG Export Plug-In . SVG Version: 6.00 Build 0)  -->
<svg version="1.1" id="Capa_1" xmlns="http://www.w3.org/2000/svg" xmlns:xlink="http://www.w3.org/1999/xlink" x="0px" y="0px"
	 viewBox="0 0 203.688 203.688" style="enable-background:new 0 0 203.688 203.688;" xml:space="preserve">
<g>
	<g>
		<g>
			<path style="fill:#010002;" d="M200.229,60.484c-3.071-11.459-50.462-57.956-59.244-60.307c-2.154-0.587-3.454,0.44-3.915,0.895
				c-0.766,0.762-1.514,2.129-0.812,4.381c2.455,7.727-2.104,33.824-5.755,49.478l-0.079,0.297L95.515,90.152l-3.718-3.697
				l3.804-3.829l-4.202-4.18l-10.64,10.669l4.219,4.194l3.815-3.829l3.718,3.686l-10.006,10.01l-3.665-3.654l3.819-3.84
				l-4.191-4.194l-10.626,10.669l4.212,4.194l3.786-3.822l3.654,3.647l-9.677,9.681l-3.661-3.654l3.79-3.808l-4.191-4.198
				l-10.626,10.665l4.219,4.202l3.804-3.84l3.661,3.643l-9.899,9.896l-3.629-3.604l3.607-3.633l-4.212-4.191l-10.615,10.669
				l4.205,4.202l4.015-4.041l3.633,3.593l-43.687,43.698l-0.497-0.05c-1.779-0.14-3.518,0.487-4.767,1.746
				c-2.341,2.362-2.326,6.191,0.021,8.546l11.599,11.592c2.362,2.362,6.213,2.362,8.575,0c1.754-1.754,2.248-4.466,1.235-6.75
				l-0.286-0.666l11.663-11.663l0.594,1.507c1.9,4.864,4.756,9.233,8.489,12.963c14.144,14.126,37.438,14.709,52.301,1.449
				l1.786-1.668l53.085-53.071c14.852-14.859,14.852-39.045,0-53.905c-3.565-3.554-7.702-6.313-12.304-8.224l-1.478-0.598
				l5.98-5.987l0.279-0.072c14.831-3.905,39.722-8.285,47.538-4.334c0.354,0.175,0.734,0.297,1.167,0.329
				c1.668,0.143,3.021-0.286,4.005-1.267C199.903,64.657,200.934,63.125,200.229,60.484z M190.308,58.752
				c-15.955-2.119-43.476,5.164-46.564,6.002c-0.54,0.157-1.027,0.433-1.417,0.816L131.88,76.03c-0.827,0.82-1.135,2.04-0.802,3.167
				c0.344,1.127,1.27,1.965,2.419,2.208c6.077,1.224,11.631,4.202,16.026,8.596c12.365,12.379,12.383,32.507,0,44.875L95.73,188.628
				c-12.358,11.842-32.253,11.642-44.36-0.447c-4.567-4.585-7.605-10.372-8.757-16.756c-0.211-1.17-1.049-2.115-2.172-2.469
				c-1.138-0.369-2.373-0.05-3.21,0.784l-17.776,17.787c-0.279,0.265-0.497,0.583-0.651,0.934l-0.63,1.399l-7.154-7.158l1.356-0.633
				c0.333-0.172,0.63-0.369,0.884-0.637L135.58,59.084c0.415-0.419,0.701-0.938,0.845-1.5c0.741-3.114,7.204-30.775,6.875-46.665
				l-0.054-2.251l1.775,1.403c12.304,9.709,37.925,35.212,46.3,47.026l1.406,1.99L190.308,58.752z"/>
		</g>
		<g>
			<path style="fill:#010002;" d="M110.185,104.275l-45.097,45.086c-7.251,7.254-7.251,19.057,0,26.305
				c7.251,7.247,19.057,7.265,26.308,0l45.094-45.083c7.251-7.265,7.251-19.057,0-26.312
				C129.228,97.02,117.443,97.02,110.185,104.275z M124.224,133.822l-29.586,29.59c-2.459,0.913-5.34,0.394-7.304-1.578
				c-2.698-2.691-2.698-7.086,0-9.785l25.535-25.539c2.688-2.691,7.09-2.691,9.785,0
				C124.629,128.478,125.148,131.356,124.224,133.822z M131.98,126.07l-3.829,3.84c-0.319-2.183-1.27-4.287-2.931-5.966
				c-4.119-4.101-10.797-4.101-14.899,0.011l-25.542,25.539c-4.105,4.109-4.105,10.79,0,14.899c1.678,1.668,3.772,2.616,5.944,2.935
				l-3.826,3.833c-4.771,4.774-12.526,4.763-17.297,0c-4.763-4.767-4.763-12.519,0-17.293l45.086-45.083
				c4.767-4.767,12.526-4.767,17.293,0C136.743,113.544,136.743,121.303,131.98,126.07z"/>
		</g>
	</g>
</g>
<g>
</g>
<g>
</g>
<g>
</g>
<g>
</g>
<g>
</g>
<g>
</g>
<g>
</g>
<g>
</g>
<g>
</g>
<g>
</g>
<g>
</g>
<g>
</g>
<g>
</g>
<g>
</g>
<g>
</g>
</svg>
