<?xml version="1.0" encoding="iso-8859-1"?>
<!-- Generator: Adobe Illustrator 18.1.1, SVG Export Plug-In . SVG Version: 6.00 Build 0)  -->
<svg version="1.1" id="Capa_1" xmlns="http://www.w3.org/2000/svg" xmlns:xlink="http://www.w3.org/1999/xlink" x="0px" y="0px"
	 viewBox="0 0 203.569 203.569" style="enable-background:new 0 0 203.569 203.569;" xml:space="preserve">
<g>
	<path style="fill:#010002;" d="M105.945,12.297V7.695c0-1.915-1.553-3.471-3.468-3.471c-1.915,0-3.471,1.557-3.471,3.471v4.574
		C44.159,13.585,0,53.711,0,102.881v2.777h8.174l0.276-2.469c1.267-11.327,13.678-20.203,28.255-20.203
		c14.58,0,26.988,8.876,28.255,20.203l0.276,2.469h6.56l0.276-2.469c1.22-10.983,12.941-19.637,26.942-20.153v98.959
		c0,6.506-5.293,11.796-11.799,11.796c-6.499,0-11.792-5.29-11.792-11.796h-5.558c0,9.566,7.784,17.35,17.35,17.35
		s17.35-7.784,17.35-17.35v-98.73c12.676,1.521,22.876,9.713,24.007,19.923l0.272,2.469h6.564l0.272-2.469
		c1.263-11.327,13.671-20.203,28.255-20.203s26.992,8.876,28.251,20.203l0.279,2.469h11.105v-2.777
		C203.558,54.127,160.139,14.255,105.945,12.297z M197.291,100.104c-2.892-13.084-16.738-22.668-33.362-22.668
		c-14.569,0-27.013,7.365-31.809,17.998c-4.796-10.633-17.225-17.998-31.809-17.998c-14.573,0-27.002,7.369-31.798,17.998
		c-4.796-10.629-17.232-17.998-31.809-17.998c-13.399,0-24.988,6.227-30.495,15.489c5.587-42.263,46.321-75.17,95.573-75.17
		c52.011,0,94.521,36.69,96.171,82.349H197.291z"/>
</g>
<g>
</g>
<g>
</g>
<g>
</g>
<g>
</g>
<g>
</g>
<g>
</g>
<g>
</g>
<g>
</g>
<g>
</g>
<g>
</g>
<g>
</g>
<g>
</g>
<g>
</g>
<g>
</g>
<g>
</g>
</svg>
