<?xml version="1.0" encoding="iso-8859-1"?>
<!-- Generator: Adobe Illustrator 18.1.1, SVG Export Plug-In . SVG Version: 6.00 Build 0)  -->
<svg version="1.1" id="Capa_1" xmlns="http://www.w3.org/2000/svg" xmlns:xlink="http://www.w3.org/1999/xlink" x="0px" y="0px"
	 viewBox="0 0 199.227 199.227" style="enable-background:new 0 0 199.227 199.227;" xml:space="preserve">
<g>
	<g>
		<polygon style="fill:#010002;" points="51.582,71.541 55.397,75.367 96.915,33.849 96.915,170.407 102.312,170.407 
			102.312,33.849 143.823,75.367 147.645,71.541 99.61,23.517 		"/>
		<path style="fill:#010002;" d="M99.61,0.004C44.689,0.004,0,44.686,0,99.614c0,54.932,44.689,99.61,99.61,99.61
			c54.928,0,99.617-44.678,99.617-99.61C199.227,44.686,154.538,0.004,99.61,0.004z M99.61,194.518
			c-52.33,0-94.904-42.578-94.904-94.904C4.706,47.284,47.28,4.71,99.61,4.71c52.341,0,94.911,42.574,94.911,94.904
			C194.521,151.94,151.947,194.518,99.61,194.518z"/>
	</g>
</g>
<g>
</g>
<g>
</g>
<g>
</g>
<g>
</g>
<g>
</g>
<g>
</g>
<g>
</g>
<g>
</g>
<g>
</g>
<g>
</g>
<g>
</g>
<g>
</g>
<g>
</g>
<g>
</g>
<g>
</g>
</svg>
