<?xml version="1.0" encoding="iso-8859-1"?>
<!-- Generator: Adobe Illustrator 18.1.1, SVG Export Plug-In . SVG Version: 6.00 Build 0)  -->
<svg version="1.1" id="Capa_1" xmlns="http://www.w3.org/2000/svg" xmlns:xlink="http://www.w3.org/1999/xlink" x="0px" y="0px"
	 viewBox="0 0 204.249 204.249" style="enable-background:new 0 0 204.249 204.249;" xml:space="preserve">
<g>
	<g>
		<g>
			<path style="fill:#010002;" d="M170.951,191.642c-40.194,0-107.963-11.842-115.017-90.337H0l88.698-88.698l88.698,88.698h-58.221
				c-1.174,8.779-2.881,34.174,12.848,53.704c13.9,17.25,37.947,26,71.466,26l0.759,7.938
				C203.676,189.044,190.005,191.642,170.951,191.642z M19.319,93.295h44.074l0.24,3.751c4.259,67,53.89,84.45,98.318,86.401
				c-15.375-4.778-27.486-12.63-36.211-23.484c-21.616-26.906-14.19-62.043-13.868-63.521l0.694-3.149h45.498L88.698,23.926
				L19.319,93.295z"/>
		</g>
	</g>
</g>
<g>
</g>
<g>
</g>
<g>
</g>
<g>
</g>
<g>
</g>
<g>
</g>
<g>
</g>
<g>
</g>
<g>
</g>
<g>
</g>
<g>
</g>
<g>
</g>
<g>
</g>
<g>
</g>
<g>
</g>
</svg>
