<?xml version="1.0" encoding="iso-8859-1"?>
<!-- Generator: Adobe Illustrator 18.1.1, SVG Export Plug-In . SVG Version: 6.00 Build 0)  -->
<svg version="1.1" id="Capa_1" xmlns="http://www.w3.org/2000/svg" xmlns:xlink="http://www.w3.org/1999/xlink" x="0px" y="0px"
	 viewBox="0 0 196.407 196.407" style="enable-background:new 0 0 196.407 196.407;" xml:space="preserve">
<g>
	<g>
		<g>
			<path style="fill:#010002;" d="M137.906,196.407H56.63c-3.303,0-5.211-1.249-6.231-2.298c-1.911-1.972-1.94-4.348-1.929-4.806
				v-99.32H37.967c-1.714,0-6.939,0-8.539-3.872c-1.668-4.041,2.373-8.5,3.647-9.77c1.789-2.416,50.007-66.373,57.022-73.402
				C92.53,0.508,94.971,0,96.592,0c4.27,0,7.201,3.314,7.523,3.693l58.876,71.133c1.557,1.453,5.572,5.816,4.048,9.627
				c-0.895,2.265-3.242,3.414-6.979,3.414h-13.038v100.444c0.15,0.945,0.268,3.106-1.235,5.061
				C144.237,195.391,141.581,196.407,137.906,196.407z M34.692,84.006c0.19,0,1.056,0.354,3.278,0.354H54.1v105.029
				c0.036,0.923,0.891,1.399,2.53,1.399h81.276c2.015,0,3.085-0.433,3.414-0.827c0.236-0.29,0.154-0.752,0.154-0.755l-0.068-0.633
				V82.246h18.657c0.709,0,1.199-0.054,1.521-0.115c-0.422-0.905-1.557-2.376-2.698-3.468L99.809,7.301
				c-0.383-0.429-1.786-1.671-3.214-1.671c-0.823,0-1.646,0.422-2.52,1.285c-6.739,6.75-56.267,72.454-56.768,73.116
				c-1.449,1.489-2.602,3.271-2.645,3.976C34.674,84.006,34.681,84.006,34.692,84.006z"/>
		</g>
	</g>
</g>
<g>
</g>
<g>
</g>
<g>
</g>
<g>
</g>
<g>
</g>
<g>
</g>
<g>
</g>
<g>
</g>
<g>
</g>
<g>
</g>
<g>
</g>
<g>
</g>
<g>
</g>
<g>
</g>
<g>
</g>
</svg>
