<?xml version="1.0" encoding="iso-8859-1"?>
<!-- Generator: Adobe Illustrator 18.1.1, SVG Export Plug-In . SVG Version: 6.00 Build 0)  -->
<svg version="1.1" id="Capa_1" xmlns="http://www.w3.org/2000/svg" xmlns:xlink="http://www.w3.org/1999/xlink" x="0px" y="0px"
	 viewBox="0 0 196.536 196.536" style="enable-background:new 0 0 196.536 196.536;" xml:space="preserve">
<g>
	<g>
		<path style="fill:#010002;" d="M164.037,70.385c-1.471-1.385-3.3-2.137-5.207-2.137h-11.467c-0.691,0-1.36,0.089-2.015,0.283
			V56.564c0-6.195-5.043-11.238-11.241-11.238H11.238C5.043,45.326,0,50.369,0,56.564v83.409c0,6.195,5.043,11.238,11.238,11.238
			h122.869c6.195,0,11.241-5.039,11.241-11.238v-11.975c0.658,0.19,1.331,0.283,2.015,0.283h11.467c1.542,0,3.028-0.49,4.327-1.414
			l33.38,9.241V61.395L164.037,70.385z M166.907,121.337V76.162l23.298-6.446v58.067L166.907,121.337z M145.616,77.235
			c0-1.389,0.827-2.659,1.743-2.659h11.467c0.82,0,1.743,1.138,1.743,2.659v42.062c0,1.514-0.923,2.648-1.743,2.648h-11.467
			c-0.916,0-1.743-1.267-1.743-2.648V77.235z M6.335,56.56c0-2.706,2.205-4.907,4.907-4.907H134.11c2.709,0,4.907,2.201,4.907,4.907
			v83.409c0,2.702-2.197,4.903-4.907,4.903H11.238c-2.698,0-4.907-2.201-4.907-4.903V56.56H6.335z"/>
	</g>
</g>
<g>
</g>
<g>
</g>
<g>
</g>
<g>
</g>
<g>
</g>
<g>
</g>
<g>
</g>
<g>
</g>
<g>
</g>
<g>
</g>
<g>
</g>
<g>
</g>
<g>
</g>
<g>
</g>
<g>
</g>
</svg>
