<?xml version="1.0" encoding="iso-8859-1"?>
<!-- Generator: Adobe Illustrator 18.1.1, SVG Export Plug-In . SVG Version: 6.00 Build 0)  -->
<svg version="1.1" id="Capa_1" xmlns="http://www.w3.org/2000/svg" xmlns:xlink="http://www.w3.org/1999/xlink" x="0px" y="0px"
	 viewBox="0 0 199.349 199.349" style="enable-background:new 0 0 199.349 199.349;" xml:space="preserve">
<g>
	<g>
		<g>
			<path style="fill:#010002;" d="M99.526,42.255c-18.574,0-33.677,15.106-33.677,33.666c0,18.567,15.103,33.677,33.677,33.677
				c18.556,0,33.67-15.113,33.67-33.677C133.196,57.362,118.086,42.255,99.526,42.255z M99.526,105.014
				c-16.044,0-29.092-13.052-29.092-29.092s13.048-29.085,29.092-29.085c16.037,0,29.078,13.048,29.078,29.085
				S115.563,105.014,99.526,105.014z"/>
		</g>
		<g>
			<path style="fill:#010002;" d="M99.794,33.63c-23.409,0-42.456,19.047-42.456,42.456c0,23.402,19.047,42.449,42.456,42.449
				s42.456-19.047,42.456-42.449C142.25,52.681,123.2,33.63,99.794,33.63z M99.794,114.609c-21.237,0-38.523-17.286-38.523-38.523
				s17.286-38.519,38.523-38.519c21.248,0,38.519,17.282,38.519,38.519S121.042,114.609,99.794,114.609z"/>
		</g>
		<g>
			<path style="fill:#010002;" d="M99.787,62.623c-7.433,0-13.456,6.03-13.456,13.464c0,7.437,6.023,13.46,13.456,13.46
				c7.444,0,13.46-6.027,13.46-13.46C113.247,68.653,107.231,62.623,99.787,62.623z"/>
		</g>
		<g>
			<path style="fill:#010002;" d="M173.182,143.011v-16.885h-14.194c0.383-1.403,0.58-2.849,0.58-4.33V35.552
				c0-9.18-7.473-16.652-16.656-16.652h-5.558C136.109,8.206,120.083,0,99.787,0C79.502,0,63.473,8.206,62.224,18.9h-5.558
				c-9.183,0-16.649,7.473-16.649,16.652v86.247c0,1.482,0.186,2.928,0.573,4.33H26.167v16.885h71.248v21.455l-24.061,32.356
				l3.389,2.523l21.104-28.391v18.13h4.219v-17.54l20.675,27.801l3.378-2.523l-24.057-32.356v-21.459H173.182z M99.787,4.223
				c17.204,0,31.845,6.592,33.319,14.677H66.475C67.946,10.815,82.591,4.223,99.787,4.223z M30.39,130.349h16.66l-1.514-3.046
				c-0.862-1.743-1.303-3.593-1.303-5.508V35.552c0-6.853,5.583-12.429,12.433-12.429h86.247c6.861,0,12.436,5.579,12.436,12.429
				v86.247c0,1.915-0.437,3.765-1.303,5.508l-1.507,3.046h16.43v8.439H30.39V130.349z"/>
		</g>
	</g>
</g>
<g>
</g>
<g>
</g>
<g>
</g>
<g>
</g>
<g>
</g>
<g>
</g>
<g>
</g>
<g>
</g>
<g>
</g>
<g>
</g>
<g>
</g>
<g>
</g>
<g>
</g>
<g>
</g>
<g>
</g>
</svg>
