<?xml version="1.0" encoding="iso-8859-1"?>
<!-- Generator: Adobe Illustrator 18.1.1, SVG Export Plug-In . SVG Version: 6.00 Build 0)  -->
<svg version="1.1" id="Capa_1" xmlns="http://www.w3.org/2000/svg" xmlns:xlink="http://www.w3.org/1999/xlink" x="0px" y="0px"
	 viewBox="0 0 201.611 201.611" style="enable-background:new 0 0 201.611 201.611;" xml:space="preserve">
<g>
	<g>
		<path style="fill:#010002;" d="M46.3,88.167l4.638,33.248H62.34l21.24-41.168H71.602l-9.022,19.09
			c-1.278,2.709-2.38,5.164-3.328,7.412c-0.175-2.344-0.365-4.624-0.594-6.95l-1.84-19.551H38.609l18.946,14.992L46.3,88.167z"/>
		<polygon style="fill:#010002;" points="91.762,121.414 99.571,80.247 88.852,80.247 81.032,121.414 		"/>
		<path style="fill:#010002;" d="M98.05,118.988c2.512,1.882,6.932,3.01,11.821,3.01c10.146,0,16.953-5.73,16.953-14.255
			c0-4.66-2.724-8.36-8.307-11.291c-3.139-1.75-5.032-2.931-5.032-4.416c0-1.389,1.464-2.888,4.914-2.888
			c3.357,0,5.948,1.313,6.42,1.575l1.224,0.673l3.425-9.176l-0.902-0.494c-2.555-1.41-5.74-2.104-9.717-2.104
			c-9.717,0-16.502,5.672-16.502,13.793c0,5.894,4.635,9.165,8.7,11.356c3.833,1.983,4.581,3.117,4.581,4.406
			c0,2.466-2.673,3.35-4.957,3.35c-2.985,0-6.091-0.848-8.525-2.305l-1.21-0.727l-3.625,8.933L98.05,118.988z"/>
		<path style="fill:#010002;" d="M137.167,121.414l4.606-10.06h9.287l0.805,10.06h11.137l-4.828-41.168h-12.458l-20.038,41.168
			H137.167z M148.361,95.976c0.429-0.927,0.87-1.972,1.299-3.074c0.075,0.981,0.154,1.893,0.211,2.688l0.637,7.04h-5.207
			L148.361,95.976z"/>
	</g>
	<g>
		<path style="fill:#010002;" d="M201.611,162.51H0V39.101h201.611V162.51z M6.367,156.147h188.874V45.471H6.367V156.147z"/>
	</g>
</g>
<g>
</g>
<g>
</g>
<g>
</g>
<g>
</g>
<g>
</g>
<g>
</g>
<g>
</g>
<g>
</g>
<g>
</g>
<g>
</g>
<g>
</g>
<g>
</g>
<g>
</g>
<g>
</g>
<g>
</g>
</svg>
