<?xml version="1.0" encoding="iso-8859-1"?>
<!-- Generator: Adobe Illustrator 18.1.1, SVG Export Plug-In . SVG Version: 6.00 Build 0)  -->
<svg version="1.1" id="Capa_1" xmlns="http://www.w3.org/2000/svg" xmlns:xlink="http://www.w3.org/1999/xlink" x="0px" y="0px"
	 viewBox="0 0 205.082 205.082" style="enable-background:new 0 0 205.082 205.082;" xml:space="preserve">
<g>
	<g>
		<path style="fill:#010002;" d="M153.513,0.977l-70.02,52.892H51.566v96.811h31.225l70.722,53.429V0.977z M56.422,58.725h25.46
			v87.102h-25.46V58.725z M148.66,194.36l-61.925-46.783V57.509l61.925-46.786V194.36z"/>
		<path style="fill:#010002;" d="M154,205.082l-71.373-53.919H51.083V53.386h32.249L154,0V205.082z M52.053,150.197h30.9
			l0.129,0.093l69.949,52.838V1.954L83.654,54.356H52.049v95.842H52.053z M149.143,195.337l-62.895-47.52V57.265l62.895-47.52
			V195.337z M87.218,147.334l60.959,46.049V11.699L87.218,57.748V147.334z M82.365,146.307h-26.43V58.242h26.43V146.307z
			 M56.906,145.344h24.486V59.209H56.906V145.344z"/>
	</g>
</g>
<g>
</g>
<g>
</g>
<g>
</g>
<g>
</g>
<g>
</g>
<g>
</g>
<g>
</g>
<g>
</g>
<g>
</g>
<g>
</g>
<g>
</g>
<g>
</g>
<g>
</g>
<g>
</g>
<g>
</g>
</svg>
