<?xml version="1.0" encoding="iso-8859-1"?>
<!-- Generator: Adobe Illustrator 18.1.1, SVG Export Plug-In . SVG Version: 6.00 Build 0)  -->
<svg version="1.1" id="Capa_1" xmlns="http://www.w3.org/2000/svg" xmlns:xlink="http://www.w3.org/1999/xlink" x="0px" y="0px"
	 viewBox="0 0 200.652 200.652" style="enable-background:new 0 0 200.652 200.652;" xml:space="preserve">
<g>
	<g>
		<g>
			<path style="fill:#010002;" d="M181.314,23.237h-52.201c0.437-1.235,0.719-2.541,0.719-3.919v-7.573
				C129.832,5.261,124.567,0,118.086,0H81.385c-6.478,0-11.746,5.264-11.746,11.746v7.576c0,1.378,0.286,2.684,0.727,3.919H19.328
				c-2.162,0-3.912,1.746-3.912,3.912c0,2.162,1.746,3.912,3.912,3.912h16.67c-0.483,1.217-0.766,2.53-0.766,3.915v154.9
				c0,5.937,4.831,10.772,10.772,10.772h108.647c5.934,0,10.762-4.835,10.762-10.772V34.98c0-1.385-0.286-2.698-0.762-3.915h16.663
				c2.162,0,3.922-1.75,3.922-3.912C185.236,24.988,183.475,23.237,181.314,23.237z M77.473,19.322v-7.576
				c0-2.162,1.754-3.919,3.912-3.919h36.701c2.165,0,3.926,1.754,3.926,3.919v7.576c0,2.162-1.757,3.919-3.926,3.919H81.385
				C79.223,23.237,77.473,21.48,77.473,19.322z M159.536,34.98v154.9c0,2.702-2.194,4.896-4.885,4.896H46.001
				c-2.702,0-4.899-2.194-4.899-4.896V34.98c0-1.639,0.863-3.028,2.115-3.915h38.168h36.701h39.346
				C158.674,31.952,159.536,33.341,159.536,34.98z"/>
		</g>
		<g>
			<path style="fill:#010002;" d="M66.554,54.964c-1.621,0-2.938,1.321-2.938,2.935v109.058c0,1.625,1.317,2.935,2.938,2.935
				s2.935-1.31,2.935-2.935V57.902C69.489,56.285,68.175,54.964,66.554,54.964z"/>
		</g>
		<g>
			<path style="fill:#010002;" d="M100.321,54.964c-1.621,0-2.935,1.321-2.935,2.935v109.058c0,1.625,1.317,2.935,2.935,2.935
				c1.621,0,2.938-1.31,2.938-2.935V57.902C103.259,56.285,101.942,54.964,100.321,54.964z"/>
		</g>
		<g>
			<path style="fill:#010002;" d="M134.577,169.892c1.625,0,2.935-1.31,2.935-2.935V57.902c0-1.614-1.31-2.935-2.935-2.935
				c-1.614,0-2.935,1.321-2.935,2.935v109.058C131.643,168.582,132.963,169.892,134.577,169.892z"/>
		</g>
	</g>
</g>
<g>
</g>
<g>
</g>
<g>
</g>
<g>
</g>
<g>
</g>
<g>
</g>
<g>
</g>
<g>
</g>
<g>
</g>
<g>
</g>
<g>
</g>
<g>
</g>
<g>
</g>
<g>
</g>
<g>
</g>
</svg>
