<?xml version="1.0" encoding="iso-8859-1"?>
<!-- Generator: Adobe Illustrator 18.1.1, SVG Export Plug-In . SVG Version: 6.00 Build 0)  -->
<svg version="1.1" id="Capa_1" xmlns="http://www.w3.org/2000/svg" xmlns:xlink="http://www.w3.org/1999/xlink" x="0px" y="0px"
	 viewBox="0 0 202.452 202.452" style="enable-background:new 0 0 202.452 202.452;" xml:space="preserve">
<g>
	<g>
		<g>
			<path style="fill:#010002;" d="M138.4,86.655c0-20.496-16.667-37.166-37.174-37.166c-20.496,0-37.17,16.674-37.17,37.166
				s16.674,37.17,37.17,37.17C121.729,123.825,138.4,107.147,138.4,86.655z M71.375,86.655c0-16.463,13.388-29.855,29.851-29.855
				s29.862,13.392,29.862,29.855s-13.399,29.851-29.862,29.851S71.375,103.114,71.375,86.655z"/>
		</g>
		<g>
			<circle style="fill:#010002;" cx="101.018" cy="34.221" r="7.315"/>
		</g>
		<g>
			<path style="fill:#010002;" d="M150.797,157.677c22.404-15.69,37.084-41.665,37.084-71.029C187.881,38.87,149.018,0,101.226,0
				C53.445,0,14.571,38.87,14.571,86.648c0,29.654,14.967,55.852,37.728,71.48c-11.56,4.717-17.851,11.019-17.851,18.116
				c0,17.021,34.862,26.208,67.669,26.208c32.797,0,67.655-9.187,67.655-26.208C169.772,168.893,163.09,162.437,150.797,157.677z
				 M21.883,86.648c0-43.748,35.595-79.336,79.343-79.336s79.343,35.588,79.343,79.336c0,43.755-35.595,79.34-79.343,79.34
				C57.478,165.991,21.883,130.403,21.883,86.648z M102.117,195.144c-37.388,0-60.347-11.012-60.347-18.9
				c0-4.559,7.097-9.57,18.549-13.231c12.193,6.567,26.122,10.296,40.91,10.296c15.053,0,29.203-3.865,41.543-10.64
				c11.993,3.654,19.691,8.897,19.691,13.575C162.46,184.132,139.502,195.144,102.117,195.144z"/>
		</g>
	</g>
</g>
<g>
</g>
<g>
</g>
<g>
</g>
<g>
</g>
<g>
</g>
<g>
</g>
<g>
</g>
<g>
</g>
<g>
</g>
<g>
</g>
<g>
</g>
<g>
</g>
<g>
</g>
<g>
</g>
<g>
</g>
</svg>
