<?xml version="1.0" encoding="iso-8859-1"?>
<!-- Generator: Adobe Illustrator 18.1.1, SVG Export Plug-In . SVG Version: 6.00 Build 0)  -->
<svg version="1.1" id="Capa_1" xmlns="http://www.w3.org/2000/svg" xmlns:xlink="http://www.w3.org/1999/xlink" x="0px" y="0px"
	 viewBox="0 0 204.052 204.052" style="enable-background:new 0 0 204.052 204.052;" xml:space="preserve">
<g>
	<g>
		<g>
			<path style="fill:#010002;" d="M178.026,46.019h-47.738V32.702c0-15.589-12.683-28.273-28.262-28.273
				c-15.589,0-28.273,12.683-28.273,28.273v13.317H26.025L0,199.623h204.052L178.026,46.019z M84.16,32.698
				c0-9.856,8.02-17.866,17.866-17.866s17.851,8.006,17.851,17.866V43.46H84.16V32.698z M31.419,53.058h141.218l23.631,139.511
				H7.784L31.419,53.058z"/>
		</g>
		<g>
			<path style="fill:#010002;" d="M100.555,93.793h-8.289l-15.826,19.43c-1.306,1.686-2.684,3.522-4.062,5.526h-0.236V93.793H65.45
				v51.754h6.689v-19.723l4.993-5.69l16.971,25.413h7.913l-20.206-29.79L100.555,93.793z"/>
		</g>
		<g>
			<path style="fill:#010002;" d="M132.371,113.977h-0.154c-1.696-3.06-5.146-6.36-11.599-6.36c-8.593,0-16.813,7.057-16.813,19.655
				c0,10.293,6.607,18.12,15.826,18.12c5.758,0,9.82-2.763,11.825-6.216h0.154v4.076c0,9.445-5.075,13.048-11.978,13.048
				c-4.617,0-8.453-1.381-10.915-2.992l-1.686,5.229c2.992,1.99,7.902,3.06,12.365,3.06c4.688,0,9.906-1.152,13.6-4.452
				c3.532-3.31,5.3-8.443,5.3-17.053v-21.57c0-4.463,0.072-7.53,0.293-10.142h-5.984L132.371,113.977z M131.523,129.732
				c0,1.152-0.14,2.462-0.526,3.618c-1.392,4.295-5.157,6.911-9.373,6.911c-7.233,0-10.976-6.073-10.976-13.363
				c0-8.607,4.606-14.061,11.048-14.061c5.003,0,8.221,3.225,9.455,7.233c0.308,0.834,0.376,1.84,0.376,2.992v6.671H131.523z"/>
		</g>
	</g>
</g>
<g>
</g>
<g>
</g>
<g>
</g>
<g>
</g>
<g>
</g>
<g>
</g>
<g>
</g>
<g>
</g>
<g>
</g>
<g>
</g>
<g>
</g>
<g>
</g>
<g>
</g>
<g>
</g>
<g>
</g>
</svg>
