<?xml version="1.0" encoding="iso-8859-1"?>
<!-- Generator: Adobe Illustrator 18.1.1, SVG Export Plug-In . SVG Version: 6.00 Build 0)  -->
<svg version="1.1" id="Capa_1" xmlns="http://www.w3.org/2000/svg" xmlns:xlink="http://www.w3.org/1999/xlink" x="0px" y="0px"
	 viewBox="0 0 195.595 195.595" style="enable-background:new 0 0 195.595 195.595;" xml:space="preserve">
<g>
	<g>
		<g>
			<path style="fill:#010002;" d="M102.552,145.015c38.054-2.487,67.876-34.285,67.876-72.386C170.428,32.582,137.836,0,97.796,0
				C57.748,0,25.166,32.582,25.166,72.629c0,38.1,29.812,69.899,67.859,72.386l1.117,0.061v25.481H51.65
				c-2.011,0-3.654,1.646-3.654,3.665c0,2.015,1.643,3.654,3.654,3.654h91.969c2.011,0,3.654-1.643,3.654-3.654
				c0-2.018-1.643-3.665-3.654-3.665h-42.17v-25.481L102.552,145.015z M97.796,137.94c-36.028,0-65.321-29.296-65.321-65.31
				s29.296-65.31,65.321-65.31c36.014,0,65.31,29.296,65.31,65.31S133.81,137.94,97.796,137.94z"/>
		</g>
		<g>
			<path style="fill:#010002;" d="M101.965,62.404l-0.562-0.197c-1.274-0.44-2.455-0.648-3.607-0.648
				c-6.12,0-11.073,4.967-11.073,11.073c0,6.109,4.953,11.073,11.073,11.073c6.106,0,11.073-4.967,11.073-11.073
				c0-0.97-0.172-2.001-0.526-3.149l-0.183-0.601l21.069-25.628L101.965,62.404z"/>
		</g>
		<g>
			<path style="fill:#010002;" d="M143.623,188.276H51.65c-2.011,0-3.654,1.646-3.654,3.665c0,2.015,1.643,3.654,3.654,3.654h91.969
				c2.011,0,3.654-1.643,3.654-3.654C147.273,189.922,145.631,188.276,143.623,188.276z"/>
		</g>
	</g>
</g>
<g>
</g>
<g>
</g>
<g>
</g>
<g>
</g>
<g>
</g>
<g>
</g>
<g>
</g>
<g>
</g>
<g>
</g>
<g>
</g>
<g>
</g>
<g>
</g>
<g>
</g>
<g>
</g>
<g>
</g>
</svg>
