<?xml version="1.0" encoding="iso-8859-1"?>
<!-- Generator: Adobe Illustrator 18.1.1, SVG Export Plug-In . SVG Version: 6.00 Build 0)  -->
<svg version="1.1" id="Capa_1" xmlns="http://www.w3.org/2000/svg" xmlns:xlink="http://www.w3.org/1999/xlink" x="0px" y="0px"
	 viewBox="0 0 199.979 199.979" style="enable-background:new 0 0 199.979 199.979;" xml:space="preserve">
<g>
	<g>
		<g>
			<path style="fill:#ededed;" d="M165.082,105.227c-17.658-17.322-41.035-26.852-65.851-26.852c-25.138,0-48.744,9.76-66.47,27.478
				c-0.905,0.913-1.403,2.126-1.403,3.411c0,1.278,0.501,2.491,1.41,3.4l18.492,18.488c1.822,1.814,4.982,1.814,6.793-0.004
				c10.98-10.976,25.603-17.028,41.182-17.028c15.572,0,30.206,6.048,41.189,17.035c0.909,0.905,2.112,1.399,3.389,1.399
				c1.292,0,2.498-0.501,3.403-1.406l18.567-18.563c1.868-1.879,1.882-4.928,0.014-6.803L165.082,105.227z M143.817,127.012
				c-11.939-11.753-27.758-18.22-44.578-18.22c-16.824,0-32.639,6.467-44.582,18.22l-17.751-17.758
				C53.579,92.777,75.69,83.708,99.231,83.708c23.484,0,45.584,9.04,62.254,25.464l0.086,0.079L143.817,127.012z"/>
		</g>
		<g>
			<path style="fill:#ededed;" d="M198.58,72.996l-0.727-0.565c-26.204-25.872-60.966-40.115-97.903-40.115
				c-37.27,0-72.275,14.473-98.551,40.752c-1.872,1.875-1.865,4.928,0.011,6.811l19.029,19.029c1.822,1.814,4.978,1.811,6.796-0.004
				C46.622,79.517,72.44,68.841,99.947,68.841c27.503,0,53.325,10.679,72.726,30.073c0.902,0.902,2.112,1.403,3.393,1.403
				c1.285,0,2.491-0.501,3.393-1.403l19.104-19.104c0.916-0.905,1.417-2.126,1.417-3.429
				C199.979,75.097,199.482,73.895,198.58,72.996z M176.062,94.766C155.706,74.603,128.7,63.505,99.947,63.505
				c-28.749,0-55.762,11.098-76.111,31.258L5.544,76.468c25.234-25.041,58.733-38.82,94.407-38.82
				c35.606,0,69.093,13.757,94.306,38.734l0.097,0.093L176.062,94.766z"/>
		</g>
		<g>
			<path style="fill:#ededed;" d="M98.805,127.924c-9.645,0-18.903,3.189-27.511,9.473l-2.602,1.897l30.295,28.37l31.2-27.915
				l-2.43-1.972C127.275,137.373,115.447,127.924,98.805,127.924z M99.081,160.435l-21.96-20.557
				c6.889-4.398,14.176-6.617,21.688-6.617c10.436,0,18.903,4.32,22.973,6.864L99.081,160.435z"/>
		</g>
	</g>
</g>
<g>
</g>
<g>
</g>
<g>
</g>
<g>
</g>
<g>
</g>
<g>
</g>
<g>
</g>
<g>
</g>
<g>
</g>
<g>
</g>
<g>
</g>
<g>
</g>
<g>
</g>
<g>
</g>
<g>
</g>
</svg>
