<?xml version="1.0" encoding="iso-8859-1"?>
<!-- Generator: Adobe Illustrator 18.1.1, SVG Export Plug-In . SVG Version: 6.00 Build 0)  -->
<svg version="1.1" id="Capa_1" xmlns="http://www.w3.org/2000/svg" xmlns:xlink="http://www.w3.org/1999/xlink" x="0px" y="0px"
	 viewBox="0 0 167.579 167.579" style="enable-background:new 0 0 167.579 167.579;" xml:space="preserve">
<g>
	<g>
		<path style="fill:#010002;" d="M147.917,25.461l18.46-18.467c1.603-1.6,1.603-4.194,0-5.794s-4.187-1.6-5.791,0l-18.46,18.467
			L123.656,1.2c-1.603-1.6-4.191-1.6-5.794,0s-1.603,4.194,0,5.794l18.456,18.467l-17.909,17.916
			C90.494,18.493,47.576,19.362,20.81,46.129c-27.747,27.743-27.747,72.894,0,100.637c27.747,27.75,72.89,27.75,100.637,0
			c26.766-26.763,27.632-69.68,2.756-97.592l17.923-17.916l18.46,18.467c1.603,1.6,4.187,1.6,5.791,0
			c1.603-1.603,1.603-4.191,0-5.794L147.917,25.461z M115.696,141.011c-24.569,24.565-64.559,24.565-89.131,0
			c-24.576-24.572-24.576-64.562,0-89.138s64.562-24.576,89.131,0C140.276,76.452,140.276,116.439,115.696,141.011z"/>
	</g>
</g>
<g>
</g>
<g>
</g>
<g>
</g>
<g>
</g>
<g>
</g>
<g>
</g>
<g>
</g>
<g>
</g>
<g>
</g>
<g>
</g>
<g>
</g>
<g>
</g>
<g>
</g>
<g>
</g>
<g>
</g>
</svg>
