<?xml version="1.0" encoding="iso-8859-1"?>
<!-- Generator: Adobe Illustrator 18.1.1, SVG Export Plug-In . SVG Version: 6.00 Build 0)  -->
<svg version="1.1" id="Capa_1" xmlns="http://www.w3.org/2000/svg" xmlns:xlink="http://www.w3.org/1999/xlink" x="0px" y="0px"
	 viewBox="0 0 168.235 168.235" style="enable-background:new 0 0 168.235 168.235;" xml:space="preserve">
<g>
	<g>
		<path style="fill:#010002;" d="M166.785,159.824L95.494,88.516c8.081-9.681,12.501-21.759,12.501-34.522
			c0-14.423-5.619-27.979-15.822-38.179C81.981,5.615,68.417,0,53.994,0S26.018,5.615,15.819,15.815C5.619,26.011,0,39.571,0,53.994
			C0,68.42,5.619,81.977,15.819,92.173s23.753,15.815,38.176,15.815c12.766,0,24.848-4.413,34.525-12.501l71.305,71.305
			c0.956,0.966,2.212,1.442,3.486,1.442c1.263,0,2.52-0.48,3.475-1.442C168.718,164.87,168.718,161.75,166.785,159.824z
			 M22.794,85.202C14.455,76.867,9.867,65.783,9.867,53.994s4.592-22.872,12.927-31.208c8.332-8.335,19.415-12.927,31.2-12.927
			c11.799,0,22.876,4.592,31.215,12.927c8.324,8.335,12.916,19.415,12.916,31.208c0,11.789-4.592,22.869-12.916,31.208
			c-8.346,8.335-19.426,12.927-31.215,12.927C42.209,98.129,31.125,93.537,22.794,85.202z"/>
		<path style="fill:#010002;" d="M75.428,50.107H32.557c-1.607,0-2.906,1.299-2.906,2.906s1.299,2.91,2.906,2.91h42.871
			c1.614,0,2.913-1.303,2.913-2.91S77.042,50.107,75.428,50.107z"/>
	</g>
</g>
<g>
</g>
<g>
</g>
<g>
</g>
<g>
</g>
<g>
</g>
<g>
</g>
<g>
</g>
<g>
</g>
<g>
</g>
<g>
</g>
<g>
</g>
<g>
</g>
<g>
</g>
<g>
</g>
<g>
</g>
</svg>
